<?xml version="1.0" standalone="no"?>
<!DOCTYPE svg PUBLIC "-//W3C//DTD SVG 1.1//EN" "http://www.w3.org/Graphics/SVG/1.1/DTD/svg11.dtd" >
<svg xmlns="http://www.w3.org/2000/svg" xmlns:xlink="http://www.w3.org/1999/xlink" version="1.1">
<metadata>
Created by FontForge 20170731 at Tue Jul  6 17:57:02 2021
 By Aleksey,,,
Copyright (c) 2020 by Oliver Jeschke. All rights reserved.
</metadata>
<defs>
<font id="Sequel100Wide-75" horiz-adv-x="771" >
  <font-face 
    font-family="Sequel 100 Wide 75"
    font-weight="40"
    font-stretch="expanded"
    units-per-em="1000"
    panose-1="2 11 6 3 5 0 0 2 0 4"
    ascent="800"
    descent="-200"
    x-height="540"
    cap-height="714"
    bbox="-261 -439 1592 1069"
    underline-thickness="50"
    underline-position="-150"
    unicode-range="U+000D-FB02"
  />
<missing-glyph horiz-adv-x="686" 
d="M38 1069h609v-1508h-609v1508zM569 1004h-453v-1377h453v1377zM156 391q10 152 183 152q79 0 128.5 -35.5t49.5 -100.5q0 -39 -18.5 -60t-52.5 -39q-31 -16 -41.5 -25.5t-10.5 -25.5v-3h-118v16q0 37 15.5 58t57.5 46q16 10 24 19t8 22q0 14 -11 23t-32 9
q-22 0 -35 -14.5t-14 -41.5h-133zM405 93h-140v123h140v-123z" />
    <glyph glyph-name="f_f" unicode="ff" horiz-adv-x="885" 
d="M732.5 602q-24.5 -12 -20.5 -51l1 -11h143v-122h-143v-418h-196v418h-215v-418h-197v418h-91v122h91v38q0 97 62.5 135t190.5 38q37 0 63.5 -3t34.5 -3v-135q-6 0 -22 2t-37 2q-51 0 -76 -12t-20 -51l1 -11h215v38q0 97 62 135t190 38q37 0 64 -3t35 -3v-135q-6 0 -22 2
t-37 2q-52 0 -76.5 -12z" />
    <glyph glyph-name="f_i" unicode="fi" horiz-adv-x="759" 
d="M321 602q-25 -12 -20 -51l1 -11h142v-122h-142v-418h-197v418h-91v122h91v38q0 97 62.5 135t190.5 38q37 0 63.5 -3t34.5 -3v-135q-6 0 -22 2t-37 2q-51 0 -76 -12zM707 0h-197v540h197v-540zM709 609h-201v119h201v-119z" />
    <glyph glyph-name="f_l" unicode="fl" horiz-adv-x="774" 
d="M321 602q-25 -12 -20 -51l1 -11h142v-122h-142v-418h-197v418h-91v122h91v38q0 97 62.5 135t190.5 38q37 0 63.5 -3t34.5 -3v-135q-6 0 -22 2t-37 2q-51 0 -76 -12zM722 0h-197v724h197v-724z" />
    <glyph glyph-name=".notdef" horiz-adv-x="686" 
d="M38 1069h609v-1508h-609v1508zM569 1004h-453v-1377h453v1377zM156 391q10 152 183 152q79 0 128.5 -35.5t49.5 -100.5q0 -39 -18.5 -60t-52.5 -39q-31 -16 -41.5 -25.5t-10.5 -25.5v-3h-118v16q0 37 15.5 58t57.5 46q16 10 24 19t8 22q0 14 -11 23t-32 9
q-22 0 -35 -14.5t-14 -41.5h-133zM405 93h-140v123h140v-123z" />
    <glyph glyph-name=".null" horiz-adv-x="0" 
 />
    <glyph glyph-name="nonmarkingreturn" unicode="&#xd;" horiz-adv-x="138" 
 />
    <glyph glyph-name="space" unicode=" " horiz-adv-x="340" 
 />
    <glyph glyph-name="exclam" unicode="!" horiz-adv-x="349" 
d="M286 583l-31 -341h-162l-30 341v131h223v-131zM280 0h-211v182h211v-182z" />
    <glyph glyph-name="quotedbl" unicode="&#x22;" horiz-adv-x="495" 
d="M198 714v-337h-161v337h161zM458 714v-337h-161l1 337h160z" />
    <glyph glyph-name="numbersign" unicode="#" horiz-adv-x="746" 
d="M727 516l-25 -101h-117l-31 -130h121l-26 -100h-118l-43 -185h-127l43 185h-139l-43 -185h-127l43 185h-119l25 100h118l30 130h-120l24 101h120l43 184h127l-43 -184h139l43 184h126l-43 -184h119zM289 285h139l30 130h-139z" />
    <glyph glyph-name="dollar" unicode="$" horiz-adv-x="822" 
d="M699.5 42q-91.5 -50 -270.5 -53v-106h-60v106q-111 3 -187 25.5t-119.5 76t-46.5 146.5h217q6 -55 40 -79.5t96 -28.5v155l-116 15q-108 14 -163.5 60t-55.5 137q0 112 88.5 161.5t246.5 53.5v82h60v-82q157 -5 246.5 -56.5t92.5 -168.5h-216q-5 42 -36 62.5t-87 25.5
v-137l145 -17q107 -13 162 -61t55 -144q0 -123 -91.5 -173zM369 444v131q-58 -3 -87.5 -20.5t-29.5 -46.5q0 -28 20.5 -41t62.5 -19zM429 128q138 6 138 74q-1 33 -25.5 48t-71.5 21l-41 5v-148z" />
    <glyph glyph-name="percent" unicode="%" horiz-adv-x="1127" 
d="M420 664q55 -50 55 -154t-55 -154t-167 -50q-113 0 -167.5 49.5t-54.5 154.5t54.5 154.5t167.5 49.5q112 0 167 -50zM278 0l449 700h122l-449 -700h-122zM312.5 431q20.5 23 20.5 79t-20.5 79t-59.5 23q-40 0 -60.5 -23t-20.5 -79t20.5 -79t60.5 -23q39 0 59.5 23z
M1041.5 344.5q54.5 -49.5 54.5 -154.5q0 -104 -54.5 -154t-167.5 -50q-112 0 -167 50t-55 154t55 154t167 50q113 0 167.5 -49.5zM934 111q21 23 21 79t-20.5 79t-60.5 23q-39 0 -59.5 -23t-20.5 -79q0 -55 20.5 -78.5t59.5 -23.5t60 23z" />
    <glyph glyph-name="ampersand" unicode="&#x26;" horiz-adv-x="953" 
d="M952 0h-248l-53 45q-55 -29 -120 -44t-134 -15q-177 0 -269.5 51t-92.5 164q0 73 36.5 114.5t120.5 71.5l41 15l-10 9q-49 42 -68.5 72.5t-19.5 75.5q0 84 76 127.5t223 43.5q148 0 224.5 -43t76.5 -128q0 -55 -31.5 -86.5t-94.5 -57.5l-96 -40l127 -108q24 51 24 112
h186q0 -134 -73 -229zM407 465l52 19q35 13 52.5 27.5t17.5 37.5q0 28 -22.5 45.5t-72.5 17.5t-72.5 -17.5t-22.5 -45.5q0 -16 13 -31.5t44 -42.5zM530 149l-184 157l-5 -2q-88 -35 -88 -98q0 -40 37.5 -64.5t106.5 -24.5q72 0 133 32z" />
    <glyph glyph-name="quotesingle" unicode="'" horiz-adv-x="234" 
d="M198 714v-337h-161v337h161z" />
    <glyph glyph-name="parenleft" unicode="(" horiz-adv-x="425" 
d="M228 -172q-206 172 -206 456q0 283 206 455h175q-78 -78 -123.5 -201.5t-45.5 -253.5q0 -131 45.5 -254t123.5 -202h-175z" />
    <glyph glyph-name="parenright" unicode=")" horiz-adv-x="425" 
d="M25 -172q78 79 123.5 202t45.5 254q0 130 -45.5 253.5t-123.5 201.5h175q206 -172 206 -455q0 -284 -206 -456h-175z" />
    <glyph glyph-name="asterisk" unicode="*" horiz-adv-x="512" 
d="M417 662l64 -91l-133 -83l133 -81l-64 -91l-105 78l2 -130h-117l2 130l-105 -78l-63 91l132 81l-132 83l63 91l105 -77l-2 129h117l-2 -129z" />
    <glyph glyph-name="plus" unicode="+" horiz-adv-x="662" 
d="M401 392h194v-132h-194v-199h-139v199h-195v132h195v197h139v-197z" />
    <glyph glyph-name="comma" unicode="," horiz-adv-x="339" 
d="M279 46q0 -129 -52.5 -184t-166.5 -56v75q49 1 71.5 33t22.5 86h-94v190h219v-144z" />
    <glyph glyph-name="hyphen" unicode="-" horiz-adv-x="424" 
d="M391 361v-144h-359v144h359z" />
    <glyph glyph-name="period" unicode="." horiz-adv-x="339" 
d="M279 0h-219v190h219v-190z" />
    <glyph glyph-name="slash" unicode="/" horiz-adv-x="491" 
d="M11 0l300 714h158l-301 -714h-157z" />
    <glyph glyph-name="zero" unicode="0" horiz-adv-x="896" 
d="M759 625q103 -95 103 -276q0 -180 -103 -275t-311 -95t-310.5 95t-102.5 275q0 181 102.5 276t310.5 95t311 -95zM601.5 186q47.5 55 47.5 163t-47.5 163t-153.5 55q-105 0 -153 -55t-48 -163t48 -163t153 -55q106 0 153.5 55z" />
    <glyph glyph-name="one" unicode="1" horiz-adv-x="496" 
d="M436 699v-699h-203v434h-209v136h54q85 0 126.5 32.5t58.5 96.5h173z" />
    <glyph glyph-name="two" unicode="2" horiz-adv-x="828" 
d="M379 216q-46 -14 -78.5 -32.5t-41.5 -34.5h528v-149h-761v21q0 99 43.5 164t104 100t138.5 62l138 50q60 22 86 42.5t26 56.5q0 76 -144 76q-69 0 -113.5 -28t-48.5 -91h-220q8 140 103 203.5t271 63.5q184 0 279.5 -48.5t95.5 -168.5q0 -99 -61.5 -152.5t-180.5 -84.5z
" />
    <glyph glyph-name="three" unicode="3" horiz-adv-x="827" 
d="M666 364q65 -15 97.5 -54.5t32.5 -110.5q0 -80 -39 -128t-124.5 -70t-229.5 -22q-135 0 -218 25.5t-122.5 80t-44.5 145.5h217q4 -54 46 -78.5t122 -24.5q82 0 126.5 18t44.5 62q0 46 -34 66t-106 20h-128v132h134q62 0 93 19t31 60q0 74 -161 74q-145 0 -155 -94h-207
q8 125 96.5 180.5t265.5 55.5q130 0 211 -19.5t121.5 -64.5t40.5 -122q0 -61 -27.5 -98t-82.5 -47v-5z" />
    <glyph glyph-name="four" unicode="4" horiz-adv-x="817" 
d="M478 0v145h-460v153l417 401h238v-415h119v-139h-119v-145h-195zM218 284h260v250h-6l-254 -244v-6z" />
    <glyph glyph-name="five" unicode="5" horiz-adv-x="826" 
d="M744 699v-140h-496l-6 -110h6q84 43 192 43q124 0 201.5 -25.5t115.5 -81t38 -145.5q0 -92 -39.5 -149t-123.5 -84.5t-221 -27.5q-196 0 -285 56.5t-95 171.5h222q6 -40 43.5 -60t114.5 -20q84 0 124.5 25t40.5 84t-40 84.5t-122 25.5q-95 0 -153 -32h-207l21 385h669z
" />
    <glyph glyph-name="six" unicode="6" horiz-adv-x="846" 
d="M726.5 399q88.5 -56 88.5 -172q0 -121 -93.5 -184.5t-284.5 -63.5q-141 0 -229.5 38t-130.5 119t-42 212q0 184 97 278t303 94q129 0 210.5 -32t118.5 -81t43 -105h-217q-7 38 -46 58t-102 20q-91 0 -141 -39t-56 -141h6q35 26 93.5 40.5t116.5 14.5q177 0 265.5 -56z
M306.5 295.5q-44.5 -24.5 -44.5 -74.5q0 -52 44.5 -77t124.5 -25q164 0 164 102q0 99 -164 99q-80 0 -124.5 -24.5z" />
    <glyph glyph-name="seven" unicode="7" horiz-adv-x="783" 
d="M14 699h746v-83q0 -40 -13 -73t-39 -69.5t-80 -101.5q-56 -65 -91 -115t-59.5 -113.5t-30.5 -143.5h-263q9 120 74 219.5t170 201.5q21 23 36 38.5t25 25.5q39 39 48 50v4h-523v160z" />
    <glyph glyph-name="eight" unicode="8" horiz-adv-x="860" 
d="M719.5 672q92.5 -48 92.5 -158t-117 -145v-5q66 -15 98 -55.5t32 -115.5q0 -113 -94.5 -163.5t-300.5 -50.5t-300.5 50.5t-94.5 163.5q0 75 32 115t97 56v5q-117 35 -117 145t93 158t290 48t289.5 -48zM302.5 560q-42.5 -18 -42.5 -60q0 -41 43 -59t127 -18t127 18t43 59
q0 42 -42.5 60t-127.5 18t-127.5 -18zM560.5 139q41.5 19 41.5 67t-42.5 67.5t-129.5 19.5q-88 0 -130.5 -19.5t-42.5 -67.5t42 -67t131 -19t130.5 19z" />
    <glyph glyph-name="nine" unicode="9" horiz-adv-x="835" 
d="M109 299.5q-88 55.5 -88 172.5q0 121 93.5 184.5t284.5 63.5q141 0 229.5 -38t130.5 -119.5t42 -212.5q0 -184 -97 -277.5t-303 -93.5q-130 0 -211.5 32t-118.5 81t-42 105h217q6 -38 45 -58t102 -20q91 0 141 39t56 141h-5q-35 -26 -94 -40.5t-117 -14.5
q-177 0 -265 55.5zM573 478q0 52 -44.5 77t-124.5 25q-164 0 -164 -102q0 -99 164 -99q169 0 169 99z" />
    <glyph glyph-name="colon" unicode=":" horiz-adv-x="331" 
d="M271 349h-211v182h211v-182zM271 0h-211v182h211v-182z" />
    <glyph glyph-name="semicolon" unicode=";" horiz-adv-x="331" 
d="M271 349h-211v182h211v-182zM271 46q0 -128 -51.5 -183.5t-159.5 -56.5v75q44 1 65 33.5t21 85.5h-86v182h211v-136z" />
    <glyph glyph-name="less" unicode="&#x3c;" horiz-adv-x="660" 
d="M67 267v111l526 214v-139l-323 -128v-6l323 -128v-139z" />
    <glyph glyph-name="equal" unicode="=" horiz-adv-x="662" 
d="M67 500h528v-131h-528v131zM67 281h528v-132h-528v132z" />
    <glyph glyph-name="greater" unicode="&#x3e;" horiz-adv-x="662" 
d="M67 592l528 -214v-111l-528 -215v139l324 128v6l-324 128v139z" />
    <glyph glyph-name="question" unicode="?" horiz-adv-x="746" 
d="M23 478q4 138 96.5 195t262.5 57q341 0 341 -201q0 -65 -32 -102.5t-94 -67.5l-51 -25q-44 -21 -57.5 -40t-14.5 -41l-1 -11h-194v24q0 58 23 92t79 63l66 33q30 16 43.5 31t13.5 36q0 31 -31.5 47.5t-91.5 16.5q-67 0 -107 -24t-43 -83h-208zM482 0h-211v182h211v-182z
" />
    <glyph glyph-name="at" unicode="@" horiz-adv-x="1053" 
d="M638 493h128l-62 -317q-1 -5 -1 -14q0 -12 6 -17.5t21 -5.5q42 0 79 20.5t61 67.5t24 122q0 89 -43.5 156t-124.5 104t-190 37q-104 0 -191 -51.5t-137 -142.5t-50 -203q0 -106 44 -183.5t124.5 -118.5t188.5 -41q77 0 139 18.5t123 57.5h147q-59 -78 -168 -128.5
t-245 -50.5q-142 0 -249.5 55.5t-167 157.5t-59.5 238q0 140 67 253.5t182.5 178.5t255.5 65q137 0 246 -51t170.5 -138.5t61.5 -194.5q0 -108 -44.5 -180.5t-115 -107t-149.5 -34.5q-49 0 -79.5 15.5t-37.5 43.5h-5q-29 -32 -65 -45.5t-82 -13.5q-80 0 -127 48t-47 131
q0 59 21.5 116t59.5 97q32 33 68.5 49.5t85.5 16.5q46 0 77.5 -16.5t43.5 -45.5h6zM442 362q-22 -29 -33.5 -63.5t-11.5 -68.5q0 -43 21 -66t59 -23q51 0 86 46q22 28 33.5 62.5t11.5 69.5q0 43 -21 65.5t-58 22.5q-51 0 -87 -45z" />
    <glyph glyph-name="A" unicode="A" horiz-adv-x="927" 
d="M926 0h-220l-55 125h-376l-55 -125h-219l333 714h261zM460 542l-118 -266h242l-118 266h-6z" />
    <glyph glyph-name="B" unicode="B" horiz-adv-x="890" 
d="M735 383q56 -15 87.5 -55.5t31.5 -119.5q0 -104 -58.5 -156t-188.5 -52h-547v714h531q238 0 238 -185q0 -57 -24.5 -92t-69.5 -49v-5zM534 432q39 0 58 16t19 51q0 34 -19 50t-58 16h-274v-133h274zM547 148q47 0 67.5 18.5t20.5 57.5t-20.5 57.5t-67.5 18.5h-287v-152
h287z" />
    <glyph glyph-name="C" unicode="C" horiz-adv-x="938" 
d="M666 441q-4 54 -52 91.5t-140 37.5q-105 0 -162.5 -55.5t-57.5 -157.5q0 -101 58 -157t162 -56q94 0 140 38.5t50 105.5h239q-2 -98 -55 -168t-149 -106t-225 -36q-131 0 -230 41.5t-154 126.5t-55 211t55 211t154 126.5t230 41.5q128 0 223.5 -35.5t148 -102
t55.5 -157.5h-235z" />
    <glyph glyph-name="D" unicode="D" horiz-adv-x="905" 
d="M474 714q197 0 296.5 -84.5t99.5 -272.5t-99.5 -272.5t-296.5 -84.5h-414v714h414zM260 552v-390h175q107 0 161.5 46t54.5 149t-54.5 149t-161.5 46h-175z" />
    <glyph glyph-name="E" unicode="E" horiz-adv-x="805" 
d="M750 557h-490v-119h471v-145h-471v-137h501v-156h-701v714h690v-157z" />
    <glyph glyph-name="F" unicode="F" horiz-adv-x="788" 
d="M751 714v-162h-491v-144h470v-152h-470v-256h-200v714h691z" />
    <glyph glyph-name="G" unicode="G" horiz-adv-x="966" 
d="M507 258v136h404v-394h-163v68q-93 -90 -256 -90q-213 0 -335 95.5t-122 283.5t120.5 283.5t328.5 95.5q132 0 225 -33.5t142.5 -93.5t55.5 -139h-234q-11 43 -55.5 71.5t-133.5 28.5q-111 0 -170.5 -55.5t-59.5 -157.5q0 -106 60.5 -162t177.5 -56q84 0 134.5 33.5
t59.5 85.5h-179z" />
    <glyph glyph-name="H" unicode="H" horiz-adv-x="912" 
d="M652 446v268h200v-714h-200v285l-392 -1v-284h-200v714h200v-268h392z" />
    <glyph glyph-name="I" unicode="I" horiz-adv-x="320" 
d="M260 714v-714h-200v714h200z" />
    <glyph glyph-name="J" unicode="J" horiz-adv-x="822" 
d="M761 302q0 -178 -96 -250.5t-274 -72.5q-179 0 -273 72.5t-94 250.5v54h200v-57q0 -84 44 -119.5t123 -35.5q170 0 170 155v415h200v-412z" />
    <glyph glyph-name="K" unicode="K" horiz-adv-x="891" 
d="M843 714l-283 -251l329 -463h-243l-232 334l-154 -136v-198h-200v714h200v-304l331 304h252z" />
    <glyph glyph-name="L" unicode="L" horiz-adv-x="784" 
d="M753 162v-162h-693v714h200v-552h493z" />
    <glyph glyph-name="M" unicode="M" horiz-adv-x="1087" 
d="M701 714h326v-714h-200v522h-5l-200 -522h-162l-203 530h-6v-530h-191v714h320l159 -451h5z" />
    <glyph glyph-name="N" unicode="N" horiz-adv-x="912" 
d="M661 253v461h191v-714h-230l-365 470h-6v-470h-191v714h237l358 -461h6z" />
    <glyph glyph-name="O" unicode="O" horiz-adv-x="972" 
d="M816 640.5q121 -95.5 121 -283.5t-121 -283.5t-330 -95.5t-330 95.5t-121 283.5t121 283.5t330 95.5t330 -95.5zM658 199.5q60 55.5 60 157.5t-60 157.5t-172 55.5q-113 0 -172.5 -55.5t-59.5 -157.5t59.5 -157.5t172.5 -55.5q112 0 172 55.5z" />
    <glyph glyph-name="P" unicode="P" horiz-adv-x="858" 
d="M567 714q142 0 205.5 -57t63.5 -177t-63.5 -177.5t-205.5 -57.5h-307v-245h-200v714h507zM523 392q49 0 71.5 20t22.5 62t-22.5 61.5t-71.5 19.5h-263v-163h263z" />
    <glyph glyph-name="Q" unicode="Q" horiz-adv-x="972" 
d="M890.5 161q-46.5 -81 -133.5 -126l51 -86l-129 -53l-56 94q-64 -12 -137 -12q-209 0 -330 95.5t-121 283.5t121 283.5t330 95.5t330 -95.5t121 -283.5q0 -115 -46.5 -196zM599 300l59 -100q60 54 60 157q0 102 -60 157.5t-172 55.5q-113 0 -172.5 -55.5t-59.5 -157.5
t59.5 -157.5t172.5 -55.5q17 0 43 2l-59 100z" />
    <glyph glyph-name="R" unicode="R" horiz-adv-x="889" 
d="M696 278l175 -278h-229l-148 246h-234v-246h-200v714h523q142 0 206 -56t64 -172q0 -91 -41 -137t-116 -64v-7zM542 396q46 0 67 19t21 58t-21 58t-67 19h-282v-154h282z" />
    <glyph glyph-name="S" unicode="S" horiz-adv-x="861" 
d="M579 499q-4 52 -48 73t-122 21q-72 0 -108 -18.5t-36 -52.5q0 -29 21.5 -43t65.5 -19l250 -29q113 -13 171 -64t58 -152q0 -92 -49.5 -144t-139 -72.5t-223.5 -20.5q-128 0 -214 22t-135.5 79.5t-53.5 159.5h228q4 -66 51 -90.5t133 -24.5q166 0 166 78q0 35 -25.5 50.5
t-75.5 22.5l-227 29q-114 13 -172.5 61.5t-58.5 144.5q0 123 101 174.5t280 51.5q180 0 282.5 -53t108.5 -184h-228z" />
    <glyph glyph-name="T" unicode="T" horiz-adv-x="796" 
d="M22 714h752v-164h-276v-550h-200v550h-276v164z" />
    <glyph glyph-name="U" unicode="U" horiz-adv-x="908" 
d="M647 714h200v-412q0 -178 -100.5 -250.5t-292.5 -72.5t-293 72.5t-101 250.5v412h200v-411q0 -88 50 -124t144 -36t143.5 36.5t49.5 123.5v411z" />
    <glyph glyph-name="V" unicode="V" horiz-adv-x="872" 
d="M-3 714h233l204 -490h5l204 490h232l-324 -714h-230z" />
    <glyph glyph-name="W" unicode="W" horiz-adv-x="1165" 
d="M1164 714l-214 -714h-245l-119 463h-5l-119 -463h-249l-212 714h223l120 -471h6l121 471h224l121 -471h6l121 471h221z" />
    <glyph glyph-name="X" unicode="X" horiz-adv-x="887" 
d="M851 714l-279 -336l317 -378h-261l-185 237l-185 -237h-260l317 378l-279 336h254l154 -207l154 207h253z" />
    <glyph glyph-name="Y" unicode="Y" horiz-adv-x="862" 
d="M630 714h237l-335 -468v-246h-201v246l-336 468h239l197 -295z" />
    <glyph glyph-name="Z" unicode="Z" horiz-adv-x="850" 
d="M807 714v-162l-445 -382h446v-170h-774v162l445 382h-420v170h748z" />
    <glyph glyph-name="bracketleft" unicode="[" horiz-adv-x="429" 
d="M398 613h-144v-659h144v-126h-338v911h338v-126z" />
    <glyph glyph-name="backslash" unicode="\" horiz-adv-x="502" 
d="M22 714h158l300 -714h-157z" />
    <glyph glyph-name="bracketright" unicode="]" horiz-adv-x="433" 
d="M179 -46v659h-144v126h338v-911h-338v126h144z" />
    <glyph glyph-name="asciicircum" unicode="^" horiz-adv-x="582" 
d="M222 700h139l191 -347h-141l-117 225h-5l-117 -225h-141z" />
    <glyph glyph-name="underscore" unicode="_" horiz-adv-x="746" 
d="M-2 -105h750v-60h-750v60z" />
    <glyph glyph-name="grave" unicode="`" horiz-adv-x="472" 
d="M242 599l-182 148h271l81 -148h-170z" />
    <glyph glyph-name="a" unicode="a" horiz-adv-x="746" 
d="M696 87q0 -30 3 -50t12 -31v-6h-193q-7 7 -11 22t-4 34v7q-39 -40 -104.5 -62t-144.5 -22q-60 0 -112 19t-84 59t-32 99q0 85 46 124.5t132 48.5l229 23q31 3 44.5 11.5t13.5 27.5q0 43 -108 43q-47 0 -77.5 -14t-33.5 -42h-207q4 97 90.5 140t225.5 43q151 0 233 -38
t82 -132v-304zM499 256q-13 -9 -53 -15l-144 -21q-35 -6 -53 -20t-18 -43q0 -58 88 -58q40 0 81.5 14t70 44.5t28.5 77.5v21z" />
    <glyph glyph-name="b" unicode="b" horiz-adv-x="790" 
d="M254 478q35 35 86 55t116 20q140 0 221.5 -75t81.5 -212t-81.5 -212t-221.5 -75q-66 0 -118.5 21.5t-86.5 61.5h-6v-62h-193v724h197v-246h5zM516 159.5q39 36.5 39 106.5t-39 106.5t-115 36.5t-117 -38t-41 -105t41 -105t117 -38t115 36.5z" />
    <glyph glyph-name="c" unicode="c" horiz-adv-x="775" 
d="M486.5 147q35.5 24 41.5 63h217q-14 -108 -98.5 -169.5t-262.5 -61.5q-173 0 -263.5 76t-90.5 215t90.5 215t263.5 76q178 0 261.5 -60.5t97.5 -167.5h-216q-6 36 -41 59.5t-102 23.5q-72 0 -110.5 -38t-38.5 -108t38.5 -108.5t110.5 -38.5q67 0 102.5 24z" />
    <glyph glyph-name="d" unicode="d" horiz-adv-x="790" 
d="M541 478v246h196v-724h-192v62h-6q-35 -40 -87 -61.5t-118 -21.5q-140 0 -222 75t-82 212t82 212t222 75q64 0 115 -20t86 -55h6zM506 161q41 38 41 105t-41 105t-117 38t-115 -36.5t-39 -106.5t39 -106.5t115 -36.5t117 38z" />
    <glyph glyph-name="e" unicode="e" horiz-adv-x="776" 
d="M743 221h-508q16 -113 154 -113q59 0 92 17t44 42h213q-6 -80 -86 -134t-263 -54q-176 0 -267.5 76t-91.5 215t91 215t267 76t267 -76t91 -215q0 -28 -3 -49zM240 342h296q-25 89 -148 89q-122 0 -148 -89z" />
    <glyph glyph-name="f" unicode="f" horiz-adv-x="473" 
d="M321 602q-25 -12 -20 -51l1 -11h142v-122h-142v-418h-197v418h-91v122h91v38q0 97 62.5 135t190.5 38q37 0 63.5 -3t34.5 -3v-135q-6 0 -22 2t-37 2q-51 0 -76 -12z" />
    <glyph glyph-name="g" unicode="g" horiz-adv-x="779" 
d="M534 540h193v-510q0 -77 -25.5 -125.5t-100 -75t-214.5 -26.5q-133 0 -206.5 27t-101.5 68.5t-32 97.5h214q9 -64 126 -64q59 0 90 11.5t42 32t11 54.5v85h-5q-32 -34 -84 -54t-115 -20q-137 0 -216.5 66.5t-79.5 189.5q0 124 79.5 190t216.5 66q65 0 118 -20.5t84 -57.5
h6v65zM495 212.5q39 30.5 39 84.5t-39 84.5t-113 30.5q-72 0 -109.5 -29.5t-37.5 -85.5q0 -55 37.5 -85t109.5 -30q74 0 113 30.5z" />
    <glyph glyph-name="h" unicode="h" 
d="M653.5 501.5q64.5 -51.5 64.5 -153.5v-348h-196v286q0 110 -123 110q-62 0 -106 -33.5t-44 -109.5v-253h-197v724h197v-252h5q43 42 99 61.5t127 19.5q109 0 173.5 -51.5z" />
    <glyph glyph-name="i" unicode="i" horiz-adv-x="301" 
d="M249 0h-197v540h197v-540zM251 609h-201v119h201v-119z" />
    <glyph glyph-name="j" unicode="j" horiz-adv-x="301" 
d="M40.5 -29q11.5 10 11.5 38v531h197v-584q0 -60 -19 -92.5t-63.5 -46.5t-124.5 -14q-51 0 -86 4v156q20 -2 50 -2q23 0 34.5 10zM251 609h-201v119h201v-119z" />
    <glyph glyph-name="k" unicode="k" horiz-adv-x="715" 
d="M690 540l-238 -211l260 -329h-234l-157 212l-72 -64v-148h-197v724h197v-377l209 193h232z" />
    <glyph glyph-name="l" unicode="l" horiz-adv-x="301" 
d="M249 0h-197v724h197v-724z" />
    <glyph glyph-name="m" unicode="m" horiz-adv-x="1175" 
d="M245 540v-71h6q35 43 93 63.5t124 20.5q71 0 120.5 -19.5t75.5 -65.5q40 44 102 64.5t135 20.5q99 0 160.5 -51.5t61.5 -153.5v-348h-197v299q0 97 -108 97q-54 0 -93 -29t-39 -97v-270h-197v299q0 97 -108 97q-54 0 -93 -29t-39 -97v-270h-197v540h193z" />
    <glyph glyph-name="n" unicode="n" 
d="M245 540v-68h6q46 42 102 61.5t127 19.5q109 0 173.5 -51.5t64.5 -153.5v-348h-196v286q0 110 -123 110q-62 0 -106 -33.5t-44 -109.5v-253h-197v540h193z" />
    <glyph glyph-name="o" unicode="o" horiz-adv-x="779" 
d="M657.5 485q91.5 -76 91.5 -215t-91.5 -215t-267.5 -76q-177 0 -268.5 76t-91.5 215t91.5 215t268.5 76q176 0 267.5 -76zM505.5 161.5q39.5 38.5 39.5 108.5t-39.5 108t-115.5 38t-115.5 -38t-39.5 -108t39.5 -108.5t115.5 -38.5t115.5 38.5z" />
    <glyph glyph-name="p" unicode="p" horiz-adv-x="790" 
d="M249 55v-238h-197v723h193v-70h6q34 40 86.5 61.5t118.5 21.5q140 0 221.5 -75t81.5 -212t-81.5 -212t-221.5 -75q-65 0 -115.5 20t-86.5 56h-5zM284 371q-41 -38 -41 -105t41 -105t117 -38t115 36.5t39 106.5t-39 106.5t-115 36.5t-117 -38z" />
    <glyph glyph-name="q" unicode="q" horiz-adv-x="790" 
d="M535 55q-36 -36 -86.5 -56t-114.5 -20q-140 0 -222 75t-82 212t82 212t222 75q66 0 118 -21.5t87 -61.5h6v70h192v-723h-196v238h-6zM274 372.5q-39 -36.5 -39 -106.5t39 -106.5t115 -36.5t117 38t41 105t-41 105t-117 38t-115 -36.5z" />
    <glyph glyph-name="r" unicode="r" horiz-adv-x="554" 
d="M52 540h193v-71h6q41 44 98.5 64.5t136.5 20.5q20 0 46 -4v-191q-46 11 -90 11q-85 0 -139 -33.5t-54 -120.5v-216h-197v540z" />
    <glyph glyph-name="s" unicode="s" horiz-adv-x="736" 
d="M477 380q-3 31 -36.5 44.5t-92.5 13.5q-52 0 -77.5 -11.5t-25.5 -30.5q0 -18 13 -26t48 -12l198 -22q71 -8 114 -25.5t65.5 -53t22.5 -94.5q0 -71 -39.5 -111t-114 -56.5t-190.5 -16.5q-165 0 -252.5 41.5t-91.5 152.5h213q3 -39 35 -54t101 -15q66 0 94 13t28 36
q0 20 -14.5 29t-50.5 14l-184 24q-105 13 -155 48.5t-50 115.5q0 96 84 136.5t232 40.5q326 0 334 -181h-208z" />
    <glyph glyph-name="t" unicode="t" horiz-adv-x="473" 
d="M439 152v-152q-72 -9 -122 -9q-83 0 -130 16t-67 52t-20 99v260h-91v122h91v146h196v-146h143v-122h-143v-222q0 -26 16.5 -36.5t50.5 -10.5q50 0 76 3z" />
    <glyph glyph-name="u" unicode="u" 
d="M526 0v67h-6q-90 -81 -229 -81q-109 0 -174 51.5t-65 154.5v348h197v-286q0 -111 123 -111q61 0 105.5 33.5t44.5 109.5v254h196v-540h-192z" />
    <glyph glyph-name="v" unicode="v" horiz-adv-x="749" 
d="M377 203l146 337h222l-266 -540h-209l-266 540h222l146 -337h5z" />
    <glyph glyph-name="w" unicode="w" horiz-adv-x="1118" 
d="M892 540h218l-218 -540h-217l-111 330h-6l-111 -330h-216l-222 540h219l116 -329h5l111 328h201l115 -327h6z" />
    <glyph glyph-name="x" unicode="x" horiz-adv-x="764" 
d="M730 540l-218 -259l245 -281h-253l-121 162l-124 -162h-252l245 281l-219 259h240l110 -151l107 151h240z" />
    <glyph glyph-name="y" unicode="y" horiz-adv-x="749" 
d="M469 -22q-37 -75 -72 -111.5t-83 -50t-130 -13.5q-71 0 -103 1v160q56 -2 82 -2q39 0 58.5 8.5t29.5 30.5l11 24l-258 515h222l146 -337h5l146 337h222z" />
    <glyph glyph-name="z" unicode="z" horiz-adv-x="697" 
d="M657 142v-142h-628v149l331 249h-309v142h606v-147l-333 -251h333z" />
    <glyph glyph-name="braceleft" unicode="{" horiz-adv-x="455" 
d="M316 412q0 -56 -27.5 -87t-80.5 -39v-5q53 -9 80.5 -39.5t27.5 -86.5v-146q0 -32 15 -43t46 -11h48v-127h-137q-165 0 -165 126v169q0 50 -22 71t-70 21v137q48 0 70 21t22 70v170q0 125 165 125h137v-126h-48q-31 0 -46 -11.5t-15 -43.5v-145z" />
    <glyph glyph-name="bar" unicode="|" horiz-adv-x="307" 
d="M60 798h187v-1024h-187v1024z" />
    <glyph glyph-name="braceright" unicode="}" horiz-adv-x="452" 
d="M139 557q0 32 -15 43.5t-46 11.5h-48v126h137q165 0 165 -125v-170q0 -49 22 -70t70 -21v-137q-48 0 -70 -21t-22 -71v-169q0 -126 -165 -126h-137v127h48q31 0 46 11t15 43v146q0 56 27.5 86.5t80.5 39.5v5q-53 8 -80.5 39t-27.5 87v145z" />
    <glyph glyph-name="asciitilde" unicode="~" horiz-adv-x="662" 
d="M528.5 364q29.5 20 66.5 62v-138q-60 -68 -125 -68q-32 0 -56 8.5t-53 22.5l-72 36q-27 14 -48.5 21.5t-48.5 7.5t-57.5 -20.5t-67.5 -64.5v138q57 71 125 71q28 0 51 -7t37.5 -14t18.5 -9l72 -36q24 -13 47.5 -21.5t51.5 -8.5q29 0 58.5 20z" />
    <glyph glyph-name="uni00A0" unicode="&#xa0;" horiz-adv-x="138" 
 />
    <glyph glyph-name="exclamdown" unicode="&#xa1;" horiz-adv-x="349" 
d="M69 357v182h211v-182h-211zM93 298h162l31 -342v-131h-223v131z" />
    <glyph glyph-name="cent" unicode="&#xa2;" horiz-adv-x="775" 
d="M745 210q-13 -104 -91 -164.5t-241 -66.5v-108h-60v109q-158 7 -240.5 82t-82.5 208t82.5 208t240.5 82v91h60v-90q163 -6 240 -66t90 -162h-216q-5 32 -33 54t-81 28v-291q54 6 82 29t33 57h217zM265.5 170.5q30.5 -37.5 87.5 -45.5v289q-58 -8 -88 -45t-30 -99
t30.5 -99.5z" />
    <glyph glyph-name="sterling" unicode="&#xa3;" horiz-adv-x="790" 
d="M505 151q34 -7 68 -7q53 0 92 10t77 38v-179q-22 -14 -60 -20.5t-80 -6.5q-63 0 -118.5 20t-113.5 55q-27 -36 -73.5 -55.5t-102.5 -19.5q-73 0 -116.5 33.5t-43.5 100.5q0 66 39 98t94 32q38 0 77 -18q-7 27 -29 58h-166v79h108q-64 71 -64 140q0 111 81 157.5t227 46.5
q148 0 237 -52t104 -186h-196q-14 98 -137 98q-55 0 -85.5 -19t-30.5 -59q0 -21 9 -41.5t25 -42t33 -42.5h190v-79h-139q23 -36 23 -73q0 -27 -7 -45q44 -14 78 -21zM223 91.5q16 14.5 22 44.5q-36 24 -57 24q-22 0 -34.5 -11.5t-12.5 -31.5q0 -18 13 -29t33 -11t36 14.5z
" />
    <glyph glyph-name="currency" unicode="&#xa4;" horiz-adv-x="666" 
d="M560 220l61 -59l-79 -70l-59 57q-68 -44 -151 -44q-82 0 -150 43l-58 -56l-79 70l60 59q-48 67 -48 148t48 148l-60 59l79 70l58 -56q68 43 150 43q83 0 151 -44l59 57l79 -70l-61 -59q47 -67 47 -148t-47 -148zM402.5 243.5q32.5 19.5 51.5 52.5t19 72t-19 72
t-51.5 52.5t-70.5 19.5t-70.5 -19.5t-51.5 -52.5t-19 -72t19 -72t51.5 -52.5t70.5 -19.5t70.5 19.5z" />
    <glyph glyph-name="yen" unicode="&#xa5;" horiz-adv-x="845" 
d="M617 700h233l-204 -285h89v-79h-145l-42 -58h187v-79h-213v-199h-198v199h-230v79h203l-41 58h-162v79h105l-204 285h234l194 -289z" />
    <glyph glyph-name="brokenbar" unicode="&#xa6;" horiz-adv-x="307" 
d="M60 798h187v-437h-187v437zM60 210h187v-436h-187v436z" />
    <glyph glyph-name="section" unicode="&#xa7;" horiz-adv-x="902" 
d="M783 91q20 -33 20 -82q0 -118 -91.5 -163.5t-267.5 -45.5q-112 0 -187 19.5t-118.5 70t-46.5 140.5h195q2 -59 44.5 -80t120.5 -21q73 0 110 16t38 51q0 26 -18.5 38t-50.5 19l-330 77q-95 23 -138 62t-43 114q0 105 116 150q-8 14 -13 34t-5 41q0 109 86 154t238 45
q149 0 237.5 -47t92.5 -162h-195q-5 84 -142 84q-56 0 -87 -16t-31 -46q0 -23 14.5 -33t41.5 -16l324 -73q91 -21 138 -62.5t47 -122.5q0 -99 -99 -145zM619 191q38 -8 57 -16q19 15 19 39q0 31 -24 46t-69 25l-304 70q-36 8 -61 17q-34 -15 -34 -46q0 -25 20 -37t59 -21z
" />
    <glyph glyph-name="dieresis" unicode="&#xa8;" horiz-adv-x="586" 
d="M245 609h-185v119h185v-119zM526 609h-185v119h185v-119z" />
    <glyph glyph-name="copyright" unicode="&#xa9;" horiz-adv-x="843" 
d="M228 34q-89 50 -141 136t-52 187t52 187t141 136t194 50t194 -50t141 -136t52 -187t-52 -187t-141 -136t-194 -50t-194 50zM583.5 88q73.5 42 117 113t43.5 156t-43.5 156t-117 113t-161.5 42t-161.5 -42t-117 -113t-43.5 -156t43.5 -156t117 -113t161.5 -42t161.5 42z
M625 301q-3 -44 -26.5 -81t-68 -59t-107.5 -22q-95 0 -153 56.5t-58 162.5q0 104 58 160.5t153 56.5q61 0 104 -20t66 -52.5t26 -70.5h-99q-11 65 -97 65q-51 0 -81.5 -34t-30.5 -105q0 -72 30.5 -106.5t81.5 -34.5q93 0 103 84h99z" />
    <glyph glyph-name="ordfeminine" unicode="&#xaa;" horiz-adv-x="494" 
d="M455 439q0 -19 1.5 -30t7.5 -19v-3h-130q-4 4 -7 13t-3 19v2q-23 -21 -63 -34t-88 -13q-59 0 -101 26.5t-42 79.5q0 52 29 76t82 29l140 13q20 2 28 7t8 16q0 25 -62 25q-26 0 -44 -8.5t-19 -24.5h-139q5 111 201 111q98 0 149.5 -22.5t51.5 -80.5v-182zM323 539
q-5 -4 -16.5 -5.5t-15.5 -2.5l-83 -13q-20 -3 -30 -11.5t-10 -24.5q0 -33 50 -33q39 0 72 20t33 58v12zM22 0v110h452v-110h-452z" />
    <glyph glyph-name="guillemotleft" unicode="&#xab;" horiz-adv-x="527" 
d="M41 171v202l199 146v-164l-113 -80v-5l113 -80v-164zM287 171v202l200 146v-164l-113 -80v-5l113 -80v-164z" />
    <glyph glyph-name="logicalnot" unicode="&#xac;" horiz-adv-x="662" 
d="M67 436h528v-282h-139v150h-389v132z" />
    <glyph glyph-name="registered" unicode="&#xae;" horiz-adv-x="843" 
d="M616 680q89 -50 141 -136t52 -187t-52 -187t-141 -136t-194 -50t-194 50t-141 136t-52 187t52 187t141 136t194 50t194 -50zM583 88q74 42 117.5 113.5t43.5 155.5t-43.5 155.5t-117.5 113.5t-161 42t-161 -42t-117.5 -113.5t-43.5 -155.5t43.5 -155.5t117.5 -113.5
t161 -42t161 42zM587 353q-23 -32 -67 -45l101 -160h-110l-92 151h-82v-151h-96v418h213q74 0 115 -35.5t41 -97.5q0 -48 -23 -80zM337 494v-124h99q37 0 56.5 16.5t19.5 46.5q0 28 -19.5 44.5t-56.5 16.5h-99z" />
    <glyph glyph-name="macron" unicode="&#xaf;" horiz-adv-x="576" 
d="M515 729v-115h-455v115h455z" />
    <glyph glyph-name="degree" unicode="&#xb0;" horiz-adv-x="352" 
d="M98 427q-35 19 -55.5 53.5t-20.5 79.5t20.5 79.5t55.5 53.5t78 19t78 -19t55.5 -53.5t20.5 -79.5t-20.5 -79.5t-55.5 -53.5t-78 -19t-78 19zM234 500q21 23 21 60q0 36 -21 59.5t-58 23.5t-58 -23.5t-21 -59.5q0 -37 21 -60t58 -23t58 23z" />
    <glyph glyph-name="plusminus" unicode="&#xb1;" horiz-adv-x="662" 
d="M401 434h194v-124h-194v-155h-139v155h-195v124h195v155h139v-155zM67 0v116h528v-116h-528z" />
    <glyph glyph-name="uni00B2" unicode="&#xb2;" horiz-adv-x="512" 
d="M230 628q-26 -8 -43.5 -18t-23.5 -19h317v-92h-464v13q0 60 27 99.5t63.5 60.5t85.5 38l80 27q35 12 50.5 24t15.5 32q0 41 -83 41q-39 0 -64 -16t-28 -51h-140q4 83 61 121t167 38q114 0 171.5 -29t57.5 -100q0 -59 -37 -90t-110 -51z" />
    <glyph glyph-name="uni00B3" unicode="&#xb3;" horiz-adv-x="503" 
d="M404 714q39 -9 59 -32t20 -65q0 -48 -23.5 -76.5t-76 -42t-140.5 -13.5q-124 0 -177.5 34.5t-57.5 114.5h138q3 -30 27 -43.5t70 -13.5q47 0 72 10t25 35q0 26 -19 37t-59 11h-80v82h83q35 0 52.5 10.5t17.5 33.5q0 41 -92 41q-85 0 -89 -52h-132q4 75 57.5 108t163.5 33
q120 0 173.5 -27.5t53.5 -95.5q0 -37 -16.5 -58t-49.5 -28v-3z" />
    <glyph glyph-name="acute" unicode="&#xb4;" horiz-adv-x="472" 
d="M141 747h271l-182 -148h-170z" />
    <glyph glyph-name="paragraph" unicode="&#xb6;" horiz-adv-x="726" 
d="M665 713v-897h-133v785h-92v-785h-132v455h-15q-130 0 -196 57t-66 164t66.5 164t197.5 57h370z" />
    <glyph glyph-name="periodcentered" unicode="&#xb7;" horiz-adv-x="311" 
d="M67.5 225.5q-36.5 36.5 -36.5 88.5q0 53 36.5 89t88.5 36t88.5 -36.5t36.5 -88.5t-36.5 -88.5t-88.5 -36.5t-88.5 36.5z" />
    <glyph glyph-name="cedilla" unicode="&#xb8;" horiz-adv-x="459" 
d="M60 -153h6q41 -12 66.5 -16.5t62.5 -4.5q29 0 43.5 6.5t14.5 24.5q0 17 -14.5 23.5t-43.5 6.5q-18 0 -42.5 -2.5t-36.5 -5.5h-5v47l78 102h95l-58 -77q11 3 28 3q75 0 109.5 -23t34.5 -74q0 -57 -46 -81t-149 -24q-40 0 -73.5 3.5t-69.5 13.5v78z" />
    <glyph glyph-name="uni00B9" unicode="&#xb9;" horiz-adv-x="319" 
d="M269 912v-413h-129v251h-126v85h34q51 0 75.5 19.5t35.5 57.5h110z" />
    <glyph glyph-name="ordmasculine" unicode="&#xba;" horiz-adv-x="496" 
d="M417 678.5q57 -45.5 57 -129.5q0 -85 -56.5 -130t-170.5 -45q-113 0 -169 45t-56 130q0 84 56 129.5t169 45.5t170 -45.5zM314 488q22 22 22 61t-22 60.5t-67 21.5q-43 0 -65.5 -21.5t-22.5 -60.5t22.5 -61t65.5 -22q45 0 67 22zM22 0v110h452v-110h-452z" />
    <glyph glyph-name="guillemotright" unicode="&#xbb;" horiz-adv-x="521" 
d="M40 519l200 -146v-202l-200 -145v164l113 80v5l-113 80v164zM287 519l199 -146v-202l-199 -145v164l113 80v5l-113 80v164z" />
    <glyph glyph-name="questiondown" unicode="&#xbf;" horiz-adv-x="744" 
d="M263 539h211v-182h-211v182zM722 62q-4 -139 -97 -195.5t-262 -56.5q-341 0 -341 201q0 66 31.5 102.5t94.5 67.5l50 25q44 22 58 40t15 40v12h194v-25q0 -58 -22.5 -91.5t-78.5 -62.5l-67 -34q-30 -16 -43 -30.5t-13 -35.5q0 -31 31 -47.5t91 -16.5q67 0 107 24t43 83
h209z" />
    <glyph glyph-name="Agrave" unicode="&#xc0;" horiz-adv-x="927" 
d="M926 0h-220l-55 125h-376l-55 -125h-219l333 714h261zM460 542l-118 -266h242l-118 266h-6zM383 777l-182 148h271l81 -148h-170z" />
    <glyph glyph-name="Aacute" unicode="&#xc1;" horiz-adv-x="927" 
d="M926 0h-220l-55 125h-376l-55 -125h-219l333 714h261zM460 542l-118 -266h242l-118 266h-6zM465 925h271l-182 -148h-170z" />
    <glyph glyph-name="Acircumflex" unicode="&#xc2;" horiz-adv-x="927" 
d="M926 0h-220l-55 125h-376l-55 -125h-219l333 714h261zM460 542l-118 -266h242l-118 266h-6zM735 777h-206l-60 74h-5l-60 -74h-207l134 148h271z" />
    <glyph glyph-name="Atilde" unicode="&#xc3;" horiz-adv-x="927" 
d="M926 0h-220l-55 125h-376l-55 -125h-219l333 714h261zM460 542l-118 -266h242l-118 266h-6zM515 766.5q-26 7.5 -65 22.5q-7 2 -32 11t-39 9q-18 0 -24.5 -8.5t-7.5 -30.5h-134q0 55 22 91.5t56 54t70 17.5q25 0 52 -8t65 -22q53 -20 71 -20t24.5 8.5t7.5 30.5h134
q0 -55 -22.5 -91.5t-56.5 -54t-70 -17.5q-25 0 -51 7.5z" />
    <glyph glyph-name="Adieresis" unicode="&#xc4;" horiz-adv-x="927" 
d="M926 0h-220l-55 125h-376l-55 -125h-219l333 714h261zM460 542l-118 -266h242l-118 266h-6zM417 778h-185v119h185v-119zM698 778h-185v119h185v-119z" />
    <glyph glyph-name="Aring" unicode="&#xc5;" horiz-adv-x="927" 
d="M926 0h-220l-55 125h-376l-55 -125h-219l333 714h261zM460 542l-118 -266h242l-118 266h-6zM347 779.5q-48 36.5 -48 97.5q0 60 48 96.5t119 36.5q72 0 120 -36.5t48 -96.5q0 -61 -48 -97.5t-120 -36.5q-71 0 -119 36.5zM506.5 841.5q16.5 13.5 16.5 35.5t-16.5 35
t-40.5 13t-40.5 -13t-16.5 -35t16.5 -35.5t40.5 -13.5t40.5 13.5z" />
    <glyph glyph-name="AE" unicode="&#xc6;" horiz-adv-x="1381" 
d="M876 293v-137h462v-156h-654v125h-360l-85 -125h-239l505 714h821v-157h-450v-119h431v-145h-431zM618 557l-191 -281h257v281h-66z" />
    <glyph glyph-name="Ccedilla" unicode="&#xc7;" horiz-adv-x="938" 
d="M903 288q-4 -138 -104 -217.5t-273 -90.5l-21 -28q12 3 29 3q73 0 107.5 -23t34.5 -73q0 -56 -46.5 -79.5t-147.5 -23.5q-85 0 -140 16v76h6q37 -11 64 -15.5t62 -4.5q58 0 58 31q0 17 -15 23.5t-43 6.5q-18 0 -42 -2.5t-36 -5.5h-5v45l41 53q-183 10 -290 105.5
t-107 272.5q0 126 55 211t154 126.5t230 41.5q128 0 223.5 -35.5t148 -102t55.5 -157.5h-235q-4 54 -52 91.5t-140 37.5q-105 0 -162.5 -55.5t-57.5 -157.5q0 -101 58 -157t162 -56q94 0 140 38.5t50 105.5h239z" />
    <glyph glyph-name="Egrave" unicode="&#xc8;" horiz-adv-x="805" 
d="M750 557h-490v-119h471v-145h-471v-137h501v-156h-701v714h690v-157zM323 777l-182 148h271l81 -148h-170z" />
    <glyph glyph-name="Eacute" unicode="&#xc9;" horiz-adv-x="805" 
d="M750 557h-490v-119h471v-145h-471v-137h501v-156h-701v714h690v-157zM405 925h271l-182 -148h-170z" />
    <glyph glyph-name="Ecircumflex" unicode="&#xca;" horiz-adv-x="805" 
d="M750 557h-490v-119h471v-145h-471v-137h501v-156h-701v714h690v-157zM675 777h-206l-60 74h-5l-60 -74h-207l134 148h271z" />
    <glyph glyph-name="Edieresis" unicode="&#xcb;" horiz-adv-x="805" 
d="M750 557h-490v-119h471v-145h-471v-137h501v-156h-701v714h690v-157zM357 778h-185v119h185v-119zM638 778h-185v119h185v-119z" />
    <glyph glyph-name="Igrave" unicode="&#xcc;" horiz-adv-x="320" 
d="M260 714v-714h-200v714h200zM78 777l-182 148h271l81 -148h-170z" />
    <glyph glyph-name="Iacute" unicode="&#xcd;" horiz-adv-x="320" 
d="M260 714v-714h-200v714h200zM160 925h271l-182 -148h-170z" />
    <glyph glyph-name="Icircumflex" unicode="&#xce;" horiz-adv-x="320" 
d="M260 714v-714h-200v714h200zM430 777h-206l-60 74h-5l-60 -74h-207l134 148h271z" />
    <glyph glyph-name="Idieresis" unicode="&#xcf;" horiz-adv-x="320" 
d="M260 714v-714h-200v714h200zM112 778h-185v119h185v-119zM393 778h-185v119h185v-119z" />
    <glyph glyph-name="Eth" unicode="&#xd0;" horiz-adv-x="905" 
d="M474 714q197 0 296.5 -84.5t99.5 -272.5t-99.5 -272.5t-296.5 -84.5h-414v297h-74v121h74v296h414zM435 162q107 0 161.5 46t54.5 149t-54.5 149t-161.5 46h-175v-134h167v-121h-167v-135h175z" />
    <glyph glyph-name="Ntilde" unicode="&#xd1;" horiz-adv-x="912" 
d="M661 253v461h191v-714h-230l-365 470h-6v-470h-191v714h237l358 -461h6zM506 766.5q-26 7.5 -65 22.5q-7 2 -32 11t-39 9q-18 0 -24.5 -8.5t-7.5 -30.5h-134q0 55 22 91.5t56 54t70 17.5q25 0 52 -8t65 -22q53 -20 71 -20t24.5 8.5t7.5 30.5h134q0 -55 -22.5 -91.5
t-56.5 -54t-70 -17.5q-25 0 -51 7.5z" />
    <glyph glyph-name="Ograve" unicode="&#xd2;" horiz-adv-x="972" 
d="M816 640.5q121 -95.5 121 -283.5t-121 -283.5t-330 -95.5t-330 95.5t-121 283.5t121 283.5t330 95.5t330 -95.5zM658 199.5q60 55.5 60 157.5t-60 157.5t-172 55.5q-113 0 -172.5 -55.5t-59.5 -157.5t59.5 -157.5t172.5 -55.5q112 0 172 55.5zM404 777l-182 148h271
l81 -148h-170z" />
    <glyph glyph-name="Oacute" unicode="&#xd3;" horiz-adv-x="972" 
d="M816 640.5q121 -95.5 121 -283.5t-121 -283.5t-330 -95.5t-330 95.5t-121 283.5t121 283.5t330 95.5t330 -95.5zM658 199.5q60 55.5 60 157.5t-60 157.5t-172 55.5q-113 0 -172.5 -55.5t-59.5 -157.5t59.5 -157.5t172.5 -55.5q112 0 172 55.5zM486 925h271l-182 -148
h-170z" />
    <glyph glyph-name="Ocircumflex" unicode="&#xd4;" horiz-adv-x="972" 
d="M816 640.5q121 -95.5 121 -283.5t-121 -283.5t-330 -95.5t-330 95.5t-121 283.5t121 283.5t330 95.5t330 -95.5zM658 199.5q60 55.5 60 157.5t-60 157.5t-172 55.5q-113 0 -172.5 -55.5t-59.5 -157.5t59.5 -157.5t172.5 -55.5q112 0 172 55.5zM756 777h-206l-60 74h-5
l-60 -74h-207l134 148h271z" />
    <glyph glyph-name="Otilde" unicode="&#xd5;" horiz-adv-x="972" 
d="M816 640.5q121 -95.5 121 -283.5t-121 -283.5t-330 -95.5t-330 95.5t-121 283.5t121 283.5t330 95.5t330 -95.5zM658 199.5q60 55.5 60 157.5t-60 157.5t-172 55.5q-113 0 -172.5 -55.5t-59.5 -157.5t59.5 -157.5t172.5 -55.5q112 0 172 55.5zM536 766.5
q-26 7.5 -65 22.5q-7 2 -32 11t-39 9q-18 0 -24.5 -8.5t-7.5 -30.5h-134q0 55 22 91.5t56 54t70 17.5q25 0 52 -8t65 -22q53 -20 71 -20t24.5 8.5t7.5 30.5h134q0 -55 -22.5 -91.5t-56.5 -54t-70 -17.5q-25 0 -51 7.5z" />
    <glyph glyph-name="Odieresis" unicode="&#xd6;" horiz-adv-x="972" 
d="M816 640.5q121 -95.5 121 -283.5t-121 -283.5t-330 -95.5t-330 95.5t-121 283.5t121 283.5t330 95.5t330 -95.5zM658 199.5q60 55.5 60 157.5t-60 157.5t-172 55.5q-113 0 -172.5 -55.5t-59.5 -157.5t59.5 -157.5t172.5 -55.5q112 0 172 55.5zM438 778h-185v119h185v-119
zM719 778h-185v119h185v-119z" />
    <glyph glyph-name="multiply" unicode="&#xd7;" horiz-adv-x="641" 
d="M480 579l94 -93l-160 -160l160 -160l-94 -93l-159 160l-160 -160l-94 93l160 160l-160 160l94 93l160 -159z" />
    <glyph glyph-name="Oslash" unicode="&#xd8;" horiz-adv-x="972" 
d="M842 616q95 -95 95 -259q0 -188 -121 -283.5t-330 -95.5q-171 0 -283 64l-91 -82l-73 56l91 82q-95 95 -95 259q0 188 121 283.5t330 95.5q171 0 283 -64l91 82l73 -56zM284 236l338 304q-54 30 -136 30q-113 0 -172.5 -55.5t-59.5 -157.5q0 -72 30 -121zM658 199.5
q60 55.5 60 157.5q0 72 -30 121l-338 -304q54 -30 136 -30q112 0 172 55.5z" />
    <glyph glyph-name="Ugrave" unicode="&#xd9;" horiz-adv-x="908" 
d="M647 714h200v-412q0 -178 -100.5 -250.5t-292.5 -72.5t-293 72.5t-101 250.5v412h200v-411q0 -88 50 -124t144 -36t143.5 36.5t49.5 123.5v411zM372 777l-182 148h271l81 -148h-170z" />
    <glyph glyph-name="Uacute" unicode="&#xda;" horiz-adv-x="908" 
d="M647 714h200v-412q0 -178 -100.5 -250.5t-292.5 -72.5t-293 72.5t-101 250.5v412h200v-411q0 -88 50 -124t144 -36t143.5 36.5t49.5 123.5v411zM454 925h271l-182 -148h-170z" />
    <glyph glyph-name="Ucircumflex" unicode="&#xdb;" horiz-adv-x="908" 
d="M647 714h200v-412q0 -178 -100.5 -250.5t-292.5 -72.5t-293 72.5t-101 250.5v412h200v-411q0 -88 50 -124t144 -36t143.5 36.5t49.5 123.5v411zM724 777h-206l-60 74h-5l-60 -74h-207l134 148h271z" />
    <glyph glyph-name="Udieresis" unicode="&#xdc;" horiz-adv-x="908" 
d="M647 714h200v-412q0 -178 -100.5 -250.5t-292.5 -72.5t-293 72.5t-101 250.5v412h200v-411q0 -88 50 -124t144 -36t143.5 36.5t49.5 123.5v411zM406 778h-185v119h185v-119zM687 778h-185v119h185v-119z" />
    <glyph glyph-name="Yacute" unicode="&#xdd;" horiz-adv-x="862" 
d="M630 714h237l-335 -468v-246h-201v246l-336 468h239l197 -295zM432 925h271l-182 -148h-170z" />
    <glyph glyph-name="Thorn" unicode="&#xde;" horiz-adv-x="871" 
d="M567 613q142 0 205.5 -57t63.5 -177t-63.5 -177.5t-205.5 -57.5h-307v-144h-200v714h200v-101h307zM523 292q49 0 71.5 19.5t22.5 61.5t-22.5 62t-71.5 20h-263v-163h263z" />
    <glyph glyph-name="germandbls" unicode="&#xdf;" horiz-adv-x="813" 
d="M617 412q85 -9 125.5 -59t40.5 -131q0 -80 -31.5 -132t-103.5 -79t-193 -27q-36 0 -71 3.5t-55 10.5v148q51 -15 112 -15q59 0 98 24.5t39 72.5q0 51 -39.5 74t-116.5 23h-93v122h83q46 0 76 19.5t30 56.5q0 67 -117 67q-67 0 -109 -27.5t-42 -104.5v-458h-198v466
q0 145 84 208t265 63q175 0 248 -48.5t73 -140.5q0 -105 -105 -131v-5z" />
    <glyph glyph-name="agrave" unicode="&#xe0;" horiz-adv-x="746" 
d="M696 87q0 -30 3 -50t12 -31v-6h-193q-7 7 -11 22t-4 34v7q-39 -40 -104.5 -62t-144.5 -22q-60 0 -112 19t-84 59t-32 99q0 85 46 124.5t132 48.5l229 23q31 3 44.5 11.5t13.5 27.5q0 43 -108 43q-47 0 -77.5 -14t-33.5 -42h-207q4 97 90.5 140t225.5 43q151 0 233 -38
t82 -132v-304zM499 256q-13 -9 -53 -15l-144 -21q-35 -6 -53 -20t-18 -43q0 -58 88 -58q40 0 81.5 14t70 44.5t28.5 77.5v21zM300 600l-182 148h271l81 -148h-170z" />
    <glyph glyph-name="aacute" unicode="&#xe1;" horiz-adv-x="746" 
d="M696 87q0 -30 3 -50t12 -31v-6h-193q-7 7 -11 22t-4 34v7q-39 -40 -104.5 -62t-144.5 -22q-60 0 -112 19t-84 59t-32 99q0 85 46 124.5t132 48.5l229 23q31 3 44.5 11.5t13.5 27.5q0 43 -108 43q-47 0 -77.5 -14t-33.5 -42h-207q4 97 90.5 140t225.5 43q151 0 233 -38
t82 -132v-304zM499 256q-13 -9 -53 -15l-144 -21q-35 -6 -53 -20t-18 -43q0 -58 88 -58q40 0 81.5 14t70 44.5t28.5 77.5v21zM373 748h271l-182 -148h-170z" />
    <glyph glyph-name="acircumflex" unicode="&#xe2;" horiz-adv-x="746" 
d="M696 87q0 -30 3 -50t12 -31v-6h-193q-7 7 -11 22t-4 34v7q-39 -40 -104.5 -62t-144.5 -22q-60 0 -112 19t-84 59t-32 99q0 85 46 124.5t132 48.5l229 23q31 3 44.5 11.5t13.5 27.5q0 43 -108 43q-47 0 -77.5 -14t-33.5 -42h-207q4 97 90.5 140t225.5 43q151 0 233 -38
t82 -132v-304zM499 256q-13 -9 -53 -15l-144 -21q-35 -6 -53 -20t-18 -43q0 -58 88 -58q40 0 81.5 14t70 44.5t28.5 77.5v21zM650 600h-206l-60 74h-5l-60 -74h-207l134 148h271z" />
    <glyph glyph-name="atilde" unicode="&#xe3;" horiz-adv-x="746" 
d="M696 87q0 -30 3 -50t12 -31v-6h-193q-7 7 -11 22t-4 34v7q-39 -40 -104.5 -62t-144.5 -22q-60 0 -112 19t-84 59t-32 99q0 85 46 124.5t132 48.5l229 23q31 3 44.5 11.5t13.5 27.5q0 43 -108 43q-47 0 -77.5 -14t-33.5 -42h-207q4 97 90.5 140t225.5 43q151 0 233 -38
t82 -132v-304zM499 256q-13 -9 -53 -15l-144 -21q-35 -6 -53 -20t-18 -43q0 -58 88 -58q40 0 81.5 14t70 44.5t28.5 77.5v21zM431 589.5q-26 7.5 -65 22.5q-7 2 -32 11t-39 9q-18 0 -24.5 -8.5t-7.5 -30.5h-134q0 55 22 91.5t56 54t70 17.5q25 0 52 -8t65 -22q53 -20 71 -20
t24.5 8.5t7.5 30.5h134q0 -55 -22.5 -91.5t-56.5 -54t-70 -17.5q-25 0 -51 7.5z" />
    <glyph glyph-name="adieresis" unicode="&#xe4;" horiz-adv-x="746" 
d="M696 87q0 -30 3 -50t12 -31v-6h-193q-7 7 -11 22t-4 34v7q-39 -40 -104.5 -62t-144.5 -22q-60 0 -112 19t-84 59t-32 99q0 85 46 124.5t132 48.5l229 23q31 3 44.5 11.5t13.5 27.5q0 43 -108 43q-47 0 -77.5 -14t-33.5 -42h-207q4 97 90.5 140t225.5 43q151 0 233 -38
t82 -132v-304zM499 256q-13 -9 -53 -15l-144 -21q-35 -6 -53 -20t-18 -43q0 -58 88 -58q40 0 81.5 14t70 44.5t28.5 77.5v21zM333 610h-185v119h185v-119zM614 610h-185v119h185v-119z" />
    <glyph glyph-name="aring" unicode="&#xe5;" horiz-adv-x="746" 
d="M696 87q0 -30 3 -50t12 -31v-6h-193q-7 7 -11 22t-4 34v7q-39 -40 -104.5 -62t-144.5 -22q-60 0 -112 19t-84 59t-32 99q0 85 46 124.5t132 48.5l229 23q31 3 44.5 11.5t13.5 27.5q0 43 -108 43q-47 0 -77.5 -14t-33.5 -42h-207q4 97 90.5 140t225.5 43q151 0 233 -38
t82 -132v-304zM499 256q-13 -9 -53 -15l-144 -21q-35 -6 -53 -20t-18 -43q0 -58 88 -58q40 0 81.5 14t70 44.5t28.5 77.5v21zM262 623.5q-48 36.5 -48 97.5q0 60 48 96.5t119 36.5q72 0 120 -36.5t48 -96.5q0 -61 -48 -97.5t-120 -36.5q-71 0 -119 36.5zM421.5 685.5
q16.5 13.5 16.5 35.5t-16.5 35t-40.5 13t-40.5 -13t-16.5 -35t16.5 -35.5t40.5 -13.5t40.5 13.5z" />
    <glyph glyph-name="ae" unicode="&#xe6;" horiz-adv-x="1212" 
d="M1178 221h-488q7 -57 43 -85t101 -28q100 0 126 59h214q-6 -81 -83 -134.5t-257 -53.5q-92 0 -160 26.5t-98 74.5q-43 -53 -111.5 -77t-174.5 -24q-120 0 -192 44t-72 133q0 85 46 124.5t132 48.5l229 23q31 3 44.5 11.5t13.5 27.5q0 43 -108 43q-47 0 -77.5 -14
t-33.5 -42h-207q4 97 90.5 140t225.5 43q185 0 233 -63q30 30 88.5 46.5t130.5 16.5q172 0 260 -76t88 -215q0 -28 -3 -49zM695 342h276q-23 89 -138 89q-113 0 -138 -89zM499 256q-13 -9 -53 -15l-144 -21q-35 -6 -53 -20t-18 -43q0 -58 88 -58q40 0 81.5 14t70 44.5
t28.5 77.5v21z" />
    <glyph glyph-name="ccedilla" unicode="&#xe7;" horiz-adv-x="775" 
d="M745 210q-13 -100 -85 -160t-223 -69l-23 -30q11 3 28 3q75 0 109.5 -23t34.5 -74q0 -57 -46.5 -81t-149.5 -24q-40 0 -73.5 3.5t-68.5 13.5v78h6q41 -12 66.5 -16.5t62.5 -4.5q29 0 43.5 6.5t14.5 24.5q0 17 -14.5 23.5t-43.5 6.5q-18 0 -42.5 -2.5t-36.5 -5.5h-5v47
l43 54q-153 10 -232.5 85t-79.5 205q0 139 90.5 215t263.5 76q178 0 261.5 -60.5t97.5 -167.5h-216q-6 36 -41 59.5t-102 23.5q-72 0 -110.5 -38t-38.5 -108t38.5 -108.5t110.5 -38.5q67 0 102.5 24t41.5 63h217z" />
    <glyph glyph-name="egrave" unicode="&#xe8;" horiz-adv-x="776" 
d="M743 221h-508q16 -113 154 -113q59 0 92 17t44 42h213q-6 -80 -86 -134t-263 -54q-176 0 -267.5 76t-91.5 215t91 215t267 76t267 -76t91 -215q0 -28 -3 -49zM240 342h296q-25 89 -148 89q-122 0 -148 -89zM307 600l-182 148h271l81 -148h-170z" />
    <glyph glyph-name="eacute" unicode="&#xe9;" horiz-adv-x="776" 
d="M743 221h-508q16 -113 154 -113q59 0 92 17t44 42h213q-6 -80 -86 -134t-263 -54q-176 0 -267.5 76t-91.5 215t91 215t267 76t267 -76t91 -215q0 -28 -3 -49zM240 342h296q-25 89 -148 89q-122 0 -148 -89zM380 748h271l-182 -148h-170z" />
    <glyph glyph-name="ecircumflex" unicode="&#xea;" horiz-adv-x="776" 
d="M743 221h-508q16 -113 154 -113q59 0 92 17t44 42h213q-6 -80 -86 -134t-263 -54q-176 0 -267.5 76t-91.5 215t91 215t267 76t267 -76t91 -215q0 -28 -3 -49zM240 342h296q-25 89 -148 89q-122 0 -148 -89zM657 600h-206l-60 74h-5l-60 -74h-207l134 148h271z" />
    <glyph glyph-name="edieresis" unicode="&#xeb;" horiz-adv-x="776" 
d="M743 221h-508q16 -113 154 -113q59 0 92 17t44 42h213q-6 -80 -86 -134t-263 -54q-176 0 -267.5 76t-91.5 215t91 215t267 76t267 -76t91 -215q0 -28 -3 -49zM240 342h296q-25 89 -148 89q-122 0 -148 -89zM340 610h-185v119h185v-119zM621 610h-185v119h185v-119z" />
    <glyph glyph-name="igrave" unicode="&#xec;" horiz-adv-x="301" 
d="M249 0h-197v540h197v-540zM70 600l-182 148h271l81 -148h-170z" />
    <glyph glyph-name="iacute" unicode="&#xed;" horiz-adv-x="301" 
d="M249 0h-197v540h197v-540zM143 748h271l-182 -148h-170z" />
    <glyph glyph-name="icircumflex" unicode="&#xee;" horiz-adv-x="301" 
d="M249 0h-197v540h197v-540zM420 600h-206l-60 74h-5l-60 -74h-207l134 148h271z" />
    <glyph glyph-name="idieresis" unicode="&#xef;" horiz-adv-x="301" 
d="M249 0h-197v540h197v-540zM103 610h-185v119h185v-119zM384 610h-185v119h185v-119z" />
    <glyph glyph-name="eth" unicode="&#xf0;" horiz-adv-x="770" 
d="M492 659q137 -61 192.5 -151.5t55.5 -203.5q0 -174 -97 -250t-277 -76q-147 0 -241.5 59t-94.5 193q0 133 94 192t228 59q87 0 152 -39l4 2q-40 75 -177 123l-126 -73l-74 51l90 52q-74 16 -142 25l81 122q135 -18 233 -48l113 65l74 -51zM489.5 148q38.5 26 38.5 82
q0 107 -147 107q-146 0 -146 -107q0 -56 38.5 -82t107.5 -26q70 0 108.5 26z" />
    <glyph glyph-name="ntilde" unicode="&#xf1;" 
d="M245 540v-68h6q46 42 102 61.5t127 19.5q109 0 173.5 -51.5t64.5 -153.5v-348h-196v286q0 110 -123 110q-62 0 -106 -33.5t-44 -109.5v-253h-197v540h193zM435 589.5q-26 7.5 -65 22.5q-7 2 -32 11t-39 9q-18 0 -24.5 -8.5t-7.5 -30.5h-134q0 55 22 91.5t56 54t70 17.5
q25 0 52 -8t65 -22q53 -20 71 -20t24.5 8.5t7.5 30.5h134q0 -55 -22.5 -91.5t-56.5 -54t-70 -17.5q-25 0 -51 7.5z" />
    <glyph glyph-name="ograve" unicode="&#xf2;" horiz-adv-x="779" 
d="M657.5 485q91.5 -76 91.5 -215t-91.5 -215t-267.5 -76q-177 0 -268.5 76t-91.5 215t91.5 215t268.5 76q176 0 267.5 -76zM505.5 161.5q39.5 38.5 39.5 108.5t-39.5 108t-115.5 38t-115.5 -38t-39.5 -108t39.5 -108.5t115.5 -38.5t115.5 38.5zM309 600l-182 148h271
l81 -148h-170z" />
    <glyph glyph-name="oacute" unicode="&#xf3;" horiz-adv-x="779" 
d="M657.5 485q91.5 -76 91.5 -215t-91.5 -215t-267.5 -76q-177 0 -268.5 76t-91.5 215t91.5 215t268.5 76q176 0 267.5 -76zM505.5 161.5q39.5 38.5 39.5 108.5t-39.5 108t-115.5 38t-115.5 -38t-39.5 -108t39.5 -108.5t115.5 -38.5t115.5 38.5zM382 748h271l-182 -148h-170
z" />
    <glyph glyph-name="ocircumflex" unicode="&#xf4;" horiz-adv-x="779" 
d="M657.5 485q91.5 -76 91.5 -215t-91.5 -215t-267.5 -76q-177 0 -268.5 76t-91.5 215t91.5 215t268.5 76q176 0 267.5 -76zM505.5 161.5q39.5 38.5 39.5 108.5t-39.5 108t-115.5 38t-115.5 -38t-39.5 -108t39.5 -108.5t115.5 -38.5t115.5 38.5zM659 600h-206l-60 74h-5
l-60 -74h-207l134 148h271z" />
    <glyph glyph-name="otilde" unicode="&#xf5;" horiz-adv-x="779" 
d="M657.5 485q91.5 -76 91.5 -215t-91.5 -215t-267.5 -76q-177 0 -268.5 76t-91.5 215t91.5 215t268.5 76q176 0 267.5 -76zM505.5 161.5q39.5 38.5 39.5 108.5t-39.5 108t-115.5 38t-115.5 -38t-39.5 -108t39.5 -108.5t115.5 -38.5t115.5 38.5zM440 589.5q-26 7.5 -65 22.5
q-7 2 -32 11t-39 9q-18 0 -24.5 -8.5t-7.5 -30.5h-134q0 55 22 91.5t56 54t70 17.5q25 0 52 -8t65 -22q53 -20 71 -20t24.5 8.5t7.5 30.5h134q0 -55 -22.5 -91.5t-56.5 -54t-70 -17.5q-25 0 -51 7.5z" />
    <glyph glyph-name="odieresis" unicode="&#xf6;" horiz-adv-x="779" 
d="M657.5 485q91.5 -76 91.5 -215t-91.5 -215t-267.5 -76q-177 0 -268.5 76t-91.5 215t91.5 215t268.5 76q176 0 267.5 -76zM505.5 161.5q39.5 38.5 39.5 108.5t-39.5 108t-115.5 38t-115.5 -38t-39.5 -108t39.5 -108.5t115.5 -38.5t115.5 38.5zM342 610h-185v119h185v-119z
M623 610h-185v119h185v-119z" />
    <glyph glyph-name="divide" unicode="&#xf7;" horiz-adv-x="662" 
d="M266.5 481.5q-27.5 27.5 -27.5 64.5q0 38 27.5 65t64.5 27q38 0 65 -27t27 -65t-27 -65t-65 -27q-37 0 -64.5 27.5zM67 392h528v-132h-528v132zM266.5 41.5q-27.5 27.5 -27.5 64.5q0 38 27.5 65t64.5 27q38 0 65 -27t27 -65t-27 -65t-65 -27q-37 0 -64.5 27.5z" />
    <glyph glyph-name="oslash" unicode="&#xf8;" horiz-adv-x="779" 
d="M678 467q71 -74 71 -197q0 -139 -91.5 -215t-267.5 -76q-142 0 -232 51l-59 -50l-59 42l61 51q-71 74 -71 197q0 139 91.5 215t268.5 76q142 0 232 -51l59 49l58 -41zM249 197l235 197q-38 22 -94 22q-76 0 -115.5 -38t-39.5 -108q0 -40 14 -73zM505.5 161.5
q39.5 38.5 39.5 108.5q0 40 -14 73l-235 -198q38 -22 94 -22q76 0 115.5 38.5z" />
    <glyph glyph-name="ugrave" unicode="&#xf9;" 
d="M526 0v67h-6q-90 -81 -229 -81q-109 0 -174 51.5t-65 154.5v348h197v-286q0 -111 123 -111q61 0 105.5 33.5t44.5 109.5v254h196v-540h-192zM304 600l-182 148h271l81 -148h-170z" />
    <glyph glyph-name="uacute" unicode="&#xfa;" 
d="M526 0v67h-6q-90 -81 -229 -81q-109 0 -174 51.5t-65 154.5v348h197v-286q0 -111 123 -111q61 0 105.5 33.5t44.5 109.5v254h196v-540h-192zM377 748h271l-182 -148h-170z" />
    <glyph glyph-name="ucircumflex" unicode="&#xfb;" 
d="M526 0v67h-6q-90 -81 -229 -81q-109 0 -174 51.5t-65 154.5v348h197v-286q0 -111 123 -111q61 0 105.5 33.5t44.5 109.5v254h196v-540h-192zM654 600h-206l-60 74h-5l-60 -74h-207l134 148h271z" />
    <glyph glyph-name="udieresis" unicode="&#xfc;" 
d="M526 0v67h-6q-90 -81 -229 -81q-109 0 -174 51.5t-65 154.5v348h197v-286q0 -111 123 -111q61 0 105.5 33.5t44.5 109.5v254h196v-540h-192zM337 610h-185v119h185v-119zM618 610h-185v119h185v-119z" />
    <glyph glyph-name="yacute" unicode="&#xfd;" horiz-adv-x="749" 
d="M469 -22q-37 -75 -72 -111.5t-83 -50t-130 -13.5q-71 0 -103 1v160q56 -2 82 -2q39 0 58.5 8.5t29.5 30.5l11 24l-258 515h222l146 -337h5l146 337h222zM367 748h271l-182 -148h-170z" />
    <glyph glyph-name="thorn" unicode="&#xfe;" horiz-adv-x="790" 
d="M249 55v-238h-197v907h197v-246h5q35 35 86 55t116 20q140 0 221.5 -75t81.5 -212t-81.5 -212t-221.5 -75q-65 0 -115.5 20t-86.5 56h-5zM284 371q-41 -38 -41 -105t41 -105t117 -38t115 36.5t39 106.5t-39 106.5t-115 36.5t-117 -38z" />
    <glyph glyph-name="ydieresis" unicode="&#xff;" horiz-adv-x="749" 
d="M469 -22q-37 -75 -72 -111.5t-83 -50t-130 -13.5q-71 0 -103 1v160q56 -2 82 -2q39 0 58.5 8.5t29.5 30.5l11 24l-258 515h222l146 -337h5l146 337h222zM327 610h-185v119h185v-119zM608 610h-185v119h185v-119z" />
    <glyph glyph-name="Amacron" unicode="&#x100;" horiz-adv-x="927" 
d="M926 0h-220l-55 125h-376l-55 -125h-219l333 714h261zM460 542l-118 -266h242l-118 266h-6zM692 894v-115h-455v115h455z" />
    <glyph glyph-name="amacron" unicode="&#x101;" horiz-adv-x="746" 
d="M696 87q0 -30 3 -50t12 -31v-6h-193q-7 7 -11 22t-4 34v7q-39 -40 -104.5 -62t-144.5 -22q-60 0 -112 19t-84 59t-32 99q0 85 46 124.5t132 48.5l229 23q31 3 44.5 11.5t13.5 27.5q0 43 -108 43q-47 0 -77.5 -14t-33.5 -42h-207q4 97 90.5 140t225.5 43q151 0 233 -38
t82 -132v-304zM499 256q-13 -9 -53 -15l-144 -21q-35 -6 -53 -20t-18 -43q0 -58 88 -58q40 0 81.5 14t70 44.5t28.5 77.5v21zM608 729v-115h-455v115h455z" />
    <glyph glyph-name="Abreve" unicode="&#x102;" horiz-adv-x="927" 
d="M926 0h-220l-55 125h-376l-55 -125h-219l333 714h261zM460 542l-118 -266h242l-118 266h-6zM691 927q-1 -53 -34 -89.5t-84.5 -54.5t-107.5 -18t-107 18t-84 54.5t-34 89.5h157q5 -48 68 -48t68 48h158z" />
    <glyph glyph-name="abreve" unicode="&#x103;" horiz-adv-x="746" 
d="M696 87q0 -30 3 -50t12 -31v-6h-193q-7 7 -11 22t-4 34v7q-39 -40 -104.5 -62t-144.5 -22q-60 0 -112 19t-84 59t-32 99q0 85 46 124.5t132 48.5l229 23q31 3 44.5 11.5t13.5 27.5q0 43 -108 43q-47 0 -77.5 -14t-33.5 -42h-207q4 97 90.5 140t225.5 43q151 0 233 -38
t82 -132v-304zM499 256q-13 -9 -53 -15l-144 -21q-35 -6 -53 -20t-18 -43q0 -58 88 -58q40 0 81.5 14t70 44.5t28.5 77.5v21zM606 750q-1 -53 -34 -89.5t-84.5 -54.5t-107.5 -18t-107 18t-84 54.5t-34 89.5h157q5 -48 68 -48t68 48h158z" />
    <glyph glyph-name="Aogonek" unicode="&#x104;" horiz-adv-x="927" 
d="M925 0q-52 -17 -82.5 -45t-30.5 -53q0 -20 15 -29t39 -9q23 0 39.5 3.5t19.5 4.5v-100q-44 -9 -97 -9q-94 0 -141.5 28.5t-47.5 78.5q0 39 34.5 74.5t87.5 55.5h-55l-55 125h-376l-55 -125h-219l333 714h261l331 -714h-1zM460 542l-118 -266h242l-118 266h-6z" />
    <glyph glyph-name="aogonek" unicode="&#x105;" horiz-adv-x="746" 
d="M696 87q0 -30 3 -50t12 -31v-6h-1q-52 -17 -82.5 -45t-30.5 -53q0 -20 15 -29t39 -9q23 0 39.5 3.5t19.5 4.5v-100q-44 -9 -97 -9q-94 0 -141.5 28.5t-47.5 78.5q0 39 34.5 74.5t87.5 55.5h-28q-7 7 -11 22t-4 34v7q-39 -40 -104.5 -62t-144.5 -22q-60 0 -112 19t-84 59
t-32 99q0 85 46 124.5t132 48.5l229 23q31 3 44.5 11.5t13.5 27.5q0 43 -108 43q-47 0 -77.5 -14t-33.5 -42h-207q4 97 90.5 140t225.5 43q151 0 233 -38t82 -132v-304zM499 256q-13 -9 -53 -15l-144 -21q-35 -6 -53 -20t-18 -43q0 -58 88 -58q40 0 81.5 14t70 44.5
t28.5 77.5v21z" />
    <glyph glyph-name="Cacute" unicode="&#x106;" horiz-adv-x="938" 
d="M666 441q-4 54 -52 91.5t-140 37.5q-105 0 -162.5 -55.5t-57.5 -157.5q0 -101 58 -157t162 -56q94 0 140 38.5t50 105.5h239q-2 -98 -55 -168t-149 -106t-225 -36q-131 0 -230 41.5t-154 126.5t-55 211t55 211t154 126.5t230 41.5q128 0 223.5 -35.5t148 -102
t55.5 -157.5h-235zM474 925h271l-182 -148h-170z" />
    <glyph glyph-name="cacute" unicode="&#x107;" horiz-adv-x="775" 
d="M486.5 147q35.5 24 41.5 63h217q-14 -108 -98.5 -169.5t-262.5 -61.5q-173 0 -263.5 76t-90.5 215t90.5 215t263.5 76q178 0 261.5 -60.5t97.5 -167.5h-216q-6 36 -41 59.5t-102 23.5q-72 0 -110.5 -38t-38.5 -108t38.5 -108.5t110.5 -38.5q67 0 102.5 24zM376 748h271
l-182 -148h-170z" />
    <glyph glyph-name="Ccircumflex" unicode="&#x108;" horiz-adv-x="938" 
d="M666 441q-4 54 -52 91.5t-140 37.5q-105 0 -162.5 -55.5t-57.5 -157.5q0 -101 58 -157t162 -56q94 0 140 38.5t50 105.5h239q-2 -98 -55 -168t-149 -106t-225 -36q-131 0 -230 41.5t-154 126.5t-55 211t55 211t154 126.5t230 41.5q128 0 223.5 -35.5t148 -102
t55.5 -157.5h-235zM744 777h-206l-60 74h-5l-60 -74h-207l134 148h271z" />
    <glyph glyph-name="ccircumflex" unicode="&#x109;" horiz-adv-x="775" 
d="M486.5 147q35.5 24 41.5 63h217q-14 -108 -98.5 -169.5t-262.5 -61.5q-173 0 -263.5 76t-90.5 215t90.5 215t263.5 76q178 0 261.5 -60.5t97.5 -167.5h-216q-6 36 -41 59.5t-102 23.5q-72 0 -110.5 -38t-38.5 -108t38.5 -108.5t110.5 -38.5q67 0 102.5 24zM653 600h-206
l-60 74h-5l-60 -74h-207l134 148h271z" />
    <glyph glyph-name="Cdotaccent" unicode="&#x10a;" horiz-adv-x="938" 
d="M666 441q-4 54 -52 91.5t-140 37.5q-105 0 -162.5 -55.5t-57.5 -157.5q0 -101 58 -157t162 -56q94 0 140 38.5t50 105.5h239q-2 -98 -55 -168t-149 -106t-225 -36q-131 0 -230 41.5t-154 126.5t-55 211t55 211t154 126.5t230 41.5q128 0 223.5 -35.5t148 -102
t55.5 -157.5h-235zM575 778h-201v119h201v-119z" />
    <glyph glyph-name="cdotaccent" unicode="&#x10b;" horiz-adv-x="775" 
d="M486.5 147q35.5 24 41.5 63h217q-14 -108 -98.5 -169.5t-262.5 -61.5q-173 0 -263.5 76t-90.5 215t90.5 215t263.5 76q178 0 261.5 -60.5t97.5 -167.5h-216q-6 36 -41 59.5t-102 23.5q-72 0 -110.5 -38t-38.5 -108t38.5 -108.5t110.5 -38.5q67 0 102.5 24zM484 609h-201
v119h201v-119z" />
    <glyph glyph-name="Ccaron" unicode="&#x10c;" horiz-adv-x="938" 
d="M666 441q-4 54 -52 91.5t-140 37.5q-105 0 -162.5 -55.5t-57.5 -157.5q0 -101 58 -157t162 -56q94 0 140 38.5t50 105.5h239q-2 -98 -55 -168t-149 -106t-225 -36q-131 0 -230 41.5t-154 126.5t-55 211t55 211t154 126.5t230 41.5q128 0 223.5 -35.5t148 -102
t55.5 -157.5h-235zM477 851l60 74h206l-133 -148h-271l-134 148h207l60 -74h5z" />
    <glyph glyph-name="ccaron" unicode="&#x10d;" horiz-adv-x="775" 
d="M486.5 147q35.5 24 41.5 63h217q-14 -108 -98.5 -169.5t-262.5 -61.5q-173 0 -263.5 76t-90.5 215t90.5 215t263.5 76q178 0 261.5 -60.5t97.5 -167.5h-216q-6 36 -41 59.5t-102 23.5q-72 0 -110.5 -38t-38.5 -108t38.5 -108.5t110.5 -38.5q67 0 102.5 24zM387 674l60 74
h206l-133 -148h-271l-134 148h207l60 -74h5z" />
    <glyph glyph-name="Dcaron" unicode="&#x10e;" horiz-adv-x="905" 
d="M474 714q197 0 296.5 -84.5t99.5 -272.5t-99.5 -272.5t-296.5 -84.5h-414v714h414zM260 552v-390h175q107 0 161.5 46t54.5 149t-54.5 149t-161.5 46h-175zM418 850l60 74h206l-133 -148h-271l-134 148h207l60 -74h5z" />
    <glyph glyph-name="dcaron" unicode="&#x10f;" horiz-adv-x="959" 
d="M541 478v246h196v-724h-192v62h-6q-35 -40 -87 -61.5t-118 -21.5q-140 0 -222 75t-82 212t82 212t222 75q64 0 115 -20t86 -55h6zM950 636q0 -87 -37.5 -126.5t-129.5 -40.5v63q45 0 61.5 15.5t16.5 50.5h-78v126h167v-88zM506 161q41 38 41 105t-41 105t-117 38
t-115 -36.5t-39 -106.5t39 -106.5t115 -36.5t117 38z" />
    <glyph glyph-name="Dcroat" unicode="&#x110;" horiz-adv-x="905" 
d="M474 714q197 0 296.5 -84.5t99.5 -272.5t-99.5 -272.5t-296.5 -84.5h-414v297h-74v121h74v296h414zM435 162q107 0 161.5 46t54.5 149t-54.5 149t-161.5 46h-175v-134h167v-121h-167v-135h175z" />
    <glyph glyph-name="dcroat" unicode="&#x111;" horiz-adv-x="790" 
d="M737 673h74v-96h-74v-577h-192v62h-6q-35 -40 -87 -61.5t-118 -21.5q-140 0 -222 75t-82 212t82 212t222 75q64 0 115 -20t86 -55h6v99h-139v96h139v51h196v-51zM506 161q41 38 41 105t-41 105t-117 38t-115 -36.5t-39 -106.5t39 -106.5t115 -36.5t117 38z" />
    <glyph glyph-name="Emacron" unicode="&#x112;" horiz-adv-x="805" 
d="M750 557h-490v-119h471v-145h-471v-137h501v-156h-701v714h690v-157zM632 894v-115h-455v115h455z" />
    <glyph glyph-name="emacron" unicode="&#x113;" horiz-adv-x="776" 
d="M743 221h-508q16 -113 154 -113q59 0 92 17t44 42h213q-6 -80 -86 -134t-263 -54q-176 0 -267.5 76t-91.5 215t91 215t267 76t267 -76t91 -215q0 -28 -3 -49zM240 342h296q-25 89 -148 89q-122 0 -148 -89zM615 729v-115h-455v115h455z" />
    <glyph glyph-name="Ebreve" unicode="&#x114;" horiz-adv-x="805" 
d="M750 557h-490v-119h471v-145h-471v-137h501v-156h-701v714h690v-157zM631 927q-1 -53 -34 -89.5t-84.5 -54.5t-107.5 -18t-107 18t-84 54.5t-34 89.5h157q5 -48 68 -48t68 48h158z" />
    <glyph glyph-name="ebreve" unicode="&#x115;" horiz-adv-x="776" 
d="M743 221h-508q16 -113 154 -113q59 0 92 17t44 42h213q-6 -80 -86 -134t-263 -54q-176 0 -267.5 76t-91.5 215t91 215t267 76t267 -76t91 -215q0 -28 -3 -49zM240 342h296q-25 89 -148 89q-122 0 -148 -89zM613 750q-1 -53 -34 -89.5t-84.5 -54.5t-107.5 -18t-107 18
t-84 54.5t-34 89.5h157q5 -48 68 -48t68 48h158z" />
    <glyph glyph-name="Edotaccent" unicode="&#x116;" horiz-adv-x="805" 
d="M750 557h-490v-119h471v-145h-471v-137h501v-156h-701v714h690v-157zM506 778h-201v119h201v-119z" />
    <glyph glyph-name="edotaccent" unicode="&#x117;" horiz-adv-x="776" 
d="M743 221h-508q16 -113 154 -113q59 0 92 17t44 42h213q-6 -80 -86 -134t-263 -54q-176 0 -267.5 76t-91.5 215t91 215t267 76t267 -76t91 -215q0 -28 -3 -49zM240 342h296q-25 89 -148 89q-122 0 -148 -89zM488 609h-201v119h201v-119z" />
    <glyph glyph-name="Eogonek" unicode="&#x118;" horiz-adv-x="805" 
d="M761 0q-52 -17 -82.5 -45t-30.5 -53q0 -20 15 -29t39 -9q23 0 39.5 3.5t19.5 4.5v-100q-43 -9 -97 -9q-94 0 -141.5 28.5t-47.5 78.5q0 39 34.5 74.5t87.5 55.5h-537v714h690v-157h-490v-119h471v-145h-471v-137h501v-156z" />
    <glyph glyph-name="eogonek" unicode="&#x119;" horiz-adv-x="776" 
d="M743 221h-508q16 -113 154 -113q59 0 92 17t44 42h213q-4 -56 -45 -101.5t-130 -68.5q-49 -17 -77.5 -44t-28.5 -51q0 -20 15 -29t39 -9q23 0 39.5 3.5t19.5 4.5v-100q-44 -9 -97 -9q-94 0 -141.5 28.5t-47.5 78.5q0 30 21.5 58.5t57.5 50.5q-164 6 -248.5 81.5
t-84.5 209.5q0 139 91 215t267 76t267 -76t91 -215q0 -28 -3 -49zM240 342h296q-25 89 -148 89q-122 0 -148 -89z" />
    <glyph glyph-name="Ecaron" unicode="&#x11a;" horiz-adv-x="805" 
d="M750 557h-490v-119h471v-145h-471v-137h501v-156h-701v714h690v-157zM408 851l60 74h206l-133 -148h-271l-134 148h207l60 -74h5z" />
    <glyph glyph-name="ecaron" unicode="&#x11b;" horiz-adv-x="776" 
d="M743 221h-508q16 -113 154 -113q59 0 92 17t44 42h213q-6 -80 -86 -134t-263 -54q-176 0 -267.5 76t-91.5 215t91 215t267 76t267 -76t91 -215q0 -28 -3 -49zM240 342h296q-25 89 -148 89q-122 0 -148 -89zM391 674l60 74h206l-133 -148h-271l-134 148h207l60 -74h5z" />
    <glyph glyph-name="Gcircumflex" unicode="&#x11c;" horiz-adv-x="966" 
d="M507 258v136h404v-394h-163v68q-93 -90 -256 -90q-213 0 -335 95.5t-122 283.5t120.5 283.5t328.5 95.5q132 0 225 -33.5t142.5 -93.5t55.5 -139h-234q-11 43 -55.5 71.5t-133.5 28.5q-111 0 -170.5 -55.5t-59.5 -157.5q0 -106 60.5 -162t177.5 -56q84 0 134.5 33.5
t59.5 85.5h-179zM754 777h-206l-60 74h-5l-60 -74h-207l134 148h271z" />
    <glyph glyph-name="gcircumflex" unicode="&#x11d;" horiz-adv-x="779" 
d="M534 540h193v-510q0 -77 -25.5 -125.5t-100 -75t-214.5 -26.5q-133 0 -206.5 27t-101.5 68.5t-32 97.5h214q9 -64 126 -64q59 0 90 11.5t42 32t11 54.5v85h-5q-32 -34 -84 -54t-115 -20q-137 0 -216.5 66.5t-79.5 189.5q0 124 79.5 190t216.5 66q65 0 118 -20.5t84 -57.5
h6v65zM495 212.5q39 30.5 39 84.5t-39 84.5t-113 30.5q-72 0 -109.5 -29.5t-37.5 -85.5q0 -55 37.5 -85t109.5 -30q74 0 113 30.5zM647 600h-206l-60 74h-5l-60 -74h-207l134 148h271z" />
    <glyph glyph-name="Gbreve" unicode="&#x11e;" horiz-adv-x="966" 
d="M507 258v136h404v-394h-163v68q-93 -90 -256 -90q-213 0 -335 95.5t-122 283.5t120.5 283.5t328.5 95.5q132 0 225 -33.5t142.5 -93.5t55.5 -139h-234q-11 43 -55.5 71.5t-133.5 28.5q-111 0 -170.5 -55.5t-59.5 -157.5q0 -106 60.5 -162t177.5 -56q84 0 134.5 33.5
t59.5 85.5h-179zM710 927q-1 -53 -34 -89.5t-84.5 -54.5t-107.5 -18t-107 18t-84 54.5t-34 89.5h157q5 -48 68 -48t68 48h158z" />
    <glyph glyph-name="gbreve" unicode="&#x11f;" horiz-adv-x="779" 
d="M534 540h193v-510q0 -77 -25.5 -125.5t-100 -75t-214.5 -26.5q-133 0 -206.5 27t-101.5 68.5t-32 97.5h214q9 -64 126 -64q59 0 90 11.5t42 32t11 54.5v85h-5q-32 -34 -84 -54t-115 -20q-137 0 -216.5 66.5t-79.5 189.5q0 124 79.5 190t216.5 66q65 0 118 -20.5t84 -57.5
h6v65zM495 212.5q39 30.5 39 84.5t-39 84.5t-113 30.5q-72 0 -109.5 -29.5t-37.5 -85.5q0 -55 37.5 -85t109.5 -30q74 0 113 30.5zM603 750q-1 -53 -34 -89.5t-84.5 -54.5t-107.5 -18t-107 18t-84 54.5t-34 89.5h157q5 -48 68 -48t68 48h158z" />
    <glyph glyph-name="Gdotaccent" unicode="&#x120;" horiz-adv-x="966" 
d="M507 258v136h404v-394h-163v68q-93 -90 -256 -90q-213 0 -335 95.5t-122 283.5t120.5 283.5t328.5 95.5q132 0 225 -33.5t142.5 -93.5t55.5 -139h-234q-11 43 -55.5 71.5t-133.5 28.5q-111 0 -170.5 -55.5t-59.5 -157.5q0 -106 60.5 -162t177.5 -56q84 0 134.5 33.5
t59.5 85.5h-179zM585 778h-201v119h201v-119z" />
    <glyph glyph-name="gdotaccent" unicode="&#x121;" horiz-adv-x="779" 
d="M534 540h193v-510q0 -77 -25.5 -125.5t-100 -75t-214.5 -26.5q-133 0 -206.5 27t-101.5 68.5t-32 97.5h214q9 -64 126 -64q59 0 90 11.5t42 32t11 54.5v85h-5q-32 -34 -84 -54t-115 -20q-137 0 -216.5 66.5t-79.5 189.5q0 124 79.5 190t216.5 66q65 0 118 -20.5t84 -57.5
h6v65zM495 212.5q39 30.5 39 84.5t-39 84.5t-113 30.5q-72 0 -109.5 -29.5t-37.5 -85.5q0 -55 37.5 -85t109.5 -30q74 0 113 30.5zM478 609h-201v119h201v-119z" />
    <glyph glyph-name="uni0122" unicode="&#x122;" horiz-adv-x="966" 
d="M507 258v136h404v-394h-163v68q-93 -90 -256 -90q-213 0 -335 95.5t-122 283.5t120.5 283.5t328.5 95.5q132 0 225 -33.5t142.5 -93.5t55.5 -139h-234q-11 43 -55.5 71.5t-133.5 28.5q-111 0 -170.5 -55.5t-59.5 -157.5q0 -106 60.5 -162t177.5 -56q84 0 134.5 33.5
t59.5 85.5h-179zM593 -150q0 -55 -12.5 -82.5t-55.5 -41t-133 -13.5v54q39 0 58.5 6.5t25 17.5t5.5 28h-89v119h201v-88z" />
    <glyph glyph-name="uni0123" unicode="&#x123;" horiz-adv-x="779" 
d="M278 688q0 64 20 100t63 51t117 15v-53q-49 0 -68.5 -18.5t-19.5 -54.5h89v-119h-201v79zM534 540h193v-510q0 -77 -25.5 -125.5t-100 -75t-214.5 -26.5q-133 0 -206.5 27t-101.5 68.5t-32 97.5h214q4 -27 30.5 -45.5t95.5 -18.5q59 0 90 11.5t42 32t11 54.5v85h-5
q-32 -34 -84 -54t-115 -20q-137 0 -216.5 66.5t-79.5 189.5q0 124 79.5 190t216.5 66q65 0 118 -20.5t84 -57.5h6v65zM495 212.5q39 30.5 39 84.5t-39 84.5t-113 30.5q-72 0 -109.5 -29.5t-37.5 -85.5q0 -55 37.5 -85t109.5 -30q74 0 113 30.5z" />
    <glyph glyph-name="Hcircumflex" unicode="&#x124;" horiz-adv-x="912" 
d="M652 446v268h200v-714h-200v285l-392 -1v-284h-200v714h200v-268h392zM727 777h-206l-60 74h-5l-60 -74h-207l134 148h271z" />
    <glyph glyph-name="hcircumflex" unicode="&#x125;" 
d="M653.5 501.5q64.5 -51.5 64.5 -153.5v-348h-196v286q0 110 -123 110q-62 0 -106 -33.5t-44 -109.5v-253h-197v724h197v-252h5q43 42 99 61.5t127 19.5q109 0 173.5 -51.5zM421 777h-206l-60 74h-5l-60 -74h-207l134 148h271z" />
    <glyph glyph-name="Hbar" unicode="&#x126;" horiz-adv-x="912" 
d="M852 640h74v-122h-74v-518h-200v284h-392v-284h-200v518h-74v122h74v74h200v-74h392v74h200v-74zM260 446h392v72h-392v-72z" />
    <glyph glyph-name="hbar" unicode="&#x127;" 
d="M653.5 501.5q64.5 -51.5 64.5 -153.5v-348h-196v286q0 110 -123 110q-62 0 -106 -33.5t-44 -109.5v-253h-197v577h-74v96h74v51h197v-51h139v-96h-139v-105h5q43 42 99 61.5t127 19.5q109 0 173.5 -51.5z" />
    <glyph glyph-name="Itilde" unicode="&#x128;" horiz-adv-x="320" 
d="M260 714v-714h-200v714h200zM210 766.5q-26 7.5 -65 22.5q-7 2 -32 11t-39 9q-18 0 -24.5 -8.5t-7.5 -30.5h-134q0 55 22 91.5t56 54t70 17.5q25 0 52 -8t65 -22q53 -20 71 -20t24.5 8.5t7.5 30.5h134q0 -55 -22.5 -91.5t-56.5 -54t-70 -17.5q-25 0 -51 7.5z" />
    <glyph glyph-name="itilde" unicode="&#x129;" horiz-adv-x="301" 
d="M249 0h-197v540h197v-540zM201 589.5q-26 7.5 -65 22.5q-7 2 -32 11t-39 9q-18 0 -24.5 -8.5t-7.5 -30.5h-134q0 55 22 91.5t56 54t70 17.5q25 0 52 -8t65 -22q53 -20 71 -20t24.5 8.5t7.5 30.5h134q0 -55 -22.5 -91.5t-56.5 -54t-70 -17.5q-25 0 -51 7.5z" />
    <glyph glyph-name="Imacron" unicode="&#x12a;" horiz-adv-x="320" 
d="M260 714v-714h-200v714h200zM387 894v-115h-455v115h455z" />
    <glyph glyph-name="imacron" unicode="&#x12b;" horiz-adv-x="301" 
d="M249 0h-197v540h197v-540zM378 729v-115h-455v115h455z" />
    <glyph glyph-name="Ibreve" unicode="&#x12c;" horiz-adv-x="320" 
d="M260 714v-714h-200v714h200zM386 927q-1 -53 -34 -89.5t-84.5 -54.5t-107.5 -18t-107 18t-84 54.5t-34 89.5h157q5 -48 68 -48t68 48h158z" />
    <glyph glyph-name="ibreve" unicode="&#x12d;" horiz-adv-x="301" 
d="M249 0h-197v540h197v-540zM376 750q-1 -53 -34 -89.5t-84.5 -54.5t-107.5 -18t-107 18t-84 54.5t-34 89.5h157q5 -48 68 -48t68 48h158z" />
    <glyph glyph-name="Iogonek" unicode="&#x12e;" horiz-adv-x="320" 
d="M260 0q-52 -17 -82.5 -45t-30.5 -53q0 -20 15 -29t39 -9q23 0 39.5 3.5t19.5 4.5v-100q-43 -9 -97 -9q-94 0 -141.5 28.5t-47.5 78.5q0 39 34.5 74.5t87.5 55.5h-36v714h200v-714z" />
    <glyph glyph-name="iogonek" unicode="&#x12f;" horiz-adv-x="301" 
d="M50 609v119h201v-119h-201zM52 0v540h197v-540h-1q-52 -17 -82.5 -45t-30.5 -53q0 -20 15 -29t39 -9q23 0 39.5 3.5t19.5 4.5v-100q-43 -9 -97 -9q-94 0 -141.5 28.5t-47.5 78.5q0 39 34.5 74.5t87.5 55.5h-32z" />
    <glyph glyph-name="Idotaccent" unicode="&#x130;" horiz-adv-x="320" 
d="M260 714v-714h-200v714h200zM261 778h-201v119h201v-119z" />
    <glyph glyph-name="dotlessi" unicode="&#x131;" horiz-adv-x="301" 
d="M249 0h-197v540h197v-540z" />
    <glyph glyph-name="IJ" unicode="&#x132;" horiz-adv-x="1142" 
d="M260 714v-714h-200v714h200zM1081 302q0 -178 -96 -250.5t-274 -72.5q-179 0 -273 72.5t-94 250.5v54h200v-57q0 -84 44 -119.5t123 -35.5q170 0 170 155v415h200v-412z" />
    <glyph glyph-name="ij" unicode="&#x133;" horiz-adv-x="602" 
d="M249 0h-197v540h197v-540zM251 609h-201v119h201v-119zM341.5 -29q11.5 10 11.5 38v531h197v-584q0 -60 -19 -92.5t-63.5 -46.5t-124.5 -14q-51 0 -86 4v156q20 -2 50 -2q23 0 34.5 10zM552 609h-201v119h201v-119z" />
    <glyph glyph-name="Jcircumflex" unicode="&#x134;" horiz-adv-x="822" 
d="M761 302q0 -178 -96 -250.5t-274 -72.5q-179 0 -273 72.5t-94 250.5v54h200v-57q0 -84 44 -119.5t123 -35.5q170 0 170 155v415h200v-412zM931 777h-206l-60 74h-5l-60 -74h-207l134 148h271z" />
    <glyph glyph-name="jcircumflex" unicode="&#x135;" horiz-adv-x="301" 
d="M40.5 -29q11.5 10 11.5 38v531h197v-584q0 -60 -19 -92.5t-63.5 -46.5t-124.5 -14q-51 0 -86 4v156q20 -2 50 -2q23 0 34.5 10zM420 600h-206l-60 74h-5l-60 -74h-207l134 148h271z" />
    <glyph glyph-name="uni0136" unicode="&#x136;" horiz-adv-x="891" 
d="M843 714l-283 -251l329 -463h-243l-232 334l-154 -136v-198h-200v714h200v-304l331 304h252zM554 -150q0 -55 -12.5 -82.5t-55.5 -41t-133 -13.5v54q39 0 58.5 6.5t25 17.5t5.5 28h-89v119h201v-88z" />
    <glyph glyph-name="uni0137" unicode="&#x137;" horiz-adv-x="715" 
d="M690 540l-238 -211l260 -329h-234l-157 212l-72 -64v-148h-197v724h197v-377l209 193h232zM464 -150q0 -55 -12.5 -82.5t-55.5 -41t-133 -13.5v54q39 0 58.5 6.5t25 17.5t5.5 28h-89v119h201v-88z" />
    <glyph glyph-name="kgreenlandic" unicode="&#x138;" horiz-adv-x="715" 
d="M690 540l-238 -211l260 -329h-234l-157 212l-72 -64v-148h-197v540h197v-193l209 193h232z" />
    <glyph glyph-name="Lacute" unicode="&#x139;" horiz-adv-x="784" 
d="M753 162v-162h-693v714h200v-552h493zM160 925h271l-182 -148h-170z" />
    <glyph glyph-name="lacute" unicode="&#x13a;" horiz-adv-x="301" 
d="M249 0h-197v724h197v-724zM151 925h271l-182 -148h-170z" />
    <glyph glyph-name="uni013B" unicode="&#x13b;" horiz-adv-x="784" 
d="M753 162v-162h-693v714h200v-552h493zM508 -150q0 -55 -12.5 -82.5t-55.5 -41t-133 -13.5v54q39 0 58.5 6.5t25 17.5t5.5 28h-89v119h201v-88z" />
    <glyph glyph-name="uni013C" unicode="&#x13c;" horiz-adv-x="301" 
d="M249 0h-197v724h197v-724zM252 -150q0 -55 -12.5 -82.5t-55.5 -41t-133 -13.5v54q39 0 58.5 6.5t25 17.5t5.5 28h-89v119h201v-88z" />
    <glyph glyph-name="Lcaron" unicode="&#x13d;" horiz-adv-x="784" 
d="M595 603q0 -112 -47 -159.5t-154 -48.5v65q92 0 92 103h-92v161h201v-121zM753 162v-162h-693v714h200v-552h493z" />
    <glyph glyph-name="lcaron" unicode="&#x13e;" horiz-adv-x="471" 
d="M249 0h-197v724h197v-724zM462 636q0 -87 -37.5 -126.5t-129.5 -40.5v63q45 0 61.5 15.5t16.5 50.5h-78v126h167v-88z" />
    <glyph glyph-name="Ldot" unicode="&#x13f;" horiz-adv-x="784" 
d="M753 161v-161h-693v714h201v-553h492zM441 319q-33 33 -33 81q0 47 33 80t80 33t80 -33t33 -80q0 -48 -33 -81t-80 -33t-80 33z" />
    <glyph glyph-name="ldot" unicode="&#x140;" horiz-adv-x="556" 
d="M249 0h-197v724h197v-724zM332 281q-33 33 -33 81q0 47 33 80t80 33t80.5 -33t33.5 -80q0 -48 -33.5 -81t-80.5 -33t-80 33z" />
    <glyph glyph-name="Lslash" unicode="&#x141;" horiz-adv-x="784" 
d="M260 271v-109h493v-162h-693v182l-51 -23v155l51 23v377h200v-288l296 133v-155z" />
    <glyph glyph-name="lslash" unicode="&#x142;" horiz-adv-x="371" 
d="M284 512l70 33v-135l-70 -34v-376h-197v282l-70 -34v136l70 33v307h197v-212z" />
    <glyph glyph-name="Nacute" unicode="&#x143;" horiz-adv-x="912" 
d="M661 253v461h191v-714h-230l-365 470h-6v-470h-191v714h237l358 -461h6zM456 925h271l-182 -148h-170z" />
    <glyph glyph-name="nacute" unicode="&#x144;" 
d="M245 540v-68h6q46 42 102 61.5t127 19.5q109 0 173.5 -51.5t64.5 -153.5v-348h-196v286q0 110 -123 110q-62 0 -106 -33.5t-44 -109.5v-253h-197v540h193zM377 748h271l-182 -148h-170z" />
    <glyph glyph-name="uni0145" unicode="&#x145;" horiz-adv-x="912" 
d="M661 253v461h191v-714h-230l-365 470h-6v-470h-191v714h237l358 -461h6zM557 -150q0 -55 -12.5 -82.5t-55.5 -41t-133 -13.5v54q39 0 58.5 6.5t25 17.5t5.5 28h-89v119h201v-88z" />
    <glyph glyph-name="uni0146" unicode="&#x146;" 
d="M245 540v-68h6q46 42 102 61.5t127 19.5q109 0 173.5 -51.5t64.5 -153.5v-348h-196v286q0 110 -123 110q-62 0 -106 -33.5t-44 -109.5v-253h-197v540h193zM486 -150q0 -55 -12.5 -82.5t-55.5 -41t-133 -13.5v54q39 0 58.5 6.5t25 17.5t5.5 28h-89v119h201v-88z" />
    <glyph glyph-name="Ncaron" unicode="&#x147;" horiz-adv-x="912" 
d="M661 253v461h191v-714h-230l-365 470h-6v-470h-191v714h237l358 -461h6zM459 851l60 74h206l-133 -148h-271l-134 148h207l60 -74h5z" />
    <glyph glyph-name="ncaron" unicode="&#x148;" 
d="M245 540v-68h6q46 42 102 61.5t127 19.5q109 0 173.5 -51.5t64.5 -153.5v-348h-196v286q0 110 -123 110q-62 0 -106 -33.5t-44 -109.5v-253h-197v540h193zM388 674l60 74h206l-133 -148h-271l-134 148h207l60 -74h5z" />
    <glyph glyph-name="napostrophe" unicode="&#x149;" horiz-adv-x="930" 
d="M176 636q0 -87 -37.5 -126.5t-129.5 -40.5v63q45 0 61.5 15.5t16.5 50.5h-78v126h167v-88zM404 540v-68h6q46 42 102 61.5t127 19.5q109 0 173.5 -51.5t64.5 -153.5v-348h-196v286q0 110 -123 110q-62 0 -106 -33.5t-44 -109.5v-253h-196v540h192z" />
    <glyph glyph-name="Eng" unicode="&#x14a;" horiz-adv-x="912" 
d="M661 714h191v-707q0 -101 -69.5 -152.5t-218.5 -51.5q-145 0 -216 52t-71 148q0 11 1 17h182v-14q0 -30 25 -46.5t75 -16.5q88 0 99 50l-402 480h-6v-473h-191v714h237l358 -427h6v427z" />
    <glyph glyph-name="eng" unicode="&#x14b;" 
d="M653.5 501.5q64.5 -51.5 64.5 -153.5v-392q0 -60 -19 -92.5t-63.5 -46.5t-124.5 -14q-51 0 -86 4v156q20 -2 50 -2q23 0 35 10t12 38v277q0 110 -123 110q-62 0 -106 -33.5t-44 -109.5v-253h-197v540h193v-68h6q46 42 102 61.5t127 19.5q109 0 173.5 -51.5z" />
    <glyph glyph-name="Omacron" unicode="&#x14c;" horiz-adv-x="972" 
d="M816 640.5q121 -95.5 121 -283.5t-121 -283.5t-330 -95.5t-330 95.5t-121 283.5t121 283.5t330 95.5t330 -95.5zM658 199.5q60 55.5 60 157.5t-60 157.5t-172 55.5q-113 0 -172.5 -55.5t-59.5 -157.5t59.5 -157.5t172.5 -55.5q112 0 172 55.5zM713 894v-115h-455v115h455
z" />
    <glyph glyph-name="omacron" unicode="&#x14d;" horiz-adv-x="779" 
d="M657.5 485q91.5 -76 91.5 -215t-91.5 -215t-267.5 -76q-177 0 -268.5 76t-91.5 215t91.5 215t268.5 76q176 0 267.5 -76zM505.5 161.5q39.5 38.5 39.5 108.5t-39.5 108t-115.5 38t-115.5 -38t-39.5 -108t39.5 -108.5t115.5 -38.5t115.5 38.5zM617 729v-115h-455v115h455z
" />
    <glyph glyph-name="Obreve" unicode="&#x14e;" horiz-adv-x="972" 
d="M816 640.5q121 -95.5 121 -283.5t-121 -283.5t-330 -95.5t-330 95.5t-121 283.5t121 283.5t330 95.5t330 -95.5zM658 199.5q60 55.5 60 157.5t-60 157.5t-172 55.5q-113 0 -172.5 -55.5t-59.5 -157.5t59.5 -157.5t172.5 -55.5q112 0 172 55.5zM712 927q-1 -53 -34 -89.5
t-84.5 -54.5t-107.5 -18t-107 18t-84 54.5t-34 89.5h157q5 -48 68 -48t68 48h158z" />
    <glyph glyph-name="obreve" unicode="&#x14f;" horiz-adv-x="779" 
d="M657.5 485q91.5 -76 91.5 -215t-91.5 -215t-267.5 -76q-177 0 -268.5 76t-91.5 215t91.5 215t268.5 76q176 0 267.5 -76zM505.5 161.5q39.5 38.5 39.5 108.5t-39.5 108t-115.5 38t-115.5 -38t-39.5 -108t39.5 -108.5t115.5 -38.5t115.5 38.5zM615 750q-1 -53 -34 -89.5
t-84.5 -54.5t-107.5 -18t-107 18t-84 54.5t-34 89.5h157q5 -48 68 -48t68 48h158z" />
    <glyph glyph-name="Ohungarumlaut" unicode="&#x150;" horiz-adv-x="972" 
d="M816 640.5q121 -95.5 121 -283.5t-121 -283.5t-330 -95.5t-330 95.5t-121 283.5t121 283.5t330 95.5t330 -95.5zM658 199.5q60 55.5 60 157.5t-60 157.5t-172 55.5q-113 0 -172.5 -55.5t-59.5 -157.5t59.5 -157.5t172.5 -55.5q112 0 172 55.5zM342 925h216l-127 -148
h-162zM613 925h216l-127 -148h-161z" />
    <glyph glyph-name="ohungarumlaut" unicode="&#x151;" horiz-adv-x="779" 
d="M657.5 485q91.5 -76 91.5 -215t-91.5 -215t-267.5 -76q-177 0 -268.5 76t-91.5 215t91.5 215t268.5 76q176 0 267.5 -76zM505.5 161.5q39.5 38.5 39.5 108.5t-39.5 108t-115.5 38t-115.5 -38t-39.5 -108t39.5 -108.5t115.5 -38.5t115.5 38.5zM246 747h216l-127 -148h-162
zM517 747h216l-127 -148h-161z" />
    <glyph glyph-name="OE" unicode="&#x152;" horiz-adv-x="1414" 
d="M909 156h462v-156h-653v74h-6q-40 -46 -109 -71t-155 -25q-119 0 -212 42t-147 127t-54 210t54 210t147 127t212 42q86 0 155 -25t109 -71h6v74h641v-157h-450v-119h431v-145h-431v-137zM655.5 201.5q62.5 54.5 62.5 155.5q0 102 -62 156t-170 54t-170 -54t-62 -156
q0 -101 62.5 -155.5t169.5 -54.5t169.5 54.5z" />
    <glyph glyph-name="oe" unicode="&#x153;" horiz-adv-x="1237" 
d="M1204 221h-488q7 -58 42.5 -85.5t100.5 -27.5q99 0 127 59h213q-5 -80 -82.5 -134t-257.5 -54q-158 0 -239 78q-84 -78 -240 -78q-173 0 -261.5 76t-88.5 215t88.5 215t261.5 76q76 0 137 -20t103 -58q40 38 100.5 58t138.5 20q172 0 260 -76t88 -215q0 -28 -3 -49z
M721 342h276q-25 89 -138 89q-115 0 -138 -89zM488 161.5q37 38.5 37 108.5t-37 108t-108 38q-72 0 -108.5 -38t-36.5 -108t36.5 -108.5t108.5 -38.5q71 0 108 38.5z" />
    <glyph glyph-name="Racute" unicode="&#x154;" horiz-adv-x="889" 
d="M696 278l175 -278h-229l-148 246h-234v-246h-200v714h523q142 0 206 -56t64 -172q0 -91 -41 -137t-116 -64v-7zM542 396q46 0 67 19t21 58t-21 58t-67 19h-282v-154h282zM440 924h271l-182 -148h-170z" />
    <glyph glyph-name="racute" unicode="&#x155;" horiz-adv-x="554" 
d="M52 540h193v-71h6q41 44 98.5 64.5t136.5 20.5q20 0 46 -4v-191q-46 11 -90 11q-85 0 -139 -33.5t-54 -120.5v-216h-197v540zM285 748h271l-182 -148h-170z" />
    <glyph glyph-name="uni0156" unicode="&#x156;" horiz-adv-x="889" 
d="M696 278l175 -278h-229l-148 246h-234v-246h-200v714h523q142 0 206 -56t64 -172q0 -91 -41 -137t-116 -64v-7zM542 396q46 0 67 19t21 58t-21 58t-67 19h-282v-154h282zM552 -150q0 -55 -12.5 -82.5t-55.5 -41t-133 -13.5v54q39 0 58.5 6.5t25 17.5t5.5 28h-89v119h201
v-88z" />
    <glyph glyph-name="uni0157" unicode="&#x157;" horiz-adv-x="554" 
d="M52 540h193v-71h6q41 44 98.5 64.5t136.5 20.5q20 0 46 -4v-191q-46 11 -90 11q-85 0 -139 -33.5t-54 -120.5v-216h-197v540zM252 -150q0 -55 -12.5 -82.5t-55.5 -41t-133 -13.5v54q39 0 58.5 6.5t25 17.5t5.5 28h-89v119h201v-88z" />
    <glyph glyph-name="Rcaron" unicode="&#x158;" horiz-adv-x="889" 
d="M696 278l175 -278h-229l-148 246h-234v-246h-200v714h523q142 0 206 -56t64 -172q0 -91 -41 -137t-116 -64v-7zM542 396q46 0 67 19t21 58t-21 58t-67 19h-282v-154h282zM443 850l60 74h206l-133 -148h-271l-134 148h207l60 -74h5z" />
    <glyph glyph-name="rcaron" unicode="&#x159;" horiz-adv-x="554" 
d="M52 540h193v-71h6q41 44 98.5 64.5t136.5 20.5q20 0 46 -4v-191q-46 11 -90 11q-85 0 -139 -33.5t-54 -120.5v-216h-197v540zM296 674l60 74h206l-133 -148h-271l-134 148h207l60 -74h5z" />
    <glyph glyph-name="Sacute" unicode="&#x15a;" horiz-adv-x="861" 
d="M579 499q-4 52 -48 73t-122 21q-72 0 -108 -18.5t-36 -52.5q0 -29 21.5 -43t65.5 -19l250 -29q113 -13 171 -64t58 -152q0 -92 -49.5 -144t-139 -72.5t-223.5 -20.5q-128 0 -214 22t-135.5 79.5t-53.5 159.5h228q4 -66 51 -90.5t133 -24.5q166 0 166 78q0 35 -25.5 50.5
t-75.5 22.5l-227 29q-114 13 -172.5 61.5t-58.5 144.5q0 123 101 174.5t280 51.5q180 0 282.5 -53t108.5 -184h-228zM416 925h271l-182 -148h-170z" />
    <glyph glyph-name="sacute" unicode="&#x15b;" horiz-adv-x="736" 
d="M477 380q-3 31 -36.5 44.5t-92.5 13.5q-52 0 -77.5 -11.5t-25.5 -30.5q0 -18 13 -26t48 -12l198 -22q71 -8 114 -25.5t65.5 -53t22.5 -94.5q0 -71 -39.5 -111t-114 -56.5t-190.5 -16.5q-165 0 -252.5 41.5t-91.5 152.5h213q3 -39 35 -54t101 -15q66 0 94 13t28 36
q0 20 -14.5 29t-50.5 14l-184 24q-105 13 -155 48.5t-50 115.5q0 96 84 136.5t232 40.5q326 0 334 -181h-208zM343 748h271l-182 -148h-170z" />
    <glyph glyph-name="Scircumflex" unicode="&#x15c;" horiz-adv-x="861" 
d="M579 499q-4 52 -48 73t-122 21q-72 0 -108 -18.5t-36 -52.5q0 -29 21.5 -43t65.5 -19l250 -29q113 -13 171 -64t58 -152q0 -92 -49.5 -144t-139 -72.5t-223.5 -20.5q-128 0 -214 22t-135.5 79.5t-53.5 159.5h228q4 -66 51 -90.5t133 -24.5q166 0 166 78q0 35 -25.5 50.5
t-75.5 22.5l-227 29q-114 13 -172.5 61.5t-58.5 144.5q0 123 101 174.5t280 51.5q180 0 282.5 -53t108.5 -184h-228zM686 777h-206l-60 74h-5l-60 -74h-207l134 148h271z" />
    <glyph glyph-name="scircumflex" unicode="&#x15d;" horiz-adv-x="736" 
d="M477 380q-3 31 -36.5 44.5t-92.5 13.5q-52 0 -77.5 -11.5t-25.5 -30.5q0 -18 13 -26t48 -12l198 -22q71 -8 114 -25.5t65.5 -53t22.5 -94.5q0 -71 -39.5 -111t-114 -56.5t-190.5 -16.5q-165 0 -252.5 41.5t-91.5 152.5h213q3 -39 35 -54t101 -15q66 0 94 13t28 36
q0 20 -14.5 29t-50.5 14l-184 24q-105 13 -155 48.5t-50 115.5q0 96 84 136.5t232 40.5q326 0 334 -181h-208zM620 600h-206l-60 74h-5l-60 -74h-207l134 148h271z" />
    <glyph glyph-name="Scedilla" unicode="&#x15e;" horiz-adv-x="861" 
d="M740 36.5q-91 -52.5 -269 -57.5l-21 -28q10 3 28 3q75 0 110 -23t35 -74q0 -57 -46.5 -81t-149.5 -24q-40 0 -73 3.5t-69 13.5v78h5q42 -12 67.5 -16.5t61.5 -4.5q29 0 44 6.5t15 24.5q0 17 -15 23.5t-44 6.5q-18 0 -42 -2.5t-36 -5.5h-6v47l40 53q-113 3 -190 27.5
t-121 80.5t-48 152h228q4 -66 51 -90.5t133 -24.5q166 0 166 78q0 35 -25.5 50.5t-75.5 22.5l-227 29q-114 13 -172.5 61.5t-58.5 144.5q0 123 101 174.5t280 51.5q180 0 282.5 -53t108.5 -184h-228q-4 52 -48 73t-122 21q-72 0 -108 -18.5t-36 -52.5q0 -29 21.5 -43
t65.5 -19l250 -29q113 -13 171 -64t58 -152q0 -126 -91 -178.5z" />
    <glyph glyph-name="scedilla" unicode="&#x15f;" horiz-adv-x="736" 
d="M633.5 26q-72.5 -41 -218.5 -46l-22 -29q11 3 28 3q75 0 110 -23t35 -74q0 -57 -46.5 -81t-149.5 -24q-40 0 -73.5 3.5t-69.5 13.5v78h6q42 -12 67.5 -16.5t61.5 -4.5q29 0 44 6.5t15 24.5q0 17 -15 23.5t-44 6.5q-18 0 -41.5 -2.5t-36.5 -5.5h-6v47l42 54
q-144 4 -221 46.5t-81 146.5h213q3 -39 35 -54t101 -15q66 0 94 13t28 36q0 20 -14.5 29t-50.5 14l-184 24q-105 13 -155 48.5t-50 115.5q0 96 84 136.5t232 40.5q326 0 334 -181h-208q-3 31 -36.5 44.5t-92.5 13.5q-52 0 -77.5 -11.5t-25.5 -30.5q0 -18 13 -26t48 -12
l198 -22q71 -8 114 -25.5t65.5 -53t22.5 -94.5q0 -96 -72.5 -137z" />
    <glyph glyph-name="Scaron" unicode="&#x160;" horiz-adv-x="861" 
d="M579 499q-4 52 -48 73t-122 21q-72 0 -108 -18.5t-36 -52.5q0 -29 21.5 -43t65.5 -19l250 -29q113 -13 171 -64t58 -152q0 -92 -49.5 -144t-139 -72.5t-223.5 -20.5q-128 0 -214 22t-135.5 79.5t-53.5 159.5h228q4 -66 51 -90.5t133 -24.5q166 0 166 78q0 35 -25.5 50.5
t-75.5 22.5l-227 29q-114 13 -172.5 61.5t-58.5 144.5q0 123 101 174.5t280 51.5q180 0 282.5 -53t108.5 -184h-228zM419 851l60 74h206l-133 -148h-271l-134 148h207l60 -74h5z" />
    <glyph glyph-name="scaron" unicode="&#x161;" horiz-adv-x="736" 
d="M477 380q-3 31 -36.5 44.5t-92.5 13.5q-52 0 -77.5 -11.5t-25.5 -30.5q0 -18 13 -26t48 -12l198 -22q71 -8 114 -25.5t65.5 -53t22.5 -94.5q0 -71 -39.5 -111t-114 -56.5t-190.5 -16.5q-165 0 -252.5 41.5t-91.5 152.5h213q3 -39 35 -54t101 -15q66 0 94 13t28 36
q0 20 -14.5 29t-50.5 14l-184 24q-105 13 -155 48.5t-50 115.5q0 96 84 136.5t232 40.5q326 0 334 -181h-208zM354 674l60 74h206l-133 -148h-271l-134 148h207l60 -74h5z" />
    <glyph glyph-name="uni0162" unicode="&#x162;" horiz-adv-x="796" 
d="M498 0h-44l-37 -49q11 3 28 3q75 0 109.5 -23t34.5 -74q0 -57 -46.5 -81t-149.5 -24q-40 0 -73 3.5t-69 13.5v78h6q41 -12 66.5 -16.5t62.5 -4.5q29 0 43.5 6.5t14.5 24.5q0 17 -14.5 23.5t-43.5 6.5q-18 0 -42.5 -2.5t-36.5 -5.5h-5v47l57 74h-61v550h-276v164h752v-164
h-276v-550z" />
    <glyph glyph-name="uni0163" unicode="&#x163;" horiz-adv-x="473" 
d="M431 -69q35 -23 35 -74q0 -57 -46.5 -81t-149.5 -24q-40 0 -73 3.5t-69 13.5v78h5q42 -12 67.5 -16.5t61.5 -4.5q29 0 44 6.5t15 24.5q0 17 -15 23.5t-44 6.5q-18 0 -41.5 -2.5t-36.5 -5.5h-6v47l55 70q-73 12 -103 49.5t-30 112.5v260h-91v122h91v146h196v-146h143v-122
h-143v-222q0 -26 16.5 -36.5t50.5 -10.5q50 0 76 3v-152q-59 -8 -115 -9l-31 -40q11 3 28 3q75 0 110 -23z" />
    <glyph glyph-name="Tcaron" unicode="&#x164;" horiz-adv-x="796" 
d="M22 714h752v-164h-276v-550h-200v550h-276v164zM401 851l60 74h206l-133 -148h-271l-134 148h207l60 -74h5z" />
    <glyph glyph-name="tcaron" unicode="&#x165;" horiz-adv-x="536" 
d="M515 754q0 -88 -37.5 -127.5t-129.5 -39.5v62q45 0 61.5 15.5t16.5 50.5h-78v126h167v-87zM439 152v-152q-72 -9 -122 -9q-83 0 -130 16t-67 52t-20 99v260h-91v122h91v146h196v-146h143v-122h-143v-222q0 -26 16.5 -36.5t50.5 -10.5q50 0 76 3z" />
    <glyph glyph-name="Tbar" unicode="&#x166;" horiz-adv-x="796" 
d="M774 714v-164h-276v-166h143v-136h-143v-248h-200v248h-143v136h143v166h-276v164h752z" />
    <glyph glyph-name="tbar" unicode="&#x167;" horiz-adv-x="473" 
d="M439 418h-143v-61h143v-95h-143v-66q0 -26 16.5 -36.5t50.5 -10.5q50 0 76 3v-152q-72 -9 -122 -9q-83 0 -130 16t-67 52t-20 99v104h-91v95h91v61h-91v122h91v146h196v-146h143v-122z" />
    <glyph glyph-name="Utilde" unicode="&#x168;" horiz-adv-x="908" 
d="M647 714h200v-412q0 -178 -100.5 -250.5t-292.5 -72.5t-293 72.5t-101 250.5v412h200v-411q0 -88 50 -124t144 -36t143.5 36.5t49.5 123.5v411zM504 766.5q-26 7.5 -65 22.5q-7 2 -32 11t-39 9q-18 0 -24.5 -8.5t-7.5 -30.5h-134q0 55 22 91.5t56 54t70 17.5q25 0 52 -8
t65 -22q53 -20 71 -20t24.5 8.5t7.5 30.5h134q0 -55 -22.5 -91.5t-56.5 -54t-70 -17.5q-25 0 -51 7.5z" />
    <glyph glyph-name="utilde" unicode="&#x169;" 
d="M526 0v67h-6q-90 -81 -229 -81q-109 0 -174 51.5t-65 154.5v348h197v-286q0 -111 123 -111q61 0 105.5 33.5t44.5 109.5v254h196v-540h-192zM435 589.5q-26 7.5 -65 22.5q-7 2 -32 11t-39 9q-18 0 -24.5 -8.5t-7.5 -30.5h-134q0 55 22 91.5t56 54t70 17.5q25 0 52 -8
t65 -22q53 -20 71 -20t24.5 8.5t7.5 30.5h134q0 -55 -22.5 -91.5t-56.5 -54t-70 -17.5q-25 0 -51 7.5z" />
    <glyph glyph-name="Umacron" unicode="&#x16a;" horiz-adv-x="908" 
d="M647 714h200v-412q0 -178 -100.5 -250.5t-292.5 -72.5t-293 72.5t-101 250.5v412h200v-411q0 -88 50 -124t144 -36t143.5 36.5t49.5 123.5v411zM681 894v-115h-455v115h455z" />
    <glyph glyph-name="umacron" unicode="&#x16b;" 
d="M526 0v67h-6q-90 -81 -229 -81q-109 0 -174 51.5t-65 154.5v348h197v-286q0 -111 123 -111q61 0 105.5 33.5t44.5 109.5v254h196v-540h-192zM612 729v-115h-455v115h455z" />
    <glyph glyph-name="Ubreve" unicode="&#x16c;" horiz-adv-x="908" 
d="M647 714h200v-412q0 -178 -100.5 -250.5t-292.5 -72.5t-293 72.5t-101 250.5v412h200v-411q0 -88 50 -124t144 -36t143.5 36.5t49.5 123.5v411zM680 927q-1 -53 -34 -89.5t-84.5 -54.5t-107.5 -18t-107 18t-84 54.5t-34 89.5h157q5 -48 68 -48t68 48h158z" />
    <glyph glyph-name="ubreve" unicode="&#x16d;" 
d="M526 0v67h-6q-90 -81 -229 -81q-109 0 -174 51.5t-65 154.5v348h197v-286q0 -111 123 -111q61 0 105.5 33.5t44.5 109.5v254h196v-540h-192zM610 750q-1 -53 -34 -89.5t-84.5 -54.5t-107.5 -18t-107 18t-84 54.5t-34 89.5h157q5 -48 68 -48t68 48h158z" />
    <glyph glyph-name="Uring" unicode="&#x16e;" horiz-adv-x="908" 
d="M647 714h200v-412q0 -178 -100.5 -250.5t-292.5 -72.5t-293 72.5t-101 250.5v412h200v-411q0 -88 50 -124t144 -36t143.5 36.5t49.5 123.5v411zM336 779.5q-48 36.5 -48 97.5q0 60 48 96.5t119 36.5q72 0 120 -36.5t48 -96.5q0 -61 -48 -97.5t-120 -36.5q-71 0 -119 36.5
zM495.5 841.5q16.5 13.5 16.5 35.5t-16.5 35t-40.5 13t-40.5 -13t-16.5 -35t16.5 -35.5t40.5 -13.5t40.5 13.5z" />
    <glyph glyph-name="uring" unicode="&#x16f;" 
d="M526 0v67h-6q-90 -81 -229 -81q-109 0 -174 51.5t-65 154.5v348h197v-286q0 -111 123 -111q61 0 105.5 33.5t44.5 109.5v254h196v-540h-192zM266 623.5q-48 36.5 -48 97.5q0 60 48 96.5t119 36.5q72 0 120 -36.5t48 -96.5q0 -61 -48 -97.5t-120 -36.5q-71 0 -119 36.5z
M425.5 685.5q16.5 13.5 16.5 35.5t-16.5 35t-40.5 13t-40.5 -13t-16.5 -35t16.5 -35.5t40.5 -13.5t40.5 13.5z" />
    <glyph glyph-name="Uhungarumlaut" unicode="&#x170;" horiz-adv-x="908" 
d="M647 714h200v-412q0 -178 -100.5 -250.5t-292.5 -72.5t-293 72.5t-101 250.5v412h200v-411q0 -88 50 -124t144 -36t143.5 36.5t49.5 123.5v411zM310 925h216l-127 -148h-162zM581 925h216l-127 -148h-161z" />
    <glyph glyph-name="uhungarumlaut" unicode="&#x171;" 
d="M526 0v67h-6q-90 -81 -229 -81q-109 0 -174 51.5t-65 154.5v348h197v-286q0 -111 123 -111q61 0 105.5 33.5t44.5 109.5v254h196v-540h-192zM241 747h216l-127 -148h-162zM512 747h216l-127 -148h-161z" />
    <glyph glyph-name="Uogonek" unicode="&#x172;" horiz-adv-x="908" 
d="M647 714h200v-412q0 -129 -53 -201.5t-155 -100.5v0q-52 -17 -82.5 -45t-30.5 -53q0 -20 15 -29t39 -9q23 0 39.5 3.5t19.5 4.5v-100q-42 -9 -97 -9q-94 0 -141 28.5t-47 78.5q0 30 21.5 58.5t57.5 50.5q-182 3 -277.5 76.5t-95.5 246.5v412h200v-411q0 -88 50 -124
t144 -36t143.5 36.5t49.5 123.5v411z" />
    <glyph glyph-name="uogonek" unicode="&#x173;" 
d="M718 0q-52 -17 -82.5 -45t-30.5 -53q0 -20 15 -29t39 -9q23 0 39.5 3.5t19.5 4.5v-100q-43 -9 -97 -9q-94 0 -141.5 28.5t-47.5 78.5q0 39 34.5 74.5t87.5 55.5h-28v67h-6q-90 -81 -229 -81q-109 0 -174 51.5t-65 154.5v348h197v-286q0 -111 123 -111q61 0 105.5 33.5
t44.5 109.5v254h196v-540z" />
    <glyph glyph-name="Wcircumflex" unicode="&#x174;" horiz-adv-x="1165" 
d="M1164 714l-214 -714h-245l-119 463h-5l-119 -463h-249l-212 714h223l120 -471h6l121 471h224l121 -471h6l121 471h221zM854 777h-206l-60 74h-5l-60 -74h-207l134 148h271z" />
    <glyph glyph-name="wcircumflex" unicode="&#x175;" horiz-adv-x="1118" 
d="M892 540h218l-218 -540h-217l-111 330h-6l-111 -330h-216l-222 540h219l116 -329h5l111 328h201l115 -327h6zM829 600h-206l-60 74h-5l-60 -74h-207l134 148h271z" />
    <glyph glyph-name="Ycircumflex" unicode="&#x176;" horiz-adv-x="862" 
d="M630 714h237l-335 -468v-246h-201v246l-336 468h239l197 -295zM702 777h-206l-60 74h-5l-60 -74h-207l134 148h271z" />
    <glyph glyph-name="ycircumflex" unicode="&#x177;" horiz-adv-x="749" 
d="M469 -22q-37 -75 -72 -111.5t-83 -50t-130 -13.5q-71 0 -103 1v160q56 -2 82 -2q39 0 58.5 8.5t29.5 30.5l11 24l-258 515h222l146 -337h5l146 337h222zM644 600h-206l-60 74h-5l-60 -74h-207l134 148h271z" />
    <glyph glyph-name="Ydieresis" unicode="&#x178;" horiz-adv-x="862" 
d="M630 714h237l-335 -468v-246h-201v246l-336 468h239l197 -295zM384 778h-185v119h185v-119zM665 778h-185v119h185v-119z" />
    <glyph glyph-name="Zacute" unicode="&#x179;" horiz-adv-x="850" 
d="M807 714v-162l-445 -382h446v-170h-774v162l445 382h-420v170h748zM433 925h271l-182 -148h-170z" />
    <glyph glyph-name="zacute" unicode="&#x17a;" horiz-adv-x="697" 
d="M657 142v-142h-628v149l331 249h-309v142h606v-147l-333 -251h333zM358 748h271l-182 -148h-170z" />
    <glyph glyph-name="Zdotaccent" unicode="&#x17b;" horiz-adv-x="850" 
d="M807 714v-162l-445 -382h446v-170h-774v162l445 382h-420v170h748zM534 778h-201v119h201v-119z" />
    <glyph glyph-name="zdotaccent" unicode="&#x17c;" horiz-adv-x="697" 
d="M657 142v-142h-628v149l331 249h-309v142h606v-147l-333 -251h333zM466 609h-201v119h201v-119z" />
    <glyph glyph-name="Zcaron" unicode="&#x17d;" horiz-adv-x="850" 
d="M807 714v-162l-445 -382h446v-170h-774v162l445 382h-420v170h748zM436 851l60 74h206l-133 -148h-271l-134 148h207l60 -74h5z" />
    <glyph glyph-name="zcaron" unicode="&#x17e;" horiz-adv-x="697" 
d="M657 142v-142h-628v149l331 249h-309v142h606v-147l-333 -251h333zM369 674l60 74h206l-133 -148h-271l-134 148h207l60 -74h5z" />
    <glyph glyph-name="florin" unicode="&#x192;" horiz-adv-x="593" 
d="M465.5 604q-24.5 -10 -31.5 -47l-20 -103h126v-128h-151l-34 -174q-14 -71 -49.5 -108.5t-90.5 -51t-139 -13.5q-20 0 -68 3v137q39 -3 54 -3q42 0 66.5 10t31.5 47l30 153h-101v128h126l24 124q14 71 49.5 108.5t90.5 51t139 13.5q23 0 68 -3v-137q-39 3 -54 3
q-42 0 -66.5 -10z" />
    <glyph glyph-name="Oslashacute" unicode="&#x1fe;" horiz-adv-x="972" 
d="M486 925h322l-216 -148h-202zM842 616q95 -95 95 -259q0 -188 -121 -283.5t-330 -95.5q-171 0 -283 64l-91 -82l-73 56l91 82q-95 95 -95 259q0 188 121 283.5t330 95.5q171 0 283 -64l91 82l73 -56zM284 236l338 304q-54 30 -136 30q-113 0 -172.5 -55.5t-59.5 -157.5
q0 -72 30 -121zM658 199.5q60 55.5 60 157.5q0 72 -30 121l-338 -304q54 -30 136 -30q112 0 172 55.5z" />
    <glyph glyph-name="oslashacute" unicode="&#x1ff;" horiz-adv-x="779" 
d="M678 467q71 -74 71 -197q0 -139 -91.5 -215t-267.5 -76q-142 0 -232 51l-59 -50l-59 42l61 51q-71 74 -71 197q0 139 91.5 215t268.5 76q142 0 232 -51l59 49l58 -41zM249 197l235 197q-38 22 -94 22q-76 0 -115.5 -38t-39.5 -108q0 -40 14 -73zM505.5 161.5
q39.5 38.5 39.5 108.5q0 40 -14 73l-235 -198q38 -22 94 -22q76 0 115.5 38.5zM382 748h271l-182 -148h-170z" />
    <glyph glyph-name="uni0218" unicode="&#x218;" horiz-adv-x="861" 
d="M579 499q-4 52 -48 73t-122 21q-72 0 -108 -18.5t-36 -52.5q0 -29 21.5 -43t65.5 -19l250 -29q113 -13 171 -64t58 -152q0 -92 -49.5 -144t-139 -72.5t-223.5 -20.5q-128 0 -214 22t-135.5 79.5t-53.5 159.5h228q4 -66 51 -90.5t133 -24.5q166 0 166 78q0 35 -25.5 50.5
t-75.5 22.5l-227 29q-114 13 -172.5 61.5t-58.5 144.5q0 123 101 174.5t280 51.5q180 0 282.5 -53t108.5 -184h-228zM520 -150q0 -55 -12.5 -82.5t-55.5 -41t-133 -13.5v54q39 0 58.5 6.5t25 17.5t5.5 28h-89v119h201v-88z" />
    <glyph glyph-name="uni0219" unicode="&#x219;" horiz-adv-x="736" 
d="M477 380q-3 31 -36.5 44.5t-92.5 13.5q-52 0 -77.5 -11.5t-25.5 -30.5q0 -18 13 -26t48 -12l198 -22q71 -8 114 -25.5t65.5 -53t22.5 -94.5q0 -71 -39.5 -111t-114 -56.5t-190.5 -16.5q-165 0 -252.5 41.5t-91.5 152.5h213q3 -39 35 -54t101 -15q66 0 94 13t28 36
q0 20 -14.5 29t-50.5 14l-184 24q-105 13 -155 48.5t-50 115.5q0 96 84 136.5t232 40.5q326 0 334 -181h-208zM463 -150q0 -55 -12.5 -82.5t-55.5 -41t-133 -13.5v54q39 0 58.5 6.5t25 17.5t5.5 28h-89v119h201v-88z" />
    <glyph glyph-name="uni021A" unicode="&#x21a;" horiz-adv-x="796" 
d="M22 714h752v-164h-276v-550h-200v550h-276v164zM499 -150q0 -55 -12.5 -82.5t-55.5 -41t-133 -13.5v54q39 0 58.5 6.5t25 17.5t5.5 28h-89v119h201v-88z" />
    <glyph glyph-name="uni021B" unicode="&#x21b;" horiz-adv-x="473" 
d="M439 152v-152q-72 -9 -122 -9q-83 0 -130 16t-67 52t-20 99v260h-91v122h91v146h196v-146h143v-122h-143v-222q0 -26 16.5 -36.5t50.5 -10.5q50 0 76 3zM370 -150q0 -55 -12.5 -82.5t-55.5 -41t-133 -13.5v54q39 0 58.5 6.5t25 17.5t5.5 28h-89v119h201v-88z" />
    <glyph glyph-name="uni0237" unicode="&#x237;" horiz-adv-x="301" 
d="M40.5 -29q11.5 10 11.5 38v531h197v-584q0 -60 -19 -92.5t-63.5 -46.5t-124.5 -14q-51 0 -86 4v156q20 -2 50 -2q23 0 34.5 10z" />
    <glyph glyph-name="uni02BC" unicode="&#x2bc;" horiz-adv-x="321" 
d="M261 603q0 -112 -47 -159.5t-154 -48.5v65q93 0 93 103h-93v161h201v-121z" />
    <glyph glyph-name="circumflex" unicode="&#x2c6;" horiz-adv-x="659" 
d="M598 599h-206l-60 74h-5l-60 -74h-207l134 148h271z" />
    <glyph glyph-name="caron" unicode="&#x2c7;" horiz-adv-x="659" 
d="M332 673l60 74h206l-133 -148h-271l-134 148h207l60 -74h5z" />
    <glyph glyph-name="breve" unicode="&#x2d8;" horiz-adv-x="571" 
d="M511 749q-1 -53 -34 -89.5t-84.5 -54.5t-107.5 -18t-107 18t-84 54.5t-34 89.5h157q5 -48 68 -48t68 48h158z" />
    <glyph glyph-name="dotaccent" unicode="&#x2d9;" horiz-adv-x="321" 
d="M260 609h-201v119h201v-119z" />
    <glyph glyph-name="ring" unicode="&#x2da;" horiz-adv-x="455" 
d="M108 623.5q-48 36.5 -48 97.5q0 60 48 96.5t119 36.5q72 0 120 -36.5t48 -96.5q0 -61 -48 -97.5t-120 -36.5q-71 0 -119 36.5zM267.5 685.5q16.5 13.5 16.5 35.5t-16.5 35t-40.5 13t-40.5 -13t-16.5 -35t16.5 -35.5t40.5 -13.5t40.5 13.5z" />
    <glyph glyph-name="ogonek" unicode="&#x2db;" horiz-adv-x="406" 
d="M326.5 -132.5q16.5 3.5 19.5 4.5v-100q-43 -9 -97 -9q-94 0 -141.5 28.5t-47.5 78.5q0 34 26.5 65.5t69.5 53t91 27.5l99 -16q-52 -17 -82.5 -45t-30.5 -53q0 -20 15 -29t39 -9q23 0 39.5 3.5z" />
    <glyph glyph-name="tilde" unicode="&#x2dc;" horiz-adv-x="622" 
d="M362 589.5q-26 7.5 -65 22.5q-7 2 -32 11t-39 9q-18 0 -24.5 -8.5t-7.5 -30.5h-134q0 55 22 91.5t56 54t70 17.5q25 0 52 -8t65 -22q53 -20 71 -20t24.5 8.5t7.5 30.5h134q0 -55 -22.5 -91.5t-56.5 -54t-70 -17.5q-25 0 -51 7.5z" />
    <glyph glyph-name="hungarumlaut" unicode="&#x2dd;" horiz-adv-x="680" 
d="M133 747h216l-127 -148h-162zM404 747h216l-127 -148h-161z" />
    <glyph glyph-name="uni0326" unicode="&#x326;" horiz-adv-x="0" 
d="M-60 -150q0 -55 -12.5 -82.5t-55.5 -41t-133 -13.5v54q39 0 58.5 6.5t25 17.5t5.5 28h-89v119h201v-88z" />
    <glyph glyph-name="Wgrave" unicode="&#x1e80;" horiz-adv-x="1165" 
d="M1164 714l-214 -714h-245l-119 463h-5l-119 -463h-249l-212 714h223l120 -471h6l121 471h224l121 -471h6l121 471h221zM502 777l-182 148h271l81 -148h-170z" />
    <glyph glyph-name="wgrave" unicode="&#x1e81;" horiz-adv-x="1118" 
d="M892 540h218l-218 -540h-217l-111 330h-6l-111 -330h-216l-222 540h219l116 -329h5l111 328h201l115 -327h6zM479 600l-182 148h271l81 -148h-170z" />
    <glyph glyph-name="Wacute" unicode="&#x1e82;" horiz-adv-x="1165" 
d="M1164 714l-214 -714h-245l-119 463h-5l-119 -463h-249l-212 714h223l120 -471h6l121 471h224l121 -471h6l121 471h221zM584 925h271l-182 -148h-170z" />
    <glyph glyph-name="wacute" unicode="&#x1e83;" horiz-adv-x="1118" 
d="M892 540h218l-218 -540h-217l-111 330h-6l-111 -330h-216l-222 540h219l116 -329h5l111 328h201l115 -327h6zM552 748h271l-182 -148h-170z" />
    <glyph glyph-name="Wdieresis" unicode="&#x1e84;" horiz-adv-x="1165" 
d="M1164 714l-214 -714h-245l-119 463h-5l-119 -463h-249l-212 714h223l120 -471h6l121 471h224l121 -471h6l121 471h221zM536 778h-185v119h185v-119zM817 778h-185v119h185v-119z" />
    <glyph glyph-name="wdieresis" unicode="&#x1e85;" horiz-adv-x="1118" 
d="M892 540h218l-218 -540h-217l-111 330h-6l-111 -330h-216l-222 540h219l116 -329h5l111 328h201l115 -327h6zM512 610h-185v119h185v-119zM793 610h-185v119h185v-119z" />
    <glyph glyph-name="Ygrave" unicode="&#x1ef2;" horiz-adv-x="862" 
d="M630 714h237l-335 -468v-246h-201v246l-336 468h239l197 -295zM350 777l-182 148h271l81 -148h-170z" />
    <glyph glyph-name="ygrave" unicode="&#x1ef3;" horiz-adv-x="749" 
d="M469 -22q-37 -75 -72 -111.5t-83 -50t-130 -13.5q-71 0 -103 1v160q56 -2 82 -2q39 0 58.5 8.5t29.5 30.5l11 24l-258 515h222l146 -337h5l146 337h222zM294 600l-182 148h271l81 -148h-170z" />
    <glyph glyph-name="uni2007" unicode="&#x2007;" horiz-adv-x="306" 
 />
    <glyph glyph-name="uni2008" unicode="&#x2008;" horiz-adv-x="261" 
 />
    <glyph glyph-name="uni200B" unicode="&#x200b;" horiz-adv-x="0" 
 />
    <glyph glyph-name="endash" unicode="&#x2013;" horiz-adv-x="685" 
d="M652 354v-130h-620v130h620z" />
    <glyph glyph-name="emdash" unicode="&#x2014;" horiz-adv-x="909" 
d="M879 354v-130h-848v130h848z" />
    <glyph glyph-name="quoteleft" unicode="&#x2018;" horiz-adv-x="274" 
d="M37 486q0 122 49 175t151 53v-71q-41 -1 -61 -32t-20 -82h82v-176h-201v133z" />
    <glyph glyph-name="quoteright" unicode="&#x2019;" horiz-adv-x="274" 
d="M238 581q0 -122 -49 -175t-152 -53v71q41 1 61 32t20 81h-81v177h201v-133z" />
    <glyph glyph-name="quotesinglbase" unicode="&#x201a;" horiz-adv-x="274" 
d="M238 44q0 -122 -49 -175t-152 -54v72q41 0 61 31t20 82h-81v177h201v-133z" />
    <glyph glyph-name="quotedblleft" unicode="&#x201c;" horiz-adv-x="563" 
d="M37 486q0 122 49 175t151 53v-71q-41 -1 -61 -32t-20 -82h82v-176h-201v133zM326 486q0 122 49 175t151 53v-71q-41 -1 -61 -32t-20 -82h81v-176h-200v133z" />
    <glyph glyph-name="quotedblright" unicode="&#x201d;" horiz-adv-x="563" 
d="M238 581q0 -122 -49 -175t-152 -53v71q41 1 61 32t20 81h-81v177h201v-133zM526 581q0 -122 -49 -175t-151 -53v71q41 1 61 32t20 81h-81v177h200v-133z" />
    <glyph glyph-name="quotedblbase" unicode="&#x201e;" horiz-adv-x="563" 
d="M238 44q0 -122 -49 -175t-152 -54v72q41 0 61 31t20 82h-81v177h201v-133zM526 44q0 -122 -49 -175t-151 -54v72q41 0 61 31t20 82h-81v177h200v-133z" />
    <glyph glyph-name="dagger" unicode="&#x2020;" horiz-adv-x="684" 
d="M435 504h219v-155h-219v-530h-185v530h-219v155h219v210h185v-210z" />
    <glyph glyph-name="daggerdbl" unicode="&#x2021;" horiz-adv-x="684" 
d="M654 504v-147h-219v-181h219v-147h-219v-210h-185v210h-219v147h219v181h-219v147h219v210h185v-210h219z" />
    <glyph glyph-name="bullet" unicode="&#x2022;" horiz-adv-x="449" 
d="M129.5 192.5q-43.5 25.5 -69 69t-25.5 95.5t25.5 95.5t69 69t95.5 25.5t95.5 -25.5t69 -69t25.5 -95.5t-25.5 -95.5t-69 -69t-95.5 -25.5t-95.5 25.5z" />
    <glyph glyph-name="ellipsis" unicode="&#x2026;" horiz-adv-x="1018" 
d="M279 0h-219v190h219v-190zM618 0h-219v190h219v-190zM958 0h-219v190h219v-190z" />
    <glyph glyph-name="perthousand" unicode="&#x2030;" horiz-adv-x="1623" 
d="M420 664q55 -50 55 -154t-55 -154t-167 -50q-113 0 -167.5 49.5t-54.5 154.5t54.5 154.5t167.5 49.5q112 0 167 -50zM278 0l449 700h122l-449 -700h-122zM312.5 431q20.5 23 20.5 79t-20.5 79t-59.5 23q-40 0 -60.5 -23t-20.5 -79t20.5 -79t60.5 -23q39 0 59.5 23z
M1041.5 344.5q54.5 -49.5 54.5 -154.5q0 -104 -54.5 -154t-167.5 -50q-112 0 -167 50t-55 154t55 154t167 50q113 0 167.5 -49.5zM1537.5 344.5q54.5 -49.5 54.5 -154.5q0 -104 -54.5 -154t-167.5 -50q-112 0 -167 50t-55 154t55 154t167 50q113 0 167.5 -49.5zM934 111
q21 23 21 79t-20.5 79t-60.5 23q-39 0 -59.5 -23t-20.5 -79q0 -55 20.5 -78.5t59.5 -23.5t60 23zM1430 111q21 23 21 79t-20.5 79t-60.5 23q-39 0 -59.5 -23t-20.5 -79q0 -55 20.5 -78.5t59.5 -23.5t60 23z" />
    <glyph glyph-name="guilsinglleft" unicode="&#x2039;" horiz-adv-x="280" 
d="M41 171v202l199 146v-164l-113 -80v-5l113 -80v-164z" />
    <glyph glyph-name="guilsinglright" unicode="&#x203a;" horiz-adv-x="275" 
d="M40 519l199 -146v-202l-199 -145v164l113 80v5l-113 80v164z" />
    <glyph glyph-name="uni2070" unicode="&#x2070;" horiz-adv-x="551" 
d="M464 870q62 -56 62 -164t-62 -164.5t-188 -56.5q-251 0 -251 221q0 108 62 164t189 56q126 0 188 -56zM363.5 613q26.5 31 26.5 93q0 61 -27 92t-87 31q-61 0 -88.5 -31t-27.5 -92q0 -62 27.5 -93t88.5 -31t87.5 31z" />
    <glyph glyph-name="uni2074" unicode="&#x2074;" horiz-adv-x="493" 
d="M282 499v84h-274v95l245 234h154v-244h71v-85h-71v-84h-125zM135 668h147v143h-3l-144 -139v-4z" />
    <glyph glyph-name="uni2075" unicode="&#x2075;" horiz-adv-x="508" 
d="M457 912v-86h-300l-3 -63h3q50 26 118 26q111 0 161 -35t50 -115q0 -81 -54 -117.5t-180 -36.5q-120 0 -173.5 33.5t-57.5 102.5h141q8 -44 90 -44q48 0 71 14.5t23 46.5q0 33 -22.5 47t-69.5 14q-51 0 -87 -18h-133l14 231h409z" />
    <glyph glyph-name="uni2076" unicode="&#x2076;" horiz-adv-x="521" 
d="M447 735q53 -33 53 -102q0 -148 -230 -148q-71 0 -119 15t-77 47q-49 50 -49 158q0 111 58.5 166t184.5 55q116 0 169.5 -38.5t58.5 -92.5h-138q-4 22 -27 33t-60 11q-52 0 -80 -22t-32 -80h3q20 14 55 22.5t68 8.5q109 0 162 -33zM168 629q0 -57 97 -57q95 0 95 57
q0 55 -95 55q-97 0 -97 -55z" />
    <glyph glyph-name="uni2077" unicode="&#x2077;" horiz-adv-x="475" 
d="M4 912h457v-49q0 -34 -16 -62.5t-62 -82.5q-50 -57 -76.5 -105t-31.5 -114h-170q8 72 45.5 130.5t99.5 117.5q8 8 47 44l20 18v3h-313v100z" />
    <glyph glyph-name="uni2078" unicode="&#x2078;" horiz-adv-x="531" 
d="M442 897.5q56 -28.5 56 -94.5t-70 -86v-3q39 -9 59 -32.5t20 -68.5q0 -67 -57.5 -97.5t-184.5 -30.5q-126 0 -183 30.5t-57 97.5q0 45 19.5 68.5t59.5 32.5v3q-71 20 -71 86t56 94.5t176 28.5q121 0 177 -28.5zM192.5 828q-24.5 -10 -24.5 -34t24 -34t73 -10t73.5 10
t24.5 34t-24.5 34t-73.5 10q-48 0 -72.5 -10zM340 583.5q24 10.5 24 37.5t-24.5 38.5t-74.5 11.5t-74.5 -11.5t-24.5 -38.5t24 -37.5t75 -10.5t75 10.5z" />
    <glyph glyph-name="uni2079" unicode="&#x2079;" horiz-adv-x="511" 
d="M474 801q12 -39 12 -95q0 -111 -58.5 -166t-184.5 -55q-116 0 -169.5 38.5t-58.5 92.5h138q4 -21 26.5 -32.5t59.5 -11.5q52 0 81 22.5t33 79.5h-4q-21 -14 -56 -22.5t-67 -8.5q-109 0 -162 33t-53 102q0 148 229 148q137 0 196 -60q26 -26 38 -65zM342 782q0 57 -97 57
q-95 0 -95 -57q0 -54 95 -54q97 0 97 54z" />
    <glyph glyph-name="franc" unicode="&#x20a3;" horiz-adv-x="947" 
d="M66 0v700h677v-159h-479v-109h477q88 0 133 -41t45 -114q0 -48 -21.5 -76t-61.5 -42v-5l93 -154h-182l-75 123h-120v-123h-168v286h-120v-286h-198zM552 306v-76h135q21 0 32.5 9.5t11.5 27.5q0 19 -12 29t-32 10h-135z" />
    <glyph glyph-name="Euro" unicode="&#x20ac;" horiz-adv-x="832" 
d="M347 249q24 -49 72.5 -74.5t116.5 -25.5q120 0 214 63v-185q-80 -38 -214 -38q-164 0 -271 65t-137 195h-103l51 73h42q-1 9 -1 28q0 20 1 29h-93l50 72h53q30 130 137 195t271 65q76 0 149.5 -20t116.5 -54l-101 -135q-70 49 -165 49q-68 0 -116.5 -25.5t-72.5 -74.5
h315l-52 -72h-283q-1 -9 -1 -29q0 -19 1 -28h242l-49 -73h-173z" />
    <glyph glyph-name="uni2116" unicode="&#x2116;" horiz-adv-x="1468" 
d="M1351.5 678.5q56.5 -45.5 56.5 -129.5q0 -85 -56.5 -130t-169.5 -45q-114 0 -170 45t-56 130q0 84 56.5 129.5t169.5 45.5t169.5 -45.5zM661 253v461h191v-714h-230l-365 470h-6v-470h-191v714h237l358 -461h6zM1248 488q22 22 22 61t-22 60.5t-66 21.5t-66.5 -21.5
t-22.5 -60.5t22.5 -61t66.5 -22t66 22zM956 0v110h452v-110h-452z" />
    <glyph glyph-name="trademark" unicode="&#x2122;" horiz-adv-x="992" 
d="M31 714h387v-90h-141v-268h-105v268h-141v90zM790 714h171v-358h-105v253h-6l-94 -253h-85l-96 257h-6v-257h-99v358h167l74 -218h6z" />
    <glyph glyph-name="uni2126" unicode="&#x2126;" horiz-adv-x="996" 
d="M40 0v122h219v5q-95 19 -153.5 85.5t-58.5 182.5q0 108 56 185t158 116.5t237 39.5t237 -39.5t158.5 -116.5t56.5 -185q0 -116 -58.5 -182.5t-153.5 -85.5v-5h219v-122h-409v168q81 14 131.5 69t50.5 137q0 91 -63 142t-169 51t-168.5 -51t-62.5 -142q0 -82 50 -137
t131 -69v-168h-408z" />
    <glyph glyph-name="partialdiff" unicode="&#x2202;" horiz-adv-x="789" 
d="M636 664q113 -83 113 -303q0 -204 -97.5 -293.5t-281.5 -89.5q-89 0 -164 26t-120.5 80t-45.5 136q0 95 47 153.5t119.5 83t155.5 24.5q105 0 169 -38q-16 89 -65.5 121t-125.5 32q-53 0 -105.5 -14t-94.5 -39l-57 138q53 31 124 48.5t152 17.5q164 0 277 -83z
M488.5 163.5q38.5 41.5 46.5 132.5q-45 41 -131 41q-70 0 -115 -27.5t-45 -87.5q0 -50 34.5 -75t91.5 -25q80 0 118.5 41.5z" />
    <glyph glyph-name="emptyset" unicode="&#x2205;" horiz-adv-x="862" 
d="M682 622q54 -51 84 -119.5t30 -145.5q0 -99 -49 -183t-133 -133t-183 -49q-101 0 -186 51l-38 -51h-102l75 100q-54 51 -84 119.5t-30 145.5q0 99 49 183t133 133t183 49t187 -51l38 51h102zM178.5 251q19.5 -50 55.5 -89l332 440q-62 37 -135 37q-74 0 -136.5 -38
t-99 -102.5t-36.5 -141.5q0 -56 19.5 -106zM567.5 113q62.5 38 99 102.5t36.5 141.5q0 55 -19.5 105t-54.5 89l-332 -440q61 -36 134 -36q74 0 136.5 38z" />
    <glyph glyph-name="uni2206" unicode="&#x2206;" horiz-adv-x="960" 
d="M345 714h271l334 -714h-940zM477 575l-194 -430h393l-193 430h-6z" />
    <glyph glyph-name="product" unicode="&#x220f;" horiz-adv-x="912" 
d="M852 714v-862h-200v689h-392v-689h-200v862h792z" />
    <glyph glyph-name="summation" unicode="&#x2211;" horiz-adv-x="811" 
d="M327 22h440v-170h-707v146l297 286l-280 286v144h672v-170h-378l240 -247z" />
    <glyph glyph-name="minus" unicode="&#x2212;" horiz-adv-x="662" 
d="M67 392h528v-132h-528v132z" />
    <glyph glyph-name="uni2219" unicode="&#x2219;" horiz-adv-x="355" 
d="M99.5 241.5q-32.5 32.5 -32.5 77.5q0 46 32.5 78t77.5 32q46 0 78 -32t32 -78q0 -45 -32 -77.5t-78 -32.5q-45 0 -77.5 32.5z" />
    <glyph glyph-name="radical" unicode="&#x221a;" horiz-adv-x="695" 
d="M570 700h96l-269 -848h-138l-125 339l-75 -33l-28 58l183 78l122 -329h2z" />
    <glyph glyph-name="infinity" unicode="&#x221e;" horiz-adv-x="862" 
d="M705.5 469.5q42.5 -27.5 66 -71.5t23.5 -91q0 -51 -23 -95.5t-66 -71.5t-98 -27q-100 0 -184 96q-84 -96 -173 -96q-55 0 -97 27t-64.5 71.5t-22.5 95.5q0 47 22.5 91t64.5 71.5t97 27.5q104 0 182 -96q38 44 80 70t95 26q55 0 97.5 -27.5zM315.5 232q25.5 20 53.5 63
q-33 56 -57.5 80t-58.5 24q-39 0 -59 -26t-20 -66q0 -41 21 -68t58 -27t62.5 20zM665.5 239q21.5 27 21.5 68q0 40 -21 66t-60 26q-37 0 -63 -20t-53 -62q31 -56 56 -80.5t60 -24.5q38 0 59.5 27z" />
    <glyph glyph-name="integral" unicode="&#x222b;" horiz-adv-x="530" 
d="M475.5 748q25.5 -3 32.5 -3v-134q-39 3 -55 3q-37 0 -56 -5.5t-26.5 -19.5t-7.5 -43v-560q0 -97 -61 -135t-185 -38q-37 0 -62 3t-33 3v134q39 -3 55 -3q37 0 56 5.5t26.5 19.5t7.5 43v560q0 96 61.5 134.5t184.5 38.5q37 0 62.5 -3z" />
    <glyph glyph-name="approxequal" unicode="&#x2248;" horiz-adv-x="662" 
d="M528 464q29 20 67 62v-137q-60 -68 -125 -68q-32 0 -57 8.5t-52 21.5l-72 36q-30 15 -50 22.5t-47 7.5t-57.5 -20.5t-67.5 -64.5v137q57 71 125 71q31 0 55 -8t52 -22l72 -36q29 -14 50 -22t49 -8q29 0 58 20zM528.5 253q29.5 20 66.5 62v-138q-60 -68 -125 -68
q-32 0 -56 8.5t-53 22.5l-72 36q-27 14 -48.5 21.5t-48.5 7.5t-57.5 -20.5t-67.5 -64.5v138q59 71 125 71q28 0 51 -7t37.5 -14t18.5 -9l72 -36q24 -13 47.5 -21.5t51.5 -8.5q29 0 58.5 20z" />
    <glyph glyph-name="notequal" unicode="&#x2260;" horiz-adv-x="662" 
d="M595 500v-131h-168l-58 -88h226v-132h-313l-57 -86h-134l57 86h-81v132h168l58 88h-226v131h313l57 86h134l-57 -86h81z" />
    <glyph glyph-name="lessequal" unicode="&#x2264;" horiz-adv-x="662" 
d="M68 315v110l526 165v-123l-311 -94v-6l311 -94v-123zM67 116h528v-116h-528v116z" />
    <glyph glyph-name="greaterequal" unicode="&#x2265;" horiz-adv-x="662" 
d="M68 590l526 -165v-110l-526 -165v123l311 94v6l-311 94v123zM67 0v116h528v-116h-528z" />
    <glyph glyph-name="lozenge" unicode="&#x25ca;" horiz-adv-x="752" 
d="M320 746h113l259 -388l-259 -388h-113l-260 388zM187 358l190 -294l190 294l-190 295z" />
    <glyph glyph-name="fi" unicode="&#xfb01;" horiz-adv-x="759" 
d="M321 602q-25 -12 -20 -51l1 -11h142v-122h-142v-418h-197v418h-91v122h91v38q0 97 62.5 135t190.5 38q37 0 63.5 -3t34.5 -3v-135q-6 0 -22 2t-37 2q-51 0 -76 -12zM707 0h-197v540h197v-540zM709 609h-201v119h201v-119z" />
    <glyph glyph-name="fl" unicode="&#xfb02;" horiz-adv-x="774" 
d="M321 602q-25 -12 -20 -51l1 -11h142v-122h-142v-418h-197v418h-91v122h91v38q0 97 62.5 135t190.5 38q37 0 63.5 -3t34.5 -3v-135q-6 0 -22 2t-37 2q-51 0 -76 -12zM722 0h-197v724h197v-724z" />
    <glyph glyph-name="i.loclTRK" horiz-adv-x="301" 
d="M249 0h-197v540h197v-540zM251 609h-201v119h201v-119z" />
    <glyph glyph-name="f_t" horiz-adv-x="890" 
d="M856 418h-143v-222q0 -26 16.5 -36.5t49.5 -10.5q50 0 76 3v-152q-69 -9 -121 -9q-83 0 -130 16t-67 52t-20 99v260h-215v-418h-197v418h-91v122h91v38q0 97 62.5 135t190.5 38q37 0 63.5 -3t34.5 -3v-135q-6 0 -22 2t-37 2q-51 0 -76 -12t-20 -51l1 -11h215v146h196
v-146h143v-122z" />
    <glyph glyph-name="zero.dnom" horiz-adv-x="551" 
d="M464 371q62 -56 62 -164t-62 -164.5t-188 -56.5q-251 0 -251 221q0 108 62 164t189 56q126 0 188 -56zM363.5 114q26.5 31 26.5 93q0 61 -27 92t-87 31q-61 0 -88.5 -31t-27.5 -92q0 -62 27.5 -93t88.5 -31t87.5 31z" />
    <glyph glyph-name="one.dnom" horiz-adv-x="319" 
d="M269 413v-413h-129v251h-126v85h34q51 0 75.5 19.5t35.5 57.5h110z" />
    <glyph glyph-name="two.dnom" horiz-adv-x="512" 
d="M230 129q-26 -8 -43.5 -18t-23.5 -19h317v-92h-464v13q0 60 27 99.5t63.5 60.5t85.5 38l80 27q35 12 50.5 24t15.5 32q0 41 -83 41q-39 0 -64 -16t-28 -51h-140q4 83 61 121t167 38q114 0 171.5 -29t57.5 -100q0 -59 -37 -90t-110 -51z" />
    <glyph glyph-name="three.dnom" horiz-adv-x="503" 
d="M404 215q39 -9 59 -32t20 -65q0 -48 -23.5 -76.5t-76 -42t-140.5 -13.5q-124 0 -177.5 34.5t-57.5 114.5h138q3 -30 27 -43.5t70 -13.5q47 0 72 10t25 35q0 26 -19 37t-59 11h-80v82h83q35 0 52.5 10.5t17.5 33.5q0 41 -92 41q-85 0 -89 -52h-132q4 75 57.5 108t163.5 33
q120 0 173.5 -27.5t53.5 -95.5q0 -37 -16.5 -58t-49.5 -28v-3z" />
    <glyph glyph-name="four.dnom" horiz-adv-x="493" 
d="M282 0v84h-274v95l245 234h154v-244h71v-85h-71v-84h-125zM135 169h147v143h-3l-144 -139v-4z" />
    <glyph glyph-name="five.dnom" horiz-adv-x="508" 
d="M457 413v-86h-300l-3 -63h3q50 26 118 26q111 0 161 -35t50 -115q0 -81 -54 -117.5t-180 -36.5q-120 0 -173.5 33.5t-57.5 102.5h141q8 -44 90 -44q48 0 71 14.5t23 46.5q0 33 -22.5 47t-69.5 14q-51 0 -87 -18h-133l14 231h409z" />
    <glyph glyph-name="six.dnom" horiz-adv-x="521" 
d="M447 236q53 -33 53 -102q0 -148 -230 -148q-71 0 -119 15t-77 47q-49 50 -49 158q0 111 58.5 166t184.5 55q116 0 169.5 -38.5t58.5 -92.5h-138q-4 22 -27 33t-60 11q-52 0 -80 -22t-32 -80h3q20 14 55 22.5t68 8.5q109 0 162 -33zM168 130q0 -57 97 -57q95 0 95 57
q0 55 -95 55q-97 0 -97 -55z" />
    <glyph glyph-name="seven.dnom" horiz-adv-x="475" 
d="M4 413h457v-49q0 -34 -16 -62.5t-62 -82.5q-50 -57 -76.5 -105t-31.5 -114h-170q8 72 45.5 130.5t99.5 117.5q8 8 47 44l20 18v3h-313v100z" />
    <glyph glyph-name="eight.dnom" horiz-adv-x="531" 
d="M442 398.5q56 -28.5 56 -94.5t-70 -86v-3q39 -9 59 -32.5t20 -68.5q0 -67 -57.5 -97.5t-184.5 -30.5q-126 0 -183 30.5t-57 97.5q0 45 19.5 68.5t59.5 32.5v3q-71 20 -71 86t56 94.5t176 28.5q121 0 177 -28.5zM192.5 329q-24.5 -10 -24.5 -34t24 -34t73 -10t73.5 10
t24.5 34t-24.5 34t-73.5 10q-48 0 -72.5 -10zM340 84.5q24 10.5 24 37.5t-24.5 38.5t-74.5 11.5t-74.5 -11.5t-24.5 -38.5t24 -37.5t75 -10.5t75 10.5z" />
    <glyph glyph-name="nine.dnom" horiz-adv-x="511" 
d="M474 302q12 -39 12 -95q0 -111 -58.5 -166t-184.5 -55q-116 0 -169.5 38.5t-58.5 92.5h138q4 -21 26.5 -32.5t59.5 -11.5q52 0 81 22.5t33 79.5h-4q-21 -14 -56 -22.5t-67 -8.5q-109 0 -162 33t-53 102q0 148 229 148q137 0 196 -60q26 -26 38 -65zM342 283q0 57 -97 57
q-95 0 -95 -57q0 -54 95 -54q97 0 97 54z" />
    <glyph glyph-name="zero.numr" horiz-adv-x="551" 
d="M464 670q62 -56 62 -164t-62 -164.5t-188 -56.5q-251 0 -251 221q0 108 62 164t189 56q126 0 188 -56zM363.5 413q26.5 31 26.5 93q0 61 -27 92t-87 31q-61 0 -88.5 -31t-27.5 -92q0 -62 27.5 -93t88.5 -31t87.5 31z" />
    <glyph glyph-name="one.numr" horiz-adv-x="319" 
d="M269 712v-413h-129v251h-126v85h34q51 0 75.5 19.5t35.5 57.5h110z" />
    <glyph glyph-name="two.numr" horiz-adv-x="512" 
d="M230 428q-26 -8 -43.5 -18t-23.5 -19h317v-92h-464v13q0 60 27 99.5t63.5 60.5t85.5 38l80 27q35 12 50.5 24t15.5 32q0 41 -83 41q-39 0 -64 -16t-28 -51h-140q4 83 61 121t167 38q114 0 171.5 -29t57.5 -100q0 -59 -37 -90t-110 -51z" />
    <glyph glyph-name="three.numr" horiz-adv-x="503" 
d="M404 514q39 -9 59 -32t20 -65q0 -48 -23.5 -76.5t-76 -42t-140.5 -13.5q-124 0 -177.5 34.5t-57.5 114.5h138q3 -30 27 -43.5t70 -13.5q47 0 72 10t25 35q0 26 -19 37t-59 11h-80v82h83q35 0 52.5 10.5t17.5 33.5q0 41 -92 41q-85 0 -89 -52h-132q4 75 57.5 108t163.5 33
q120 0 173.5 -27.5t53.5 -95.5q0 -37 -16.5 -58t-49.5 -28v-3z" />
    <glyph glyph-name="four.numr" horiz-adv-x="493" 
d="M282 299v84h-274v95l245 234h154v-244h71v-85h-71v-84h-125zM135 468h147v143h-3l-144 -139v-4z" />
    <glyph glyph-name="five.numr" horiz-adv-x="508" 
d="M457 712v-86h-300l-3 -63h3q50 26 118 26q111 0 161 -35t50 -115q0 -81 -54 -117.5t-180 -36.5q-120 0 -173.5 33.5t-57.5 102.5h141q8 -44 90 -44q48 0 71 14.5t23 46.5q0 33 -22.5 47t-69.5 14q-51 0 -87 -18h-133l14 231h409z" />
    <glyph glyph-name="six.numr" horiz-adv-x="521" 
d="M447 535q53 -33 53 -102q0 -148 -230 -148q-71 0 -119 15t-77 47q-49 50 -49 158q0 111 58.5 166t184.5 55q116 0 169.5 -38.5t58.5 -92.5h-138q-4 22 -27 33t-60 11q-52 0 -80 -22t-32 -80h3q20 14 55 22.5t68 8.5q109 0 162 -33zM168 429q0 -57 97 -57q95 0 95 57
q0 55 -95 55q-97 0 -97 -55z" />
    <glyph glyph-name="seven.numr" horiz-adv-x="475" 
d="M4 712h457v-49q0 -34 -16 -62.5t-62 -82.5q-50 -57 -76.5 -105t-31.5 -114h-170q8 72 45.5 130.5t99.5 117.5q8 8 47 44l20 18v3h-313v100z" />
    <glyph glyph-name="eight.numr" horiz-adv-x="531" 
d="M442 697.5q56 -28.5 56 -94.5t-70 -86v-3q39 -9 59 -32.5t20 -68.5q0 -67 -57.5 -97.5t-184.5 -30.5q-126 0 -183 30.5t-57 97.5q0 45 19.5 68.5t59.5 32.5v3q-71 20 -71 86t56 94.5t176 28.5q121 0 177 -28.5zM192.5 628q-24.5 -10 -24.5 -34t24 -34t73 -10t73.5 10
t24.5 34t-24.5 34t-73.5 10q-48 0 -72.5 -10zM340 383.5q24 10.5 24 37.5t-24.5 38.5t-74.5 11.5t-74.5 -11.5t-24.5 -38.5t24 -37.5t75 -10.5t75 10.5z" />
    <glyph glyph-name="nine.numr" horiz-adv-x="511" 
d="M474 601q12 -39 12 -95q0 -111 -58.5 -166t-184.5 -55q-116 0 -169.5 38.5t-58.5 92.5h138q4 -21 26.5 -32.5t59.5 -11.5q52 0 81 22.5t33 79.5h-4q-21 -14 -56 -22.5t-67 -8.5q-109 0 -162 33t-53 102q0 148 229 148q137 0 196 -60q26 -26 38 -65zM342 582q0 57 -97 57
q-95 0 -95 -57q0 -54 95 -54q97 0 97 54z" />
    <glyph glyph-name="uni030C.alt" horiz-adv-x="0" 
d="M-60 636q0 -87 -38 -126.5t-130 -40.5v62q45 1 61.5 16.5t16.5 50.5h-78v126h168v-88z" />
    <glyph glyph-name="caron.alt" horiz-adv-x="321" 
d="M261 603q0 -112 -47 -159.5t-154 -48.5v65q93 0 93 103h-93v161h201v-121z" />
    <glyph glyph-name="uni0326.case" horiz-adv-x="0" 
d="M-60 -150q0 -55 -12.5 -82.5t-55.5 -41t-133 -13.5v54q39 0 58.5 6.5t25 17.5t5.5 28h-89v119h201v-88z" />
    <glyph glyph-name="dieresis.case" horiz-adv-x="586" 
d="M245 778h-185v119h185v-119zM526 778h-185v119h185v-119z" />
    <glyph glyph-name="dotaccent.case" horiz-adv-x="321" 
d="M261 778h-201v119h201v-119z" />
    <glyph glyph-name="grave.case" horiz-adv-x="472" 
d="M242 777l-182 148h271l81 -148h-170z" />
    <glyph glyph-name="acute.case" horiz-adv-x="472" 
d="M141 925h271l-182 -148h-170z" />
    <glyph glyph-name="hungarumlaut.case" horiz-adv-x="680" 
d="M133 925h216l-127 -148h-162zM404 925h216l-127 -148h-161z" />
    <glyph glyph-name="circumflex.case" horiz-adv-x="659" 
d="M598 777h-206l-60 74h-5l-60 -74h-207l134 148h271z" />
    <glyph glyph-name="caron.case" horiz-adv-x="659" 
d="M332 851l60 74h206l-133 -148h-271l-134 148h207l60 -74h5z" />
    <glyph glyph-name="breve.case" horiz-adv-x="571" 
d="M511 927q-1 -53 -34 -89.5t-84.5 -54.5t-107.5 -18t-107 18t-84 54.5t-34 89.5h157q5 -48 68 -48t68 48h158z" />
    <glyph glyph-name="ring.case" horiz-adv-x="455" 
d="M108 779.5q-48 36.5 -48 97.5q0 60 48 96.5t119 36.5q72 0 120 -36.5t48 -96.5q0 -61 -48 -97.5t-120 -36.5q-71 0 -119 36.5zM267.5 841.5q16.5 13.5 16.5 35.5t-16.5 35t-40.5 13t-40.5 -13t-16.5 -35t16.5 -35.5t40.5 -13.5t40.5 13.5z" />
    <glyph glyph-name="tilde.case" horiz-adv-x="622" 
d="M362 766.5q-26 7.5 -65 22.5q-7 2 -32 11t-39 9q-18 0 -24.5 -8.5t-7.5 -30.5h-134q0 55 22 91.5t56 54t70 17.5q25 0 52 -8t65 -22q53 -20 71 -20t24.5 8.5t7.5 30.5h134q0 -55 -22.5 -91.5t-56.5 -54t-70 -17.5q-25 0 -51 7.5z" />
    <glyph glyph-name="macron.case" horiz-adv-x="576" 
d="M515 894v-115h-455v115h455z" />
    <glyph glyph-name="cedilla.case" horiz-adv-x="459" 
d="M60 -153h6q41 -12 66.5 -16.5t62.5 -4.5q29 0 43.5 6.5t14.5 24.5q0 17 -14.5 23.5t-43.5 6.5q-18 0 -42.5 -2.5t-36.5 -5.5h-5v47l78 102h95l-58 -77q11 3 28 3q75 0 109.5 -23t34.5 -74q0 -57 -46 -81t-149 -24q-40 0 -73.5 3.5t-69.5 13.5v78z" />
    <glyph glyph-name="ogonek.case" horiz-adv-x="406" 
d="M326.5 -132.5q16.5 3.5 19.5 4.5v-100q-43 -9 -97 -9q-94 0 -141.5 28.5t-47.5 78.5q0 34 26.5 65.5t69.5 53t91 27.5l99 -16q-52 -17 -82.5 -45t-30.5 -53q0 -20 15 -29t39 -9q23 0 39.5 3.5z" />
    </font>
</defs>
</svg>
