<?xml version="1.0" standalone="no"?>
<!DOCTYPE svg PUBLIC "-//W3C//DTD SVG 1.1//EN" "http://www.w3.org/Graphics/SVG/1.1/DTD/svg11.dtd" >
<svg xmlns="http://www.w3.org/2000/svg" xmlns:xlink="http://www.w3.org/1999/xlink" version="1.1">
<metadata>
Created by FontForge 20170731 at Wed Mar 24 13:25:03 2021
 By Aleksey,,,
Oliver Jeschke / OGJ Type Design
</metadata>
<defs>
<font id="SequelSans-HeadlineBold" horiz-adv-x="605" >
  <font-face 
    font-family="Sequel Sans Headline Bold"
    font-weight="124"
    font-stretch="normal"
    units-per-em="1000"
    panose-1="2 11 7 3 5 0 0 2 0 4"
    ascent="800"
    descent="-200"
    x-height="530"
    cap-height="714"
    bbox="-189 -439 1237 1069"
    underline-thickness="50"
    underline-position="-150"
    unicode-range="U+000D-FB02"
  />
<missing-glyph horiz-adv-x="687" 
d="M50 1069h587v-1508h-587v1508zM562 1004h-437v-1377h437v1377zM165 401q7 72 52 107t123 35q76 0 124 -35.5t48 -100.5q0 -39 -18 -60t-51 -39q-30 -16 -40 -25.5t-10 -25.5v-3h-114v16q0 37 15 57.5t56 46.5q15 10 22.5 19t7.5 22q0 14 -10.5 23t-30.5 9
q-21 0 -33.5 -14.5t-13.5 -41.5zM404 93h-135v123h135v-123z" />
    <glyph glyph-name=".notdef" horiz-adv-x="687" 
d="M50 1069h587v-1508h-587v1508zM562 1004h-437v-1377h437v1377zM165 401q7 72 52 107t123 35q76 0 124 -35.5t48 -100.5q0 -39 -18 -60t-51 -39q-30 -16 -40 -25.5t-10 -25.5v-3h-114v16q0 37 15 57.5t56 46.5q15 10 22.5 19t7.5 22q0 14 -10.5 23t-30.5 9
q-21 0 -33.5 -14.5t-13.5 -41.5zM404 93h-135v123h135v-123z" />
    <glyph glyph-name=".null" horiz-adv-x="0" 
 />
    <glyph glyph-name="nonmarkingreturn" unicode="&#xd;" horiz-adv-x="168" 
 />
    <glyph glyph-name="space" unicode=" " horiz-adv-x="210" 
 />
    <glyph glyph-name="exclam" unicode="!" horiz-adv-x="305" 
d="M238 549l-26 -313h-118l-26 313v165h170v-165zM240 0h-175v166h175v-166z" />
    <glyph glyph-name="quotedbl" unicode="&#x22;" horiz-adv-x="462" 
d="M192 714v-303h-139v303h139zM409 714v-303h-139v303h139z" />
    <glyph glyph-name="numbersign" unicode="#" horiz-adv-x="657" 
d="M634 517l-22 -104h-102l-26 -127h105l-22 -103h-104l-36 -183h-110l37 183h-120l-37 -183h-110l37 183h-103l22 103h102l26 127h-105l22 104h104l37 183h110l-37 -183h120l37 183h109l-37 -183h103zM255 286h120l26 127h-121z" />
    <glyph glyph-name="dollar" unicode="$" horiz-adv-x="639" 
d="M531 42q-76 -54 -193 -56v-101h-50v102q-116 9 -187 68.5t-82 162.5l160 17q5 -54 34 -84.5t75 -38.5v182l-52 13q-61 16 -101.5 35t-68 58.5t-27.5 104.5q0 94 69 148.5t180 59.5v80h50v-80q104 -7 168 -61.5t81 -151.5l-157 -11q-6 42 -29.5 68.5t-62.5 33.5v-162
l54 -14q69 -17 112 -36.5t73 -62t30 -117.5q0 -103 -76 -157zM288 442v151q-40 -4 -64 -25.5t-24 -52.5q0 -30 21.5 -46t63.5 -26zM338 108q46 2 75 24.5t29 60.5q0 37 -24.5 55t-79.5 32v-172z" />
    <glyph glyph-name="percent" unicode="%" horiz-adv-x="965" 
d="M343 663q45 -51 45 -152t-45 -152.5t-131 -51.5q-87 0 -132 51.5t-45 152.5t45 152t132 51q86 0 131 -51zM238 0l396 700h93l-396 -700h-93zM259.5 413.5q16.5 27.5 16.5 97.5t-16.5 97.5t-47.5 27.5q-32 0 -48.5 -27t-16.5 -98t16.5 -98t48.5 -27q31 0 47.5 27.5z
M885 342q45 -51 45 -152t-45 -152.5t-131 -51.5t-131 51.5t-45 152.5t45 152t131 51t131 -51zM802.5 92q16.5 27 16.5 98q0 70 -16.5 97.5t-48.5 27.5q-31 0 -47.5 -27.5t-16.5 -97.5t16.5 -97.5t47.5 -27.5q32 0 48.5 27z" />
    <glyph glyph-name="ampersand" unicode="&#x26;" horiz-adv-x="779" 
d="M776 0h-187l-59 62q-45 -37 -99.5 -56.5t-113.5 -19.5q-76 0 -140 23.5t-103 71t-39 116.5t35.5 115.5t106.5 80.5l24 12q-43 49 -59 83t-16 71q0 48 28.5 87.5t78.5 61.5t113 22q64 0 114 -22t78.5 -61.5t28.5 -87.5q0 -51 -31 -85.5t-90 -66.5l-41 -22l108 -113
q15 48 15 101h134q0 -117 -47 -206zM285 516q12 -19 42 -51l20 10q37 18 54.5 35.5t17.5 42.5q0 27 -19 48t-54 21q-34 0 -53.5 -21t-19.5 -48q0 -18 12 -37zM442 153l-159 165l-10 -5q-81 -45 -81 -111q0 -44 33.5 -70.5t91.5 -26.5q72 0 125 48z" />
    <glyph glyph-name="quotesingle" unicode="'" horiz-adv-x="244" 
d="M192 714v-303h-139v303h139z" />
    <glyph glyph-name="parenleft" unicode="(" horiz-adv-x="330" 
d="M235.5 96q34.5 -98 94.5 -176l-63 -63q-225 183 -225 469q0 158 61.5 272t163.5 198l63 -63q-60 -78 -94.5 -176.5t-34.5 -230.5t34.5 -230z" />
    <glyph glyph-name="parenright" unicode=")" horiz-adv-x="330" 
d="M94.5 556.5q-34.5 98.5 -94.5 176.5l63 63q102 -85 163.5 -198.5t61.5 -271.5t-61.5 -272t-163.5 -197l-63 63q60 78 94.5 176t34.5 230t-34.5 230.5z" />
    <glyph glyph-name="asterisk" unicode="*" horiz-adv-x="446" 
d="M353 667l52 -76l-108 -67l108 -68l-52 -75l-87 67l4 -114h-94l4 114l-87 -67l-53 75l109 68l-109 67l53 76l87 -67l-4 114h94l-4 -114z" />
    <glyph glyph-name="plus" unicode="+" horiz-adv-x="485" 
d="M298 379h160v-107h-160v-172h-111v172h-160v107h160v171h111v-171z" />
    <glyph glyph-name="comma" unicode="," horiz-adv-x="290" 
d="M233 49q0 -107 -40 -158.5t-133 -55.5v77q32 2 47 23.5t15 64.5h-65v166h176v-117z" />
    <glyph glyph-name="hyphen" unicode="-" horiz-adv-x="436" 
d="M374 351v-134h-312v134h312z" />
    <glyph glyph-name="period" unicode="." horiz-adv-x="290" 
d="M233 0h-176v166h176v-166z" />
    <glyph glyph-name="slash" unicode="/" horiz-adv-x="422" 
d="M8 0l259 714h147l-260 -714h-146z" />
    <glyph glyph-name="zero" unicode="0" horiz-adv-x="654" 
d="M541 626.5q76 -87.5 76 -276.5t-76 -276.5t-214 -87.5t-214 87.5t-76 276.5t76 276.5t214 87.5t214 -87.5zM417 161q32 54 32 189t-32 189t-90 54t-90 -54t-32 -189t32 -189t90 -54t90 54z" />
    <glyph glyph-name="one" unicode="1" horiz-adv-x="399" 
d="M335 700v-700h-161v474h-141v109h21q63 0 99.5 33.5t47.5 83.5h134z" />
    <glyph glyph-name="two" unicode="2" horiz-adv-x="594" 
d="M554 133v-133h-524v24q0 82 26.5 139t68 94t104.5 75l71 44q44 27 68 55t24 65q0 45 -23 68.5t-68 23.5q-47 0 -75 -31.5t-32 -93.5l-160 5q4 79 40.5 134.5t95 83t131.5 27.5q113 0 183.5 -53t70.5 -154q0 -64 -20.5 -106.5t-54 -70t-93.5 -62.5l-70 -43
q-41 -25 -67 -50.5t-28 -40.5h332z" />
    <glyph glyph-name="three" unicode="3" horiz-adv-x="613" 
d="M297 415q47 0 75.5 24.5t28.5 64.5t-26.5 63.5t-67.5 23.5q-42 0 -69.5 -24.5t-31.5 -72.5l-159 9q7 102 76 156.5t184 54.5t184.5 -53.5t69.5 -148.5q0 -52 -29.5 -89t-77.5 -54v-4q55 -16 88.5 -56t33.5 -104q0 -113 -73 -165.5t-197 -52.5q-122 0 -196.5 55.5
t-83.5 169.5l163 10q11 -113 117 -113q47 0 76.5 26t29.5 72q0 48 -30 72t-85 24h-64v112h64z" />
    <glyph glyph-name="four" unicode="4" horiz-adv-x="619" 
d="M277 700h230v-422h83v-119h-83v-159h-162v159h-315v132zM345 583h-4l-183 -301v-4h187v305z" />
    <glyph glyph-name="five" unicode="5" horiz-adv-x="601" 
d="M440.5 452q53.5 -26 88.5 -81.5t35 -137.5q0 -83 -36.5 -138.5t-97.5 -82t-135 -26.5q-109 0 -181.5 51t-89.5 149l162 17q8 -44 36 -69t73 -25q47 0 76 31.5t29 93.5q0 61 -29.5 92.5t-77.5 31.5q-33 0 -59 -13.5t-43 -34.5h-152l34 390h443v-129h-314l-12 -145h4
q26 27 58.5 39.5t77.5 12.5q57 0 110.5 -26z" />
    <glyph glyph-name="six" unicode="6" horiz-adv-x="627" 
d="M466 432.5q54 -26.5 89 -78t35 -123.5q0 -83 -39.5 -138t-100 -81t-126.5 -26q-143 0 -217 92q-70 86 -70 273q0 196 77 279t210 83q97 0 164 -47t90 -132l-154 -19q-11 39 -36 62t-64 23q-57 0 -93.5 -46t-36.5 -149v-7h4q30 31 70.5 46t86.5 15q57 0 111 -26.5z
M400 132.5q33 32.5 33 91.5t-33 91.5t-80 32.5q-50 0 -84.5 -33.5t-34.5 -90.5t34.5 -90.5t84.5 -33.5q47 0 80 32.5z" />
    <glyph glyph-name="seven" unicode="7" horiz-adv-x="562" 
d="M22 700h518v-66q0 -55 -22.5 -101t-69.5 -113q-43 -62 -70.5 -111.5t-47 -121.5t-19.5 -164v-23h-172v32q0 118 39 218.5t105 193.5l40 55q38 53 44 61v4h-345v136z" />
    <glyph glyph-name="eight" unicode="8" horiz-adv-x="617" 
d="M506.5 39q77.5 53 77.5 156q0 66 -31 110.5t-87 67.5v4q48 20 74.5 56.5t26.5 86.5q0 64 -35.5 107.5t-94 64.5t-128.5 21q-110 0 -184 -49t-74 -144q0 -50 26.5 -86.5t74.5 -56.5v-4q-57 -22 -88 -67t-31 -111q0 -103 78 -156t198 -53t197.5 53zM385.5 580.5
q32.5 -24.5 32.5 -70.5t-31.5 -70.5t-77.5 -24.5t-77.5 24.5t-31.5 70.5t32 70.5t77 24.5q44 0 76.5 -24.5zM391.5 289q34.5 -28 34.5 -80q0 -53 -34 -81t-83 -28q-50 0 -84 28t-34 81q0 52 34.5 80t83.5 28q48 0 82.5 -28z" />
    <glyph glyph-name="nine" unicode="9" horiz-adv-x="627" 
d="M161 266.5q-54 26.5 -89 78.5t-35 123q0 83 39.5 138t100.5 81t126 26q143 0 217 -92q70 -83 70 -273q0 -198 -77.5 -280t-209.5 -82q-96 0 -163.5 47.5t-89.5 131.5l154 20q10 -39 35 -62t64 -23q54 0 92 43.5t38 150.5v7h-4q-30 -31 -70.5 -46t-86.5 -15
q-57 0 -111 26.5zM227 567.5q-33 -32.5 -33 -91.5t33 -92t81 -33q49 0 83.5 34t34.5 91t-34.5 90.5t-83.5 33.5q-48 0 -81 -32.5z" />
    <glyph glyph-name="colon" unicode=":" horiz-adv-x="302" 
d="M239 348h-176v165h176v-165zM239 0h-176v166h176v-166z" />
    <glyph glyph-name="semicolon" unicode=";" horiz-adv-x="302" 
d="M239 348h-176v165h176v-165zM239 49q0 -107 -40 -158.5t-133 -55.5v77q32 2 47 23.5t15 64.5h-65v166h176v-117z" />
    <glyph glyph-name="less" unicode="&#x3c;" horiz-adv-x="526" 
d="M475 67l-430 198v114l430 198v-127l-284 -126v-4l284 -126v-127z" />
    <glyph glyph-name="equal" unicode="=" horiz-adv-x="485" 
d="M457 473v-107h-430v107h430zM457 284v-108h-430v108h430z" />
    <glyph glyph-name="greater" unicode="&#x3e;" horiz-adv-x="526" 
d="M52 577l430 -198v-114l-430 -198v127l284 126v4l-284 126v127z" />
    <glyph glyph-name="question" unicode="?" horiz-adv-x="595" 
d="M30 509q14 109 85 165t185 56q74 0 133 -24t92.5 -71t33.5 -112q0 -46 -15 -78t-37.5 -51t-56.5 -39q-47 -29 -64.5 -52t-17.5 -62v-5h-145v31q0 62 25 100t85 74q30 19 44 39t14 51q0 34 -24 54t-68 20q-45 0 -74.5 -29t-38.5 -86zM383 0h-175v166h175v-166z" />
    <glyph glyph-name="at" unicode="@" horiz-adv-x="988" 
d="M781 -82q-60 -37 -131.5 -56t-146.5 -19q-131 0 -237.5 50t-168.5 145t-62 224t62.5 236t170 169t235.5 62q129 0 231.5 -50.5t160.5 -135.5t58 -184q0 -102 -42 -170t-106 -100.5t-130 -32.5q-46 0 -73.5 16.5t-31.5 48.5h-4q-44 -65 -146 -65q-54 0 -94.5 25.5
t-62 67.5t-21.5 92q0 67 26 129t80 101.5t132 39.5q38 0 69.5 -16.5t47.5 -47.5h4l9 46h128l-66 -309q-2 -12 -2 -17q0 -37 46 -37q33 0 67.5 26t57.5 76t23 117q0 86 -45 155.5t-128 109t-193 39.5q-98 0 -184 -52t-138 -142.5t-52 -201.5q0 -106 50.5 -182.5t138 -116.5
t195.5 -40q63 0 124.5 15.5t111.5 46.5zM520.5 180q28.5 25 43 61.5t14.5 71.5q0 47 -21 73t-60 26q-40 0 -68 -25t-42.5 -61.5t-14.5 -71.5q0 -47 20.5 -73t59.5 -26q40 0 68.5 25z" />
    <glyph glyph-name="A" unicode="A" horiz-adv-x="753" 
d="M750 0h-182l-54 160h-279l-53 -160h-179l260 714h227zM372 572l-95 -288h196l-97 288h-4z" />
    <glyph glyph-name="B" unicode="B" horiz-adv-x="696" 
d="M415 714q107 0 168 -52.5t61 -139.5q0 -50 -24 -85t-68 -55v-4q54 -22 84.5 -64t30.5 -103q0 -99 -62.5 -155t-175.5 -56h-374v714h360zM225 586v-164h154q47 0 71 21.5t24 60.5t-24 60.5t-71 21.5h-154zM392 131q50 0 76 23t26 65t-26 65t-76 23h-167v-176h167z" />
    <glyph glyph-name="C" unicode="C" horiz-adv-x="749" 
d="M721 250q-13 -73 -56.5 -133.5t-114 -96.5t-162.5 -36q-104 0 -184 44.5t-124.5 128.5t-44.5 200t44.5 200t124.5 128.5t184 44.5q85 0 153 -32t112 -83.5t60 -111.5l-169 -24q-17 51 -57.5 83t-98.5 32q-79 0 -129.5 -59t-50.5 -178t50.5 -178t129.5 -59q65 0 106.5 40
t55.5 107z" />
    <glyph glyph-name="D" unicode="D" horiz-adv-x="745" 
d="M344 714q169 0 267.5 -89t98.5 -268t-98.5 -268t-267.5 -89h-289v714h289zM318 132q108 0 163.5 52.5t55.5 172.5t-55.5 172.5t-163.5 52.5h-93v-450h93z" />
    <glyph glyph-name="E" unicode="E" horiz-adv-x="625" 
d="M588 582h-362v-152h344v-128h-344v-166h362v-136h-533v714h533v-132z" />
    <glyph glyph-name="F" unicode="F" horiz-adv-x="617" 
d="M588 714v-132h-362v-170h344v-128h-344v-284h-171v714h533z" />
    <glyph glyph-name="G" unicode="G" horiz-adv-x="777" 
d="M728 381v-381h-116v83q-78 -99 -220 -99q-104 0 -185 45t-126.5 129.5t-45.5 198.5t45.5 198.5t126.5 129.5t185 45q124 0 211.5 -61.5t119.5 -163.5l-171 -21q-21 52 -61 81t-99 29q-83 0 -133.5 -59.5t-50.5 -177.5t50.5 -177.5t133.5 -59.5q66 0 113.5 36.5
t63.5 101.5h-165v123h324z" />
    <glyph glyph-name="H" unicode="H" horiz-adv-x="743" 
d="M518 431v283h170v-714h-170v292h-293v-292h-170v714h170v-283h293z" />
    <glyph glyph-name="I" unicode="I" horiz-adv-x="283" 
d="M227 714v-714h-170v714h170z" />
    <glyph glyph-name="J" unicode="J" horiz-adv-x="637" 
d="M582 237q0 -131 -76.5 -192t-207.5 -61q-120 0 -194.5 62.5t-87.5 186.5q-3 26 -2 39l165 14v-17q0 -14 1 -20q7 -66 36 -97t82 -31q56 0 83.5 31t27.5 97v465h173v-477z" />
    <glyph glyph-name="K" unicode="K" horiz-adv-x="697" 
d="M701 0h-202l-203 319l-76 -82v-237h-170v714h170v-281l249 281h195l-250 -273z" />
    <glyph glyph-name="L" unicode="L" horiz-adv-x="611" 
d="M594 142v-142h-539v714h171v-572h368z" />
    <glyph glyph-name="M" unicode="M" horiz-adv-x="879" 
d="M442 253l133 461h249v-714h-160v514h-4l-161 -514h-123l-161 514h-4v-514h-156v714h250l133 -461h4z" />
    <glyph glyph-name="N" unicode="N" horiz-adv-x="747" 
d="M536 714h156v-714h-189l-288 488h-4v-488h-156v714h194l283 -479h4v479z" />
    <glyph glyph-name="O" unicode="O" horiz-adv-x="785" 
d="M578 685.5q81 -44.5 126.5 -128.5t45.5 -200t-45.5 -200t-126.5 -128.5t-185 -44.5q-105 0 -186 44.5t-126.5 128.5t-45.5 200t45.5 200t126.5 128.5t186 44.5q104 0 185 -44.5zM526 179q51 59 51 178t-51 178t-133 59q-83 0 -134 -59t-51 -178t51 -178t134 -59
q82 0 133 59z" />
    <glyph glyph-name="P" unicode="P" horiz-adv-x="685" 
d="M397 714q125 0 194.5 -62.5t69.5 -172.5q0 -111 -69.5 -173.5t-194.5 -62.5h-172v-243h-170v714h342zM367 375q59 0 89.5 27.5t30.5 76.5t-31 76t-89 27h-142v-207h142z" />
    <glyph glyph-name="Q" unicode="Q" horiz-adv-x="785" 
d="M808 -33h-191l-45 65q-73 -48 -179 -48q-105 0 -186 44.5t-126.5 128.5t-45.5 200t45.5 200t126.5 128.5t186 44.5q104 0 185 -44.5t126.5 -128.5t45.5 -200q0 -138 -65 -226zM526 179q51 59 51 178t-51 178t-133 59q-83 0 -134 -59t-51 -178t51 -178t134 -59
q82 0 133 59z" />
    <glyph glyph-name="R" unicode="R" horiz-adv-x="706" 
d="M695 0h-197l-144 251h-129v-251h-170v714h358q125 0 194.5 -61.5t69.5 -169.5q0 -79 -37.5 -134.5t-108.5 -79.5zM225 582v-199h160q58 0 88.5 26.5t30.5 73.5t-30.5 73t-88.5 26h-160z" />
    <glyph glyph-name="S" unicode="S" horiz-adv-x="677" 
d="M460 500q-8 51 -43.5 78t-93.5 27q-52 0 -83 -22.5t-31 -56.5q0 -31 23 -46.5t70 -26.5l115 -28q75 -19 120 -38.5t76.5 -63.5t31.5 -121q0 -108 -85 -163t-216 -55q-135 0 -223.5 62t-101.5 176l168 17q6 -66 49.5 -97t109.5 -31q55 0 90.5 22.5t35.5 62.5
q0 37 -25.5 54.5t-86.5 32.5l-110 28q-66 18 -108 37.5t-71.5 59.5t-29.5 108t37.5 116t102.5 73t148 25q120 0 197.5 -56.5t97.5 -162.5z" />
    <glyph glyph-name="T" unicode="T" horiz-adv-x="671" 
d="M24 714h623v-142h-227v-572h-170v572h-226v142z" />
    <glyph glyph-name="U" unicode="U" horiz-adv-x="737" 
d="M682 263q0 -92 -40.5 -154.5t-111.5 -93.5t-162 -31t-161.5 31t-111 93.5t-40.5 154.5v451h170v-435q0 -158 143 -158q144 0 144 158v435h170v-451z" />
    <glyph glyph-name="V" unicode="V" horiz-adv-x="721" 
d="M364 176l173 538h179l-255 -714h-203l-253 714h181l174 -538h4z" />
    <glyph glyph-name="W" unicode="W" horiz-adv-x="967" 
d="M955 714l-166 -714h-209l-95 499h-4l-93 -499h-211l-165 714h173l102 -518h4l96 518h190l96 -518h4l102 518h176z" />
    <glyph glyph-name="X" unicode="X" horiz-adv-x="684" 
d="M439 372l236 -372h-192l-144 246l-143 -246h-187l235 371l-217 343h192l125 -219l127 219h186z" />
    <glyph glyph-name="Y" unicode="Y" horiz-adv-x="697" 
d="M350 417l157 297h183l-257 -444v-270h-170v269l-256 445h186z" />
    <glyph glyph-name="Z" unicode="Z" horiz-adv-x="644" 
d="M614 714v-142l-363 -430h362v-142h-584v142l363 430h-341v142h563z" />
    <glyph glyph-name="bracketleft" unicode="[" horiz-adv-x="359" 
d="M339 634h-118v-657h118v-121h-269v898h269v-120z" />
    <glyph glyph-name="backslash" unicode="\" horiz-adv-x="422" 
d="M8 714h147l259 -714h-146z" />
    <glyph glyph-name="bracketright" unicode="]" horiz-adv-x="359" 
d="M138 -23v657h-118v120h269v-898h-269v121h118z" />
    <glyph glyph-name="asciicircum" unicode="^" horiz-adv-x="562" 
d="M342 700l165 -347h-123l-101 220h-4l-101 -220h-123l165 347h122z" />
    <glyph glyph-name="underscore" unicode="_" horiz-adv-x="512" 
d="M530 -110v-50h-549v50h549z" />
    <glyph glyph-name="grave" unicode="`" horiz-adv-x="342" 
d="M183 589l-134 164h162l86 -164h-114z" />
    <glyph glyph-name="a" unicode="a" horiz-adv-x="578" 
d="M389 0q-12 15 -15 60q-20 -34 -66.5 -53.5t-99.5 -19.5q-50 0 -92 19t-67 54.5t-25 83.5q0 81 53.5 120.5t163.5 53.5q77 10 105 22.5t28 35.5q0 28 -21 43.5t-62 15.5q-35 0 -61.5 -19t-37.5 -55l-148 18q18 77 84.5 120.5t165.5 43.5q119 0 179 -47t60 -130v-263
q0 -45 2.5 -67t11.5 -36h-158zM374 255q-11 -8 -33 -13t-70 -13q-39 -6 -62.5 -25t-23.5 -50q0 -29 19.5 -46t51.5 -17q27 0 54 12t45.5 38t18.5 64v50z" />
    <glyph glyph-name="b" unicode="b" horiz-adv-x="624" 
d="M486.5 509q51.5 -34 81 -97t29.5 -147t-29.5 -147t-82 -97t-118.5 -34q-53 0 -95.5 20t-66.5 63h-4v-70h-152v724h159v-257h4q24 36 64 56t95 20q64 0 115.5 -34zM404 146q31 40 31 119q0 78 -31.5 118t-86.5 40q-54 0 -85.5 -40t-31.5 -118q0 -79 31.5 -119t85.5 -40
q56 0 87 40z" />
    <glyph glyph-name="c" unicode="c" horiz-adv-x="585" 
d="M370.5 130.5q24.5 27.5 34.5 70.5l162 -17q-20 -83 -84.5 -140t-182.5 -57q-127 0 -200 74.5t-73 203.5q0 85 33 147.5t94.5 96.5t145.5 34q116 0 178 -53t82 -123l-157 -29q-26 88 -103 88q-52 0 -81.5 -40.5t-29.5 -120.5q0 -81 29.5 -121.5t81.5 -40.5q46 0 70.5 27.5
z" />
    <glyph glyph-name="d" unicode="d" horiz-adv-x="620" 
d="M348 523q40 -20 64 -56h4v257h159v-724h-152v70h-4q-24 -43 -66.5 -63t-95.5 -20q-66 0 -118.5 34t-82 97t-29.5 147t29.5 147t81 97t115.5 34q55 0 95 -20zM392.5 146q31.5 40 31.5 119q0 78 -31.5 118t-85.5 40q-55 0 -86.5 -40t-31.5 -118q0 -79 31 -119t87 -40
q54 0 85.5 40z" />
    <glyph glyph-name="e" unicode="e" horiz-adv-x="601" 
d="M568 159q-11 -42 -42 -81t-87.5 -65t-137.5 -26q-84 0 -146 33.5t-95 96.5t-33 147q0 130 73 204.5t201 74.5q125 0 199 -72.5t74 -206.5l-1 -31h-383q1 -63 31 -100.5t80 -37.5q47 0 72 22t32 53zM223 407.5q-29 -30.5 -32 -78.5h219q-2 48 -31 78.5t-78 30.5t-78 -30.5
z" />
    <glyph glyph-name="f" unicode="f" horiz-adv-x="386" 
d="M268 609.5q-16 -12.5 -16 -43.5v-36h108v-103h-108v-427h-159v427h-83v103h83v56q0 85 50 118t143 33q40 0 89 -7v-111q-48 3 -59 3q-32 0 -48 -12.5z" />
    <glyph glyph-name="g" unicode="g" horiz-adv-x="616" 
d="M419 530h152v-489q0 -126 -73.5 -182t-197.5 -56q-104 0 -174.5 43t-94.5 134l158 14q12 -39 39 -57.5t72 -18.5q112 0 112 127v51h-4q-48 -69 -156 -69q-64 0 -115 31.5t-80 90.5t-29 137t29.5 136t81 89.5t116.5 31.5q114 0 160 -78h4v65zM389.5 183q31.5 38 31.5 103
q0 63 -31.5 100.5t-83.5 37.5q-53 0 -84.5 -37.5t-31.5 -100.5q0 -65 31.5 -103t84.5 -38q52 0 83.5 38z" />
    <glyph glyph-name="h" unicode="h" 
d="M208 724v-265h4q63 84 166 84q80 0 131 -49.5t51 -145.5v-348h-159v309q0 57 -22.5 82t-67.5 25q-42 0 -72.5 -35.5t-30.5 -97.5v-283h-159v724h159z" />
    <glyph glyph-name="i" unicode="i" horiz-adv-x="257" 
d="M208 0h-159v530h159v-530zM208 600h-159v124h159v-124z" />
    <glyph glyph-name="j" unicode="j" horiz-adv-x="257" 
d="M38 -61q11 8 11 32v559h159v-587q0 -56 -15.5 -86.5t-47 -42t-83.5 -11.5q-63 0 -93 2v126h35q23 0 34 8zM208 600h-159v124h159v-124z" />
    <glyph glyph-name="k" unicode="k" horiz-adv-x="582" 
d="M405 0l-139 220l-58 -61v-159h-159v724h159v-396l180 202h178l-194 -204l216 -326h-183z" />
    <glyph glyph-name="l" unicode="l" horiz-adv-x="260" 
d="M209 0h-158v724h158v-724z" />
    <glyph glyph-name="m" unicode="m" horiz-adv-x="926" 
d="M831.5 493.5q49.5 -49.5 49.5 -145.5v-348h-159v309q0 57 -21 82t-62 25q-40 0 -67.5 -33t-27.5 -96v-287h-158v309q0 57 -21 82t-62 25q-40 0 -67.5 -33t-27.5 -96v-287h-159v530h152v-71h4q61 84 162 84q53 0 93 -22t62 -67q36 42 78 65.5t103 23.5q79 0 128.5 -49.5z
" />
    <glyph glyph-name="n" unicode="n" 
d="M201 530v-71h4q61 84 169 84q83 0 134.5 -49.5t51.5 -145.5v-348h-159v309q0 57 -22.5 82t-67.5 25q-44 0 -73.5 -33t-29.5 -96v-287h-159v530h152z" />
    <glyph glyph-name="o" unicode="o" horiz-adv-x="610" 
d="M509 468.5q74 -74.5 74 -203.5t-74 -203.5t-204 -74.5t-204 74.5t-74 203.5t74 203.5t204 74.5t204 -74.5zM390.5 144q30.5 40 30.5 121q0 80 -30.5 120.5t-85.5 40.5t-85.5 -40.5t-30.5 -120.5q0 -81 30.5 -121t85.5 -40t85.5 40z" />
    <glyph glyph-name="p" unicode="p" horiz-adv-x="624" 
d="M212 63h-4v-247h-159v714h152v-70h4q48 83 162 83q66 0 118.5 -34t82 -96.5t29.5 -146.5t-29.5 -147.5t-81 -97.5t-115.5 -34q-109 0 -159 76zM231.5 383q-31.5 -40 -31.5 -118q0 -79 31.5 -119t85.5 -40q56 0 87 40t31 119q0 78 -31.5 118t-86.5 40q-54 0 -85.5 -40z
" />
    <glyph glyph-name="q" unicode="q" horiz-adv-x="620" 
d="M137.5 21q-51.5 34 -81 97.5t-29.5 147.5t29.5 146.5t82 96.5t118.5 34q114 0 162 -83h4v70h152v-714h-159v247h-4q-50 -76 -159 -76q-64 0 -115.5 34zM220.5 383q-31.5 -40 -31.5 -118q0 -79 31 -119t87 -40q54 0 85.5 40t31.5 119q0 78 -31.5 118t-85.5 40
q-55 0 -86.5 -40z" />
    <glyph glyph-name="r" unicode="r" horiz-adv-x="411" 
d="M49 530h152v-82h4q24 45 64 70t97 25q16 0 32 -4v-147q-5 0 -23 2t-34 2q-133 0 -133 -136v-260h-159v530z" />
    <glyph glyph-name="s" unicode="s" horiz-adv-x="547" 
d="M361 369q-7 35 -32 54t-62 19q-36 0 -57.5 -14.5t-21.5 -40.5q0 -24 21 -35t67 -19l56 -8q58 -10 99 -26t67 -49.5t26 -90.5q0 -85 -70 -128.5t-183 -43.5q-107 0 -177 44.5t-83 123.5l149 17q8 -42 37 -63t75 -21q41 0 65.5 17t24.5 47q0 23 -23.5 36t-70.5 21l-61 9
q-80 13 -128.5 47.5t-48.5 112.5q0 52 32 89t86 56.5t118 19.5q97 0 163 -42t79 -115z" />
    <glyph glyph-name="t" unicode="t" horiz-adv-x="378" 
d="M357 120v-120q-15 -2 -100 -2q-61 0 -96 11t-51.5 40t-16.5 83v295h-83v103h83v147h159v-147h108v-103h-108v-256q0 -33 13.5 -42t49.5 -9h42z" />
    <glyph glyph-name="u" unicode="u" 
d="M408 0v71h-4q-27 -38 -69 -61t-100 -23q-83 0 -134.5 49.5t-51.5 145.5v348h159v-309q0 -57 22.5 -82t67.5 -25q44 0 73.5 33t29.5 96v287h159v-530h-152z" />
    <glyph glyph-name="v" unicode="v" horiz-adv-x="568" 
d="M401 530h169l-192 -530h-189l-190 530h171l114 -357h4z" />
    <glyph glyph-name="w" unicode="w" horiz-adv-x="883" 
d="M623 176l93 354h168l-171 -530h-177l-94 348h-4l-94 -348h-173l-172 530h174l93 -354h4l87 354h175l87 -354h4z" />
    <glyph glyph-name="x" unicode="x" horiz-adv-x="564" 
d="M379 270l181 -270h-180l-98 164l-102 -164h-176l180 267l-167 263h176l90 -153l90 153h173z" />
    <glyph glyph-name="y" unicode="y" horiz-adv-x="568" 
d="M398 530h170l-190 -530q-30 -84 -64 -126.5t-72.5 -56.5t-93.5 -14q-57 0 -94 5v128q32 -4 68 -4q34 0 51 12t30 44l6 15l-212 527h172l119 -344h4z" />
    <glyph glyph-name="z" unicode="z" horiz-adv-x="524" 
d="M494 122v-122h-463v122l260 285h-246v123h449v-122l-260 -286h260z" />
    <glyph glyph-name="braceleft" unicode="{" horiz-adv-x="398" 
d="M283 430q0 -54 -25 -84t-77 -38v-4q53 -10 77.5 -39.5t24.5 -83.5v-147q0 -29 9 -43t40 -14h46v-121h-104q-72 0 -105 31.5t-33 92.5v174q0 52 -21 70.5t-62 18.5v125q41 0 62 18.5t21 70.5v174q0 60 33 91.5t105 31.5h104v-120h-46q-31 0 -40 -14.5t-9 -42.5v-147z" />
    <glyph glyph-name="bar" unicode="|" horiz-adv-x="329" 
d="M85 798h160v-1024h-160v1024z" />
    <glyph glyph-name="braceright" unicode="}" horiz-adv-x="398" 
d="M115 577q0 28 -9.5 42.5t-39.5 14.5h-46v120h104q72 0 105 -31.5t33 -91.5v-174q0 -52 21 -70.5t62 -18.5v-125q-41 0 -62 -18.5t-21 -70.5v-174q0 -61 -33 -92.5t-105 -31.5h-104v121h46q31 0 40 14.5t9 42.5v147q0 54 24.5 83.5t77.5 39.5v4q-52 8 -77 38t-25 84v147z
" />
    <glyph glyph-name="asciitilde" unicode="~" horiz-adv-x="485" 
d="M407 352.5q28 18.5 50 46.5v-122q-51 -51 -105 -51q-20 0 -38.5 6t-41.5 17l-70 33q-22 11 -37.5 16t-32.5 5q-27 0 -55 -18.5t-50 -46.5v122q51 51 105 51q21 0 39.5 -6t40.5 -17l70 -33q22 -11 37.5 -16t32.5 -5q27 0 55 18.5z" />
    <glyph glyph-name="uni00A0" unicode="&#xa0;" horiz-adv-x="168" 
 />
    <glyph glyph-name="exclamdown" unicode="&#xa1;" horiz-adv-x="304" 
d="M65 371v162h174v-162h-174zM93 297h118l26 -313v-165h-170v165z" />
    <glyph glyph-name="cent" unicode="&#xa2;" horiz-adv-x="585" 
d="M567 184q-19 -80 -77.5 -135t-164.5 -61v-89h-50v89q-116 7 -182 81t-66 196t66 196t182 81v74h50v-74q103 -6 159.5 -58t75.5 -117l-157 -29q-20 73 -78 86v-318q62 13 80 94zM211.5 154q22.5 -40 63.5 -48v318q-41 -9 -63.5 -49t-22.5 -110q0 -71 22.5 -111z" />
    <glyph glyph-name="sterling" unicode="&#xa3;" horiz-adv-x="660" 
d="M643 52q-18 -34 -52 -50t-72 -16q-53 0 -101 20.5t-97 55.5q-23 -37 -62.5 -56.5t-88.5 -19.5q-66 0 -105.5 34t-39.5 94q0 59 36.5 90.5t91.5 31.5q27 0 64 -13q-4 34 -25 66h-139v82h89q-52 70 -52 137q0 101 72.5 153t184.5 52t188 -58t89 -182h-154q-8 58 -39 87.5
t-75 29.5t-70.5 -25.5t-26.5 -70.5q0 -29 13 -54t43 -69h159v-82h-115q19 -33 19 -70q0 -31 -9 -54q38 -21 67.5 -32.5t57.5 -11.5q63 0 104 59zM199 85.5q14 14.5 18 45.5q-30 22 -49 22q-17 0 -28 -11.5t-11 -30.5q0 -18 11 -29t28 -11t31 14.5z" />
    <glyph glyph-name="currency" unicode="&#xa4;" horiz-adv-x="601" 
d="M505 224l69 -68l-67 -61l-66 66q-64 -43 -141 -43q-76 0 -140 43l-66 -66l-67 61l69 68q-46 65 -46 144t46 144l-69 68l67 61l66 -66q64 43 140 43q77 0 141 -43l66 66l67 -61l-69 -68q45 -64 45 -144t-45 -144zM366.5 245q30.5 19 48 51.5t17.5 71.5t-17.5 71.5
t-48 51.5t-66.5 19t-66 -19t-47.5 -51.5t-17.5 -71.5t17.5 -71.5t47.5 -51.5t66 -19t66.5 19z" />
    <glyph glyph-name="yen" unicode="&#xa5;" horiz-adv-x="706" 
d="M531 700h169l-182 -294h103v-81h-153l-36 -59h189v-80h-189v-186h-158v186h-193v80h193l-36 59h-157v81h107l-181 294h172l176 -300z" />
    <glyph glyph-name="brokenbar" unicode="&#xa6;" horiz-adv-x="329" 
d="M85 798h160v-437h-160v437zM85 210h160v-436h-160v436z" />
    <glyph glyph-name="section" unicode="&#xa7;" horiz-adv-x="714" 
d="M629.5 158.5q-28.5 -37.5 -77.5 -56.5q48 -48 48 -121q0 -95 -67.5 -140t-174.5 -45q-110 0 -180 50t-74 144l162 16q3 -50 28 -72.5t63 -22.5t58.5 17t20.5 50q0 30 -16.5 47t-45.5 29l-166 71q-84 35 -118.5 72.5t-34.5 101.5q0 100 113 139q-46 44 -46 114
q0 89 63.5 133.5t166.5 44.5q101 0 163.5 -46.5t69.5 -130.5l-156 -10q-8 73 -78 73q-32 0 -51 -16.5t-19 -43.5q0 -23 13.5 -36t34.5 -22l158 -69q64 -27 100.5 -51t53.5 -55t17 -76q0 -51 -28.5 -88.5zM428 177q3 -1 4.5 -2t2.5 -2q30 3 44.5 21t14.5 40q0 25 -15 42.5
t-46 29.5l-152 65q-34 -3 -50.5 -20t-16.5 -39t13 -38t35 -25z" />
    <glyph glyph-name="dieresis" unicode="&#xa8;" horiz-adv-x="448" 
d="M188 600h-139v120h139v-120zM403 600h-139v120h139v-120z" />
    <glyph glyph-name="copyright" unicode="&#xa9;" horiz-adv-x="856" 
d="M241 34q-86 50 -136 136t-50 187t50 186.5t136 135.5t187 50t187 -50t136 -135.5t50 -186.5t-50 -187t-136 -136t-187 -50t-187 50zM578 98q69 40 109 108.5t40 150.5q0 81 -40.5 149.5t-109 109t-149.5 40.5t-149.5 -40.5t-109 -109t-40.5 -149.5q0 -82 40 -150.5
t109 -108.5t150 -40t150 40zM602 306q-11 -59 -57.5 -97.5t-115.5 -38.5q-81 0 -130.5 49.5t-49.5 137.5t49.5 137.5t130.5 49.5q66 0 111.5 -35t57.5 -85l-100 -12q-7 25 -24.5 40t-44.5 15q-34 0 -56.5 -26.5t-22.5 -83.5t22.5 -83.5t56.5 -26.5q29 0 47.5 18t25.5 50z
" />
    <glyph glyph-name="ordfeminine" unicode="&#xaa;" horiz-adv-x="399" 
d="M255 379q-8 10 -10 49q-12 -27 -41 -42t-68 -15q-45 0 -78.5 27t-33.5 71q0 52 33.5 76.5t102.5 33.5q51 7 68 15t17 22q0 16 -12.5 24.5t-34.5 8.5q-20 0 -35.5 -11t-22.5 -32l-103 10q11 50 54.5 78t108.5 28q77 0 116.5 -30t39.5 -84v-166q0 -27 1.5 -41t7.5 -22h-110
zM245 537q-8 -5 -30 -9t-28 -5q-50 -10 -50 -45q0 -17 11 -27t30 -10q25 0 46 17t21 50v29zM19 109h361v-109h-361v109z" />
    <glyph glyph-name="guillemotleft" unicode="&#xab;" horiz-adv-x="497" 
d="M51 182v180l179 151v-155l-93 -84v-4l93 -83v-156zM276 182v180l179 151v-155l-93 -84v-4l93 -83v-156z" />
    <glyph glyph-name="logicalnot" unicode="&#xac;" horiz-adv-x="485" 
d="M27 418h431v-279h-114v172h-317v107z" />
    <glyph glyph-name="registered" unicode="&#xae;" horiz-adv-x="856" 
d="M615 679q86 -50 136 -135.5t50 -186.5t-50 -187t-136 -136t-187 -50t-187 50t-136 136t-50 187t50 186.5t136 135.5t187 50t187 -50zM577.5 98.5q68.5 40.5 109 109t40.5 149.5t-40.5 149.5t-109 109t-149.5 40.5t-149.5 -40.5t-109 -109t-40.5 -149.5t40.5 -149.5
t109 -109t149.5 -40.5t149.5 40.5zM574.5 349.5q-17.5 -27.5 -51.5 -40.5l80 -131h-114l-66 119h-54v-119h-98v358h185q64 0 100 -31.5t36 -87.5q0 -40 -17.5 -67.5zM369 461v-89h69q26 0 39.5 12t13.5 33t-13.5 32.5t-39.5 11.5h-69z" />
    <glyph glyph-name="macron" unicode="&#xaf;" horiz-adv-x="410" 
d="M365 723v-97h-316v97h316z" />
    <glyph glyph-name="degree" unicode="&#xb0;" horiz-adv-x="416" 
d="M131.5 437q-35.5 19 -56 53t-20.5 76t20.5 76t56 53t76.5 19t76 -19t55.5 -53t20.5 -76t-20.5 -76t-55.5 -53t-76 -19t-76.5 19zM259 512.5q20 21.5 20 53.5t-20 53.5t-51 21.5t-51.5 -21.5t-20.5 -53.5t20.5 -53.5t51.5 -21.5t51 21.5z" />
    <glyph glyph-name="plusminus" unicode="&#xb1;" horiz-adv-x="485" 
d="M298 393h160v-107h-160v-157h-111v157h-160v107h160v157h111v-157zM27 0v107h431v-107h-431z" />
    <glyph glyph-name="uni00B2" unicode="&#xb2;" horiz-adv-x="414" 
d="M386 294h-363v13q0 49 17 83t44 56.5t72 50.5l44 26q37 22 53.5 36t16.5 32q0 21 -15 33t-43 12q-30 0 -49 -17.5t-21 -49.5l-116 2q4 73 56.5 112t131.5 39q80 0 127 -33.5t47 -97.5q0 -46 -27 -76t-80 -56l-54 -30q-52 -29 -55 -42h214v-93z" />
    <glyph glyph-name="uni00B3" unicode="&#xb3;" horiz-adv-x="417" 
d="M202 547q30 0 47.5 13t17.5 34q0 20 -16.5 32t-42.5 12t-43.5 -14t-21.5 -39l-114 6q5 61 52.5 96t126.5 35t126.5 -32.5t47.5 -89.5q0 -31 -20 -52t-54 -31v-4q38 -8 60 -31.5t22 -63.5q0 -68 -50 -100t-133 -32q-84 0 -135 33.5t-56 104.5l118 6q5 -60 73 -60
q29 0 47.5 13.5t18.5 37.5q0 50 -71 50h-44v76h44z" />
    <glyph glyph-name="acute" unicode="&#xb4;" horiz-adv-x="342" 
d="M135 753h162l-134 -164h-114z" />
    <glyph glyph-name="paragraph" unicode="&#xb6;" horiz-adv-x="683" 
d="M628 713v-897h-115v800h-98v-800h-114v478q-134 0 -204 55t-70 154t70 154.5t204 55.5h327z" />
    <glyph glyph-name="periodcentered" unicode="&#xb7;" horiz-adv-x="304" 
d="M78.5 242q-30.5 30 -30.5 73t30.5 74t73.5 31t73.5 -31t30.5 -74t-30.5 -73t-73.5 -30t-73.5 30z" />
    <glyph glyph-name="cedilla" unicode="&#xb8;" horiz-adv-x="362" 
d="M70 -141q48 -22 90 -22q18 0 31 9t13 26q0 29 -44 29q-16 0 -41 -7v64l76 81l92 5l-42 -44l-30 -33v-5q49 -5 75.5 -27.5t26.5 -63.5q0 -51 -38.5 -77t-112.5 -26q-32 0 -63 7t-54 19z" />
    <glyph glyph-name="uni00B9" unicode="&#xb9;" horiz-adv-x="301" 
d="M231 714v-420h-115v267h-98v74h16q44 0 68.5 22.5t32.5 56.5h96z" />
    <glyph glyph-name="ordmasculine" unicode="&#xba;" horiz-adv-x="399" 
d="M332 675.5q48 -46.5 48 -129.5q0 -82 -48 -128.5t-133 -46.5t-132.5 46.5t-47.5 128.5q0 83 47.5 129.5t132.5 46.5t133 -46.5zM266 546q0 97 -67 97q-66 0 -66 -97q0 -96 66 -96q67 0 67 96zM19 109h361v-109h-361v109z" />
    <glyph glyph-name="guillemotright" unicode="&#xbb;" horiz-adv-x="497" 
d="M42 513l179 -151v-180l-179 -151v156l93 83v4l-93 84v155zM267 513l179 -151v-180l-179 -151v156l93 83v4l-93 84v155z" />
    <glyph glyph-name="questiondown" unicode="&#xbf;" horiz-adv-x="595" 
d="M212 533h176v-165h-176v165zM565 24q-14 -109 -84.5 -165t-184.5 -56q-75 0 -133.5 24.5t-92 71.5t-33.5 112q0 46 15 77.5t37 50.5t56 39q47 28 64.5 52t17.5 62v5h145v-31q0 -62 -24.5 -99t-84.5 -75q-30 -18 -44.5 -38.5t-14.5 -50.5q0 -34 24.5 -54.5t67.5 -20.5
q45 0 74.5 29t39.5 86z" />
    <glyph glyph-name="Agrave" unicode="&#xc0;" horiz-adv-x="753" 
d="M750 0h-182l-54 160h-279l-53 -160h-179l260 714h227zM372 572l-95 -288h196l-97 288h-4zM319 768l-134 164h162l86 -164h-114z" />
    <glyph glyph-name="Aacute" unicode="&#xc1;" horiz-adv-x="753" 
d="M750 0h-182l-54 160h-279l-53 -160h-179l260 714h227zM372 572l-95 -288h196l-97 288h-4zM405 932h162l-134 -164h-114z" />
    <glyph glyph-name="Acircumflex" unicode="&#xc2;" horiz-adv-x="753" 
d="M750 0h-182l-54 160h-279l-53 -160h-179l260 714h227zM372 572l-95 -288h196l-97 288h-4zM587 762h-143l-66 89h-4l-65 -89h-143l139 164h143z" />
    <glyph glyph-name="Atilde" unicode="&#xc3;" horiz-adv-x="753" 
d="M750 0h-182l-54 160h-279l-53 -160h-179l260 714h227zM372 572l-95 -288h196l-97 288h-4zM486 911q-8 -41 -38 -41q-9 0 -18.5 4t-22.5 13l-31 19q-32 19 -59 19q-51 0 -85 -32.5t-42 -98.5l78 -9q8 41 38 41q16 0 41 -17l31 -19q30 -19 59 -19q52 0 85.5 32.5t41.5 98.5
z" />
    <glyph glyph-name="Adieresis" unicode="&#xc4;" horiz-adv-x="753" 
d="M750 0h-182l-54 160h-279l-53 -160h-179l260 714h227zM372 572l-95 -288h196l-97 288h-4zM338 779h-139v121h139v-121zM553 779h-139v121h139v-121z" />
    <glyph glyph-name="Aring" unicode="&#xc5;" horiz-adv-x="753" 
d="M750 0h-182l-54 160h-279l-53 -160h-179l260 714h227zM372 572l-95 -288h196l-97 288h-4zM291 784.5q-35 33.5 -35 82.5q0 50 35 83.5t86 33.5q50 0 84.5 -33.5t34.5 -83.5q0 -49 -34.5 -82.5t-84.5 -33.5q-51 0 -86 33.5zM412 829.5q14 14.5 14 37.5q0 24 -14 38.5
t-35 14.5q-22 0 -36.5 -14.5t-14.5 -38.5q0 -23 14.5 -37.5t36.5 -14.5q21 0 35 14.5z" />
    <glyph glyph-name="AE" unicode="&#xc6;" horiz-adv-x="1101" 
d="M1064 713v-138h-352v-144h333v-133h-333v-159h352v-139h-515v180h-266l-95 -180h-185l390 713h671zM490 575l-144 -275h203v275h-59z" />
    <glyph glyph-name="Ccedilla" unicode="&#xc7;" horiz-adv-x="753" 
d="M415 -33v-5q49 -5 75.5 -27.5t26.5 -63.5q0 -51 -38.5 -77t-112.5 -26q-31 0 -62.5 7t-53.5 19l21 65q46 -22 89 -22q19 0 32 9t13 26q0 29 -45 29q-16 0 -41 -7v64l26 28q-92 9 -162 55.5t-109 127.5t-39 188q0 116 44.5 200t124.5 128.5t184 44.5q85 0 153 -32
t112 -83.5t60 -111.5l-169 -24q-17 51 -57.5 83t-98.5 32q-79 0 -129.5 -59t-50.5 -178t50.5 -178t129.5 -59q65 0 107.5 40t58.5 107l171 -17q-13 -67 -51.5 -123.5t-100 -94t-140.5 -45.5z" />
    <glyph glyph-name="Egrave" unicode="&#xc8;" horiz-adv-x="625" 
d="M588 582h-362v-152h344v-128h-344v-166h362v-136h-533v714h533v-132zM265 768l-134 164h162l86 -164h-114z" />
    <glyph glyph-name="Eacute" unicode="&#xc9;" horiz-adv-x="625" 
d="M588 582h-362v-152h344v-128h-344v-166h362v-136h-533v714h533v-132zM351 932h162l-134 -164h-114z" />
    <glyph glyph-name="Ecircumflex" unicode="&#xca;" horiz-adv-x="625" 
d="M588 582h-362v-152h344v-128h-344v-166h362v-136h-533v714h533v-132zM533 762h-143l-66 89h-4l-65 -89h-143l139 164h143z" />
    <glyph glyph-name="Edieresis" unicode="&#xcb;" horiz-adv-x="625" 
d="M588 582h-362v-152h344v-128h-344v-166h362v-136h-533v714h533v-132zM284 779h-139v121h139v-121zM499 779h-139v121h139v-121z" />
    <glyph glyph-name="Igrave" unicode="&#xcc;" horiz-adv-x="283" 
d="M227 714v-714h-170v714h170zM84 768l-134 164h162l86 -164h-114z" />
    <glyph glyph-name="Iacute" unicode="&#xcd;" horiz-adv-x="283" 
d="M227 714v-714h-170v714h170zM170 932h162l-134 -164h-114z" />
    <glyph glyph-name="Icircumflex" unicode="&#xce;" horiz-adv-x="283" 
d="M227 714v-714h-170v714h170zM352 762h-143l-66 89h-4l-65 -89h-143l139 164h143z" />
    <glyph glyph-name="Idieresis" unicode="&#xcf;" horiz-adv-x="283" 
d="M227 714v-714h-170v714h170zM104 779h-139v121h139v-121zM319 779h-139v121h139v-121z" />
    <glyph glyph-name="Eth" unicode="&#xd0;" horiz-adv-x="745" 
d="M344 714q169 0 267.5 -89t98.5 -268t-98.5 -268t-267.5 -89h-289v302h-53v111h53v301h289zM318 132q108 0 163.5 52.5t55.5 172.5t-55.5 172.5t-163.5 52.5h-93v-169h146v-111h-146v-170h93z" />
    <glyph glyph-name="Ntilde" unicode="&#xd1;" horiz-adv-x="747" 
d="M536 714h156v-714h-189l-288 488h-4v-488h-156v714h194l283 -479h4v479zM483 910q-8 -41 -38 -41q-9 0 -18.5 4t-22.5 13l-31 19q-32 19 -59 19q-51 0 -85 -32.5t-42 -98.5l78 -9q8 41 38 41q16 0 41 -17l31 -19q30 -19 59 -19q52 0 85.5 32.5t41.5 98.5z" />
    <glyph glyph-name="Ograve" unicode="&#xd2;" horiz-adv-x="785" 
d="M578 685.5q81 -44.5 126.5 -128.5t45.5 -200t-45.5 -200t-126.5 -128.5t-185 -44.5q-105 0 -186 44.5t-126.5 128.5t-45.5 200t45.5 200t126.5 128.5t186 44.5q104 0 185 -44.5zM526 179q51 59 51 178t-51 178t-133 59q-83 0 -134 -59t-51 -178t51 -178t134 -59
q82 0 133 59zM335 768l-134 164h162l86 -164h-114z" />
    <glyph glyph-name="Oacute" unicode="&#xd3;" horiz-adv-x="785" 
d="M578 685.5q81 -44.5 126.5 -128.5t45.5 -200t-45.5 -200t-126.5 -128.5t-185 -44.5q-105 0 -186 44.5t-126.5 128.5t-45.5 200t45.5 200t126.5 128.5t186 44.5q104 0 185 -44.5zM526 179q51 59 51 178t-51 178t-133 59q-83 0 -134 -59t-51 -178t51 -178t134 -59
q82 0 133 59zM421 932h162l-134 -164h-114z" />
    <glyph glyph-name="Ocircumflex" unicode="&#xd4;" horiz-adv-x="785" 
d="M578 685.5q81 -44.5 126.5 -128.5t45.5 -200t-45.5 -200t-126.5 -128.5t-185 -44.5q-105 0 -186 44.5t-126.5 128.5t-45.5 200t45.5 200t126.5 128.5t186 44.5q104 0 185 -44.5zM526 179q51 59 51 178t-51 178t-133 59q-83 0 -134 -59t-51 -178t51 -178t134 -59
q82 0 133 59zM603 762h-143l-66 89h-4l-65 -89h-143l139 164h143z" />
    <glyph glyph-name="Otilde" unicode="&#xd5;" horiz-adv-x="785" 
d="M578 685.5q81 -44.5 126.5 -128.5t45.5 -200t-45.5 -200t-126.5 -128.5t-185 -44.5q-105 0 -186 44.5t-126.5 128.5t-45.5 200t45.5 200t126.5 128.5t186 44.5q104 0 185 -44.5zM526 179q51 59 51 178t-51 178t-133 59q-83 0 -134 -59t-51 -178t51 -178t134 -59
q82 0 133 59zM501 911q-8 -41 -38 -41q-9 0 -18.5 4t-22.5 13l-31 19q-32 19 -59 19q-51 0 -85 -32.5t-42 -98.5l78 -9q8 41 38 41q16 0 41 -17l31 -19q30 -19 59 -19q52 0 85.5 32.5t41.5 98.5z" />
    <glyph glyph-name="Odieresis" unicode="&#xd6;" horiz-adv-x="785" 
d="M578 685.5q81 -44.5 126.5 -128.5t45.5 -200t-45.5 -200t-126.5 -128.5t-185 -44.5q-105 0 -186 44.5t-126.5 128.5t-45.5 200t45.5 200t126.5 128.5t186 44.5q104 0 185 -44.5zM526 179q51 59 51 178t-51 178t-133 59q-83 0 -134 -59t-51 -178t51 -178t134 -59
q82 0 133 59zM354 779h-139v121h139v-121zM569 779h-139v121h139v-121z" />
    <glyph glyph-name="multiply" unicode="&#xd7;" horiz-adv-x="505" 
d="M252 403l143 138l82 -75l-145 -141l146 -141l-82 -75l-144 139l-143 -139l-81 75l145 141l-144 141l81 75z" />
    <glyph glyph-name="Oslash" unicode="&#xd8;" horiz-adv-x="785" 
d="M669 610q39 -47 60 -111.5t21 -141.5q0 -116 -45.5 -200t-126.5 -128.5t-185 -44.5q-126 0 -215 62l-66 -76l-62 58l66 76q-39 47 -60 111.5t-21 141.5q0 116 45.5 200t126.5 128.5t186 44.5q125 0 214 -62l66 76l62 -58zM228 233l280 321q-47 40 -115 40q-83 0 -134 -59
t-51 -178q0 -73 20 -124zM526 179q51 59 51 178q0 73 -20 124l-280 -321q46 -40 116 -40q82 0 133 59z" />
    <glyph glyph-name="Ugrave" unicode="&#xd9;" horiz-adv-x="737" 
d="M682 263q0 -92 -40.5 -154.5t-111.5 -93.5t-162 -31t-161.5 31t-111 93.5t-40.5 154.5v451h170v-435q0 -158 143 -158q144 0 144 158v435h170v-451zM311 767l-134 164h162l86 -164h-114z" />
    <glyph glyph-name="Uacute" unicode="&#xda;" horiz-adv-x="737" 
d="M682 263q0 -92 -40.5 -154.5t-111.5 -93.5t-162 -31t-161.5 31t-111 93.5t-40.5 154.5v451h170v-435q0 -158 143 -158q144 0 144 158v435h170v-451zM397 931h162l-134 -164h-114z" />
    <glyph glyph-name="Ucircumflex" unicode="&#xdb;" horiz-adv-x="737" 
d="M682 263q0 -92 -40.5 -154.5t-111.5 -93.5t-162 -31t-161.5 31t-111 93.5t-40.5 154.5v451h170v-435q0 -158 143 -158q144 0 144 158v435h170v-451zM579 761h-143l-66 89h-4l-65 -89h-143l139 164h143z" />
    <glyph glyph-name="Udieresis" unicode="&#xdc;" horiz-adv-x="737" 
d="M682 263q0 -92 -40.5 -154.5t-111.5 -93.5t-162 -31t-161.5 31t-111 93.5t-40.5 154.5v451h170v-435q0 -158 143 -158q144 0 144 158v435h170v-451zM330 778h-139v121h139v-121zM545 778h-139v121h139v-121z" />
    <glyph glyph-name="Yacute" unicode="&#xdd;" horiz-adv-x="697" 
d="M350 417l157 297h183l-257 -444v-270h-170v269l-256 445h186zM379 932h162l-134 -164h-114z" />
    <glyph glyph-name="Thorn" unicode="&#xde;" horiz-adv-x="685" 
d="M397 595q125 0 194.5 -62.5t69.5 -173.5t-69.5 -173t-194.5 -62h-172v-124h-170v714h170v-119h172zM367 256q58 0 89 27t31 76t-30.5 76.5t-89.5 27.5h-142v-207h142z" />
    <glyph glyph-name="germandbls" unicode="&#xdf;" horiz-adv-x="663" 
d="M531 279q36 -19 56.5 -35t34.5 -42t14 -65q0 -76 -55.5 -113t-152.5 -37q-80 0 -127.5 32t-61.5 93l127 16q15 -46 62 -46q27 0 40.5 11.5t13.5 31.5q0 18 -13.5 30t-43.5 28l-57 30q-51 26 -70.5 51.5t-19.5 59.5q0 30 10.5 50t25.5 31.5t42 27.5q37 20 55.5 40t18.5 58
q0 36 -27 61t-72 25q-52 0 -87 -32.5t-35 -98.5v-486h-160v498q0 85 42 138.5t106.5 77t135.5 23.5q81 0 139 -28.5t88 -75t30 -100.5q0 -43 -19 -72t-44 -44.5t-61 -31.5q-26 -12 -37 -19t-11 -17q0 -9 32 -28z" />
    <glyph glyph-name="agrave" unicode="&#xe0;" horiz-adv-x="578" 
d="M389 0q-12 15 -15 60q-20 -34 -66.5 -53.5t-99.5 -19.5q-50 0 -92 19t-67 54.5t-25 83.5q0 81 53.5 120.5t163.5 53.5q77 10 105 22.5t28 35.5q0 28 -21 43.5t-62 15.5q-35 0 -61.5 -19t-37.5 -55l-148 18q18 77 84.5 120.5t165.5 43.5q119 0 179 -47t60 -130v-263
q0 -45 2.5 -67t11.5 -36h-158zM374 255q-11 -8 -33 -13t-70 -13q-39 -6 -62.5 -25t-23.5 -50q0 -29 19.5 -46t51.5 -17q27 0 54 12t45.5 38t18.5 64v50zM237 589l-134 164h162l86 -164h-114z" />
    <glyph glyph-name="aacute" unicode="&#xe1;" horiz-adv-x="578" 
d="M389 0q-12 15 -15 60q-20 -34 -66.5 -53.5t-99.5 -19.5q-50 0 -92 19t-67 54.5t-25 83.5q0 81 53.5 120.5t163.5 53.5q77 10 105 22.5t28 35.5q0 28 -21 43.5t-62 15.5q-35 0 -61.5 -19t-37.5 -55l-148 18q18 77 84.5 120.5t165.5 43.5q119 0 179 -47t60 -130v-263
q0 -45 2.5 -67t11.5 -36h-158zM374 255q-11 -8 -33 -13t-70 -13q-39 -6 -62.5 -25t-23.5 -50q0 -29 19.5 -46t51.5 -17q27 0 54 12t45.5 38t18.5 64v50zM323 753h162l-134 -164h-114z" />
    <glyph glyph-name="acircumflex" unicode="&#xe2;" horiz-adv-x="578" 
d="M389 0q-12 15 -15 60q-20 -34 -66.5 -53.5t-99.5 -19.5q-50 0 -92 19t-67 54.5t-25 83.5q0 81 53.5 120.5t163.5 53.5q77 10 105 22.5t28 35.5q0 28 -21 43.5t-62 15.5q-35 0 -61.5 -19t-37.5 -55l-148 18q18 77 84.5 120.5t165.5 43.5q119 0 179 -47t60 -130v-263
q0 -45 2.5 -67t11.5 -36h-158zM374 255q-11 -8 -33 -13t-70 -13q-39 -6 -62.5 -25t-23.5 -50q0 -29 19.5 -46t51.5 -17q27 0 54 12t45.5 38t18.5 64v50zM505 589h-143l-66 89h-4l-65 -89h-143l139 164h143z" />
    <glyph glyph-name="atilde" unicode="&#xe3;" horiz-adv-x="578" 
d="M389 0q-12 15 -15 60q-20 -34 -66.5 -53.5t-99.5 -19.5q-50 0 -92 19t-67 54.5t-25 83.5q0 81 53.5 120.5t163.5 53.5q77 10 105 22.5t28 35.5q0 28 -21 43.5t-62 15.5q-35 0 -61.5 -19t-37.5 -55l-148 18q18 77 84.5 120.5t165.5 43.5q119 0 179 -47t60 -130v-263
q0 -45 2.5 -67t11.5 -36h-158zM374 255q-11 -8 -33 -13t-70 -13q-39 -6 -62.5 -25t-23.5 -50q0 -29 19.5 -46t51.5 -17q27 0 54 12t45.5 38t18.5 64v50zM403 747q-8 -41 -38 -41q-9 0 -18.5 4t-22.5 13l-31 19q-32 19 -59 19q-51 0 -85 -32.5t-42 -98.5l78 -9q8 41 38 41
q16 0 41 -17l31 -19q30 -19 59 -19q52 0 85.5 32.5t41.5 98.5z" />
    <glyph glyph-name="adieresis" unicode="&#xe4;" horiz-adv-x="578" 
d="M389 0q-12 15 -15 60q-20 -34 -66.5 -53.5t-99.5 -19.5q-50 0 -92 19t-67 54.5t-25 83.5q0 81 53.5 120.5t163.5 53.5q77 10 105 22.5t28 35.5q0 28 -21 43.5t-62 15.5q-35 0 -61.5 -19t-37.5 -55l-148 18q18 77 84.5 120.5t165.5 43.5q119 0 179 -47t60 -130v-263
q0 -45 2.5 -67t11.5 -36h-158zM374 255q-11 -8 -33 -13t-70 -13q-39 -6 -62.5 -25t-23.5 -50q0 -29 19.5 -46t51.5 -17q27 0 54 12t45.5 38t18.5 64v50zM256 600h-139v120h139v-120zM471 600h-139v120h139v-120z" />
    <glyph glyph-name="aring" unicode="&#xe5;" horiz-adv-x="578" 
d="M389 0q-12 15 -15 60q-20 -34 -66.5 -53.5t-99.5 -19.5q-50 0 -92 19t-67 54.5t-25 83.5q0 81 53.5 120.5t163.5 53.5q77 10 105 22.5t28 35.5q0 28 -21 43.5t-62 15.5q-35 0 -61.5 -19t-37.5 -55l-148 18q18 77 84.5 120.5t165.5 43.5q119 0 179 -47t60 -130v-263
q0 -45 2.5 -67t11.5 -36h-158zM374 255q-11 -8 -33 -13t-70 -13q-39 -6 -62.5 -25t-23.5 -50q0 -29 19.5 -46t51.5 -17q27 0 54 12t45.5 38t18.5 64v50zM209 620.5q-35 33.5 -35 83.5q0 49 35 82.5t86 33.5q50 0 84.5 -33.5t34.5 -82.5q0 -50 -34.5 -83.5t-84.5 -33.5
q-51 0 -86 33.5zM330 665.5q14 14.5 14 38.5q0 23 -14 37.5t-35 14.5q-22 0 -36.5 -14.5t-14.5 -37.5q0 -24 14.5 -38.5t36.5 -14.5q21 0 35 14.5z" />
    <glyph glyph-name="ae" unicode="&#xe6;" horiz-adv-x="948" 
d="M846.5 470.5q73.5 -72.5 73.5 -206.5q0 -21 -1 -31h-383q2 -63 32 -100.5t80 -37.5q47 0 71.5 22t32.5 53l162 -11q-11 -42 -41.5 -81t-87 -65t-137.5 -26q-66 0 -117 26.5t-84 75.5q-27 -49 -85.5 -75.5t-134.5 -26.5q-90 0 -146.5 42t-56.5 115q0 81 53.5 120.5
t163.5 53.5q77 10 105 22.5t28 35.5q0 28 -21 43.5t-62 15.5q-35 0 -61.5 -19t-37.5 -55l-148 18q18 77 84.5 120.5t165.5 43.5q129 0 190 -59q62 59 163 59q126 0 199.5 -72.5zM757 329q-3 48 -32 78.5t-78 30.5t-77.5 -30.5t-31.5 -78.5h219zM374 255q-11 -8 -33 -13
t-70 -13q-39 -6 -62.5 -25t-23.5 -50q0 -29 19.5 -46t51.5 -17q27 0 54 12t45.5 38t18.5 64v50z" />
    <glyph glyph-name="ccedilla" unicode="&#xe7;" horiz-adv-x="585" 
d="M329 -33v-5q49 -5 76 -27.5t27 -63.5q0 -51 -39 -77t-112 -26q-32 0 -63.5 7t-53.5 19l21 65q46 -22 90 -22q18 0 31 9t13 26q0 29 -44 29q-18 0 -42 -7v64l29 31q-111 11 -173 84t-62 192q0 85 33 147.5t94.5 96.5t145.5 34q116 0 178 -53t82 -123l-157 -29
q-26 88 -103 88q-52 0 -81.5 -40.5t-29.5 -120.5q0 -81 29.5 -121.5t81.5 -40.5q46 0 70.5 27.5t34.5 70.5l162 -17q-18 -73 -70.5 -127.5t-145.5 -66.5z" />
    <glyph glyph-name="egrave" unicode="&#xe8;" horiz-adv-x="601" 
d="M568 159q-11 -42 -42 -81t-87.5 -65t-137.5 -26q-84 0 -146 33.5t-95 96.5t-33 147q0 130 73 204.5t201 74.5q125 0 199 -72.5t74 -206.5l-1 -31h-383q1 -63 31 -100.5t80 -37.5q47 0 72 22t32 53zM223 407.5q-29 -30.5 -32 -78.5h219q-2 48 -31 78.5t-78 30.5t-78 -30.5
zM243 589l-134 164h162l86 -164h-114z" />
    <glyph glyph-name="eacute" unicode="&#xe9;" horiz-adv-x="601" 
d="M568 159q-11 -42 -42 -81t-87.5 -65t-137.5 -26q-84 0 -146 33.5t-95 96.5t-33 147q0 130 73 204.5t201 74.5q125 0 199 -72.5t74 -206.5l-1 -31h-383q1 -63 31 -100.5t80 -37.5q47 0 72 22t32 53zM223 407.5q-29 -30.5 -32 -78.5h219q-2 48 -31 78.5t-78 30.5t-78 -30.5
zM329 753h162l-134 -164h-114z" />
    <glyph glyph-name="ecircumflex" unicode="&#xea;" horiz-adv-x="601" 
d="M568 159q-11 -42 -42 -81t-87.5 -65t-137.5 -26q-84 0 -146 33.5t-95 96.5t-33 147q0 130 73 204.5t201 74.5q125 0 199 -72.5t74 -206.5l-1 -31h-383q1 -63 31 -100.5t80 -37.5q47 0 72 22t32 53zM223 407.5q-29 -30.5 -32 -78.5h219q-2 48 -31 78.5t-78 30.5t-78 -30.5
zM511 589h-143l-66 89h-4l-65 -89h-143l139 164h143z" />
    <glyph glyph-name="edieresis" unicode="&#xeb;" horiz-adv-x="601" 
d="M568 159q-11 -42 -42 -81t-87.5 -65t-137.5 -26q-84 0 -146 33.5t-95 96.5t-33 147q0 130 73 204.5t201 74.5q125 0 199 -72.5t74 -206.5l-1 -31h-383q1 -63 31 -100.5t80 -37.5q47 0 72 22t32 53zM223 407.5q-29 -30.5 -32 -78.5h219q-2 48 -31 78.5t-78 30.5t-78 -30.5
zM263 600h-139v120h139v-120zM478 600h-139v120h139v-120z" />
    <glyph glyph-name="igrave" unicode="&#xec;" horiz-adv-x="257" 
d="M208 0h-159v530h159v-530zM71 589l-134 164h162l86 -164h-114z" />
    <glyph glyph-name="iacute" unicode="&#xed;" horiz-adv-x="257" 
d="M208 0h-159v530h159v-530zM157 753h162l-134 -164h-114z" />
    <glyph glyph-name="icircumflex" unicode="&#xee;" horiz-adv-x="257" 
d="M208 0h-159v530h159v-530zM339 589h-143l-66 89h-4l-65 -89h-143l139 164h143z" />
    <glyph glyph-name="idieresis" unicode="&#xef;" horiz-adv-x="257" 
d="M208 0h-159v530h159v-530zM91 600h-139v120h139v-120zM306 600h-139v120h139v-120z" />
    <glyph glyph-name="eth" unicode="&#xf0;" horiz-adv-x="623" 
d="M420 669q97 -68 136 -167t39 -226q0 -139 -75 -213.5t-209 -74.5q-86 0 -150.5 31t-99 87.5t-34.5 131.5q0 76 34 133t93 87.5t133 30.5q30 0 61.5 -10.5t58.5 -32.5q-30 86 -111 143l-111 -71l-67 67l84 54q-56 22 -122 32l50 103q115 -19 197 -54l128 82l67 -67z
M399 136.5q33 37.5 33 101.5t-33 102t-88 38t-88.5 -38t-33.5 -102q0 -63 33.5 -101t88.5 -38t88 37.5z" />
    <glyph glyph-name="ntilde" unicode="&#xf1;" 
d="M201 530v-71h4q61 84 169 84q83 0 134.5 -49.5t51.5 -145.5v-348h-159v309q0 57 -22.5 82t-67.5 25q-44 0 -73.5 -33t-29.5 -96v-287h-159v530h152zM414 747q-8 -41 -38 -41q-9 0 -18.5 4t-22.5 13l-31 19q-32 19 -59 19q-51 0 -85 -32.5t-42 -98.5l78 -9q8 41 38 41
q16 0 41 -17l31 -19q30 -19 59 -19q52 0 85.5 32.5t41.5 98.5z" />
    <glyph glyph-name="ograve" unicode="&#xf2;" horiz-adv-x="610" 
d="M509 468.5q74 -74.5 74 -203.5t-74 -203.5t-204 -74.5t-204 74.5t-74 203.5t74 203.5t204 74.5t204 -74.5zM390.5 144q30.5 40 30.5 121q0 80 -30.5 120.5t-85.5 40.5t-85.5 -40.5t-30.5 -120.5q0 -81 30.5 -121t85.5 -40t85.5 40zM248 589l-134 164h162l86 -164h-114z
" />
    <glyph glyph-name="oacute" unicode="&#xf3;" horiz-adv-x="610" 
d="M509 468.5q74 -74.5 74 -203.5t-74 -203.5t-204 -74.5t-204 74.5t-74 203.5t74 203.5t204 74.5t204 -74.5zM390.5 144q30.5 40 30.5 121q0 80 -30.5 120.5t-85.5 40.5t-85.5 -40.5t-30.5 -120.5q0 -81 30.5 -121t85.5 -40t85.5 40zM334 753h162l-134 -164h-114z" />
    <glyph glyph-name="ocircumflex" unicode="&#xf4;" horiz-adv-x="610" 
d="M509 468.5q74 -74.5 74 -203.5t-74 -203.5t-204 -74.5t-204 74.5t-74 203.5t74 203.5t204 74.5t204 -74.5zM390.5 144q30.5 40 30.5 121q0 80 -30.5 120.5t-85.5 40.5t-85.5 -40.5t-30.5 -120.5q0 -81 30.5 -121t85.5 -40t85.5 40zM516 589h-143l-66 89h-4l-65 -89h-143
l139 164h143z" />
    <glyph glyph-name="otilde" unicode="&#xf5;" horiz-adv-x="610" 
d="M509 468.5q74 -74.5 74 -203.5t-74 -203.5t-204 -74.5t-204 74.5t-74 203.5t74 203.5t204 74.5t204 -74.5zM390.5 144q30.5 40 30.5 121q0 80 -30.5 120.5t-85.5 40.5t-85.5 -40.5t-30.5 -120.5q0 -81 30.5 -121t85.5 -40t85.5 40zM414 747q-8 -41 -38 -41q-9 0 -18.5 4
t-22.5 13l-31 19q-32 19 -59 19q-51 0 -85 -32.5t-42 -98.5l78 -9q8 41 38 41q16 0 41 -17l31 -19q30 -19 59 -19q52 0 85.5 32.5t41.5 98.5z" />
    <glyph glyph-name="odieresis" unicode="&#xf6;" horiz-adv-x="610" 
d="M509 468.5q74 -74.5 74 -203.5t-74 -203.5t-204 -74.5t-204 74.5t-74 203.5t74 203.5t204 74.5t204 -74.5zM390.5 144q30.5 40 30.5 121q0 80 -30.5 120.5t-85.5 40.5t-85.5 -40.5t-30.5 -120.5q0 -81 30.5 -121t85.5 -40t85.5 40zM267 600h-139v120h139v-120zM482 600
h-139v120h139v-120z" />
    <glyph glyph-name="divide" unicode="&#xf7;" horiz-adv-x="545" 
d="M217 466q-23 23 -23 56q0 32 23 55t56 23q32 0 55 -23t23 -55q0 -33 -23 -56t-55 -23q-33 0 -56 23zM27 272v107h491v-107h-491zM217 73q-23 23 -23 56q0 32 23 55t56 23q32 0 55 -23t23 -55q0 -33 -23 -56t-55 -23q-33 0 -56 23z" />
    <glyph glyph-name="oslash" unicode="&#xf8;" horiz-adv-x="612" 
d="M522 455q62 -73 62 -190q0 -129 -74 -203.5t-204 -74.5q-91 0 -158 39l-49 -56l-56 51l47 54q-62 73 -62 190q0 129 74 203.5t204 74.5q92 0 158 -39l50 56l56 -51zM197 198l179 205q-26 23 -70 23q-55 0 -85.5 -40.5t-30.5 -120.5q0 -34 7 -67zM391.5 143.5
q30.5 40.5 30.5 121.5q0 40 -7 67l-179 -205q29 -24 70 -24q55 0 85.5 40.5z" />
    <glyph glyph-name="ugrave" unicode="&#xf9;" 
d="M408 0v71h-4q-27 -38 -69 -61t-100 -23q-83 0 -134.5 49.5t-51.5 145.5v348h159v-309q0 -57 22.5 -82t67.5 -25q44 0 73.5 33t29.5 96v287h159v-530h-152zM248 589l-134 164h162l86 -164h-114z" />
    <glyph glyph-name="uacute" unicode="&#xfa;" 
d="M408 0v71h-4q-27 -38 -69 -61t-100 -23q-83 0 -134.5 49.5t-51.5 145.5v348h159v-309q0 -57 22.5 -82t67.5 -25q44 0 73.5 33t29.5 96v287h159v-530h-152zM333 753h162l-134 -164h-114z" />
    <glyph glyph-name="ucircumflex" unicode="&#xfb;" 
d="M408 0v71h-4q-27 -38 -69 -61t-100 -23q-83 0 -134.5 49.5t-51.5 145.5v348h159v-309q0 -57 22.5 -82t67.5 -25q44 0 73.5 33t29.5 96v287h159v-530h-152zM515 589h-143l-66 89h-4l-65 -89h-143l139 164h143z" />
    <glyph glyph-name="udieresis" unicode="&#xfc;" 
d="M408 0v71h-4q-27 -38 -69 -61t-100 -23q-83 0 -134.5 49.5t-51.5 145.5v348h159v-309q0 -57 22.5 -82t67.5 -25q44 0 73.5 33t29.5 96v287h159v-530h-152zM267 600h-139v120h139v-120zM482 600h-139v120h139v-120z" />
    <glyph glyph-name="yacute" unicode="&#xfd;" horiz-adv-x="568" 
d="M398 530h170l-190 -530q-30 -84 -64 -126.5t-72.5 -56.5t-93.5 -14q-57 0 -94 5v128q32 -4 68 -4q34 0 51 12t30 44l6 15l-212 527h172l119 -344h4zM312 753h162l-134 -164h-114z" />
    <glyph glyph-name="thorn" unicode="&#xfe;" horiz-adv-x="624" 
d="M486.5 509q51.5 -34 81 -96.5t29.5 -146.5t-29.5 -147.5t-81 -97.5t-115.5 -34q-109 0 -159 76h-4v-247h-159v908h159v-257h4q49 76 159 76q64 0 115.5 -34zM404 146q31 40 31 120q0 78 -31.5 117.5t-86.5 39.5q-54 0 -85.5 -40t-31.5 -117q0 -79 31.5 -119.5t85.5 -40.5
q56 0 87 40z" />
    <glyph glyph-name="ydieresis" unicode="&#xff;" horiz-adv-x="568" 
d="M398 530h170l-190 -530q-30 -84 -64 -126.5t-72.5 -56.5t-93.5 -14q-57 0 -94 5v128q32 -4 68 -4q34 0 51 12t30 44l6 15l-212 527h172l119 -344h4zM246 600h-139v120h139v-120zM461 600h-139v120h139v-120z" />
    <glyph glyph-name="Amacron" unicode="&#x100;" horiz-adv-x="753" 
d="M750 0h-182l-54 160h-279l-53 -160h-179l260 714h227zM372 572l-95 -288h196l-97 288h-4zM535 891v-97h-316v97h316z" />
    <glyph glyph-name="amacron" unicode="&#x101;" horiz-adv-x="578" 
d="M389 0q-12 15 -15 60q-20 -34 -66.5 -53.5t-99.5 -19.5q-50 0 -92 19t-67 54.5t-25 83.5q0 81 53.5 120.5t163.5 53.5q77 10 105 22.5t28 35.5q0 28 -21 43.5t-62 15.5q-35 0 -61.5 -19t-37.5 -55l-148 18q18 77 84.5 120.5t165.5 43.5q119 0 179 -47t60 -130v-263
q0 -45 2.5 -67t11.5 -36h-158zM374 255q-11 -8 -33 -13t-70 -13q-39 -6 -62.5 -25t-23.5 -50q0 -29 19.5 -46t51.5 -17q27 0 54 12t45.5 38t18.5 64v50zM452 723v-97h-316v97h316z" />
    <glyph glyph-name="Abreve" unicode="&#x102;" horiz-adv-x="753" 
d="M750 0h-182l-54 160h-279l-53 -160h-179l260 714h227zM372 572l-95 -288h196l-97 288h-4zM562 928q-1 -53 -27 -91t-67.5 -57.5t-90.5 -19.5t-90.5 19.5t-67.5 57.5t-28 91h105q4 -34 27 -52.5t54 -18.5t54 18.5t27 52.5h104z" />
    <glyph glyph-name="abreve" unicode="&#x103;" horiz-adv-x="578" 
d="M389 0q-12 15 -15 60q-20 -34 -66.5 -53.5t-99.5 -19.5q-50 0 -92 19t-67 54.5t-25 83.5q0 81 53.5 120.5t163.5 53.5q77 10 105 22.5t28 35.5q0 28 -21 43.5t-62 15.5q-35 0 -61.5 -19t-37.5 -55l-148 18q18 77 84.5 120.5t165.5 43.5q119 0 179 -47t60 -130v-263
q0 -45 2.5 -67t11.5 -36h-158zM374 255q-11 -8 -33 -13t-70 -13q-39 -6 -62.5 -25t-23.5 -50q0 -29 19.5 -46t51.5 -17q27 0 54 12t45.5 38t18.5 64v50zM480 754q-1 -52 -27 -90t-68 -58t-90 -20q-49 0 -90.5 20t-67.5 58t-28 90h105q4 -34 27 -52.5t54 -18.5t54 18.5
t27 52.5h104z" />
    <glyph glyph-name="Aogonek" unicode="&#x104;" horiz-adv-x="753" 
d="M762 -136v-89q-28 -7 -75 -7q-71 0 -109 26.5t-38 76.5q0 41 24.5 74.5t66.5 54.5h-63l-54 160h-279l-53 -160h-179l260 714h227l260 -714q-48 -26 -71.5 -53.5t-23.5 -51.5q0 -18 15.5 -28t36.5 -10q33 0 55 7zM372 572l-95 -288h196l-97 288h-4z" />
    <glyph glyph-name="aogonek" unicode="&#x105;" horiz-adv-x="578" 
d="M559 -136v-89q-29 -7 -75 -7q-71 0 -109 26.5t-38 76.5q0 41 24 74.5t66 54.5h-38q-12 15 -15 60q-20 -34 -66.5 -53.5t-99.5 -19.5q-50 0 -92 19t-67 54.5t-25 83.5q0 81 53.5 120.5t163.5 53.5q77 10 105 22.5t28 35.5q0 28 -21 43.5t-62 15.5q-35 0 -61.5 -19
t-37.5 -55l-148 18q18 77 84.5 120.5t165.5 43.5q119 0 179 -47t60 -130v-263q0 -45 2.5 -67t11.5 -36q-48 -26 -71.5 -53.5t-23.5 -51.5q0 -18 15 -28t36 -10q32 0 56 7zM374 255q-11 -8 -33 -13t-70 -13q-39 -6 -62.5 -25t-23.5 -50q0 -29 19.5 -46t51.5 -17q27 0 54 12
t45.5 38t18.5 64v50z" />
    <glyph glyph-name="Cacute" unicode="&#x106;" horiz-adv-x="749" 
d="M721 250q-13 -73 -56.5 -133.5t-114 -96.5t-162.5 -36q-104 0 -184 44.5t-124.5 128.5t-44.5 200t44.5 200t124.5 128.5t184 44.5q85 0 153 -32t112 -83.5t60 -111.5l-169 -24q-17 51 -57.5 83t-98.5 32q-79 0 -129.5 -59t-50.5 -178t50.5 -178t129.5 -59q65 0 106.5 40
t55.5 107zM417 932h162l-134 -164h-114z" />
    <glyph glyph-name="cacute" unicode="&#x107;" horiz-adv-x="585" 
d="M370.5 130.5q24.5 27.5 34.5 70.5l162 -17q-20 -83 -84.5 -140t-182.5 -57q-127 0 -200 74.5t-73 203.5q0 85 33 147.5t94.5 96.5t145.5 34q116 0 178 -53t82 -123l-157 -29q-26 88 -103 88q-52 0 -81.5 -40.5t-29.5 -120.5q0 -81 29.5 -121.5t81.5 -40.5q46 0 70.5 27.5
zM329 753h162l-134 -164h-114z" />
    <glyph glyph-name="Ccircumflex" unicode="&#x108;" horiz-adv-x="749" 
d="M721 250q-13 -73 -56.5 -133.5t-114 -96.5t-162.5 -36q-104 0 -184 44.5t-124.5 128.5t-44.5 200t44.5 200t124.5 128.5t184 44.5q85 0 153 -32t112 -83.5t60 -111.5l-169 -24q-17 51 -57.5 83t-98.5 32q-79 0 -129.5 -59t-50.5 -178t50.5 -178t129.5 -59q65 0 106.5 40
t55.5 107zM598 762h-143l-66 89h-4l-65 -89h-143l139 164h143z" />
    <glyph glyph-name="ccircumflex" unicode="&#x109;" horiz-adv-x="585" 
d="M370.5 130.5q24.5 27.5 34.5 70.5l162 -17q-20 -83 -84.5 -140t-182.5 -57q-127 0 -200 74.5t-73 203.5q0 85 33 147.5t94.5 96.5t145.5 34q116 0 178 -53t82 -123l-157 -29q-26 88 -103 88q-52 0 -81.5 -40.5t-29.5 -120.5q0 -81 29.5 -121.5t81.5 -40.5q46 0 70.5 27.5
zM511 589h-143l-66 89h-4l-65 -89h-143l139 164h143z" />
    <glyph glyph-name="Cdotaccent" unicode="&#x10a;" horiz-adv-x="749" 
d="M721 250q-13 -73 -56.5 -133.5t-114 -96.5t-162.5 -36q-104 0 -184 44.5t-124.5 128.5t-44.5 200t44.5 200t124.5 128.5t184 44.5q85 0 153 -32t112 -83.5t60 -111.5l-169 -24q-17 51 -57.5 83t-98.5 32q-79 0 -129.5 -59t-50.5 -178t50.5 -178t129.5 -59q65 0 106.5 40
t55.5 107zM467 779h-159v124h159v-124z" />
    <glyph glyph-name="cdotaccent" unicode="&#x10b;" horiz-adv-x="585" 
d="M370.5 130.5q24.5 27.5 34.5 70.5l162 -17q-20 -83 -84.5 -140t-182.5 -57q-127 0 -200 74.5t-73 203.5q0 85 33 147.5t94.5 96.5t145.5 34q116 0 178 -53t82 -123l-157 -29q-26 88 -103 88q-52 0 -81.5 -40.5t-29.5 -120.5q0 -81 29.5 -121.5t81.5 -40.5q46 0 70.5 27.5
zM379 600h-159v124h159v-124z" />
    <glyph glyph-name="Ccaron" unicode="&#x10c;" horiz-adv-x="749" 
d="M721 250q-13 -73 -56.5 -133.5t-114 -96.5t-162.5 -36q-104 0 -184 44.5t-124.5 128.5t-44.5 200t44.5 200t124.5 128.5t184 44.5q85 0 153 -32t112 -83.5t60 -111.5l-169 -24q-17 51 -57.5 83t-98.5 32q-79 0 -129.5 -59t-50.5 -178t50.5 -178t129.5 -59q65 0 106.5 40
t55.5 107zM389 838l66 88h143l-139 -163h-143l-139 163h143l65 -88h4z" />
    <glyph glyph-name="ccaron" unicode="&#x10d;" horiz-adv-x="585" 
d="M370.5 130.5q24.5 27.5 34.5 70.5l162 -17q-20 -83 -84.5 -140t-182.5 -57q-127 0 -200 74.5t-73 203.5q0 85 33 147.5t94.5 96.5t145.5 34q116 0 178 -53t82 -123l-157 -29q-26 88 -103 88q-52 0 -81.5 -40.5t-29.5 -120.5q0 -81 29.5 -121.5t81.5 -40.5q46 0 70.5 27.5
zM302 664l66 89h143l-139 -164h-143l-139 164h143l65 -89h4z" />
    <glyph glyph-name="Dcaron" unicode="&#x10e;" horiz-adv-x="745" 
d="M344 714q169 0 267.5 -89t98.5 -268t-98.5 -268t-267.5 -89h-289v714h289zM318 132q108 0 163.5 52.5t55.5 172.5t-55.5 172.5t-163.5 52.5h-93v-450h93zM341 837l66 88h143l-139 -163h-143l-139 163h143l65 -88h4z" />
    <glyph glyph-name="dcaron" unicode="&#x10f;" horiz-adv-x="782" 
d="M348 523q40 -20 64 -56h4v257h159v-724h-152v70h-4q-24 -43 -66.5 -63t-95.5 -20q-66 0 -118.5 34t-82 97t-29.5 147t29.5 147t81 97t115.5 34q55 0 95 -20zM776 645q0 -85 -35 -129.5t-109 -48.5v69q26 2 40 18.5t14 45.5h-54v124h144v-79zM392.5 146q31.5 40 31.5 119
q0 78 -31.5 118t-85.5 40q-55 0 -86.5 -40t-31.5 -118q0 -79 31 -119t87 -40q54 0 85.5 40z" />
    <glyph glyph-name="Dcroat" unicode="&#x110;" horiz-adv-x="745" 
d="M344 714q169 0 267.5 -89t98.5 -268t-98.5 -268t-267.5 -89h-289v302h-53v111h53v301h289zM318 132q108 0 163.5 52.5t55.5 172.5t-55.5 172.5t-163.5 52.5h-93v-169h146v-111h-146v-170h93z" />
    <glyph glyph-name="dcroat" unicode="&#x111;" horiz-adv-x="624" 
d="M575 670h46v-87h-46v-583h-152v70h-4q-24 -43 -66.5 -63t-95.5 -20q-66 0 -118.5 34t-82 97t-29.5 147t29.5 147t81 97t115.5 34q55 0 95 -20t64 -56h4v116h-92v87h92v54h159v-54zM392.5 146q31.5 40 31.5 119q0 78 -31.5 118t-85.5 40q-55 0 -86.5 -40t-31.5 -118
q0 -79 31 -119t87 -40q54 0 85.5 40z" />
    <glyph glyph-name="Emacron" unicode="&#x112;" horiz-adv-x="625" 
d="M588 582h-362v-152h344v-128h-344v-166h362v-136h-533v714h533v-132zM480 891v-97h-316v97h316z" />
    <glyph glyph-name="emacron" unicode="&#x113;" horiz-adv-x="601" 
d="M568 159q-11 -42 -42 -81t-87.5 -65t-137.5 -26q-84 0 -146 33.5t-95 96.5t-33 147q0 130 73 204.5t201 74.5q125 0 199 -72.5t74 -206.5l-1 -31h-383q1 -63 31 -100.5t80 -37.5q47 0 72 22t32 53zM223 407.5q-29 -30.5 -32 -78.5h219q-2 48 -31 78.5t-78 30.5t-78 -30.5
zM459 723v-97h-316v97h316z" />
    <glyph glyph-name="Ebreve" unicode="&#x114;" horiz-adv-x="625" 
d="M588 582h-362v-152h344v-128h-344v-166h362v-136h-533v714h533v-132zM507 928q-1 -53 -27 -91t-67.5 -57.5t-90.5 -19.5t-90.5 19.5t-67.5 57.5t-28 91h105q4 -34 27 -52.5t54 -18.5t54 18.5t27 52.5h104z" />
    <glyph glyph-name="ebreve" unicode="&#x115;" horiz-adv-x="601" 
d="M568 159q-11 -42 -42 -81t-87.5 -65t-137.5 -26q-84 0 -146 33.5t-95 96.5t-33 147q0 130 73 204.5t201 74.5q125 0 199 -72.5t74 -206.5l-1 -31h-383q1 -63 31 -100.5t80 -37.5q47 0 72 22t32 53zM223 407.5q-29 -30.5 -32 -78.5h219q-2 48 -31 78.5t-78 30.5t-78 -30.5
zM486 754q-1 -52 -27 -90t-68 -58t-90 -20q-49 0 -90.5 20t-67.5 58t-28 90h105q4 -34 27 -52.5t54 -18.5t54 18.5t27 52.5h104z" />
    <glyph glyph-name="Edotaccent" unicode="&#x116;" horiz-adv-x="625" 
d="M588 582h-362v-152h344v-128h-344v-166h362v-136h-533v714h533v-132zM401 779h-159v124h159v-124z" />
    <glyph glyph-name="edotaccent" unicode="&#x117;" horiz-adv-x="601" 
d="M568 159q-11 -42 -42 -81t-87.5 -65t-137.5 -26q-84 0 -146 33.5t-95 96.5t-33 147q0 130 73 204.5t201 74.5q125 0 199 -72.5t74 -206.5l-1 -31h-383q1 -63 31 -100.5t80 -37.5q47 0 72 22t32 53zM223 407.5q-29 -30.5 -32 -78.5h219q-2 48 -31 78.5t-78 30.5t-78 -30.5
zM380 600h-159v124h159v-124z" />
    <glyph glyph-name="Eogonek" unicode="&#x118;" horiz-adv-x="625" 
d="M600 -136v-89q-28 -7 -75 -7q-71 0 -109 26.5t-38 76.5q0 41 24.5 74.5t66.5 54.5h-414v714h533v-132h-362v-152h344v-128h-344v-166h362v-136q-48 -26 -71.5 -53.5t-23.5 -51.5q0 -18 15.5 -28t36.5 -10q33 0 55 7z" />
    <glyph glyph-name="eogonek" unicode="&#x119;" horiz-adv-x="602" 
d="M500 470.5q74 -72.5 74 -206.5l-1 -31h-383q1 -63 31 -100.5t80 -37.5q47 0 72 22t32 53l163 -11q-10 -36 -34 -70t-62 -58q-71 -44 -105 -73t-34 -63q0 -18 15.5 -28t36.5 -10q33 0 55 7v-89q-28 -7 -75 -7q-70 0 -108.5 26.5t-38.5 76.5q0 35 18.5 65t50.5 52
q-121 4 -190.5 77.5t-69.5 198.5q0 130 73 204.5t201 74.5q125 0 199 -72.5zM410 329q-2 48 -31 78.5t-78 30.5t-78 -30.5t-32 -78.5h219z" />
    <glyph glyph-name="Ecaron" unicode="&#x11a;" horiz-adv-x="625" 
d="M588 582h-362v-152h344v-128h-344v-166h362v-136h-533v714h533v-132zM324 838l66 88h143l-139 -163h-143l-139 163h143l65 -88h4z" />
    <glyph glyph-name="ecaron" unicode="&#x11b;" horiz-adv-x="601" 
d="M568 159q-11 -42 -42 -81t-87.5 -65t-137.5 -26q-84 0 -146 33.5t-95 96.5t-33 147q0 130 73 204.5t201 74.5q125 0 199 -72.5t74 -206.5l-1 -31h-383q1 -63 31 -100.5t80 -37.5q47 0 72 22t32 53zM223 407.5q-29 -30.5 -32 -78.5h219q-2 48 -31 78.5t-78 30.5t-78 -30.5
zM302 664l66 89h143l-139 -164h-143l-139 164h143l65 -89h4z" />
    <glyph glyph-name="Gcircumflex" unicode="&#x11c;" horiz-adv-x="777" 
d="M728 381v-381h-116v83q-78 -99 -220 -99q-104 0 -185 45t-126.5 129.5t-45.5 198.5t45.5 198.5t126.5 129.5t185 45q124 0 211.5 -61.5t119.5 -163.5l-171 -21q-21 52 -61 81t-99 29q-83 0 -133.5 -59.5t-50.5 -177.5t50.5 -177.5t133.5 -59.5q66 0 113.5 36.5
t63.5 101.5h-165v123h324zM602 762h-143l-66 89h-4l-65 -89h-143l139 164h143z" />
    <glyph glyph-name="gcircumflex" unicode="&#x11d;" horiz-adv-x="616" 
d="M419 530h152v-489q0 -126 -73.5 -182t-197.5 -56q-104 0 -174.5 43t-94.5 134l158 14q12 -39 39 -57.5t72 -18.5q112 0 112 127v51h-4q-48 -69 -156 -69q-64 0 -115 31.5t-80 90.5t-29 137t29.5 136t81 89.5t116.5 31.5q114 0 160 -78h4v65zM389.5 183q31.5 38 31.5 103
q0 63 -31.5 100.5t-83.5 37.5q-53 0 -84.5 -37.5t-31.5 -100.5q0 -65 31.5 -103t84.5 -38q52 0 83.5 38zM511 589h-143l-66 89h-4l-65 -89h-143l139 164h143z" />
    <glyph glyph-name="Gbreve" unicode="&#x11e;" horiz-adv-x="777" 
d="M728 381v-381h-116v83q-78 -99 -220 -99q-104 0 -185 45t-126.5 129.5t-45.5 198.5t45.5 198.5t126.5 129.5t185 45q124 0 211.5 -61.5t119.5 -163.5l-171 -21q-21 52 -61 81t-99 29q-83 0 -133.5 -59.5t-50.5 -177.5t50.5 -177.5t133.5 -59.5q66 0 113.5 36.5
t63.5 101.5h-165v123h324zM577 928q-1 -53 -27 -91t-67.5 -57.5t-90.5 -19.5t-90.5 19.5t-67.5 57.5t-28 91h105q4 -34 27 -52.5t54 -18.5t54 18.5t27 52.5h104z" />
    <glyph glyph-name="gbreve" unicode="&#x11f;" horiz-adv-x="616" 
d="M419 530h152v-489q0 -126 -73.5 -182t-197.5 -56q-104 0 -174.5 43t-94.5 134l158 14q12 -39 39 -57.5t72 -18.5q112 0 112 127v51h-4q-48 -69 -156 -69q-64 0 -115 31.5t-80 90.5t-29 137t29.5 136t81 89.5t116.5 31.5q114 0 160 -78h4v65zM389.5 183q31.5 38 31.5 103
q0 63 -31.5 100.5t-83.5 37.5q-53 0 -84.5 -37.5t-31.5 -100.5q0 -65 31.5 -103t84.5 -38q52 0 83.5 38zM485 754q-1 -52 -27 -90t-68 -58t-90 -20q-49 0 -90.5 20t-67.5 58t-28 90h105q4 -34 27 -52.5t54 -18.5t54 18.5t27 52.5h104z" />
    <glyph glyph-name="Gdotaccent" unicode="&#x120;" horiz-adv-x="777" 
d="M728 381v-381h-116v83q-78 -99 -220 -99q-104 0 -185 45t-126.5 129.5t-45.5 198.5t45.5 198.5t126.5 129.5t185 45q124 0 211.5 -61.5t119.5 -163.5l-171 -21q-21 52 -61 81t-99 29q-83 0 -133.5 -59.5t-50.5 -177.5t50.5 -177.5t133.5 -59.5q66 0 113.5 36.5
t63.5 101.5h-165v123h324zM471 779h-159v124h159v-124z" />
    <glyph glyph-name="gdotaccent" unicode="&#x121;" horiz-adv-x="616" 
d="M419 530h152v-489q0 -126 -73.5 -182t-197.5 -56q-104 0 -174.5 43t-94.5 134l158 14q12 -39 39 -57.5t72 -18.5q112 0 112 127v51h-4q-48 -69 -156 -69q-64 0 -115 31.5t-80 90.5t-29 137t29.5 136t81 89.5t116.5 31.5q114 0 160 -78h4v65zM389.5 183q31.5 38 31.5 103
q0 63 -31.5 100.5t-83.5 37.5q-53 0 -84.5 -37.5t-31.5 -100.5q0 -65 31.5 -103t84.5 -38q52 0 83.5 38zM379 600h-159v124h159v-124z" />
    <glyph glyph-name="uni0122" unicode="&#x122;" horiz-adv-x="777" 
d="M728 381v-381h-116v83q-78 -99 -220 -99q-104 0 -185 45t-126.5 129.5t-45.5 198.5t45.5 198.5t126.5 129.5t185 45q124 0 211.5 -61.5t119.5 -163.5l-171 -21q-21 52 -61 81t-99 29q-83 0 -133.5 -59.5t-50.5 -177.5t50.5 -177.5t133.5 -59.5q66 0 113.5 36.5
t63.5 101.5h-165v123h324zM464 -138q0 -85 -35 -129.5t-109 -48.5v69q25 1 39.5 18t14.5 46h-54v124h144v-79z" />
    <glyph glyph-name="uni0123" unicode="&#x123;" horiz-adv-x="616" 
d="M228 668q0 85 35 129.5t109 48.5v-69q-25 -2 -39.5 -18.5t-14.5 -45.5h54v-124h-144v79zM419 530h152v-489q0 -126 -73.5 -182t-197.5 -56q-104 0 -174.5 43t-94.5 134l158 14q12 -39 39 -57.5t72 -18.5q112 0 112 127v51h-4q-48 -69 -156 -69q-64 0 -115 31.5t-80 90.5
t-29 137t29.5 136t81 89.5t116.5 31.5q114 0 160 -78h4v65zM389.5 183q31.5 38 31.5 103q0 63 -31.5 100.5t-83.5 37.5q-53 0 -84.5 -37.5t-31.5 -100.5q0 -65 31.5 -103t84.5 -38q52 0 83.5 38z" />
    <glyph glyph-name="Hcircumflex" unicode="&#x124;" horiz-adv-x="743" 
d="M518 431v283h170v-714h-170v292h-293v-292h-170v714h170v-283h293zM584 762h-143l-66 89h-4l-65 -89h-143l139 164h143z" />
    <glyph glyph-name="hcircumflex" unicode="&#x125;" 
d="M208 724v-265h4q63 84 166 84q80 0 131 -49.5t51 -145.5v-348h-159v309q0 57 -22.5 82t-67.5 25q-42 0 -72.5 -35.5t-30.5 -97.5v-283h-159v724h159zM339 772h-143l-66 89h-4l-65 -89h-143l139 164h143z" />
    <glyph glyph-name="Hbar" unicode="&#x126;" horiz-adv-x="742" 
d="M688 609h43v-104h-43v-505h-170v292h-293v-292h-170v505h-44v104h44v105h170v-105h293v105h170v-105zM225 431h293v74h-293v-74z" />
    <glyph glyph-name="hbar" unicode="&#x127;" 
d="M509 493.5q51 -49.5 51 -145.5v-348h-159v309q0 57 -22.5 82t-67.5 25q-42 0 -72.5 -35.5t-30.5 -97.5v-283h-159v583h-46v87h46v54h159v-54h92v-87h-92v-124h4q63 84 166 84q80 0 131 -49.5z" />
    <glyph glyph-name="Itilde" unicode="&#x128;" horiz-adv-x="283" 
d="M227 714v-714h-170v714h170zM251 911q-8 -41 -38 -41q-9 0 -18.5 4t-22.5 13l-31 19q-32 19 -59 19q-51 0 -85 -32.5t-42 -98.5l78 -9q8 41 38 41q16 0 41 -17l31 -19q30 -19 59 -19q52 0 85.5 32.5t41.5 98.5z" />
    <glyph glyph-name="itilde" unicode="&#x129;" horiz-adv-x="257" 
d="M208 0h-159v530h159v-530zM238 747q-8 -41 -38 -41q-9 0 -18.5 4t-22.5 13l-31 19q-32 19 -59 19q-51 0 -85 -32.5t-42 -98.5l78 -9q8 41 38 41q16 0 41 -17l31 -19q30 -19 59 -19q52 0 85.5 32.5t41.5 98.5z" />
    <glyph glyph-name="Imacron" unicode="&#x12a;" horiz-adv-x="283" 
d="M227 714v-714h-170v714h170zM300 891v-97h-316v97h316z" />
    <glyph glyph-name="imacron" unicode="&#x12b;" horiz-adv-x="257" 
d="M208 0h-159v530h159v-530zM287 723v-97h-316v97h316z" />
    <glyph glyph-name="Ibreve" unicode="&#x12c;" horiz-adv-x="283" 
d="M227 714v-714h-170v714h170zM327 928q-1 -53 -27 -91t-67.5 -57.5t-90.5 -19.5t-90.5 19.5t-67.5 57.5t-28 91h105q4 -34 27 -52.5t54 -18.5t54 18.5t27 52.5h104z" />
    <glyph glyph-name="ibreve" unicode="&#x12d;" horiz-adv-x="257" 
d="M208 0h-159v530h159v-530zM314 754q-1 -52 -27 -90t-68 -58t-90 -20q-49 0 -90.5 20t-67.5 58t-28 90h105q4 -34 27 -52.5t54 -18.5t54 18.5t27 52.5h104z" />
    <glyph glyph-name="Iogonek" unicode="&#x12e;" horiz-adv-x="283" 
d="M227 0q-48 -26 -71.5 -53.5t-23.5 -51.5q0 -18 15 -28t36 -10q32 0 56 7v-89q-29 -7 -75 -7q-71 0 -109 26.5t-38 76.5q0 41 24 74.5t66 54.5h-50v714h170v-714z" />
    <glyph glyph-name="iogonek" unicode="&#x12f;" horiz-adv-x="257" 
d="M49 724h159v-124h-159v124zM220 -225q-28 -7 -75 -7q-71 0 -109 26.5t-38 76.5q0 41 24 75t67 54h-40v530h159v-530q-48 -26 -71.5 -53.5t-23.5 -51.5q0 -18 15 -28t36 -10q32 0 56 7v-89z" />
    <glyph glyph-name="Idotaccent" unicode="&#x130;" horiz-adv-x="283" 
d="M227 714v-714h-170v714h170zM221 779h-159v124h159v-124z" />
    <glyph glyph-name="dotlessi" unicode="&#x131;" horiz-adv-x="257" 
d="M208 0h-159v530h159v-530z" />
    <glyph glyph-name="IJ" unicode="&#x132;" horiz-adv-x="920" 
d="M227 714v-714h-170v714h170zM865 237q0 -131 -76.5 -192t-207.5 -61q-120 0 -194.5 62.5t-87.5 186.5q-3 26 -2 39l165 14v-17q0 -14 1 -20q7 -66 36 -97t82 -31q56 0 83.5 31t27.5 97v465h173v-477z" />
    <glyph glyph-name="ij" unicode="&#x133;" horiz-adv-x="515" 
d="M208 0h-159v530h159v-530zM208 600h-159v124h159v-124zM295 -61q11 8 11 32v559h159v-587q0 -56 -15.5 -86.5t-47 -42t-83.5 -11.5q-63 0 -93 2v126h35q23 0 34 8zM465 600h-159v124h159v-124z" />
    <glyph glyph-name="Jcircumflex" unicode="&#x134;" horiz-adv-x="637" 
d="M582 237q0 -131 -76.5 -192t-207.5 -61q-120 0 -194.5 62.5t-87.5 186.5q-3 26 -2 39l165 14v-17q0 -14 1 -20q7 -66 36 -97t82 -31q56 0 83.5 31t27.5 97v465h173v-477zM706 762h-143l-66 89h-4l-65 -89h-143l139 164h143z" />
    <glyph glyph-name="jcircumflex" unicode="&#x135;" horiz-adv-x="257" 
d="M38 -61q11 8 11 32v559h159v-587q0 -56 -15.5 -86.5t-47 -42t-83.5 -11.5q-63 0 -93 2v126h35q23 0 34 8zM339 589h-143l-66 89h-4l-65 -89h-143l139 164h143z" />
    <glyph glyph-name="uni0136" unicode="&#x136;" horiz-adv-x="697" 
d="M701 0h-202l-203 319l-76 -82v-237h-170v714h170v-281l249 281h195l-250 -273zM432 -138q0 -85 -35 -129.5t-109 -48.5v69q25 1 39.5 18t14.5 46h-54v124h144v-79z" />
    <glyph glyph-name="uni0137" unicode="&#x137;" horiz-adv-x="582" 
d="M405 0l-139 220l-58 -61v-159h-159v724h159v-396l180 202h178l-194 -204l216 -326h-183zM379 -138q0 -85 -35 -129.5t-109 -48.5v69q25 1 39.5 18t14.5 46h-54v124h144v-79z" />
    <glyph glyph-name="kgreenlandic" unicode="&#x138;" horiz-adv-x="582" 
d="M405 0l-139 220l-58 -61v-159h-159v530h159v-202l180 202h178l-194 -204l216 -326h-183z" />
    <glyph glyph-name="Lacute" unicode="&#x139;" horiz-adv-x="611" 
d="M594 142v-142h-539v714h171v-572h368zM170 932h162l-134 -164h-114z" />
    <glyph glyph-name="lacute" unicode="&#x13a;" horiz-adv-x="260" 
d="M209 0h-158v724h158v-724zM159 942h162l-134 -164h-114z" />
    <glyph glyph-name="uni013B" unicode="&#x13b;" horiz-adv-x="611" 
d="M594 142v-142h-539v714h171v-572h368zM397 -138q0 -85 -35 -129.5t-109 -48.5v69q25 1 39.5 18t14.5 46h-54v124h144v-79z" />
    <glyph glyph-name="uni013C" unicode="&#x13c;" horiz-adv-x="260" 
d="M209 0h-158v724h158v-724zM202 -138q0 -85 -35 -129.5t-109 -48.5v69q25 1 39.5 18t14.5 46h-54v124h144v-79z" />
    <glyph glyph-name="Lcaron" unicode="&#x13d;" horiz-adv-x="611" 
d="M594 142v-142h-539v714h171v-572h368zM142 838l66 88h143l-139 -163h-143l-139 163h143l65 -88h4z" />
    <glyph glyph-name="lcaron" unicode="&#x13e;" horiz-adv-x="260" 
d="M209 0h-158v724h158v-724zM132 858l66 89h143l-139 -164h-143l-139 164h143l65 -89h4z" />
    <glyph glyph-name="Ldot" unicode="&#x13f;" horiz-adv-x="611" 
d="M594 142v-142h-539v714h171v-572h368zM361 329.5q-29 28.5 -29 69.5t29 70t70 29t69.5 -29t28.5 -70q0 -40 -28.5 -69t-69.5 -29t-70 28.5z" />
    <glyph glyph-name="ldot" unicode="&#x140;" horiz-adv-x="470" 
d="M209 0h-158v724h158v-724zM289.5 295.5q-28.5 28.5 -28.5 68.5t28.5 68.5t68.5 28.5t69 -28.5t29 -68.5t-28.5 -68.5t-69.5 -28.5q-40 0 -68.5 28.5z" />
    <glyph glyph-name="Lslash" unicode="&#x141;" horiz-adv-x="611" 
d="M226 319v-177h368v-142h-539v219l-44 -26v119l44 26v376h171v-278l156 91v-117z" />
    <glyph glyph-name="lslash" unicode="&#x142;" horiz-adv-x="276" 
d="M217 724v-255l55 31v-117l-55 -32v-351h-159v259l-54 -32v119l54 32v346h159z" />
    <glyph glyph-name="Nacute" unicode="&#x143;" horiz-adv-x="747" 
d="M536 714h156v-714h-189l-288 488h-4v-488h-156v714h194l283 -479h4v479zM403 931h162l-134 -164h-114z" />
    <glyph glyph-name="nacute" unicode="&#x144;" 
d="M201 530v-71h4q61 84 169 84q83 0 134.5 -49.5t51.5 -145.5v-348h-159v309q0 57 -22.5 82t-67.5 25q-44 0 -73.5 -33t-29.5 -96v-287h-159v530h152zM333 753h162l-134 -164h-114z" />
    <glyph glyph-name="uni0145" unicode="&#x145;" horiz-adv-x="747" 
d="M536 714h156v-714h-189l-288 488h-4v-488h-156v714h194l283 -479h4v479zM446 -138q0 -85 -35 -129.5t-109 -48.5v69q25 1 39.5 18t14.5 46h-54v124h144v-79z" />
    <glyph glyph-name="uni0146" unicode="&#x146;" 
d="M201 530v-71h4q61 84 169 84q83 0 134.5 -49.5t51.5 -145.5v-348h-159v309q0 57 -22.5 82t-67.5 25q-44 0 -73.5 -33t-29.5 -96v-287h-159v530h152zM377 -138q0 -85 -35 -129.5t-109 -48.5v69q25 1 39.5 18t14.5 46h-54v124h144v-79z" />
    <glyph glyph-name="Ncaron" unicode="&#x147;" horiz-adv-x="747" 
d="M536 714h156v-714h-189l-288 488h-4v-488h-156v714h194l283 -479h4v479zM375 837l66 88h143l-139 -163h-143l-139 163h143l65 -88h4z" />
    <glyph glyph-name="ncaron" unicode="&#x148;" 
d="M201 530v-71h4q61 84 169 84q83 0 134.5 -49.5t51.5 -145.5v-348h-159v309q0 57 -22.5 82t-67.5 25q-44 0 -73.5 -33t-29.5 -96v-287h-159v530h152zM306 664l66 89h143l-139 -164h-143l-139 164h143l65 -89h4z" />
    <glyph glyph-name="napostrophe" unicode="&#x149;" horiz-adv-x="727" 
d="M150 645q0 -85 -35 -129.5t-109 -48.5v69q26 2 40.5 18.5t14.5 45.5h-55v124h144v-79zM323 530v-71h4q27 38 69 61t99 23q83 0 134.5 -49.5t51.5 -145.5v-348h-158v310q0 57 -23 82t-68 25q-44 0 -73.5 -33t-29.5 -96v-288h-159v530h153z" />
    <glyph glyph-name="Eng" unicode="&#x14a;" horiz-adv-x="747" 
d="M536 714h156v-734q0 -89 -64 -133t-169 -44q-96 0 -158 47.5t-66 129.5l151 1q2 -28 21.5 -45t53.5 -17q37 0 55.5 19t18.5 48v14l-320 488h-4v-488h-156v714h185l292 -446h4v446z" />
    <glyph glyph-name="eng" unicode="&#x14b;" 
d="M508.5 493.5q51.5 -49.5 51.5 -145.5v-405q0 -56 -15.5 -86.5t-47 -42t-83.5 -11.5q-64 0 -92 2v126h34q23 0 34 8t11 32v338q0 57 -22.5 82t-67.5 25q-44 0 -73.5 -33t-29.5 -96v-287h-159v530h152v-71h4q61 84 169 84q83 0 134.5 -49.5z" />
    <glyph glyph-name="Omacron" unicode="&#x14c;" horiz-adv-x="785" 
d="M578 685.5q81 -44.5 126.5 -128.5t45.5 -200t-45.5 -200t-126.5 -128.5t-185 -44.5q-105 0 -186 44.5t-126.5 128.5t-45.5 200t45.5 200t126.5 128.5t186 44.5q104 0 185 -44.5zM526 179q51 59 51 178t-51 178t-133 59q-83 0 -134 -59t-51 -178t51 -178t134 -59
q82 0 133 59zM551 891v-97h-316v97h316z" />
    <glyph glyph-name="omacron" unicode="&#x14d;" horiz-adv-x="610" 
d="M509 468.5q74 -74.5 74 -203.5t-74 -203.5t-204 -74.5t-204 74.5t-74 203.5t74 203.5t204 74.5t204 -74.5zM390.5 144q30.5 40 30.5 121q0 80 -30.5 120.5t-85.5 40.5t-85.5 -40.5t-30.5 -120.5q0 -81 30.5 -121t85.5 -40t85.5 40zM463 723v-97h-316v97h316z" />
    <glyph glyph-name="Obreve" unicode="&#x14e;" horiz-adv-x="785" 
d="M578 685.5q81 -44.5 126.5 -128.5t45.5 -200t-45.5 -200t-126.5 -128.5t-185 -44.5q-105 0 -186 44.5t-126.5 128.5t-45.5 200t45.5 200t126.5 128.5t186 44.5q104 0 185 -44.5zM526 179q51 59 51 178t-51 178t-133 59q-83 0 -134 -59t-51 -178t51 -178t134 -59
q82 0 133 59zM578 928q-1 -53 -27 -91t-67.5 -57.5t-90.5 -19.5t-90.5 19.5t-67.5 57.5t-28 91h105q4 -34 27 -52.5t54 -18.5t54 18.5t27 52.5h104z" />
    <glyph glyph-name="obreve" unicode="&#x14f;" horiz-adv-x="610" 
d="M509 468.5q74 -74.5 74 -203.5t-74 -203.5t-204 -74.5t-204 74.5t-74 203.5t74 203.5t204 74.5t204 -74.5zM390.5 144q30.5 40 30.5 121q0 80 -30.5 120.5t-85.5 40.5t-85.5 -40.5t-30.5 -120.5q0 -81 30.5 -121t85.5 -40t85.5 40zM491 754q-1 -52 -27 -90t-68 -58
t-90 -20q-49 0 -90.5 20t-67.5 58t-28 90h105q4 -34 27 -52.5t54 -18.5t54 18.5t27 52.5h104z" />
    <glyph glyph-name="Ohungarumlaut" unicode="&#x150;" horiz-adv-x="785" 
d="M578 685.5q81 -44.5 126.5 -128.5t45.5 -200t-45.5 -200t-126.5 -128.5t-185 -44.5q-105 0 -186 44.5t-126.5 128.5t-45.5 200t45.5 200t126.5 128.5t186 44.5q104 0 185 -44.5zM526 179q51 59 51 178t-51 178t-133 59q-83 0 -134 -59t-51 -178t51 -178t134 -59
q82 0 133 59zM307 932h138l-95 -164h-101zM494 932h138l-95 -164h-101z" />
    <glyph glyph-name="ohungarumlaut" unicode="&#x151;" horiz-adv-x="610" 
d="M509 468.5q74 -74.5 74 -203.5t-74 -203.5t-204 -74.5t-204 74.5t-74 203.5t74 203.5t204 74.5t204 -74.5zM390.5 144q30.5 40 30.5 121q0 80 -30.5 120.5t-85.5 40.5t-85.5 -40.5t-30.5 -120.5q0 -81 30.5 -121t85.5 -40t85.5 40zM219 753h138l-95 -164h-101zM406 753
h138l-95 -164h-101z" />
    <glyph glyph-name="OE" unicode="&#x152;" horiz-adv-x="1117" 
d="M1080 575h-334v-144h315v-133h-315v-159h334v-139h-497v78h-4q-35 -45 -90 -69.5t-130 -24.5q-95 0 -168.5 44.5t-114.5 128.5t-41 200t41 200t114.5 128.5t168.5 44.5q75 0 130 -24.5t90 -69.5h4v77h497v-138zM531 179q52 59 52 178t-52 178t-135 59q-84 0 -136 -59
t-52 -178t52 -178t136 -59q83 0 135 59z" />
    <glyph glyph-name="oe" unicode="&#x153;" horiz-adv-x="993" 
d="M959 159q-11 -42 -41.5 -81t-87 -65t-137.5 -26q-130 0 -192 84q-64 -84 -196 -84q-130 0 -204 74.5t-74 203.5t74 203.5t204 74.5q66 0 115 -21.5t80 -61.5q64 83 192 83q125 0 199 -72.5t74 -206.5q0 -21 -1 -31h-383q2 -63 32 -100.5t80 -37.5q47 0 71.5 22t32.5 53z
M802 329q-3 48 -32 78.5t-78 30.5t-78 -30.5t-31 -78.5h219zM390.5 143.5q30.5 40.5 30.5 121.5q0 80 -30.5 120.5t-85.5 40.5t-85.5 -40.5t-30.5 -120.5q0 -81 30.5 -121.5t85.5 -40.5t85.5 40.5z" />
    <glyph glyph-name="Racute" unicode="&#x154;" horiz-adv-x="706" 
d="M695 0h-197l-144 251h-129v-251h-170v714h358q125 0 194.5 -61.5t69.5 -169.5q0 -79 -37.5 -134.5t-108.5 -79.5zM225 582v-199h160q58 0 88.5 26.5t30.5 73.5t-30.5 73t-88.5 26h-160zM370 931h162l-134 -164h-114z" />
    <glyph glyph-name="racute" unicode="&#x155;" horiz-adv-x="411" 
d="M49 530h152v-82h4q24 45 64 70t97 25q16 0 32 -4v-147q-5 0 -23 2t-34 2q-133 0 -133 -136v-260h-159v530zM252 753h162l-134 -164h-114z" />
    <glyph glyph-name="uni0156" unicode="&#x156;" horiz-adv-x="706" 
d="M695 0h-197l-144 251h-129v-251h-170v714h358q125 0 194.5 -61.5t69.5 -169.5q0 -79 -37.5 -134.5t-108.5 -79.5zM225 582v-199h160q58 0 88.5 26.5t30.5 73.5t-30.5 73t-88.5 26h-160zM434 -138q0 -85 -35 -129.5t-109 -48.5v69q25 1 39.5 18t14.5 46h-54v124h144v-79z
" />
    <glyph glyph-name="uni0157" unicode="&#x157;" horiz-adv-x="411" 
d="M49 530h152v-82h4q24 45 64 70t97 25q16 0 32 -4v-147q-5 0 -23 2t-34 2q-133 0 -133 -136v-260h-159v530zM201 -138q0 -85 -35 -129.5t-109 -48.5v69q25 1 39.5 18t14.5 46h-54v124h144v-79z" />
    <glyph glyph-name="Rcaron" unicode="&#x158;" horiz-adv-x="706" 
d="M695 0h-197l-144 251h-129v-251h-170v714h358q125 0 194.5 -61.5t69.5 -169.5q0 -79 -37.5 -134.5t-108.5 -79.5zM225 582v-199h160q58 0 88.5 26.5t30.5 73.5t-30.5 73t-88.5 26h-160zM343 837l66 88h143l-139 -163h-143l-139 163h143l65 -88h4z" />
    <glyph glyph-name="rcaron" unicode="&#x159;" horiz-adv-x="411" 
d="M49 530h152v-82h4q24 45 64 70t97 25q16 0 32 -4v-147q-5 0 -23 2t-34 2q-133 0 -133 -136v-260h-159v530zM225 664l66 89h143l-139 -164h-143l-139 164h143l65 -89h4z" />
    <glyph glyph-name="Sacute" unicode="&#x15a;" horiz-adv-x="677" 
d="M460 500q-8 51 -43.5 78t-93.5 27q-52 0 -83 -22.5t-31 -56.5q0 -31 23 -46.5t70 -26.5l115 -28q75 -19 120 -38.5t76.5 -63.5t31.5 -121q0 -108 -85 -163t-216 -55q-135 0 -223.5 62t-101.5 176l168 17q6 -66 49.5 -97t109.5 -31q55 0 90.5 22.5t35.5 62.5
q0 37 -25.5 54.5t-86.5 32.5l-110 28q-66 18 -108 37.5t-71.5 59.5t-29.5 108t37.5 116t102.5 73t148 25q120 0 197.5 -56.5t97.5 -162.5zM357 932h162l-134 -164h-114z" />
    <glyph glyph-name="sacute" unicode="&#x15b;" horiz-adv-x="547" 
d="M361 369q-7 35 -32 54t-62 19q-36 0 -57.5 -14.5t-21.5 -40.5q0 -24 21 -35t67 -19l56 -8q58 -10 99 -26t67 -49.5t26 -90.5q0 -85 -70 -128.5t-183 -43.5q-107 0 -177 44.5t-83 123.5l149 17q8 -42 37 -63t75 -21q41 0 65.5 17t24.5 47q0 23 -23.5 36t-70.5 21l-61 9
q-80 13 -128.5 47.5t-48.5 112.5q0 52 32 89t86 56.5t118 19.5q97 0 163 -42t79 -115zM294 753h162l-134 -164h-114z" />
    <glyph glyph-name="Scircumflex" unicode="&#x15c;" horiz-adv-x="677" 
d="M460 500q-8 51 -43.5 78t-93.5 27q-52 0 -83 -22.5t-31 -56.5q0 -31 23 -46.5t70 -26.5l115 -28q75 -19 120 -38.5t76.5 -63.5t31.5 -121q0 -108 -85 -163t-216 -55q-135 0 -223.5 62t-101.5 176l168 17q6 -66 49.5 -97t109.5 -31q55 0 90.5 22.5t35.5 62.5
q0 37 -25.5 54.5t-86.5 32.5l-110 28q-66 18 -108 37.5t-71.5 59.5t-29.5 108t37.5 116t102.5 73t148 25q120 0 197.5 -56.5t97.5 -162.5zM539 762h-143l-66 89h-4l-65 -89h-143l139 164h143z" />
    <glyph glyph-name="scircumflex" unicode="&#x15d;" horiz-adv-x="547" 
d="M361 369q-7 35 -32 54t-62 19q-36 0 -57.5 -14.5t-21.5 -40.5q0 -24 21 -35t67 -19l56 -8q58 -10 99 -26t67 -49.5t26 -90.5q0 -85 -70 -128.5t-183 -43.5q-107 0 -177 44.5t-83 123.5l149 17q8 -42 37 -63t75 -21q41 0 65.5 17t24.5 47q0 23 -23.5 36t-70.5 21l-61 9
q-80 13 -128.5 47.5t-48.5 112.5q0 52 32 89t86 56.5t118 19.5q97 0 163 -42t79 -115zM476 589h-143l-66 89h-4l-65 -89h-143l139 164h143z" />
    <glyph glyph-name="Scedilla" unicode="&#x15e;" horiz-adv-x="677" 
d="M369 -33v-5q49 -5 75.5 -27.5t26.5 -63.5q0 -51 -38.5 -77t-112.5 -26q-32 0 -63 7t-54 19l22 65q46 -22 89 -22q18 0 31 9t13 26q0 29 -44 29q-16 0 -41 -7v64l26 28q-120 10 -193.5 70.5t-86.5 165.5l168 17q6 -66 49.5 -97t110.5 -31q55 0 90 22.5t35 62.5
q0 37 -25.5 54.5t-86.5 32.5l-110 28q-66 18 -108 37.5t-71.5 59.5t-29.5 108t37.5 116t102.5 73t148 25q124 0 199.5 -56t95.5 -163l-164 -11q-8 51 -43.5 78t-93.5 27q-52 0 -83 -22.5t-31 -56.5q0 -31 23 -46.5t70 -26.5l115 -28q74 -18 119.5 -37.5t77 -64t31.5 -121.5
q0 -99 -72 -153.5t-187 -62.5z" />
    <glyph glyph-name="scedilla" unicode="&#x15f;" horiz-adv-x="547" 
d="M294 -33v-5q49 -5 75.5 -27.5t26.5 -63.5q0 -51 -38.5 -77t-112.5 -26q-32 0 -63 7t-54 19l22 65q46 -22 89 -22q19 0 31.5 9t12.5 26q0 29 -44 29q-17 0 -41 -7v64l29 31q-89 8 -146.5 51.5t-69.5 114.5l149 17q8 -42 37 -63t75 -21q41 0 65.5 17t24.5 47q0 23 -23.5 36
t-70.5 21l-61 9q-80 13 -128.5 47.5t-48.5 112.5q0 52 32 89t86 56.5t118 19.5q97 0 163 -42t79 -115l-147 -17q-7 35 -32 54t-62 19q-36 0 -57.5 -14.5t-21.5 -40.5q0 -24 21 -35t67 -19l56 -8q58 -10 99 -26t67 -49.5t26 -90.5q0 -77 -56.5 -119.5t-152.5 -50.5z" />
    <glyph glyph-name="Scaron" unicode="&#x160;" horiz-adv-x="677" 
d="M460 500q-8 51 -43.5 78t-93.5 27q-52 0 -83 -22.5t-31 -56.5q0 -31 23 -46.5t70 -26.5l115 -28q75 -19 120 -38.5t76.5 -63.5t31.5 -121q0 -108 -85 -163t-216 -55q-135 0 -223.5 62t-101.5 176l168 17q6 -66 49.5 -97t109.5 -31q55 0 90.5 22.5t35.5 62.5
q0 37 -25.5 54.5t-86.5 32.5l-110 28q-66 18 -108 37.5t-71.5 59.5t-29.5 108t37.5 116t102.5 73t148 25q120 0 197.5 -56.5t97.5 -162.5zM330 838l66 88h143l-139 -163h-143l-139 163h143l65 -88h4z" />
    <glyph glyph-name="scaron" unicode="&#x161;" horiz-adv-x="547" 
d="M361 369q-7 35 -32 54t-62 19q-36 0 -57.5 -14.5t-21.5 -40.5q0 -24 21 -35t67 -19l56 -8q58 -10 99 -26t67 -49.5t26 -90.5q0 -85 -70 -128.5t-183 -43.5q-107 0 -177 44.5t-83 123.5l149 17q8 -42 37 -63t75 -21q41 0 65.5 17t24.5 47q0 23 -23.5 36t-70.5 21l-61 9
q-80 13 -128.5 47.5t-48.5 112.5q0 52 32 89t86 56.5t118 19.5q97 0 163 -42t79 -115zM267 664l66 89h143l-139 -164h-143l-139 164h143l65 -89h4z" />
    <glyph glyph-name="uni0162" unicode="&#x162;" horiz-adv-x="691" 
d="M397 0l-30 -33v-5q49 -5 76 -27.5t27 -63.5q0 -51 -39 -77t-112 -26q-32 0 -63.5 7t-53.5 19l21 65q46 -22 90 -22q18 0 31 9t13 26q0 29 -44 29q-17 0 -42 -7v64l39 42h-50v572h-236v142h643v-142h-237v-572h-33z" />
    <glyph glyph-name="uni0163" unicode="&#x163;" horiz-adv-x="378" 
d="M93 427h-83v103h83v147h159v-147h108v-103h-108v-256q0 -33 13.5 -42t49.5 -9h42v-120q-11 -2 -70 -2l-28 -31v-5q49 -5 75.5 -27.5t26.5 -63.5q0 -51 -38.5 -77t-112.5 -26q-32 0 -63 7t-54 19l21 65q46 -22 90 -22q18 0 31 9t13 26q0 29 -44 29q-16 0 -42 -7v64l40 43
q-58 6 -83.5 35t-25.5 96v295z" />
    <glyph glyph-name="Tcaron" unicode="&#x164;" horiz-adv-x="671" 
d="M24 714h623v-142h-227v-572h-170v572h-226v142zM337 838l66 88h143l-139 -163h-143l-139 163h143l65 -88h4z" />
    <glyph glyph-name="tcaron" unicode="&#x165;" horiz-adv-x="550" 
d="M544 645q0 -85 -35 -129.5t-109 -48.5v69q26 2 40 18.5t14 45.5h-54v124h144v-79zM357 120v-120q-15 -2 -100 -2q-61 0 -96 11t-51.5 40t-16.5 83v295h-83v103h83v147h159v-147h108v-103h-108v-256q0 -33 13.5 -42t49.5 -9h42z" />
    <glyph glyph-name="Tbar" unicode="&#x166;" horiz-adv-x="691" 
d="M667 714v-142h-237v-183h99v-103h-99v-286h-170v286h-98v103h98v183h-236v142h643z" />
    <glyph glyph-name="tbar" unicode="&#x167;" horiz-adv-x="378" 
d="M360 427h-108v-66h108v-87h-108v-103q0 -33 13.5 -42t49.5 -9h42v-120q-15 -2 -100 -2q-61 0 -96 11t-51.5 40t-16.5 83v142h-83v87h83v66h-83v103h83v147h159v-147h108v-103z" />
    <glyph glyph-name="Utilde" unicode="&#x168;" horiz-adv-x="737" 
d="M682 263q0 -92 -40.5 -154.5t-111.5 -93.5t-162 -31t-161.5 31t-111 93.5t-40.5 154.5v451h170v-435q0 -158 143 -158q144 0 144 158v435h170v-451zM477 910q-8 -41 -38 -41q-9 0 -18.5 4t-22.5 13l-31 19q-32 19 -59 19q-51 0 -85 -32.5t-42 -98.5l78 -9q8 41 38 41
q16 0 41 -17l31 -19q30 -19 59 -19q52 0 85.5 32.5t41.5 98.5z" />
    <glyph glyph-name="utilde" unicode="&#x169;" 
d="M408 0v71h-4q-27 -38 -69 -61t-100 -23q-83 0 -134.5 49.5t-51.5 145.5v348h159v-309q0 -57 22.5 -82t67.5 -25q44 0 73.5 33t29.5 96v287h159v-530h-152zM414 747q-8 -41 -38 -41q-9 0 -18.5 4t-22.5 13l-31 19q-32 19 -59 19q-51 0 -85 -32.5t-42 -98.5l78 -9
q8 41 38 41q16 0 41 -17l31 -19q30 -19 59 -19q52 0 85.5 32.5t41.5 98.5z" />
    <glyph glyph-name="Umacron" unicode="&#x16a;" horiz-adv-x="737" 
d="M682 263q0 -92 -40.5 -154.5t-111.5 -93.5t-162 -31t-161.5 31t-111 93.5t-40.5 154.5v451h170v-435q0 -158 143 -158q144 0 144 158v435h170v-451zM526 890v-97h-316v97h316z" />
    <glyph glyph-name="umacron" unicode="&#x16b;" 
d="M408 0v71h-4q-27 -38 -69 -61t-100 -23q-83 0 -134.5 49.5t-51.5 145.5v348h159v-309q0 -57 22.5 -82t67.5 -25q44 0 73.5 33t29.5 96v287h159v-530h-152zM463 723v-97h-316v97h316z" />
    <glyph glyph-name="Ubreve" unicode="&#x16c;" horiz-adv-x="737" 
d="M682 263q0 -92 -40.5 -154.5t-111.5 -93.5t-162 -31t-161.5 31t-111 93.5t-40.5 154.5v451h170v-435q0 -158 143 -158q144 0 144 158v435h170v-451zM554 927q-1 -53 -27 -91t-67.5 -57.5t-90.5 -19.5t-90.5 19.5t-67.5 57.5t-28 91h105q4 -34 27 -52.5t54 -18.5t54 18.5
t27 52.5h104z" />
    <glyph glyph-name="ubreve" unicode="&#x16d;" 
d="M408 0v71h-4q-27 -38 -69 -61t-100 -23q-83 0 -134.5 49.5t-51.5 145.5v348h159v-309q0 -57 22.5 -82t67.5 -25q44 0 73.5 33t29.5 96v287h159v-530h-152zM490 754q-1 -52 -27 -90t-68 -58t-90 -20q-49 0 -90.5 20t-67.5 58t-28 90h105q4 -34 27 -52.5t54 -18.5t54 18.5
t27 52.5h104z" />
    <glyph glyph-name="Uring" unicode="&#x16e;" horiz-adv-x="737" 
d="M682 263q0 -92 -40.5 -154.5t-111.5 -93.5t-162 -31t-161.5 31t-111 93.5t-40.5 154.5v451h170v-435q0 -158 143 -158q144 0 144 158v435h170v-451zM283 783.5q-35 33.5 -35 82.5q0 50 35 83.5t86 33.5q50 0 84.5 -33.5t34.5 -83.5q0 -49 -34.5 -82.5t-84.5 -33.5
q-51 0 -86 33.5zM404 828.5q14 14.5 14 37.5q0 24 -14 38.5t-35 14.5q-22 0 -36.5 -14.5t-14.5 -38.5q0 -23 14.5 -37.5t36.5 -14.5q21 0 35 14.5z" />
    <glyph glyph-name="uring" unicode="&#x16f;" 
d="M408 0v71h-4q-27 -38 -69 -61t-100 -23q-83 0 -134.5 49.5t-51.5 145.5v348h159v-309q0 -57 22.5 -82t67.5 -25q44 0 73.5 33t29.5 96v287h159v-530h-152zM219 620.5q-35 33.5 -35 83.5q0 49 35 82.5t86 33.5q50 0 84.5 -33.5t34.5 -82.5q0 -50 -34.5 -83.5t-84.5 -33.5
q-51 0 -86 33.5zM340 665.5q14 14.5 14 38.5q0 23 -14 37.5t-35 14.5q-22 0 -36.5 -14.5t-14.5 -37.5q0 -24 14.5 -38.5t36.5 -14.5q21 0 35 14.5z" />
    <glyph glyph-name="Uhungarumlaut" unicode="&#x170;" horiz-adv-x="737" 
d="M682 263q0 -92 -40.5 -154.5t-111.5 -93.5t-162 -31t-161.5 31t-111 93.5t-40.5 154.5v451h170v-435q0 -158 143 -158q144 0 144 158v435h170v-451zM282 931h138l-95 -164h-101zM469 931h138l-95 -164h-101z" />
    <glyph glyph-name="uhungarumlaut" unicode="&#x171;" 
d="M408 0v71h-4q-27 -38 -69 -61t-100 -23q-83 0 -134.5 49.5t-51.5 145.5v348h159v-309q0 -57 22.5 -82t67.5 -25q44 0 73.5 33t29.5 96v287h159v-530h-152zM219 753h138l-95 -164h-101zM406 753h138l-95 -164h-101z" />
    <glyph glyph-name="Uogonek" unicode="&#x172;" horiz-adv-x="737" 
d="M512 714h170v-451q0 -92 -40.5 -154.5t-112.5 -94.5q-59 -26 -93.5 -57.5t-34.5 -61.5q0 -18 15 -28t36 -10q33 0 55 7v-89q-28 -7 -75 -7q-70 0 -108 26.5t-38 76.5q0 34 17 63.5t47 50.5q-132 4 -213.5 75t-81.5 203v451h170v-435q0 -158 143 -158q144 0 144 158v435z
" />
    <glyph glyph-name="uogonek" unicode="&#x173;" 
d="M560 0q-48 -26 -71.5 -53.5t-23.5 -51.5q0 -18 15.5 -28t36.5 -10q33 0 55 7v-89q-28 -7 -75 -7q-71 0 -109 26.5t-38 76.5q0 41 24.5 74.5t66.5 54.5h-33v71h-4q-27 -38 -69 -61t-100 -23q-83 0 -134.5 49.5t-51.5 145.5v348h159v-309q0 -57 22.5 -82t67.5 -25
q44 0 73.5 33t29.5 96v287h159v-530z" />
    <glyph glyph-name="Wcircumflex" unicode="&#x174;" horiz-adv-x="967" 
d="M955 714l-166 -714h-209l-95 499h-4l-93 -499h-211l-165 714h173l102 -518h4l96 518h190l96 -518h4l102 518h176zM693 762h-143l-66 89h-4l-65 -89h-143l139 164h143z" />
    <glyph glyph-name="wcircumflex" unicode="&#x175;" horiz-adv-x="883" 
d="M623 176l93 354h168l-171 -530h-177l-94 348h-4l-94 -348h-173l-172 530h174l93 -354h4l87 354h175l87 -354h4zM655 589h-143l-66 89h-4l-65 -89h-143l139 164h143z" />
    <glyph glyph-name="Ycircumflex" unicode="&#x176;" horiz-adv-x="697" 
d="M350 417l157 297h183l-257 -444v-270h-170v269l-256 445h186zM561 762h-143l-66 89h-4l-65 -89h-143l139 164h143z" />
    <glyph glyph-name="ycircumflex" unicode="&#x177;" horiz-adv-x="568" 
d="M398 530h170l-190 -530q-30 -84 -64 -126.5t-72.5 -56.5t-93.5 -14q-57 0 -94 5v128q32 -4 68 -4q34 0 51 12t30 44l6 15l-212 527h172l119 -344h4zM494 589h-143l-66 89h-4l-65 -89h-143l139 164h143z" />
    <glyph glyph-name="Ydieresis" unicode="&#x178;" horiz-adv-x="697" 
d="M350 417l157 297h183l-257 -444v-270h-170v269l-256 445h186zM312 779h-139v121h139v-121zM527 779h-139v121h139v-121z" />
    <glyph glyph-name="Zacute" unicode="&#x179;" horiz-adv-x="644" 
d="M614 714v-142l-363 -430h362v-142h-584v142l363 430h-341v142h563zM361 932h162l-134 -164h-114z" />
    <glyph glyph-name="zacute" unicode="&#x17a;" horiz-adv-x="524" 
d="M494 122v-122h-463v122l260 285h-246v123h449v-122l-260 -286h260zM298 753h162l-134 -164h-114z" />
    <glyph glyph-name="Zdotaccent" unicode="&#x17b;" horiz-adv-x="644" 
d="M614 714v-142l-363 -430h362v-142h-584v142l363 430h-341v142h563zM411 779h-159v124h159v-124z" />
    <glyph glyph-name="zdotaccent" unicode="&#x17c;" horiz-adv-x="524" 
d="M494 122v-122h-463v122l260 285h-246v123h449v-122l-260 -286h260zM349 600h-159v124h159v-124z" />
    <glyph glyph-name="Zcaron" unicode="&#x17d;" horiz-adv-x="644" 
d="M614 714v-142l-363 -430h362v-142h-584v142l363 430h-341v142h563zM334 838l66 88h143l-139 -163h-143l-139 163h143l65 -88h4z" />
    <glyph glyph-name="zcaron" unicode="&#x17e;" horiz-adv-x="524" 
d="M494 122v-122h-463v122l260 285h-246v123h449v-122l-260 -286h260zM271 664l66 89h143l-139 -164h-143l-139 164h143l65 -89h4z" />
    <glyph glyph-name="florin" unicode="&#x192;" horiz-adv-x="510" 
d="M394.5 607.5q-18.5 -12.5 -23.5 -41.5l-20 -112h106v-103h-124l-38 -214q-15 -85 -70.5 -117.5t-149.5 -32.5q-20 0 -75 5v114q27 -4 66 -4q32 0 50 12t23 42l35 195h-89v103h107l23 131q15 84 71 117t149 33q20 0 75 -5v-113q-30 3 -66 3q-31 0 -49.5 -12.5z" />
    <glyph glyph-name="Oslashacute" unicode="&#x1fe;" horiz-adv-x="785" 
d="M669 610q39 -47 60 -111.5t21 -141.5q0 -116 -45.5 -200t-126.5 -128.5t-185 -44.5q-126 0 -215 62l-66 -76l-62 58l66 76q-39 47 -60 111.5t-21 141.5q0 116 45.5 200t126.5 128.5t186 44.5q125 0 214 -62l66 76l62 -58zM228 233l280 321q-47 40 -115 40q-83 0 -134 -59
t-51 -178q0 -73 20 -124zM526 179q51 59 51 178q0 73 -20 124l-280 -321q46 -40 116 -40q82 0 133 59zM421 932h162l-134 -164h-114z" />
    <glyph glyph-name="oslashacute" unicode="&#x1ff;" horiz-adv-x="612" 
d="M522 455q62 -73 62 -190q0 -129 -74 -203.5t-204 -74.5q-91 0 -158 39l-49 -56l-56 51l47 54q-62 73 -62 190q0 129 74 203.5t204 74.5q92 0 158 -39l50 56l56 -51zM197 198l179 205q-26 23 -70 23q-55 0 -85.5 -40.5t-30.5 -120.5q0 -34 7 -67zM391.5 143.5
q30.5 40.5 30.5 121.5q0 40 -7 67l-179 -205q29 -24 70 -24q55 0 85.5 40.5zM335 753h162l-134 -164h-114z" />
    <glyph glyph-name="uni0218" unicode="&#x218;" horiz-adv-x="677" 
d="M460 500q-8 51 -43.5 78t-93.5 27q-52 0 -83 -22.5t-31 -56.5q0 -31 23 -46.5t70 -26.5l115 -28q75 -19 120 -38.5t76.5 -63.5t31.5 -121q0 -108 -85 -163t-216 -55q-135 0 -223.5 62t-101.5 176l168 17q6 -66 49.5 -97t109.5 -31q55 0 90.5 22.5t35.5 62.5
q0 37 -25.5 54.5t-86.5 32.5l-110 28q-66 18 -108 37.5t-71.5 59.5t-29.5 108t37.5 116t102.5 73t148 25q120 0 197.5 -56.5t97.5 -162.5zM416 -138q0 -85 -35 -129.5t-109 -48.5v69q25 1 39.5 18t14.5 46h-54v124h144v-79z" />
    <glyph glyph-name="uni0219" unicode="&#x219;" horiz-adv-x="547" 
d="M361 369q-7 35 -32 54t-62 19q-36 0 -57.5 -14.5t-21.5 -40.5q0 -24 21 -35t67 -19l56 -8q58 -10 99 -26t67 -49.5t26 -90.5q0 -85 -70 -128.5t-183 -43.5q-107 0 -177 44.5t-83 123.5l149 17q8 -42 37 -63t75 -21q41 0 65.5 17t24.5 47q0 23 -23.5 36t-70.5 21l-61 9
q-80 13 -128.5 47.5t-48.5 112.5q0 52 32 89t86 56.5t118 19.5q97 0 163 -42t79 -115zM343 -138q0 -85 -35 -129.5t-109 -48.5v69q25 1 39.5 18t14.5 46h-54v124h144v-79z" />
    <glyph glyph-name="uni021A" unicode="&#x21a;" horiz-adv-x="671" 
d="M24 714h623v-142h-227v-572h-170v572h-226v142zM407 -138q0 -85 -35 -129.5t-109 -48.5v69q25 1 39.5 18t14.5 46h-54v124h144v-79z" />
    <glyph glyph-name="uni021B" unicode="&#x21b;" horiz-adv-x="378" 
d="M357 120v-120q-15 -2 -100 -2q-61 0 -96 11t-51.5 40t-16.5 83v295h-83v103h83v147h159v-147h108v-103h-108v-256q0 -33 13.5 -42t49.5 -9h42zM297 -138q0 -85 -35 -129.5t-109 -48.5v69q25 1 39.5 18t14.5 46h-54v124h144v-79z" />
    <glyph glyph-name="uni0237" unicode="&#x237;" horiz-adv-x="257" 
d="M38 -61q11 8 11 32v559h159v-587q0 -56 -15.5 -86.5t-47 -42t-83.5 -11.5q-63 0 -93 2v126h35q23 0 34 8z" />
    <glyph glyph-name="uni02BC" unicode="&#x2bc;" horiz-adv-x="238" 
d="M193 645q0 -85 -35 -129.5t-109 -48.5v69q26 2 40 18.5t14 45.5h-54v124h144v-79z" />
    <glyph glyph-name="circumflex" unicode="&#x2c6;" horiz-adv-x="515" 
d="M470 589h-143l-66 89h-4l-65 -89h-143l139 164h143z" />
    <glyph glyph-name="caron" unicode="&#x2c7;" horiz-adv-x="515" 
d="M261 664l66 89h143l-139 -164h-143l-139 164h143l65 -89h4z" />
    <glyph glyph-name="breve" unicode="&#x2d8;" horiz-adv-x="466" 
d="M420 754q-1 -52 -27 -90t-68 -58t-90 -20q-49 0 -90.5 20t-67.5 58t-28 90h105q4 -34 27 -52.5t54 -18.5t54 18.5t27 52.5h104z" />
    <glyph glyph-name="dotaccent" unicode="&#x2d9;" horiz-adv-x="253" 
d="M208 600h-159v124h159v-124z" />
    <glyph glyph-name="ring" unicode="&#x2da;" horiz-adv-x="335" 
d="M84 620.5q-35 33.5 -35 83.5q0 49 35 82.5t86 33.5q50 0 84.5 -33.5t34.5 -82.5q0 -50 -34.5 -83.5t-84.5 -33.5q-51 0 -86 33.5zM205 665.5q14 14.5 14 38.5q0 23 -14 37.5t-35 14.5q-22 0 -36.5 -14.5t-14.5 -37.5q0 -24 14.5 -38.5t36.5 -14.5q21 0 35 14.5z" />
    <glyph glyph-name="ogonek" unicode="&#x2db;" horiz-adv-x="316" 
d="M271 -136v-89q-28 -7 -75 -7q-71 0 -109 26.5t-38 76.5q0 41 25 75t68 55h119q-50 -27 -73.5 -54.5t-23.5 -51.5q0 -18 15.5 -28t36.5 -10q33 0 55 7z" />
    <glyph glyph-name="tilde" unicode="&#x2dc;" horiz-adv-x="468" 
d="M345 747q-8 -41 -38 -41q-9 0 -18.5 4t-22.5 13l-31 19q-32 19 -59 19q-51 0 -85 -32.5t-42 -98.5l78 -9q8 41 38 41q16 0 41 -17l31 -19q30 -19 59 -19q52 0 85.5 32.5t41.5 98.5z" />
    <glyph glyph-name="hungarumlaut" unicode="&#x2dd;" horiz-adv-x="477" 
d="M107 753h138l-95 -164h-101zM294 753h138l-95 -164h-101z" />
    <glyph glyph-name="uni0326" unicode="&#x326;" horiz-adv-x="0" 
d="M-45 -138q0 -85 -35 -129.5t-109 -48.5v69q25 1 39.5 18t14.5 46h-54v124h144v-79z" />
    <glyph glyph-name="Wgrave" unicode="&#x1e80;" horiz-adv-x="967" 
d="M955 714l-166 -714h-209l-95 499h-4l-93 -499h-211l-165 714h173l102 -518h4l96 518h190l96 -518h4l102 518h176zM425 768l-134 164h162l86 -164h-114z" />
    <glyph glyph-name="wgrave" unicode="&#x1e81;" horiz-adv-x="883" 
d="M623 176l93 354h168l-171 -530h-177l-94 348h-4l-94 -348h-173l-172 530h174l93 -354h4l87 354h175l87 -354h4zM387 589l-134 164h162l86 -164h-114z" />
    <glyph glyph-name="Wacute" unicode="&#x1e82;" horiz-adv-x="967" 
d="M955 714l-166 -714h-209l-95 499h-4l-93 -499h-211l-165 714h173l102 -518h4l96 518h190l96 -518h4l102 518h176zM511 932h162l-134 -164h-114z" />
    <glyph glyph-name="wacute" unicode="&#x1e83;" horiz-adv-x="883" 
d="M623 176l93 354h168l-171 -530h-177l-94 348h-4l-94 -348h-173l-172 530h174l93 -354h4l87 354h175l87 -354h4zM473 753h162l-134 -164h-114z" />
    <glyph glyph-name="Wdieresis" unicode="&#x1e84;" horiz-adv-x="967" 
d="M955 714l-166 -714h-209l-95 499h-4l-93 -499h-211l-165 714h173l102 -518h4l96 518h190l96 -518h4l102 518h176zM444 779h-139v121h139v-121zM659 779h-139v121h139v-121z" />
    <glyph glyph-name="wdieresis" unicode="&#x1e85;" horiz-adv-x="883" 
d="M623 176l93 354h168l-171 -530h-177l-94 348h-4l-94 -348h-173l-172 530h174l93 -354h4l87 354h175l87 -354h4zM406 600h-139v120h139v-120zM621 600h-139v120h139v-120z" />
    <glyph glyph-name="Ygrave" unicode="&#x1ef2;" horiz-adv-x="697" 
d="M350 417l157 297h183l-257 -444v-270h-170v269l-256 445h186zM293 768l-134 164h162l86 -164h-114z" />
    <glyph glyph-name="ygrave" unicode="&#x1ef3;" horiz-adv-x="568" 
d="M398 530h170l-190 -530q-30 -84 -64 -126.5t-72.5 -56.5t-93.5 -14q-57 0 -94 5v128q32 -4 68 -4q34 0 51 12t30 44l6 15l-212 527h172l119 -344h4zM227 589l-134 164h162l86 -164h-114z" />
    <glyph glyph-name="uni2007" unicode="&#x2007;" horiz-adv-x="335" 
 />
    <glyph glyph-name="uni2008" unicode="&#x2008;" horiz-adv-x="274" 
 />
    <glyph glyph-name="uni200B" unicode="&#x200b;" horiz-adv-x="0" 
 />
    <glyph glyph-name="endash" unicode="&#x2013;" horiz-adv-x="647" 
d="M592 341v-134h-537v134h537z" />
    <glyph glyph-name="emdash" unicode="&#x2014;" horiz-adv-x="844" 
d="M789 341v-134h-734v134h734z" />
    <glyph glyph-name="quoteleft" unicode="&#x2018;" horiz-adv-x="267" 
d="M53 500q0 106 38 158t121 56v-77q-32 -3 -47 -24t-15 -64h64v-165h-161v116z" />
    <glyph glyph-name="quoteright" unicode="&#x2019;" horiz-adv-x="267" 
d="M214 597q0 -105 -38 -157t-121 -56v77q32 2 47 23.5t15 64.5h-64v165h161v-117z" />
    <glyph glyph-name="quotesinglbase" unicode="&#x201a;" horiz-adv-x="267" 
d="M214 49q0 -106 -38 -158t-121 -56v77q32 2 47 23.5t15 64.5h-64v165h161v-116z" />
    <glyph glyph-name="quotedblleft" unicode="&#x201c;" horiz-adv-x="490" 
d="M53 500q0 106 38 158t121 56v-77q-32 -3 -47 -24t-15 -64h64v-165h-161v116zM276 500q0 106 38 158t121 56v-77q-31 -3 -46 -24t-15 -64h64v-165h-162v116z" />
    <glyph glyph-name="quotedblright" unicode="&#x201d;" horiz-adv-x="490" 
d="M214 597q0 -106 -38 -158t-121 -55v77q32 2 47 23.5t15 64.5h-64v165h161v-117zM438 597q0 -106 -38 -158t-121 -55v77q31 2 46 23.5t15 64.5h-64v165h162v-117z" />
    <glyph glyph-name="quotedblbase" unicode="&#x201e;" horiz-adv-x="490" 
d="M214 49q0 -106 -38 -158t-121 -56v77q32 2 47 23.5t15 64.5h-64v165h161v-116zM438 49q0 -106 -38 -158t-121 -56v77q31 2 46 23.5t15 64.5h-64v165h162v-116z" />
    <glyph glyph-name="dagger" unicode="&#x2020;" horiz-adv-x="583" 
d="M371 524h185v-128h-185v-577h-159v577h-185v128h185v190h159v-190z" />
    <glyph glyph-name="daggerdbl" unicode="&#x2021;" horiz-adv-x="583" 
d="M556 524v-128h-185v-259h185v-128h-185v-190h-159v190h-185v128h185v259h-185v128h185v190h159v-190h185z" />
    <glyph glyph-name="bullet" unicode="&#x2022;" horiz-adv-x="500" 
d="M148.5 182q-46.5 27 -73.5 73.5t-27 101.5t27 101t73.5 73t100.5 27q55 0 101.5 -27t74 -73t27.5 -101t-27.5 -101.5t-74 -73.5t-101.5 -27q-54 0 -100.5 27z" />
    <glyph glyph-name="ellipsis" unicode="&#x2026;" horiz-adv-x="838" 
d="M233 0h-176v166h176v-166zM507 0h-176v166h176v-166zM781 0h-176v166h176v-166z" />
    <glyph glyph-name="perthousand" unicode="&#x2030;" horiz-adv-x="1272" 
d="M322 665.5q42 -48.5 42 -144.5q0 -97 -42 -145.5t-122 -48.5t-122.5 48.5t-42.5 145.5q0 96 42.5 144.5t122.5 48.5t122 -48.5zM197 0l396 700h94l-396 -700h-94zM245.5 426.5q15.5 26.5 15.5 94.5q0 67 -15.5 93.5t-45.5 26.5t-46.5 -26.5t-16.5 -93.5q0 -68 16 -94.5
t47 -26.5q30 0 45.5 26.5zM807 325.5q42 -48.5 42 -145.5t-42 -145.5t-123 -48.5q-80 0 -121.5 48.5t-41.5 145.5t41.5 145.5t121.5 48.5q81 0 123 -48.5zM1194.5 325.5q42.5 -48.5 42.5 -145.5t-42.5 -145.5t-122.5 -48.5t-122 48.5t-42 145.5t42 145.5t122 48.5
t122.5 -48.5zM731.5 85.5q15.5 26.5 15.5 94.5t-15.5 94.5t-47.5 26.5q-30 0 -45.5 -26.5t-15.5 -94.5t15.5 -94.5t45.5 -26.5q32 0 47.5 26.5zM1118 85.5q16 26.5 16 94.5t-16 94.5t-46 26.5t-46 -26.5t-16 -94.5t16 -94.5t46 -26.5t46 26.5z" />
    <glyph glyph-name="guilsinglleft" unicode="&#x2039;" horiz-adv-x="272" 
d="M51 182v180l179 151v-155l-93 -84v-4l93 -83v-156z" />
    <glyph glyph-name="guilsinglright" unicode="&#x203a;" horiz-adv-x="272" 
d="M42 513l179 -151v-180l-179 -151v156l93 83v4l-93 84v155z" />
    <glyph glyph-name="uni2070" unicode="&#x2070;" horiz-adv-x="449" 
d="M370.5 668.5q51.5 -53.5 51.5 -164.5t-51.5 -164.5t-146.5 -53.5t-146 53.5t-51 164.5t51 164.5t146 53.5t146.5 -53.5zM280.5 401.5q19.5 31.5 19.5 102.5q0 70 -19.5 101.5t-56.5 31.5t-56.5 -31.5t-19.5 -101.5q0 -71 19.5 -102.5t56.5 -31.5t56.5 31.5z" />
    <glyph glyph-name="uni2074" unicode="&#x2074;" horiz-adv-x="422" 
d="M352 714v-249h51v-83h-51v-88h-116v88h-214v94l176 238h154zM232 625l-115 -156v-4h119v160h-4z" />
    <glyph glyph-name="uni2075" unicode="&#x2075;" horiz-adv-x="407" 
d="M301 564q36 -15 59.5 -47.5t23.5 -82.5q0 -76 -52 -112t-133 -36q-75 0 -124.5 30.5t-60.5 91.5l116 12q4 -22 22.5 -36t46.5 -14q30 0 48.5 16.5t18.5 48.5t-18.5 48.5t-49.5 16.5q-19 0 -35.5 -8t-28.5 -20h-110l23 242h305v-88h-212l-8 -78h4q32 31 92 31q37 0 73 -15
z" />
    <glyph glyph-name="uni2076" unicode="&#x2076;" horiz-adv-x="431" 
d="M322.5 554q36.5 -16 59.5 -47t23 -72q0 -51 -27 -84.5t-68.5 -49t-86.5 -15.5q-50 0 -85.5 13t-60.5 41q-50 53 -50 165q0 117 55 167t139 50q67 0 114.5 -29.5t62.5 -80.5l-113 -10q-8 20 -24.5 30.5t-41.5 10.5q-36 0 -57.5 -29t-21.5 -71v-5h4q18 15 45 23.5t58 8.5
q39 0 75.5 -16zM271 381q21 17 21 49q0 31 -21 48t-53 17t-54 -17t-22 -48q0 -32 21.5 -49t54.5 -17q32 0 53 17z" />
    <glyph glyph-name="uni2077" unicode="&#x2077;" horiz-adv-x="383" 
d="M12 714h356v-45q0 -36 -15.5 -64t-52.5 -73q-46 -56 -66 -108.5t-20 -118.5v-11h-125v18q0 65 21 118.5t56 100.5q13 18 42 52q18 21 28 35v4h-224v92z" />
    <glyph glyph-name="uni2078" unicode="&#x2078;" horiz-adv-x="432" 
d="M343.5 692.5q50.5 -29.5 50.5 -87.5q0 -59 -68 -84v-4q80 -29 80 -106q0 -62 -53 -93.5t-137 -31.5t-137 31.5t-53 93.5q0 77 80 106v4q-68 25 -68 84q0 58 50.5 87.5t127.5 29.5t127.5 -29.5zM266.5 557.5q20.5 13.5 20.5 38.5t-21 38.5t-50 13.5t-50 -13.5t-21 -38.5
t20.5 -38.5t50.5 -13.5t50.5 13.5zM271 379.5q22 14.5 22 43.5q0 28 -22.5 43t-54.5 15t-54.5 -15t-22.5 -43q0 -29 22 -43.5t55 -14.5t55 14.5z" />
    <glyph glyph-name="uni2079" unicode="&#x2079;" horiz-adv-x="431" 
d="M108.5 454q-36.5 16 -59.5 47t-23 72q0 51 27 84.5t68.5 49t86.5 15.5q101 0 149 -51q47 -51 47 -168q0 -113 -53 -165t-142 -52q-66 0 -113.5 29.5t-62.5 80.5l112 10q8 -20 25 -30.5t42 -10.5q31 0 54.5 26t23.5 74v5h-4q-18 -15 -44.5 -23.5t-57.5 -8.5
q-39 0 -75.5 16zM159.5 627q-21.5 -17 -21.5 -49q0 -31 21.5 -48t53.5 -17t54 17t22 48q0 32 -21.5 49t-54.5 17q-32 0 -53.5 -17z" />
    <glyph glyph-name="franc" unicode="&#x20a3;" horiz-adv-x="747" 
d="M744 0h-150l-79 143h-46v-143h-130v301h-126v-301h-158v700h529v-128h-371v-147h349q79 0 124.5 -38.5t45.5 -104.5q0 -44 -22.5 -76t-62.5 -49zM544 233q26 0 40.5 12.5t14.5 34.5q0 21 -14.5 34t-40.5 13h-75v-94h75z" />
    <glyph glyph-name="Euro" unicode="&#x20ac;" horiz-adv-x="689" 
d="M545.5 136q46.5 18 87.5 59v-162q-86 -47 -185 -47q-135 0 -223 69.5t-115 193.5h-86l44 73h32l-1 29l1 27h-76l42 74h44q27 122 116.5 191.5t220.5 69.5q133 0 225 -70l-73 -121q-62 60 -152 60q-62 0 -105.5 -34t-63.5 -96h281l-45 -74h-249v-27q0 -19 1 -29h216
l-43 -73h-161q20 -64 64.5 -97.5t109.5 -33.5q47 0 93.5 18z" />
    <glyph glyph-name="uni2116" unicode="&#x2116;" horiz-adv-x="1146" 
d="M536 714h156v-714h-189l-288 488h-4v-488h-156v714h194l283 -479h4v479zM1079 675.5q48 -46.5 48 -129.5q0 -82 -48 -128.5t-133 -46.5t-132.5 46.5t-47.5 128.5q0 83 47.5 129.5t132.5 46.5t133 -46.5zM1013 546q0 97 -67 97q-66 0 -66 -97q0 -96 66 -96q67 0 67 96z
M766 109h361v-109h-361v109z" />
    <glyph glyph-name="trademark" unicode="&#x2122;" horiz-adv-x="896" 
d="M55 714h330v-80h-116v-278h-98v278h-116v80zM644 506l54 208h142v-358h-90v242h-4l-71 -242h-68l-72 242h-4v-242h-89v358h144l54 -208h4z" />
    <glyph glyph-name="uni2126" unicode="&#x2126;" horiz-adv-x="735" 
d="M501 125h198v-125h-301v194q59 20 92.5 75t33.5 130q0 92 -43 144.5t-114 52.5q-70 0 -113 -52.5t-43 -144.5q0 -76 33.5 -131t92.5 -74v-194h-302v125h198v29q-88 28 -139.5 97t-51.5 172q0 91 43 161t117 108t165 38t165.5 -38t117.5 -108t43 -161q0 -104 -51.5 -172
t-140.5 -97v-29z" />
    <glyph glyph-name="partialdiff" unicode="&#x2202;" horiz-adv-x="622" 
d="M429 696.5q68 -33.5 112.5 -116.5t44.5 -223q0 -188 -75.5 -279t-216.5 -91q-70 0 -129 25t-94.5 76.5t-35.5 125.5q0 85 36 139.5t92 78.5t120 24q81 0 133 -41q-9 106 -49 148.5t-100 42.5q-88 0 -161 -57l-41 113q41 33 96.5 50.5t121.5 17.5q78 0 146 -33.5zM417 303
q-34 41 -98 41q-52 0 -87.5 -32.5t-35.5 -97.5q0 -51 27.5 -80.5t68.5 -29.5q113 0 125 199z" />
    <glyph glyph-name="emptyset" unicode="&#x2205;" horiz-adv-x="841" 
d="M667 626q56 -51 87 -120.5t31 -148.5q0 -99 -49 -183t-133 -133t-183 -49q-102 0 -191 54l-40 -54h-88l72 96q-55 51 -86.5 120.5t-31.5 148.5q0 99 49 183t133 133t183 49q103 0 192 -54l40 54h88zM160 243.5q22 -53.5 61 -92.5l344 456q-65 40 -145 40q-77 0 -142 -39
t-102.5 -105.5t-37.5 -145.5q0 -60 22 -113.5zM562 106q65 39 103 105.5t38 145.5q0 59 -22 112t-61 94l-344 -456q65 -40 144 -40q77 0 142 39z" />
    <glyph glyph-name="uni2206" unicode="&#x2206;" horiz-adv-x="756" 
d="M265 714h226l262 -714h-750zM371 572l-148 -438h302l-150 438h-4z" />
    <glyph glyph-name="product" unicode="&#x220f;" horiz-adv-x="704" 
d="M648 714v-862h-162v722h-269v-722h-162v862h593z" />
    <glyph glyph-name="summation" unicode="&#x2211;" horiz-adv-x="685" 
d="M257 -9h391v-139h-593v115l272 317l-258 316v114h564v-140h-338l224 -277z" />
    <glyph glyph-name="minus" unicode="&#x2212;" horiz-adv-x="485" 
d="M27 272v107h431v-107h-431z" />
    <glyph glyph-name="uni2219" unicode="&#x2219;" horiz-adv-x="312" 
d="M86 249q-29 29 -29 70q0 40 29 69t70 29t70 -29t29 -69q0 -41 -29 -70t-70 -29t-70 29z" />
    <glyph glyph-name="radical" unicode="&#x221a;" horiz-adv-x="533" 
d="M447 700h81l-213 -848h-122l-96 336l-64 -32l-28 57l162 82l94 -327h2z" />
    <glyph glyph-name="infinity" unicode="&#x221e;" horiz-adv-x="760" 
d="M626 448.5q37 -23.5 57 -61t20 -79.5q0 -43 -20 -82t-56.5 -63t-85.5 -24q-52 0 -93.5 25t-72.5 65q-72 -90 -157 -90q-48 0 -84.5 24t-56.5 63t-20 82q0 42 20 79.5t56.5 61t84.5 23.5q95 0 165 -89q74 89 158 89q48 0 85 -23.5zM279.5 238q25.5 20 51.5 60
q-28 50 -53 73t-58 23q-39 0 -59.5 -24t-20.5 -62t21.5 -64t58.5 -26q34 0 59.5 20zM598 244q21 26 21 64t-20.5 62t-58.5 24q-35 0 -60.5 -19.5t-51.5 -60.5q27 -48 53 -72t59 -24q37 0 58 26z" />
    <glyph glyph-name="integral" unicode="&#x222b;" horiz-adv-x="425" 
d="M372.5 742q25.5 -3 42.5 -7v-111q-32 6 -59 6q-32 0 -48 -12.5t-16 -42.5v-622q0 -84 -50 -117t-143 -33q-21 0 -46.5 3t-42.5 7l1 111q32 -6 58 -6q32 0 48 12.5t16 43.5v620q0 85 50 118t143 33q21 0 46.5 -3z" />
    <glyph glyph-name="approxequal" unicode="&#x2248;" horiz-adv-x="485" 
d="M407 449.5q28 18.5 50 45.5v-108q-51 -50 -105 -50q-14 0 -29 5t-28.5 10t-17.5 7l-75 32q-6 3 -20 9t-26 9t-24 3q-27 0 -55 -18.5t-50 -45.5v108q51 50 105 50q16 0 33 -6t43 -17l75 -32q5 -2 19 -8t26 -9t24 -3q27 0 55 18.5zM407 271.5q28 18.5 50 45.5v-108
q-51 -50 -105 -50q-15 0 -32 6t-43 17l-75 32q-4 2 -18.5 8t-27 9t-24.5 3q-27 0 -55 -18.5t-50 -45.5v108q51 50 105 50q16 0 33 -6t43 -17l75 -31q7 -3 20.5 -9t25 -9t23.5 -3q27 0 55 18.5z" />
    <glyph glyph-name="notequal" unicode="&#x2260;" horiz-adv-x="485" 
d="M457 465v-86h-139l-61 -105h200v-87h-251l-57 -101l-68 38l36 63h-90v87h140l61 105h-201v86h252l58 101l68 -38l-37 -63h89z" />
    <glyph glyph-name="lessequal" unicode="&#x2264;" horiz-adv-x="526" 
d="M45 315v84l430 177v-93l-314 -124v-4l314 -125v-94zM475 0h-420v87h420v-87z" />
    <glyph glyph-name="greaterequal" unicode="&#x2265;" horiz-adv-x="526" 
d="M52 576l430 -177v-84l-430 -179v94l313 125v4l-313 124v93zM472 87v-87h-420v87h420z" />
    <glyph glyph-name="lozenge" unicode="&#x25ca;" horiz-adv-x="544" 
d="M223 746h98l220 -388l-220 -388h-98l-220 388zM112 358l161 -291l159 291l-159 292z" />
    <glyph glyph-name="fi" unicode="&#xfb01;" horiz-adv-x="643" 
d="M268 609.5q-16 -12.5 -16 -43.5v-36h108v-103h-108v-427h-159v427h-83v103h83v56q0 85 50 118t143 33q40 0 89 -7v-111q-48 3 -59 3q-32 0 -48 -12.5zM594 0h-159v530h159v-530zM594 600h-159v124h159v-124z" />
    <glyph glyph-name="fl" unicode="&#xfb02;" horiz-adv-x="646" 
d="M268 609.5q-16 -12.5 -16 -43.5v-36h108v-103h-108v-427h-159v427h-83v103h83v56q0 85 50 118t143 33q40 0 89 -7v-111q-48 3 -59 3q-32 0 -48 -12.5zM595 0h-158v724h158v-724z" />
    <glyph glyph-name="i.loclTRK" horiz-adv-x="257" 
d="M208 0h-159v530h159v-530zM208 600h-159v124h159v-124z" />
    <glyph glyph-name="f_i" horiz-adv-x="643" 
d="M268 609.5q-16 -12.5 -16 -43.5v-36h108v-103h-108v-427h-159v427h-83v103h83v56q0 85 50 118t143 33q40 0 89 -7v-111q-48 3 -59 3q-32 0 -48 -12.5zM594 0h-159v530h159v-530zM594 600h-159v124h159v-124z" />
    <glyph glyph-name="f_l" horiz-adv-x="646" 
d="M268 609.5q-16 -12.5 -16 -43.5v-36h108v-103h-108v-427h-159v427h-83v103h83v56q0 85 50 118t143 33q40 0 89 -7v-111q-48 3 -59 3q-32 0 -48 -12.5zM595 0h-158v724h158v-724z" />
    <glyph glyph-name="zero.tf" horiz-adv-x="600" 
d="M503 626q73 -88 73 -276t-73 -276t-202 -88t-202 88t-73 276t73 276t202 88t202 -88zM380 160q28 53 28 190t-28 190t-79 53t-79 -53t-28 -190t28 -190t79 -53t79 53z" />
    <glyph glyph-name="one.tf" horiz-adv-x="600" 
d="M400 128h165v-128h-492v128h165v341h-141v114h21q63 0 99.5 33.5t47.5 83.5h135v-572z" />
    <glyph glyph-name="two.tf" horiz-adv-x="600" 
d="M564 133v-133h-527v24q0 83 26.5 140.5t68.5 95t104 72.5l74 44q43 24 67.5 53t24.5 67q0 45 -23.5 68.5t-69.5 23.5q-48 0 -76 -31t-32 -94l-161 5q5 80 41.5 135t95.5 82.5t132 27.5q114 0 185 -53t71 -154q0 -65 -20.5 -108t-55.5 -71.5t-93 -59.5l-72 -43
q-41 -24 -67 -49.5t-28 -41.5h335z" />
    <glyph glyph-name="three.tf" horiz-adv-x="600" 
d="M305 415q47 0 75.5 24.5t28.5 64.5t-26.5 63.5t-67.5 23.5q-42 0 -69.5 -24.5t-32.5 -72.5l-158 9q7 102 76 156.5t184 54.5t184.5 -53.5t69.5 -148.5q0 -52 -29.5 -89t-77.5 -54v-4q55 -16 88.5 -56t33.5 -104q0 -113 -73 -165.5t-197 -52.5q-122 0 -196.5 55.5
t-83.5 169.5l163 10q11 -113 117 -113q47 0 76.5 26t29.5 72q0 48 -30.5 72t-84.5 24h-64v112h64z" />
    <glyph glyph-name="four.tf" horiz-adv-x="600" 
d="M272 700h229v-422h83v-119h-83v-159h-161v159h-316v132zM340 583h-4l-184 -301v-4h188v305z" />
    <glyph glyph-name="five.tf" horiz-adv-x="600" 
d="M449.5 452q53.5 -26 88 -81t34.5 -138t-36.5 -138.5t-97.5 -82t-135 -26.5q-109 0 -181 51t-89 149l162 17q7 -44 35.5 -69t72.5 -25q47 0 76 31.5t29 93.5q0 61 -29 92.5t-78 31.5q-62 0 -102 -48h-151l33 390h444v-129h-315l-12 -145h4q27 27 59.5 39.5t76.5 12.5
q58 0 111.5 -26z" />
    <glyph glyph-name="six.tf" horiz-adv-x="600" 
d="M455 432.5q54 -26.5 88.5 -78t34.5 -123.5q0 -83 -39 -138t-100 -81t-126 -26q-144 0 -218 92q-70 86 -70 273q0 196 77 279t210 83q97 0 164.5 -47t89.5 -132l-154 -19q-11 39 -36 62t-64 23q-56 0 -92.5 -46t-36.5 -149v-7h4q29 31 69.5 46t87.5 15q57 0 111 -26.5z
M389 132.5q33 32.5 33 91.5t-33 91.5t-81 32.5q-50 0 -84.5 -33.5t-34.5 -90.5t34.5 -90.5t84.5 -33.5q48 0 81 32.5z" />
    <glyph glyph-name="seven.tf" horiz-adv-x="600" 
d="M41 700h518v-66q0 -54 -22 -99.5t-70 -114.5q-43 -61 -70.5 -111t-47 -122t-19.5 -164v-23h-172v32q0 118 39 218.5t105 193.5l40 55q38 53 44 61v4h-345v136z" />
    <glyph glyph-name="eight.tf" horiz-adv-x="600" 
d="M501 39q78 53 78 156q0 66 -31 111t-88 67v4q48 20 74.5 56.5t26.5 86.5q0 95 -74 144t-184 49q-70 0 -128.5 -21t-94 -64.5t-35.5 -107.5q0 -50 26.5 -86.5t74.5 -56.5v-4q-56 -23 -87 -67.5t-31 -110.5q0 -103 77.5 -156t197.5 -53t198 53zM380 580.5
q32 -24.5 32 -70.5t-31.5 -70.5t-77.5 -24.5t-77.5 24.5t-31.5 70.5t32.5 70.5t76.5 24.5q45 0 77 -24.5zM386.5 289q34.5 -28 34.5 -80q0 -53 -34 -81t-84 -28q-49 0 -83 28t-34 81q0 52 34.5 80t82.5 28q49 0 83.5 -28z" />
    <glyph glyph-name="nine.tf" horiz-adv-x="600" 
d="M147 266.5q-54 26.5 -89 78.5t-35 123q0 83 39.5 138t100 81t126.5 26q143 0 217 -92q70 -85 70 -273q0 -198 -77.5 -280t-209.5 -82q-96 0 -163.5 47.5t-89.5 131.5l154 20q10 -39 35 -62t64 -23q54 0 92 43.5t38 150.5v7h-4q-30 -31 -70.5 -46t-86.5 -15
q-57 0 -111 26.5zM213 567.5q-33 -32.5 -33 -91.5t33 -92t81 -33q49 0 83.5 34t34.5 91t-34.5 90.5t-83.5 33.5q-48 0 -81 -32.5z" />
    <glyph glyph-name="caron.alt" horiz-adv-x="254" 
d="M199 645q0 -85 -35 -129.5t-109 -48.5v69q26 2 40 18.5t14 45.5h-54v124h144v-79z" />
    <glyph glyph-name="acute.case" horiz-adv-x="342" 
d="M135 932h162l-134 -164h-114z" />
    <glyph glyph-name="breve.case" horiz-adv-x="466" 
d="M420 928q-1 -53 -27 -91t-67.5 -57.5t-90.5 -19.5t-90.5 19.5t-67.5 57.5t-28 91h105q4 -34 27 -52.5t54 -18.5t54 18.5t27 52.5h104z" />
    <glyph glyph-name="caron.case" horiz-adv-x="515" 
d="M261 838l66 88h143l-139 -163h-143l-139 163h143l65 -88h4z" />
    <glyph glyph-name="cedilla.case" horiz-adv-x="362" 
d="M70 -141q48 -22 90 -22q18 0 31 9t13 26q0 29 -44 29q-16 0 -41 -7v64l76 81l92 5l-42 -44l-30 -33v-5q49 -5 75.5 -27.5t26.5 -63.5q0 -51 -38.5 -77t-112.5 -26q-32 0 -63 7t-54 19z" />
    <glyph glyph-name="circumflex.case" horiz-adv-x="515" 
d="M470 762h-143l-66 89h-4l-65 -89h-143l139 164h143z" />
    <glyph glyph-name="dieresis.case" horiz-adv-x="448" 
d="M188 779h-139v121h139v-121zM403 779h-139v121h139v-121z" />
    <glyph glyph-name="dotaccent.case" horiz-adv-x="253" 
d="M208 779h-159v124h159v-124z" />
    <glyph glyph-name="grave.case" horiz-adv-x="342" 
d="M183 768l-134 164h162l86 -164h-114z" />
    <glyph glyph-name="hungarumlaut.case" horiz-adv-x="477" 
d="M107 932h138l-95 -164h-101zM294 932h138l-95 -164h-101z" />
    <glyph glyph-name="macron.case" horiz-adv-x="410" 
d="M365 891v-97h-316v97h316z" />
    <glyph glyph-name="ogonek.case" horiz-adv-x="316" 
d="M271 -136v-89q-28 -7 -75 -7q-71 0 -109 26.5t-38 76.5q0 41 25 75t68 55h119q-50 -27 -73.5 -54.5t-23.5 -51.5q0 -18 15.5 -28t36.5 -10q33 0 55 7z" />
    <glyph glyph-name="ring.case" horiz-adv-x="335" 
d="M84 784.5q-35 33.5 -35 82.5q0 50 35 83.5t86 33.5q50 0 84.5 -33.5t34.5 -83.5q0 -49 -34.5 -82.5t-84.5 -33.5q-51 0 -86 33.5zM205 829.5q14 14.5 14 37.5q0 24 -14 38.5t-35 14.5q-22 0 -36.5 -14.5t-14.5 -38.5q0 -23 14.5 -37.5t36.5 -14.5q21 0 35 14.5z" />
    <glyph glyph-name="tilde.case" horiz-adv-x="468" 
d="M345 911q-8 -41 -38 -41q-9 0 -18.5 4t-22.5 13l-31 19q-32 19 -59 19q-51 0 -85 -32.5t-42 -98.5l78 -9q8 41 38 41q16 0 41 -17l31 -19q30 -19 59 -19q52 0 85.5 32.5t41.5 98.5z" />
    <glyph glyph-name="uni0326.case" horiz-adv-x="0" 
d="M-45 -138q0 -85 -35 -129.5t-109 -48.5v69q25 1 39.5 18t14.5 46h-54v124h144v-79z" />
    </font>
</defs>
</svg>
