<?xml version="1.0" encoding="iso-8859-1"?>
<!-- Generator: Adobe Illustrator 16.0.0, SVG Export Plug-In . SVG Version: 6.00 Build 0)  -->
<!DOCTYPE svg PUBLIC "-//W3C//DTD SVG 1.1//EN" "http://www.w3.org/Graphics/SVG/1.1/DTD/svg11.dtd">
<svg version="1.1" id="Layer_1" xmlns="http://www.w3.org/2000/svg" xmlns:xlink="http://www.w3.org/1999/xlink" x="0px" y="0px"
	 width="1120px" height="1060px" viewBox="0 0 1120 1060" enable-background="new 0 0 1120 1060" xml:space="preserve">
<g>
	<path fill-rule="evenodd" clip-rule="evenodd" d="M424.894,172.675c-8.097,7.101-16.451,13.932-24.222,21.373
		c-8.535,8.174-16.616,16.831-24.673,25.483c-1.21,1.3-1.32,3.701-1.746,5.635c-0.683,3.108-0.354,6.793-1.941,9.289
		c-7.057,11.102-14.383,22.06-22.215,32.622c-2.006,2.706-6.194,3.815-9.421,5.583c-1.226,0.671-3.11,0.761-3.776,1.74
		c-9.448,13.884-18.737,27.875-28.275,42.154c6.889,4.412,7.336,10.587,5.279,16.944c-1.519,4.693-3.646,9.355-6.354,13.472
		c-16.521,25.116-28.578,52.205-37.141,80.979c-1.923,6.462-4.659,12.913-8.242,18.6c-7.305,11.595-18.509,16.506-31.839,13.687
		c-35.149-7.435-70.323-14.867-105.177-23.542c-24.496-6.098-35.914-26.26-30.818-51.474c6.929-34.283,18.336-67.072,33.933-98.383
		c1.776-3.566,3.919-6.966,6.092-10.313c2.961-4.56,6.995-6.499,12.424-4.509c1.244,0.456,2.553,0.869,3.858,0.976
		c0.97,0.078,1.982-0.372,2.976-0.586c-0.5-0.906-0.881-1.908-1.52-2.702c-4.443-5.517-9.251-10.77-13.328-16.541
		c-3.688-5.222-3.271-10.712,0.191-16.349c5.402-8.794,10.488-17.802,15.303-26.932c4.153-7.875,8.667-14.602,20.562-11.128
		c-6.428-9.979-1.656-16.872,3.093-23.972c5.371-8.027,10.328-16.33,15.518-24.48c5.631-8.842,9.862-10.506,20.144-7.765
		c4.661,1.242,9.334,2.549,13.829,4.275c3.487,1.339,5.556,0.69,7.984-2.277c20.852-25.488,43.859-48.836,70.009-68.943
		c27.838-21.406,57.802-38.797,92.26-47.246c25.819-6.331,51.68-6.681,77.651-0.313c5.701,1.397,12.049,0.069,17.807,1.332
		c9.036,1.981,17.789,5.225,26.729,7.689c6.02,1.66,12.087,3.545,18.252,4.197c15.132,1.603,30.455,1.728,45.475,3.967
		c19.175,2.858,37.387,9.499,54.936,17.762c48.211,22.701,88.794,55.572,124.814,94.35c33.344,35.898,61.103,75.614,80.747,120.721
		c9.695,22.263,16.661,45.357,19.341,69.485c1.266,11.395,2.204,23.057-1.102,34.474c-0.296,1.023,0.663,2.881,1.604,3.714
		c5.289,4.688,7.251,9.318,4.186,15.79c-3.229,6.817-7.433,13.342-12.185,19.204c-2.663,3.284-4.268,6.343-4.899,10.411
		c-5.677,36.546-12.312,72.877-25.254,107.723c-0.696,1.873-1.524,3.704-2.111,5.609c-3.058,9.93-9.28,16.823-19.303,19.92
		c-4.334,1.34-5.976,3.908-6.744,8.497c-13.85,82.618-41.887,160.278-83.283,232.992c-34.159,60.001-76.213,113.694-130.518,157.032
		c-30.781,24.564-64.509,43.616-102.955,53.51c-20.984,5.399-42.31,6.874-63.911,5.999c-49.607-2.008-99.216-3.986-148.836-5.641
		c-51.164-1.705-92.059-23.803-124.924-62.073c-25.566-29.771-42.924-64.174-55.085-101.169
		c-5.803-17.653-11.132-35.704-14.099-53.993c-5.049-31.127,4.84-58.858,23.885-83.528c10.153-13.152,21.931-24.64,35.821-33.809
		c10.125-6.685,15.077-6.184,23.744,2.437c39.148,38.938,68.469,83.735,84.734,137.083c11.607,38.07,30.256,72.837,56.321,103.28
		c11.541,13.479,24.57,25.321,39.084,35.57c2.91,2.055,5.03,1.955,8.041,0.382c37.815-19.768,68.952-47.488,96.311-79.894
		c35.635-42.208,61.145-90.39,83.025-140.636c24.495-56.25,40.814-115.062,53.033-175.065c2.721-13.363,4.8-26.856,7.402-40.245
		c0.603-3.104-0.077-4.858-2.753-6.568c-6.734-4.306-13.108-9.183-19.908-13.376c-8.914-5.497-12.637-13.742-13.773-23.646
		c-1.858-16.19-3.576-32.401-5.782-48.544c-0.41-2.998-2.274-6.271-4.425-8.486c-24.982-25.736-49.334-51.97-68.751-82.351
		c-21.73-33.999-38.698-69.926-44.164-110.389c-2.508-18.563-2.77-37.203-0.002-55.805c0.12-0.805,0.131-1.624,0.193-2.438
		C425.65,173.23,425.272,172.952,424.894,172.675z M172.555,395.669c6.156-7.316,11.599-13.799,17.056-20.27
		c12.63-14.973,18.464-32.453,19.316-51.835c0.134-3.058-0.862-4.309-3.888-5.094c-16.731-4.342-33.417-8.864-50.063-13.521
		c-3.08-0.861-4.668-0.309-6.377,2.49c-11.75,19.242-21.052,39.607-29.234,60.593c-3.425,8.785-0.29,12.151,6.221,14.264
		C141.342,387.408,157.448,391.44,172.555,395.669z M192.493,400.494c16.384,3.422,31.341,6.645,46.344,9.643
		c9.982,1.994,16.307-1.6,19.785-11.351c7.093-19.88,13.979-39.834,21.102-60.191c-13.388-3.589-27.741-7.437-42.731-11.455
		C231.031,356.995,213.226,379.085,192.493,400.494z M731.332,513.962c13.698,3.376,28.897,7.123,44.869,11.061
		c0.546-6.469,1.037-12.29,1.444-17.112C761.628,510.003,745.816,512.069,731.332,513.962z"/>
</g>
</svg>
