<?xml version="1.0" encoding="iso-8859-1"?>
<!-- Generator: Adobe Illustrator 16.0.0, SVG Export Plug-In . SVG Version: 6.00 Build 0)  -->
<!DOCTYPE svg PUBLIC "-//W3C//DTD SVG 1.1//EN" "http://www.w3.org/Graphics/SVG/1.1/DTD/svg11.dtd">
<svg version="1.1" id="Layer_1" xmlns="http://www.w3.org/2000/svg" xmlns:xlink="http://www.w3.org/1999/xlink" x="0px" y="0px"
	 width="1120px" height="1060px" viewBox="0 0 1120 1060" enable-background="new 0 0 1120 1060" xml:space="preserve">
<g>
	<path fill-rule="evenodd" clip-rule="evenodd" d="M356.644,937.574c18.066-17.597,31.8-36.337,43.877-56.401
		c21.134-35.11,34.876-73.223,46.409-112.313c11.668-39.553,19.045-79.905,24.211-120.757c5.168-40.862,7.855-81.866,8.579-123.029
		c0.066-3.766-0.875-5.639-4.464-6.98c-7.01-2.621-13.686-6.161-20.741-8.633c-11.528-4.038-16.981-12.747-19.742-23.848
		c-2.851-11.458-5.842-22.886-8.479-34.394c-3.684-16.074-11.719-28.667-24.714-39.507c-19.527-16.288-38.29-33.729-55.735-52.228
		c-32.5-34.462-54.379-75.059-64.899-121.493c-0.072-0.316-0.231-0.612-0.695-1.808c-2.241,5.035-4.234,9.47-6.189,13.921
		c-1.74,3.964-2.921,8.297-5.309,11.815c-2.102,3.096-5.492,5.336-8.394,7.86c-1.284,1.117-3.46,1.699-4.053,3.044
		c-6.305,14.3-12.373,28.704-18.482,43.025c7.834,4.591,10.063,10.476,7.904,20.64c-0.62,2.919-1.449,5.847-2.61,8.589
		c-12.17,28.743-19.272,58.752-22.746,89.702c-0.424,3.777-1.227,7.593-2.454,11.186c-5.114,14.977-15.07,24.459-31.438,24.785
		c-18.482,0.368-36.99,0.127-55.473-0.359c-18.813-0.495-37.612-1.585-56.415-2.459c-25.315-1.178-42.243-18.78-41.542-44.216
		c1-36.269,6.564-71.9,16.747-106.767c0.466-1.597,0.982-3.186,1.586-4.735c3.225-8.262,4.947-9.296,13.766-8.592
		c1.8,0.145,3.622,0.021,6.793,0.021c-1.564-1.532-2.276-2.395-3.144-3.051c-3.309-2.5-7.118-4.508-9.92-7.475
		c-7.216-7.64-11.462-15.923-6.545-27.041c3.888-8.789,6.455-18.189,9.255-27.425c2.099-6.925,4.826-12.929,14.2-13.669
		c-5.781-8.423-1.724-15.544,1.064-22.796c3.645-9.479,7.383-18.923,10.891-28.451c2.23-6.059,6.667-9.236,12.78-9.513
		c5.785-0.263,11.653,0.064,17.406,0.771c4.5,0.553,6.952-0.565,9.235-4.796c15.641-28.981,33.788-56.271,56.479-80.299
		c19.499-20.647,41.114-38.421,67.882-49.09c22.424-8.938,45.421-11.195,69.11-6.509c1.605,0.317,3.348,0.589,4.922,0.304
		c8.919-1.615,17.942-1.329,25.987,2.457c10.95,5.154,21.728,4.365,33.104,2.7c10.833-1.586,21.865-1.819,32.809-2.65
		c60.598-4.601,114.753,15.357,166.037,44.734c53.824,30.832,98.965,71.483,133.707,123.216
		c11.74,17.482,21.754,35.937,28.828,55.759c4.049,11.344,7.479,23.094,9.43,34.95c1.881,11.427,1.504,23.226,2.141,35.282
		c0.316,0.146,1.199,0.591,2.111,0.965c6.811,2.798,9.355,7.085,8.066,14.479c-2.059,11.794-7.227,22.049-15.635,30.676
		c-1.139,1.168-2.041,3.032-2.17,4.646c-1.461,18.095-2.098,36.28-4.242,54.288c-2.754,23.107-6.814,46.057-10.041,69.112
		c-1.609,11.491-8.75,18.403-18.367,23.218c-5.145,2.575-6.4,6.021-6.557,11.688c-2.158,78.35-16.572,154.431-43.395,228.096
		c-20.795,57.111-48.971,110.134-88.67,156.512c-21.631,25.271-46.401,46.787-76.687,61.426
		c-19.317,9.338-39.879,13.603-60.921,16.473c-49.962,6.814-99.984,13.269-149.818,20.929
		c-43.683,6.715-80.429-6.911-112.704-35.317c-30.321-26.688-51.302-60.175-68.581-96.189
		c-12.775-26.627-23.116-54.228-30.702-82.765c-9.558-35.956-2.03-69.277,17.117-100.394c9.111-14.807,19.426-28.751,33.429-39.425
		c8.331-6.351,14.107-6.529,22.252-0.418c36.505,27.39,67.078,59.959,86.22,101.938c8.557,18.765,15.239,38.385,23.819,57.138
		c15.701,34.311,35.526,66.06,62.837,92.477C334.843,920.16,345.902,928.496,356.644,937.574z M103.187,417.439
		c0.01-0.107,0.02-0.215,0.03-0.322c3.492,0.188,6.988,0.547,10.475,0.472c1.172-0.025,2.844-0.859,3.393-1.83
		c3.271-5.783,6.082-11.829,9.413-17.575c10.078-17.386,12.992-36.088,10.994-55.853c-0.354-3.501-1.871-4.327-5.036-4.524
		c-18.272-1.135-36.545-2.31-54.79-3.819c-3.805-0.314-5.227,0.95-6.423,4.237C63.542,359.394,58,381.1,54.158,403.287
		c-0.749,4.321,0.705,6.745,4.213,8.395c2.085,0.98,4.312,2.013,6.555,2.242C77.666,415.226,90.43,416.292,103.187,417.439z
		 M137,418.152c0.298,0.581,0.596,1.161,0.895,1.742c15.568,0,31.135,0.007,46.703-0.002c12.799-0.007,18.312-4.965,20.354-17.709
		c2.549-15.913,5.314-31.792,8.081-47.669c0.609-3.498,1.615-6.929,2.529-10.771c-16.901-1.206-33.082-2.359-50.072-3.571
		C164.706,369.513,152.696,394.504,137,418.152z M625.803,482.379c19.635,0.593,39.27,1.185,58.723,1.771c0-7.304,0-13.828,0-21.006
		C665.582,473.13,646.008,478.36,625.803,482.379z M546.573,479.142c-10.909-2.557-22.911-5.37-35.321-8.278
		c-0.247,2.611-0.476,5.033-0.783,8.278C523.027,479.142,535.324,479.142,546.573,479.142z"/>
</g>
</svg>
