<?xml version="1.0" encoding="iso-8859-1"?>
<!-- Generator: Adobe Illustrator 16.0.0, SVG Export Plug-In . SVG Version: 6.00 Build 0)  -->
<!DOCTYPE svg PUBLIC "-//W3C//DTD SVG 1.1//EN" "http://www.w3.org/Graphics/SVG/1.1/DTD/svg11.dtd">
<svg version="1.1" id="Layer_1" xmlns="http://www.w3.org/2000/svg" xmlns:xlink="http://www.w3.org/1999/xlink" x="0px" y="0px"
	 width="1120px" height="1060px" viewBox="0 0 1120 1060" enable-background="new 0 0 1120 1060" xml:space="preserve">
<g>
	<path fill-rule="evenodd" clip-rule="evenodd" d="M499.207,168.175c-9.354,5.9-18.248,10.589-26.083,16.646
		c-16.85,13.024-33.15,26.761-49.688,40.189c-2.21,1.795-3.106,3.663-2.687,6.832c0.329,2.484-0.644,5.758-2.207,7.773
		c-8.268,10.663-16.749,21.175-25.543,31.406c-1.842,2.143-5.256,3.867-8.043,4.021c-3.245,0.179-5.082,1.188-6.957,3.599
		c-9.098,11.692-18.359,23.257-27.533,34.89c-1.019,1.292-1.85,2.733-2.905,4.312c7.23,6.469,5.606,13.958,1.583,20.854
		c-4.092,7.015-9.312,13.375-14.065,20.002c-15.144,21.112-26.763,44.056-36.188,68.232c-2.44,6.26-5.896,12.384-10.042,17.662
		c-7.855,10-18.686,13.553-30.834,9.667c-33.921-10.849-67.949-21.457-101.424-33.573c-22.936-8.302-32.135-28.617-25.711-52.105
		c9.601-35.104,24.462-67.927,43.656-98.812c1.404-2.259,2.953-4.447,4.614-6.524c5.249-6.564,7.946-7.199,15.949-4.33
		c1.387,0.498,3.027,0.292,4.55,0.411c-0.754-1.443-1.184-3.247-2.317-4.27c-5.992-5.408-10.137-12.04-12.283-19.665
		c-0.798-2.836-0.562-6.92,0.97-9.294c7.676-11.892,15.958-23.391,23.982-35.058c2.76-4.014,6.669-4.629,11.046-3.972
		c1.9,0.285,3.779,0.715,7.316,1.397c-7.552-11.155-0.972-18.093,4.82-25.375c6.118-7.691,11.983-15.585,17.966-23.384
		c4.892-6.378,8.279-7.79,15.967-5.395c5.859,1.826,11.588,4.222,17.117,6.896c3.164,1.53,4.857,0.958,7.214-1.455
		c33.979-34.798,71.46-65.006,115.294-86.679c31.297-15.475,64.179-25.434,99.372-24.757c13.531,0.261,27.005,3.333,40.51,5.084
		c6.259,0.812,12.624,1.085,18.774,2.389c8.902,1.888,18.232,3.257,26.336,7.067c12.897,6.066,26.17,9.099,40.18,10.321
		c19.234,1.679,37.397,7.396,54.837,15.568c33.428,15.664,62.404,37.671,88.91,63.019c49.698,47.528,89.401,102.188,116.547,165.609
		c10.867,25.39,18.941,51.66,20.804,79.329c0.771,11.467-0.975,23.092-1.287,34.653c-0.063,2.341,0.606,5.105,1.916,6.997
		c2.76,3.987,3.499,8.355,1.45,12.25c-3.21,6.105-6.91,12.141-11.435,17.3c-3.013,3.436-4.874,6.757-5.75,11.136
		c-6.572,32.851-14.58,65.302-27.709,96.268c-1.819,4.292-3.957,8.452-5.691,12.776c-3.722,9.28-10.001,15.604-19.951,17.852
		c-3.416,0.771-5.017,2.616-5.883,6.263c-21.468,90.402-59.518,173.45-113.42,248.915c-41.46,58.047-90.393,108.97-151.393,147.151
		c-33.361,20.881-69.03,35.96-108.163,42.113c-22.066,3.47-44.108,3.286-66.195,0.168c-23.562-3.327-47.156-6.431-70.729-9.688
		c-29.168-4.029-58.445-7.428-87.465-12.337c-45.606-7.715-81.074-32.428-109.224-68.331c-23.251-29.656-38.5-63.37-48.96-99.322
		c-3.571-12.274-6.858-24.757-8.744-37.372c-4.535-30.334,4.683-56.914,24.229-80.142c10.934-12.993,23.883-23.668,38.375-32.461
		c9.517-5.773,14.312-5.161,21.837,3.269c24.754,27.73,46.691,57.538,61.719,91.666c8.695,19.746,15.011,40.535,22.502,60.817
		c14.918,40.391,35.954,76.894,68.09,106.244c4.422,4.039,9.299,7.577,13.788,11.547c2.58,2.282,4.957,2.303,8.126,1.189
		c41.737-14.647,77.669-38.67,110.12-68.228c42.206-38.443,74.901-84.209,103.097-133.561
		c39.215-68.637,65.944-142.089,85.683-218.322c1.835-7.085,3.25-14.282,5.194-21.335c0.789-2.86,0.223-4.441-2.116-6.266
		c-6.562-5.121-12.749-10.725-19.302-15.859c-7.731-6.057-10.639-14.117-10.949-23.588c-0.474-14.472-0.975-28.949-1.877-43.398
		c-0.178-2.851-1.577-6.177-3.506-8.284c-26.547-29.004-50.129-60.159-68.837-94.811c-16.634-30.812-29.5-63.045-34.297-97.994
		c-2.739-19.955-1.565-39.876,2.015-59.669C498.559,172.708,498.764,171.087,499.207,168.175z M204.789,383.932
		c7.682-6.8,14.294-12.169,20.346-18.109c14.09-13.831,21.84-30.76,23.771-50.423c0.321-3.267-0.754-4.647-3.792-5.767
		c-15.464-5.697-30.892-11.505-46.192-17.624c-3.612-1.445-5.199-0.49-7.269,2.338c-13.826,18.896-25.448,39.037-35.241,60.297
		c-1.788,3.881-1.383,6.688,1.496,9.316c1.693,1.546,3.555,3.155,5.64,3.981C177.929,373.645,192.39,379.149,204.789,383.932z
		 M225.645,391.236c14.678,4.723,27.943,9.065,41.256,13.255c13.096,4.121,18.853,1.314,24.174-11.518
		c3.375-8.14,6.469-16.411,10.21-24.38c4.938-10.517,10.388-20.795,15.831-31.598c-13.249-5.022-26.525-10.055-40.525-15.361
		C268.284,351.133,247.919,371.437,225.645,391.236z M782.293,529.75c12.133,4.512,24.177,8.99,36.979,13.75
		c0.829-5.865,1.569-11.1,2.214-15.652C808.193,528.493,795.476,529.11,782.293,529.75z"/>
</g>
</svg>
