<?xml version="1.0" encoding="iso-8859-1"?>
<!-- Generator: Adobe Illustrator 16.0.0, SVG Export Plug-In . SVG Version: 6.00 Build 0)  -->
<!DOCTYPE svg PUBLIC "-//W3C//DTD SVG 1.1//EN" "http://www.w3.org/Graphics/SVG/1.1/DTD/svg11.dtd">
<svg version="1.1" id="Layer_1" xmlns="http://www.w3.org/2000/svg" xmlns:xlink="http://www.w3.org/1999/xlink" x="0px" y="0px"
	 width="1120px" height="1060px" viewBox="0 0 1120 1060" enable-background="new 0 0 1120 1060" xml:space="preserve">
<g>
	<path fill-rule="evenodd" clip-rule="evenodd" d="M444.562,170.278c-17.035,12-31.805,24.866-45.744,38.717
		c-2.955,2.937-5.803,5.979-8.699,8.975c-2.965,3.067-6.179,5.747-4.312,11.071c0.635,1.812-0.91,4.868-2.249,6.812
		c-7.373,10.7-14.997,21.226-22.518,31.823c-2.467,3.477-5.56,5.563-10.06,5.441c-1.235-0.033-2.985,0.765-3.68,1.755
		c-9.364,13.354-18.586,26.81-27.828,40.249c-0.367,0.534-0.586,1.17-0.952,1.918c7.072,5.169,6.286,12.118,3.646,18.867
		c-1.918,4.903-4.776,9.528-7.752,13.912c-15.652,23.047-27.341,47.951-36.028,74.389c-2.419,7.361-5.422,14.759-9.505,21.299
		c-7.822,12.529-20.033,16.286-33.93,12.969c-33.496-7.995-66.928-16.279-100.262-24.927c-17.318-4.493-29.365-15.087-32.2-33.534
		c-0.939-6.109-0.662-12.745,0.634-18.804c7.533-35.22,20.132-68.632,37.128-100.384c0.942-1.761,1.997-3.466,3.083-5.144
		c5.291-8.174,7.722-9.082,16.933-6.514c1.345,0.376,2.749,0.545,4.125,0.81c0.256-0.382,0.512-0.763,0.768-1.144
		c-0.905-1.109-1.645-2.431-2.744-3.293c-6.21-4.876-10.279-11.248-13.409-18.373c-1.896-4.318-1.686-8.24,0.823-12.322
		c6.105-9.933,12.313-19.827,17.864-30.07c4.165-7.685,9.462-11.909,18.384-9.272c0.248-0.599,0.538-0.962,0.45-1.139
		c-3.703-7.519-1.628-13.83,3.135-20.308c6.604-8.982,12.648-18.4,18.525-27.884c3.846-6.205,9.128-8.104,15.751-6.447
		c6.12,1.531,12.188,3.411,18.077,5.666c3.08,1.18,4.659,0.512,6.688-1.838c26.697-30.919,56.141-58.805,90.625-81.005
		c27.711-17.841,57.168-31.46,90.137-36.238c21.33-3.092,42.467-2.345,63.477,2.881c5.251,1.306,10.946,0.708,16.344,1.571
		c7.028,1.125,14.613,1.518,20.802,4.57c12.435,6.133,25.452,8.363,38.935,9.51c9.725,0.827,19.45,1.729,29.132,2.947
		c17.344,2.183,33.565,8.238,49.35,15.384c39.64,17.945,73.863,43.727,104.975,73.794c42.46,41.036,77.322,87.605,101.748,141.613
		c10.903,24.107,18.752,49.18,21.563,75.56c1.237,11.606,1.982,23.365-0.952,34.979c-0.348,1.376,0.51,3.801,1.635,4.674
		c4.874,3.78,5.221,8.604,3.849,13.911c-2.065,7.987-6.662,14.558-12.548,20.083c-3.033,2.848-4.084,6.076-4.908,9.894
		c-5.857,27.147-11.556,54.337-18.045,81.334c-2.477,10.302-7.017,20.096-10.396,30.195c-3.51,10.487-9.893,18.049-20.823,21
		c-3.854,1.041-4.979,3.549-5.631,7.071c-17.334,93.75-52.338,180.574-104.691,260.055
		c-36.167,54.907-79.331,103.767-134.114,141.252c-33.405,22.857-69.492,39.265-109.958,44.999
		c-16.763,2.375-33.523,2.101-50.34,0.993c-24.763-1.631-49.543-3.022-74.306-4.666c-29.408-1.952-58.951-2.866-88.173-6.397
		c-40.079-4.845-72.511-25.217-99.538-54.575c-26.87-29.188-44.839-63.604-57.633-100.789c-5.511-16.02-10.302-32.394-13.925-48.934
		c-7.436-33.949,1.434-64.312,22.728-91.308c10.817-13.714,23.439-25.519,38.386-34.656c7.914-4.839,13.302-4.376,19.753,2.208
		c35.998,36.737,65.285,77.807,80.927,127.461c10.975,34.837,25.316,68.025,46.767,97.837
		c14.122,19.626,30.704,36.798,50.358,50.985c3.123,2.255,5.557,2.456,9.034,0.78c40.63-19.576,74.162-48.053,103.686-81.737
		c34.266-39.094,59.7-83.701,81.932-130.318c27.376-57.402,45.869-117.81,60.009-179.634c3.522-15.405,6.113-31.021,9.376-46.489
		c0.6-2.842-0.185-4.14-2.409-5.637c-6.08-4.09-11.745-8.831-17.991-12.63c-11.414-6.941-14.785-17.546-15.609-30.018
		c-0.942-14.261-2.451-28.498-4.24-42.679c-0.395-3.134-2.438-6.517-4.674-8.89c-20.348-21.604-40.456-43.37-57.301-67.943
		c-22.212-32.403-40.12-66.789-49.216-105.283c-5.851-24.758-6.538-49.769-3.044-74.928
		C443.989,174.714,444.193,173.083,444.562,170.278z M180.659,392.857c5.28-6.062,9.662-11.511,14.478-16.544
		c14.56-15.22,22.05-33.36,23.365-54.278c0.214-3.404-0.566-4.995-4.009-5.969c-16.326-4.612-32.614-9.367-48.816-14.396
		c-3.424-1.062-4.958-0.346-6.798,2.533c-12.599,19.71-22.845,40.562-31.331,62.344c-1.578,4.05-0.688,6.779,2.248,9.178
		c1.77,1.445,3.817,2.814,5.968,3.485C150.827,383.906,165.951,388.411,180.659,392.857z M247.497,325.929
		c-3.434,8.574-6.429,16.67-9.886,24.562c-7.434,16.976-20.504,29.749-32.685,43.168c-1.255,1.383-2.371,2.892-3.808,4.655
		c14.884,3.539,28.927,6.97,43.024,10.162c3.179,0.72,6.621,1.196,9.808,0.774c7.74-1.025,10.619-7.122,13.01-13.583
		c5.306-14.338,10.624-28.673,16.122-42.938c1.83-4.748,4.227-9.276,6.562-14.332C275.265,334.144,261.447,330.056,247.497,325.929z
		 M788.666,512.942c-15.151,1.705-30.139,3.391-44.592,5.017c13.541,3.745,27.818,7.693,42.711,11.812
		C787.484,523.512,788.118,517.846,788.666,512.942z"/>
</g>
</svg>
