<?xml version="1.0" encoding="iso-8859-1"?>
<!-- Generator: Adobe Illustrator 16.0.0, SVG Export Plug-In . SVG Version: 6.00 Build 0)  -->
<!DOCTYPE svg PUBLIC "-//W3C//DTD SVG 1.1//EN" "http://www.w3.org/Graphics/SVG/1.1/DTD/svg11.dtd">
<svg version="1.1" id="Layer_1" xmlns="http://www.w3.org/2000/svg" xmlns:xlink="http://www.w3.org/1999/xlink" x="0px" y="0px"
	 width="1120px" height="1060px" viewBox="0 0 1120 1060" enable-background="new 0 0 1120 1060" xml:space="preserve">
<g>
	<path fill-rule="evenodd" clip-rule="evenodd" d="M667.449,189.782c-13.465,4.532-26.363,8.417-38.922,13.192
		c-29.707,11.295-57.471,26.392-83.862,44.061c-2.19,1.467-3.618,2.655-3.172,5.872c0.282,2.03-1.027,5.028-2.633,6.452
		c-10.473,9.28-21.077,18.429-32.01,27.155c-2.028,1.619-5.742,1.134-8.682,1.599c-1.475,0.233-3.417-0.111-4.366,0.71
		c-13.604,11.755-27.076,23.661-40.569,35.543c-0.618,0.544-1.137,1.2-1.914,2.031c5.856,5.795,4.122,11.963,0.15,17.562
		c-2.953,4.163-6.659,7.914-10.514,11.297c-22.221,19.5-40.936,41.904-56.507,67.008c-2.796,4.509-5.816,8.993-9.393,12.882
		c-11.009,11.971-22.23,13.847-36.305,5.755c-11.112-6.39-21.919-13.332-32.656-20.345c-16.04-10.476-32.177-20.842-47.708-32.039
		c-7.172-5.171-14.46-11.27-19.132-18.584c-8.524-13.346-7.297-27.98-0.386-42.005c11.24-22.811,25.13-43.955,41.066-63.729
		c6.685-8.295,13.882-16.182,20.981-24.134c2.095-2.346,4.518-4.452,7.018-6.372c6.215-4.773,8.575-4.682,15.203-0.333
		c1.145,0.751,2.785,0.747,4.196,1.092c-0.351-1.413-0.458-2.949-1.095-4.219c-3.117-6.213-6.544-12.274-9.522-18.551
		c-1.905-4.014-0.92-7.601,2.448-10.796c9.671-9.173,19.268-18.431,28.68-27.868c4.015-4.025,8.045-4.138,12.561-1.401
		c3.368,2.04,6.672,4.187,10.71,6.729c-1.24-4.924-2.211-9.094-3.35-13.218c-1.186-4.295-0.244-7.66,3.245-10.682
		c10.202-8.835,20.336-17.758,30.25-26.913c4.337-4.006,8.645-4.055,13.111-1.056c6.072,4.076,11.901,8.515,18.114,13
		c9.734-6.584,19.514-13.443,29.531-19.935c45.467-29.459,93.652-52.853,146.768-65.046c32.777-7.524,65.775-9.884,99.127-3.945
		c2.938,0.523,6.18-0.929,9.225-0.701c7.266,0.542,14.742,0.638,21.693,2.531c17.061,4.648,33.361,11.325,48.857,20.059
		c4.717,2.659,10.625,3.22,16,4.695c18.518,5.084,34.373,15.055,49.061,27.024c28.656,23.354,52.002,51.549,73.418,81.437
		c41.279,57.605,72.959,120.021,93.256,188.012c7.307,24.479,12.479,49.416,11.828,75.192c-0.279,11.006-1.314,21.897-5.51,32.272
		c-0.547,1.351-0.588,3.4,0.057,4.652c2.379,4.607,1.504,8.967-1.217,12.716c-2.703,3.728-6.408,6.712-9.398,10.255
		c-2.264,2.68-4.914,5.449-5.99,8.649c-10.912,32.513-24.502,63.716-43.938,92.147c-1.691,2.473-3.488,4.878-5.316,7.252
		c-4.219,5.474-9.572,8.794-16.723,8.155c-3.193-0.285-4.58,1.012-5.785,3.939c-36.977,89.976-91.07,168.678-159.033,237.79
		c-50.023,50.868-105.857,94.493-169.312,127.765c-38.869,20.381-79.562,35.677-122.95,43.229
		c-48.71,8.479-96.661,6.419-142.911-12.278c-30.713-12.416-60.937-26.044-91.353-39.191c-20.481-8.853-41.189-17.24-61.312-26.849
		c-42.196-20.146-71.646-52.939-91.449-94.836c-8.716-18.439-15.28-37.645-19.174-57.668c-5.492-28.247,2.323-52.055,24.64-70.651
		c10.783-8.985,22.227-16.979,35.18-22.646c11.53-5.044,16.566-3.98,23.615,6.683c8.814,13.333,17.42,26.827,25.533,40.596
		c18.065,30.659,32.691,62.874,43.464,96.867c9.71,30.641,24.566,58.593,45.511,83.183c2.619,3.075,5.252,4.357,9.33,4.291
		c44.031-0.718,85.508-12.165,125.486-29.78c63.207-27.852,117.859-68.02,166.184-116.95
		c60.898-61.665,110.309-131.723,149.455-208.928c13.391-26.411,24.898-53.775,37.381-80.65c1.387-2.985,1.059-5.039-1.012-7.602
		c-5.549-6.864-10.59-14.138-16.139-21.002c-5.555-6.872-6.896-14.622-5.695-23.035c1.084-7.576,2.227-15.147,3.566-22.682
		c0.828-4.661-0.061-8.497-2.746-12.597c-29.949-45.7-53.535-94.38-67.928-147.263c-5.789-21.274-9.691-42.871-9.623-65.007
		C666.156,203.52,666.92,197.414,667.449,189.782z M305.464,361.621c7.989-5.501,15.264-10.479,22.507-15.503
		c15.868-11.003,27.042-25.443,32.426-44.168c0.968-3.368,0.708-5.68-2.585-7.954c-12.88-8.894-25.593-18.035-38.188-27.328
		c-2.907-2.145-4.582-1.9-7.129,0.479c-17.339,16.206-32.927,33.907-46.773,53.191c-2.442,3.402-2.626,6.374-0.628,9.587
		c1.385,2.228,2.974,4.567,5.036,6.096C281.892,344.737,293.823,353.225,305.464,361.621z M321.722,372.723
		c13.74,8.72,26.149,16.802,38.775,24.53c7.428,4.547,12.957,3.278,18.334-3.533c1.441-1.825,2.594-3.876,3.973-5.754
		c11.422-15.559,22.866-31.101,34.301-46.648c0.674-0.917,1.33-1.846,2.225-3.089c-11.097-7.945-22.014-15.762-33.653-24.095
		C371.316,340.975,347.152,356.755,321.722,372.723z M909.518,561.131c-0.107,0.246-0.213,0.493-0.318,0.739
		c5.137,3.993,10.273,7.986,15.967,12.41c1.092-3.718,1.904-6.484,2.762-9.404C921.432,563.555,915.475,562.343,909.518,561.131z"/>
</g>
</svg>
