<?xml version="1.0" encoding="iso-8859-1"?>
<!-- Generator: Adobe Illustrator 16.0.0, SVG Export Plug-In . SVG Version: 6.00 Build 0)  -->
<!DOCTYPE svg PUBLIC "-//W3C//DTD SVG 1.1//EN" "http://www.w3.org/Graphics/SVG/1.1/DTD/svg11.dtd">
<svg version="1.1" id="Layer_1" xmlns="http://www.w3.org/2000/svg" xmlns:xlink="http://www.w3.org/1999/xlink" x="0px" y="0px"
	 width="1120px" height="1060px" viewBox="0 0 1120 1060" enable-background="new 0 0 1120 1060" xml:space="preserve">
<g>
	<path fill-rule="evenodd" clip-rule="evenodd" d="M731.713,308.213c10.73,3.666,13.262,7.967,10.486,19.415
		c-2.664,10.991-7.193,21.075-15.721,28.996c-1.012,0.939-1.443,2.877-1.527,4.386c-1.09,19.796-1.449,39.654-3.24,59.383
		c-2.029,22.35-5.383,44.576-8.027,66.872c-1.135,9.566-6.748,16.017-14.77,20.037c-7.859,3.938-9.404,9.559-9.371,17.895
		c0.354,87.815-14.463,173.113-45.672,255.188c-19.225,50.552-44.625,97.902-81.189,138.475
		c-20.643,22.907-44.165,41.937-73.033,53.731c-15.56,6.356-31.995,8.951-48.379,11.893
		c-50.269,9.025-100.507,18.223-150.787,27.189c-33.966,6.057-64.352-3.063-92.012-22.66c-28.567-20.24-49.59-47.228-67.4-76.878
		c-21.995-36.617-38.303-75.793-49.925-116.81c-10.198-35.989-3.586-70.05,15.282-101.746c6.609-11.104,14.852-21.265,22.713-31.578
		c2.683-3.52,6.28-6.447,9.812-9.194c8.303-6.457,14.054-6.722,22.697-0.664c44.425,31.134,78.77,70.179,97.901,121.892
		c15.47,41.817,36.644,80.634,66.007,114.582c11.603,13.415,24.498,25.429,39.046,35.619c1.606,1.125,3.278,2.156,6.073,3.986
		c8.603-12.73,17.624-24.902,25.406-37.821c22.49-37.338,35.479-78.361,45.974-120.372c9.916-39.69,15.515-79.982,19.191-120.661
		c3.679-40.723,4.249-81.498,4.05-122.329c-0.02-4.053-1.318-5.794-5.12-7.013c-7.441-2.386-14.576-5.74-22.037-8.052
		c-9.723-3.011-15.37-9.759-18.307-18.928c-3.195-9.973-5.79-20.138-8.671-30.211c-0.641-2.24-1.482-4.426-2.076-6.678
		c-4.669-17.734-13.962-31.739-28.773-43.38c-19.463-15.298-37.912-32.092-55.437-49.603
		c-28.086-28.064-48.302-61.405-61.288-99.022c-0.411-1.189-0.946-2.337-0.94-2.322c-3.825,2.757-7.548,5.398-11.216,8.114
		c-0.886,0.655-1.963,1.412-2.323,2.361c-5.526,14.592-10.948,29.223-16.488,44.097c7.599,1.437,9.292,7.021,9.189,12.81
		c-0.099,5.56-0.919,11.378-2.792,16.591c-10.148,28.25-16.018,57.325-18.043,87.23c-0.628,9.273-2.844,18.032-8.23,25.846
		c-7.044,10.221-17.475,13.685-29.009,13.96c-34.646,0.826-69.3,1.375-103.955,1.721c-10.858,0.109-21.67-0.865-30.896-7.823
		c-10.154-7.656-16.293-17.698-16.9-30.398c-1.382-28.902,1.464-57.551,6.467-85.987c1.67-9.495,3.723-18.944,6.103-28.287
		c2.609-10.246,4.026-11.05,14.458-11.017c1.579,0.006,3.158-0.154,5.165-1.326c-1.265-0.797-2.614-1.487-3.78-2.41
		c-3.885-3.073-8.152-5.821-11.45-9.444c-5.944-6.531-8.1-13.947-4.901-22.962c3.386-9.543,5.711-19.474,8.273-29.294
		c1.692-6.484,4.251-12.021,12.448-13.518c-5.518-8.52-1.323-16.05,1.095-23.702c2.708-8.571,5.528-17.106,8.327-25.649
		c2.815-8.594,7.305-12.233,16.41-12.671c4.806-0.23,9.68-0.067,14.458,0.479c3.727,0.427,5.775-0.107,7.625-3.99
		c13.873-29.123,30.178-56.785,51.124-81.472c17.06-20.105,36.198-37.742,60.26-49.345c22.164-10.688,45.38-13.632,69.603-9.824
		c3.067,0.482,6.281-0.056,9.416,0.103c5.468,0.275,11.4-0.523,16.301,1.335c15.212,5.768,30.247,4.508,45.625,1.427
		c6.987-1.399,14.211-1.643,21.335-2.334c5.92-0.574,11.845-1.353,17.781-1.481c10.567-0.229,21.214-0.818,31.706,0.118
		c42.515,3.798,82.399,16.826,120.209,36.241c56.32,28.92,104.186,67.981,141.445,119.517
		c12.834,17.749,23.607,36.706,31.455,57.139c4.84,12.607,9.164,25.487,10.094,39.203
		C729.729,287.389,730.781,297.569,731.713,308.213z M57.301,340.88c-7.608,22.705-12.276,45.632-15.5,68.934
		c-0.792,5.727,1.769,8.116,6.106,9.68c2.932,1.057,6.124,1.745,9.233,1.896c9.815,0.48,19.646,0.693,29.473,0.884
		c6.301,0.123,12.606,0.023,17.666,0.023c14.637-24.991,24.667-50.35,17.578-79.616C100.367,342.081,79.074,341.487,57.301,340.88z
		 M150.752,344.19c0.19,28.549-10.346,53.82-24.361,77.442c16.751,0,32.698,0.17,48.64-0.056
		c11.755-0.167,17.745-6.333,18.993-18.134c1.486-14.053,3.202-28.083,5.02-42.098c0.715-5.508,1.976-10.946,3.124-17.155
		C184.805,344.19,168.21,344.19,150.752,344.19z M600.75,476.156c20.369,0,41.336,0,62.639,0
		c-0.557-7.507-1.045-14.085-1.586-21.349C642.389,465.974,621.734,472.332,600.75,476.156z M528.784,478.87
		c-0.017-0.2-0.034-0.399-0.051-0.599c-14.783-2.653-29.565-5.308-44.843-8.051c-0.141,2.897-0.28,5.736-0.422,8.649
		C498.974,478.87,513.879,478.87,528.784,478.87z"/>
</g>
</svg>
