<?xml version="1.0" encoding="iso-8859-1"?>
<!-- Generator: Adobe Illustrator 16.0.0, SVG Export Plug-In . SVG Version: 6.00 Build 0)  -->
<!DOCTYPE svg PUBLIC "-//W3C//DTD SVG 1.1//EN" "http://www.w3.org/Graphics/SVG/1.1/DTD/svg11.dtd">
<svg version="1.1" id="Layer_1" xmlns="http://www.w3.org/2000/svg" xmlns:xlink="http://www.w3.org/1999/xlink" x="0px" y="0px"
	 width="1120px" height="1060px" viewBox="0 0 1120 1060" enable-background="new 0 0 1120 1060" xml:space="preserve">
<g>
	<path fill-rule="evenodd" clip-rule="evenodd" d="M359.795,926.457c12.237-14.45,21.784-29.612,30.372-45.453
		c20.524-37.856,32.1-78.795,41.787-120.406c7.716-33.145,12.111-66.763,15.17-100.624c3.993-44.204,5.137-88.462,4.076-132.812
		c-0.086-3.604-1.125-5.19-4.537-6.278c-7.291-2.324-14.305-5.555-21.643-7.69c-11.342-3.303-17.259-11.313-20.472-21.938
		c-3.562-11.782-6.959-23.615-10.43-35.427c-0.188-0.638-0.407-1.267-0.581-1.908c-4.408-16.271-13.573-28.765-26.94-39.418
		c-19.248-15.341-37.854-31.663-55.396-48.925c-28.541-28.083-49.236-61.516-62.692-99.321c-0.222-0.624-0.528-1.219-0.666-1.531
		c-3.118,1.735-6.246,3.396-9.279,5.216c-0.923,0.554-1.961,1.406-2.311,2.355c-5.336,14.506-10.567,29.051-15.806,43.54
		c8.115,3.968,10.848,10.109,8.883,20.562c-0.886,4.717-2.39,9.347-3.945,13.902c-8.878,26.002-13.991,52.721-15.689,80.129
		c-0.548,8.846-1.941,17.493-6.406,25.433c-6.234,11.085-16.075,16.547-28.251,16.94c-37.132,1.202-74.278,2.396-111.424,2.56
		c-27.192,0.119-43.599-17.146-43.851-44.38c-0.325-35.11,3.324-69.816,11.193-104.057c0.224-0.971,0.5-1.931,0.775-2.889
		c3.251-11.337,4.282-12.08,15.912-11.691c1.211,0.041,2.43-0.158,5.204-0.357c-2.268-1.558-3.252-2.249-4.251-2.917
		c-3.035-2.03-6.464-3.651-9.042-6.151c-7.688-7.455-12.361-15.737-8.259-27.225c3.347-9.373,5.574-19.167,7.948-28.86
		c1.609-6.573,4.235-11.964,12.484-13.561c-5.671-7.912-1.992-15.101,0.262-22.352c2.669-8.583,5.415-17.143,8.14-25.708
		c3.313-10.413,7.908-13.99,18.887-14.244c4.483-0.104,9.008,0.122,13.461,0.646c3.181,0.374,4.662-0.639,6.027-3.545
		c13.785-29.348,29.809-57.362,50.732-82.295c17.276-20.585,36.625-38.719,61.395-50.212c20.021-9.289,40.888-12.569,62.8-9.573
		c4.899,0.67,9.938,0.252,14.899,0.562c5.463,0.341,11.211-0.002,16.307,1.615c13.411,4.254,26.626,4.383,40.322,1.601
		c9.249-1.88,18.797-2.353,28.232-3.229c9.025-0.839,18.076-1.896,27.12-1.93c10.761-0.042,21.696-0.137,32.264,1.583
		c104.461,17,187.154,69.826,250.689,153.645c13.021,17.18,23.416,36.041,31.107,56.159c4.354,11.39,7.785,23.275,10.162,35.23
		c1.725,8.668,0.979,17.819,1.465,26.749c0.145,2.629,0.734,5.233,1.174,8.202c0.992,0.35,2.209,0.793,3.434,1.204
		c6.07,2.034,8.859,5.487,8.334,11.84c-1.09,13.193-6.242,24.707-15.18,34.56c-1.4,1.543-2.73,3.777-2.842,5.764
		c-1.219,21.457-1.604,42.977-3.395,64.381c-1.703,20.368-4.871,40.61-7.26,60.925c-1.051,8.937-5.102,16.017-13.143,19.953
		c-9.506,4.656-11.359,11.701-11.256,21.911c0.918,90.079-14.621,177.42-47.311,261.338
		c-17.166,44.069-39.461,85.631-70.201,122.096c-21.954,26.045-46.798,48.68-79.185,60.83c-14.067,5.277-29.022,8.564-43.832,11.421
		c-51.131,9.862-102.404,18.983-153.566,28.688c-34.685,6.578-65.301-2.923-93.262-22.917
		c-27.598-19.733-48.085-45.889-65.568-74.566c-22.861-37.499-39.731-77.693-51.694-119.824
		c-10.107-35.595-3.559-69.469,15.054-100.866c7.258-12.243,16.542-23.304,25.162-34.707c2.063-2.729,5.01-4.884,7.813-6.943
		c8.345-6.129,13.796-6.27,22.329-0.336c39.407,27.402,71.853,60.903,91.548,105.413c8.688,19.635,16.343,39.767,25.833,58.998
		c17.825,36.123,40.276,69.067,71.091,95.624C346.241,916.277,352.875,921.045,359.795,926.457z M119.622,343.643
		c-0.752-0.109-1.404-0.274-2.059-0.289c-19.816-0.445-39.636-0.799-59.448-1.385c-3.205-0.095-3.772,1.556-4.535,3.97
		c-6.688,21.173-10.761,42.869-13.683,64.847c-0.691,5.2,1.08,7.941,5.523,9.601c1.858,0.693,3.811,1.587,5.727,1.6
		c17.462,0.123,34.925,0.072,52.096,0.072C116.727,398.015,126.918,372.641,119.622,343.643z M123.805,423.442
		c17.787-0.592,34.068-0.967,50.332-1.732c11.229-0.529,16.848-6.355,18.027-17.434c1.548-14.546,3.191-29.082,4.98-43.599
		c0.638-5.172,1.821-10.276,2.893-16.167c-17.5,0-34.223,0-51.708,0C148.865,372.917,138.717,398.355,123.805,423.442z
		 M658.197,453.602c-20.109,11.835-41.447,18.16-61.73,22.151c19.811,0,41.209,0,63.287,0
		C659.205,467.946,658.732,461.212,658.197,453.602z M478.869,479.073c16.146,0,31.519,0,46.892,0
		c-0.001-0.227-0.001-0.453-0.002-0.68c-15.3-2.614-30.601-5.229-46.32-7.913C479.239,473.484,479.056,476.249,478.869,479.073z"/>
</g>
</svg>
