<?xml version="1.0" encoding="iso-8859-1"?>
<!-- Generator: Adobe Illustrator 16.0.0, SVG Export Plug-In . SVG Version: 6.00 Build 0)  -->
<!DOCTYPE svg PUBLIC "-//W3C//DTD SVG 1.1//EN" "http://www.w3.org/Graphics/SVG/1.1/DTD/svg11.dtd">
<svg version="1.1" id="Layer_1" xmlns="http://www.w3.org/2000/svg" xmlns:xlink="http://www.w3.org/1999/xlink" x="0px" y="0px"
	 width="1120px" height="1060px" viewBox="0 0 1120 1060" enable-background="new 0 0 1120 1060" xml:space="preserve">
<g>
	<path fill-rule="evenodd" clip-rule="evenodd" d="M649.966,186.203c-12.509,4.438-24.521,8.282-36.214,12.933
		c-29.226,11.625-56.438,27.026-82.324,44.839c-2.412,1.66-3.528,3.272-3.35,6.455c0.119,2.137-1.146,4.999-2.761,6.478
		c-10.201,9.334-20.526,18.55-31.184,27.352c-2.023,1.671-5.717,1.33-8.646,1.892c-1.499,0.288-3.479-0.005-4.442,0.857
		c-13.512,12.107-26.888,24.368-40.284,36.605c-0.35,0.32-0.547,0.807-0.979,1.463c5.814,6.204,3.686,12.539-0.433,18.457
		c-2.449,3.519-5.501,6.714-8.69,9.605c-22.521,20.428-41.304,43.819-56.811,69.971c-3.516,5.931-7.949,11.604-12.999,16.272
		c-8.49,7.847-18.759,9.639-29.105,3.876c-16.434-9.153-32.645-18.722-48.75-28.448c-12.973-7.835-25.687-16.102-38.444-24.289
		c-14.288-9.169-24.133-21.304-23.163-39.222c0.351-6.485,1.996-13.308,4.739-19.188c15.392-33,35.872-62.674,60.347-89.603
		c2.012-2.213,4.183-4.319,6.492-6.216c6.139-5.042,8.831-5.056,15.619-0.872c1.166,0.719,2.836,0.62,4.273,0.899
		c-0.432-1.388-0.674-2.873-1.329-4.146c-3.25-6.332-6.802-12.516-9.858-18.937c-1.801-3.784-0.868-7.293,2.282-10.408
		c9.24-9.141,18.266-18.495,27.448-27.695c5.429-5.439,7.716-5.771,14.536-2.188c2.894,1.521,5.62,3.358,9.048,5.431
		c-1.208-4.875-2.273-9.019-3.256-13.182c-0.922-3.903,0.116-7.058,3.194-9.843c10.131-9.167,20.198-18.408,30.102-27.818
		c3.907-3.713,8.006-4.041,12.275-1.494c4.851,2.893,9.845,5.801,13.971,9.582c4.198,3.847,6.982,2.777,10.952-0.188
		c30.784-23,63.392-43.014,98.472-58.821c34.5-15.547,70.192-26.992,108.079-30.638c20.846-2.005,41.572-1.308,62.213,2.43
		c2.808,0.509,5.948-0.935,8.8-0.527c8.854,1.266,17.809,2.373,26.424,4.669c14.996,3.995,29.237,9.993,42.828,17.668
		c4.578,2.585,10.198,3.491,15.45,4.688c21.003,4.786,38.64,15.951,55.099,29.165c28.679,23.024,52.347,50.744,73.897,80.336
		c36.804,50.533,66.208,105.033,86.942,164.078c9.238,26.306,16.272,53.183,18.141,81.129c1.035,15.486,0.521,30.912-5.138,45.721
		c-0.42,1.099-0.415,2.787,0.149,3.764c3.007,5.206,1.883,10.035-1.352,14.442c-2.345,3.194-4.911,6.486-8.083,8.748
		c-4.116,2.936-5.884,6.746-7.326,11.312c-10.934,34.616-24.979,67.79-45.811,97.793c-4.674,6.731-10.474,11.222-18.987,10.915
		c-3.219-0.116-4.22,1.627-5.21,4.165c-33.76,86.447-83.543,162.931-146.357,230.769
		c-54.017,58.337-115.261,107.871-186.695,143.844c-41.678,20.988-85.392,35.655-132.026,40.326
		c-39.86,3.992-78.813-0.23-116.317-14.971c-45.554-17.904-90.984-36.127-136.632-53.788
		C155.22,951.923,118.81,913.95,96.124,861.977c-8.08-18.511-14.46-37.634-17.562-57.65c-4.061-26.207,3.148-48.83,22.822-66.996
		c12.197-11.264,25.842-20.404,40.987-27.345c8.217-3.766,13.555-1.762,18.333,4.766c7.861,10.738,15.189,21.896,22.254,33.184
		c22.021,35.18,39.113,72.589,51.583,112.246c9.851,31.326,25.862,59.443,47.595,84.247c3.741,4.27,7.448,5.971,13.249,5.613
		c48.637-2.998,93.546-18.366,136.283-40.804c69.694-36.591,126.982-87.88,176.76-148.404
		c60.919-74.07,106.831-156.632,142.181-245.439c2.122-5.33,2.021-8.941-1.951-13.214c-5.092-5.474-9.262-11.791-14.135-17.483
		c-5.963-6.967-7.752-14.914-6.564-23.768c1.173-8.74,2.258-17.493,3.564-26.214c0.548-3.66-0.172-6.614-2.322-9.768
		c-33.089-48.525-58.989-100.442-73.578-157.605c-4.959-19.43-8.073-39.15-7.581-59.269
		C648.211,201.15,649.231,194.247,649.966,186.203z M302.062,266.421c-2.337,2.204-4.423,4.096-6.426,6.071
		c-15.222,15.015-28.651,31.502-41.23,48.793c-5.778,7.943-3.554,12.307,2.493,16.878c12.043,9.104,24.832,17.224,36.886,25.458
		c8.618-6.172,16.728-11.707,24.539-17.636c14.81-11.239,25.037-25.689,29.288-43.96c0.414-1.777-0.34-4.92-1.66-5.84
		C331.61,286.19,317.048,276.512,302.062,266.421z M373.232,314.387c-13.76,27.404-37.892,43.576-62.566,59.795
		c3.786,2.317,6.742,4.16,9.73,5.949c9.857,5.9,19.625,11.962,29.625,17.609c7.479,4.224,13.106,2.782,18.299-4.07
		c1.403-1.853,2.516-3.922,3.814-5.856c7.977-11.882,15.85-23.835,24.01-35.589c3.475-5.005,7.559-9.587,11.576-14.624
		C396.136,329.804,384.987,322.299,373.232,314.387z M916.576,562.15c-7.068-1.152-13.602-2.219-20.135-3.284
		c-0.114,0.316-0.229,0.633-0.343,0.949c5.677,4.108,11.353,8.217,17.448,12.63C914.682,568.589,915.567,565.58,916.576,562.15z"/>
</g>
</svg>
