<?xml version="1.0" encoding="iso-8859-1"?>
<!-- Generator: Adobe Illustrator 16.0.0, SVG Export Plug-In . SVG Version: 6.00 Build 0)  -->
<!DOCTYPE svg PUBLIC "-//W3C//DTD SVG 1.1//EN" "http://www.w3.org/Graphics/SVG/1.1/DTD/svg11.dtd">
<svg version="1.1" id="Layer_1" xmlns="http://www.w3.org/2000/svg" xmlns:xlink="http://www.w3.org/1999/xlink" x="0px" y="0px"
	 width="1120px" height="1060px" viewBox="0 0 1120 1060" enable-background="new 0 0 1120 1060" xml:space="preserve">
<g>
	<path fill-rule="evenodd" clip-rule="evenodd" d="M515.399,168.761c-14.535,9.331-29.495,18.075-43.48,28.168
		c-12.938,9.337-24.897,20.042-37.095,30.371c-1.379,1.168-1.591,3.78-2.207,5.766c-0.805,2.598-0.754,5.816-2.32,7.763
		c-8.671,10.769-17.596,21.344-26.759,31.697c-1.669,1.886-4.899,3.479-7.32,3.361c-3.768-0.183-5.67,1.352-7.792,3.972
		c-9.114,11.254-18.43,22.344-27.635,33.524c-1.263,1.533-2.321,3.235-3.599,5.036c6.3,4.933,5.515,11.181,2.961,17.28
		c-1.649,3.938-3.98,7.754-6.703,11.049c-20.242,24.496-35.707,51.714-47.633,81.119c-2.51,6.188-6.47,12.057-10.826,17.164
		c-7.213,8.459-17.063,11.313-27.638,8.134c-17.36-5.221-34.553-11.04-51.657-17.061c-16.482-5.801-32.865-11.917-49.101-18.374
		c-16.075-6.392-26.568-17.803-27.955-35.646c-0.453-5.826,0.281-12.058,1.919-17.683c10.182-34.939,25.704-67.464,45.525-97.954
		c1.36-2.092,2.872-4.094,4.432-6.043c5.626-7.027,8.222-7.641,16.748-4.512c1.314,0.482,2.939,0.12,4.42,0.148
		c-0.732-1.317-1.402-2.673-2.207-3.944c-4.062-6.412-8.376-12.678-12.155-19.253c-1.946-3.386-1.264-7.024,1.147-10.326
		c8.254-11.3,16.428-22.657,24.596-34.02c2.41-3.353,5.654-4.521,9.602-3.874c2.591,0.424,5.151,1.033,7.715,1.558
		c0.146-0.324,0.461-0.698,0.374-0.875c-4.146-8.462-1.946-15.311,4.24-22.143c7.479-8.259,14.242-17.198,20.932-26.13
		c3.938-5.258,8.817-6.449,14.484-4.462c6.111,2.144,12.114,4.701,17.911,7.586c3.108,1.547,4.795,1.066,7.199-1.304
		c32.212-31.748,67.411-59.536,107.804-80.305c29.593-15.216,60.574-26.01,94.027-28.363c18.2-1.28,36.234,0.017,54.125,3.982
		c8.573,1.9,17.491,2.21,26.114,3.936c7.298,1.46,14.884,2.924,21.479,6.15c13.48,6.595,27.353,10.601,42.316,11.896
		c17.742,1.535,34.328,7.575,50.285,15.292c33.862,16.375,62.846,39.481,89.344,65.787c46.705,46.365,84.187,99.242,110.708,159.624
		c13.487,30.707,22.922,62.542,23.932,96.33c0.24,8.049-1.233,16.152-1.994,24.224c-0.303,3.22-0.524,5.872,1.488,9.222
		c1.897,3.157,2.325,8.841,0.728,12.104c-3.073,6.28-8.097,11.593-12.181,17.398c-1.46,2.077-3.178,4.282-3.697,6.664
		c-7.5,34.371-16.175,68.367-30.812,100.543c-1.792,3.939-3.799,7.782-5.559,11.735c-3.622,8.132-9.483,13.729-18.311,15.469
		c-4.481,0.883-6.07,3.356-7.127,7.504c-23.548,92.418-64.632,176.56-121.953,252.509
		c-41.016,54.343-88.812,102.014-147.116,138.195c-35.453,22.001-73.276,37.831-114.85,43.992
		c-27.889,4.133-55.403,1.611-82.972-3.082c-38.544-6.562-77.163-12.699-115.792-18.746c-24.57-3.847-48.887-8.262-71.332-19.808
		c-30.091-15.479-53.696-38.096-72.38-65.925c-24.305-36.202-39.289-76.282-46.837-119.051c-5.56-31.505,4.225-58.868,25.176-82.52
		c10.805-12.198,23.462-22.192,37.449-30.494c9.133-5.421,14.498-4.684,21.483,3.271c17.191,19.578,32.471,40.562,45.794,62.967
		c14.471,24.332,24.775,50.371,33.22,77.356c13.471,43.045,34.413,81.926,67.156,113.672c5.134,4.978,10.886,9.312,16.161,14.152
		c2.436,2.235,4.726,2.257,7.693,1.339c37.284-11.532,70.427-30.744,100.833-54.818c44.093-34.91,79.576-77.388,109.931-124.579
		c51.841-80.594,85.942-168.499,109.62-260.868c1.052-4.102,0.558-6.689-2.904-9.356c-5.534-4.262-10.384-9.418-15.952-13.629
		c-9.28-7.017-12.342-16.521-12.37-27.569c-0.03-11.652-0.288-23.306-0.214-34.958c0.039-6.104-1.794-10.962-6.02-15.669
		c-35.005-39.003-63.588-82.139-82.741-131.147c-9.071-23.21-15.566-47.075-16.969-72.131c-0.963-17.217,1.04-34.168,4.388-51.021
		C516.263,169.673,515.831,169.217,515.399,168.761z M215.838,382.203c6.948-6.942,13.396-13.404,19.863-19.846
		c13.458-13.406,21.18-29.56,23.509-48.402c0.418-3.388-0.454-5.04-3.727-6.335c-15.302-6.058-30.531-12.305-45.691-18.71
		c-3.04-1.284-4.635-0.788-6.605,1.782c-14.017,18.288-26.023,37.794-36.005,58.552c-3.319,6.902-2.278,11.297,4.78,14.463
		C186.487,370.223,201.291,376.114,215.838,382.203z M234.252,389.105c15.079,5.211,28.855,10.139,42.748,14.716
		c10.631,3.503,16.625,0.745,21.352-9.482c2.93-6.34,5.305-12.944,8.382-19.207c6.287-12.795,12.879-25.438,19.55-38.545
		c-12.777-5.211-25.765-10.507-39.439-16.083C277.671,349.731,257.052,369.761,234.252,389.105z M792.8,532.706
		c12.935,5.223,24.653,9.955,36.924,14.91c0.919-5.759,1.707-10.698,2.379-14.91C818.942,532.706,806.573,532.706,792.8,532.706z"/>
</g>
</svg>
