<?xml version="1.0" encoding="iso-8859-1"?>
<!-- Generator: Adobe Illustrator 16.0.0, SVG Export Plug-In . SVG Version: 6.00 Build 0)  -->
<!DOCTYPE svg PUBLIC "-//W3C//DTD SVG 1.1//EN" "http://www.w3.org/Graphics/SVG/1.1/DTD/svg11.dtd">
<svg version="1.1" id="Layer_1" xmlns="http://www.w3.org/2000/svg" xmlns:xlink="http://www.w3.org/1999/xlink" x="0px" y="0px"
	 width="1120px" height="1060px" viewBox="0 0 1120 1060" enable-background="new 0 0 1120 1060" xml:space="preserve">
<g>
	<path fill-rule="evenodd" clip-rule="evenodd" d="M770.322,328.341c10.209,4.244,12.52,8.769,9.77,19.171
		c-2.557,9.672-7.281,18.152-14.113,25.532c-1.531,1.654-2.791,4.124-3.016,6.336c-2.486,24.517-4.199,49.125-7.256,73.566
		c-2.062,16.473-6.053,32.697-8.957,49.073c-1.873,10.553-8.465,17.209-17.613,21.447c-5.684,2.633-7.086,6.514-7.355,12.443
		c-4.23,92.894-25.271,181.896-64.453,266.206c-22.213,47.797-50.168,92.17-87.725,129.822
		c-24.407,24.467-51.757,44.41-84.771,55.888c-18.767,6.524-38.352,8.175-57.836,10.512c-45.939,5.511-91.943,10.516-137.813,16.551
		c-44.701,5.882-82.288-8.478-114.994-38.052c-24.553-22.202-42.832-49.125-58.123-78.229
		c-15.708-29.899-27.573-61.327-36.673-93.794c-10.738-38.315-2.713-73.479,18.855-106.081
		c8.852-13.381,18.691-25.999,31.699-35.706c9.199-6.864,14.425-6.895,23.345,0.102c35.754,28.041,65.696,60.974,84.361,102.934
		c8.046,18.087,14.323,36.964,22.441,55.016c16.954,37.698,38.757,72.218,69.789,100.138c6.914,6.221,14.679,11.486,21.932,17.342
		c2.977,2.403,4.978,2.307,7.937-0.493c27.874-26.372,48.76-57.718,65.191-92.086c24.711-51.687,40.667-106.202,51.051-162.426
		c7.203-39.001,11.994-78.314,14.765-117.867c0.955-13.621,1.26-27.287,2.099-40.917c0.228-3.699-0.789-5.646-4.396-7.071
		c-6.96-2.75-13.525-6.521-20.524-9.15c-11.27-4.232-16.454-12.972-18.974-23.902c-2.13-9.238-4.034-18.528-6.044-27.795
		c-0.141-0.648-0.328-1.287-0.5-1.929c-7.279-27.068-7.167-27.194-27.873-45.742c-21.607-19.355-43.225-38.669-61.42-61.427
		c-29.263-36.604-49.167-77.458-56.426-124.603c-5.799,12.61-11.482,24.721-16.932,36.936c-2.297,5.148-5.273,9.179-11.19,10.373
		c-1.062,0.215-2.312,1.326-2.785,2.345c-6.651,14.326-13.183,28.708-19.901,43.421c7.681,2.647,9.019,8.714,8.182,15.028
		c-0.754,5.686-2.348,11.453-4.659,16.706c-11.962,27.187-19.157,55.602-23.479,84.909c-1.024,6.945-3.288,14.01-6.461,20.27
		c-5.676,11.198-15.712,16.777-28.171,16.575c-20.98-0.34-41.962-1.093-62.92-2.142c-17.125-0.857-34.25-2.055-51.314-3.725
		c-22.406-2.192-37.894-19.218-37.426-41.758c0.638-30.751,5.858-60.922,13.732-90.62c2.088-7.875,4.43-15.712,7.202-23.368
		c3.004-8.294,5.033-9.238,13.812-8.557c1.883,0.146,3.786,0.021,6.107-1.014c-0.894-0.727-1.805-1.432-2.677-2.185
		c-4.003-3.455-8.455-6.525-11.891-10.477c-6.124-7.043-7.772-14.819-3.572-23.981c4.079-8.896,7.057-18.328,10.105-27.659
		c2.282-6.982,5.461-12.604,14.694-12.828c-5.405-8.113-2.03-14.927,0.935-21.864c4.188-9.799,8.236-19.658,12.245-29.531
		c2.504-6.166,7.232-9.101,13.605-9.046c5.802,0.049,11.709,0.229,17.364,1.371c4.551,0.92,6.511-0.661,8.603-4.297
		c17.607-30.598,37.902-59.216,63.338-83.893c21.877-21.224,46.052-38.847,75.811-47.634c19.559-5.775,39.252-6.734,59.261-2.844
		c3.035,0.59,6.289,0.488,9.394,0.201c10.74-0.996,20.935,1.066,30.65,5.425c5.566,2.497,11.084,2.63,17.045,2.046
		c14.052-1.375,28.148-2.422,42.25-3.135c52.071-2.632,99.451,13.483,144.371,37.748c63.961,34.553,116.473,81.779,154.92,143.932
		c11.607,18.763,21.035,38.623,27.1,59.858c3.561,12.469,6.842,25.113,6.318,38.351C770.105,314.75,770.322,321.431,770.322,328.341
		z M121.578,415.507c4.393-7.473,8.055-13.988,11.988-20.334c10.329-16.664,13.272-34.932,12.226-54.157
		c-0.207-3.796-1.668-5.471-5.632-5.804c-18.081-1.523-36.145-3.258-54.2-5.061c-3.191-0.319-4.675,0.711-5.856,3.721
		c-7.993,20.357-14.18,41.222-18.244,62.714c-1.591,8.411,0.028,11.971,8.608,13.198
		C87.731,412.252,105.138,413.723,121.578,415.507z M142.688,416.772c16.766,0.753,32.19,1.634,47.627,2.083
		c13.068,0.379,18.822-4.811,20.802-17.808c1.052-6.902,2.004-13.832,3.396-20.669c2.516-12.357,5.328-24.656,8.089-37.313
		c-16.099-1.488-32.238-2.98-48.989-4.528C172.238,368.229,159.254,392.808,142.688,416.772z M696.578,468.105
		c-18.812,9.698-38.564,14.114-58.625,17.635c19.516,1.082,39.033,2.164,58.625,3.25
		C696.578,481.768,696.578,475.359,696.578,468.105z M557.31,481.215c0.03-0.293,0.06-0.586,0.09-0.879
		c-10.295-2.724-20.59-5.447-31.443-8.319c-0.359,2.477-0.696,4.804-1.087,7.501C536.093,480.104,546.702,480.66,557.31,481.215z"/>
	<path fill-rule="evenodd" clip-rule="evenodd" fill="#FFFFFF" d="M557.31,481.215c-10.608-0.555-21.217-1.11-32.44-1.697
		c0.391-2.697,0.728-5.024,1.087-7.501c10.853,2.872,21.148,5.596,31.443,8.319C557.37,480.629,557.34,480.922,557.31,481.215z"/>
</g>
</svg>
