<?xml version="1.0" encoding="iso-8859-1"?>
<!-- Generator: Adobe Illustrator 16.0.0, SVG Export Plug-In . SVG Version: 6.00 Build 0)  -->
<!DOCTYPE svg PUBLIC "-//W3C//DTD SVG 1.1//EN" "http://www.w3.org/Graphics/SVG/1.1/DTD/svg11.dtd">
<svg version="1.1" id="Layer_1" xmlns="http://www.w3.org/2000/svg" xmlns:xlink="http://www.w3.org/1999/xlink" x="0px" y="0px"
	 width="1120px" height="1060px" viewBox="0 0 1120 1060" enable-background="new 0 0 1120 1060" xml:space="preserve">
<g>
	<path fill-rule="evenodd" clip-rule="evenodd" d="M700.506,197.171c-13.205,3.926-26.035,7.352-38.607,11.557
		c-32.221,10.777-62.361,25.965-91.166,43.898c-2.596,1.616-4.16,3.075-3.695,6.629c0.242,1.846-1.258,4.597-2.832,5.893
		c-10.803,8.895-21.708,17.681-32.913,26.059c-1.97,1.473-5.494,0.915-8.311,1.188c-1.344,0.13-3.176-0.575-4.002,0.083
		c-15.083,12.027-30.047,24.204-44.932,36.265c4.654,8.373,4.532,13.171-1.571,19.853c-4.803,5.26-10.412,9.803-15.804,14.501
		c-20.476,17.841-38.224,38.046-53.296,60.646c-2.939,4.407-6.248,8.704-10.035,12.384c-10.624,10.32-21.43,11.652-34.009,3.85
		c-9.188-5.699-17.992-12.055-26.703-18.476c-18.104-13.343-36.12-26.812-54-40.454c-9.242-7.052-17.522-15.027-19.91-27.188
		c-2.119-10.796-1.271-21.259,4.03-31.06c17.825-32.95,40.629-62.109,67.465-88.169c1.904-1.848,4.011-3.527,6.195-5.039
		c5.994-4.149,8.898-3.969,14.86,0.271c1.125,0.8,2.734,0.921,4.12,1.354c-0.306-1.42-0.347-2.969-0.963-4.239
		c-2.892-5.961-6.138-11.758-8.869-17.789c-1.892-4.178-0.999-7.84,2.739-11.107c10.035-8.771,19.894-17.75,29.644-26.839
		c3.694-3.443,7.401-3.601,11.297-1.026c4.148,2.74,8.065,5.83,12.802,9.294c-1.22-5.004-2.054-9.442-3.405-13.717
		c-1.792-5.666-0.381-9.769,4.351-13.486c9.823-7.72,19.303-15.873,28.955-23.812c5.816-4.784,8.539-5.081,14.631-0.602
		c5.484,4.031,10.573,8.602,15.678,12.804c14.993-9.237,29.664-18.741,44.771-27.496c44.364-25.708,91.106-45.544,141.616-55.619
		c31.279-6.239,62.727-7.865,94.33-2.386c1.279,0.222,2.885,0.601,3.887,0.063c9.77-5.237,19.83-3.172,29.094,0.246
		c14.324,5.284,28.252,11.748,42.004,18.421c5.303,2.572,10.568,4.271,16.258,5.541c14.258,3.184,26.457,10.759,37.893,19.497
		c24.865,18.997,44.797,42.705,63.537,67.482c50,66.11,86.289,139.057,108.508,218.921c7.027,25.259,12.459,50.905,10.373,77.332
		c-0.732,9.305-3.637,18.454-5.777,27.621c-0.598,2.558-0.764,4.6-0.035,7.364c0.818,3.104,0.033,7.479-1.734,10.218
		c-2.545,3.944-6.732,6.794-9.969,10.338c-2.146,2.351-4.584,4.83-5.648,7.71c-11.854,32.024-26.59,62.498-47.033,90.031
		c-5.816,7.832-12.145,14.226-23.15,12.677c-1.049-0.147-2.961,2.173-3.656,3.715c-14.723,32.727-31.891,64.123-51.537,94.133
		c-53.227,81.297-119.023,150.707-197.576,207.934c-47.213,34.395-97.428,63.358-152.727,82.879
		c-31.367,11.072-63.534,18.7-96.743,21.404c-48.44,3.945-95.007-2.795-138.766-24.988c-45.153-22.901-90.401-45.619-135.437-68.75
		c-45.321-23.277-75.116-60.242-92.882-107.415c-5.989-15.902-11.541-32.024-11.726-49.286c-0.182-16.951,5.621-31.81,17.94-43.527
		c12.257-11.658,25.987-21.352,41.892-27.596c12.225-4.801,17.559-3.508,24.313,7.741c12.599,20.98,25.121,42.036,36.776,63.547
		c13.672,25.232,23.729,52.064,33.017,79.206c7.657,22.372,18.98,42.896,33.293,61.769c1.921,2.532,3.933,3.441,7.048,3.606
		c42.47,2.262,83.219-6.072,122.85-20.417c74.022-26.793,138.08-69.603,194.872-123.527
		c75.73-71.909,134.975-155.964,181.457-249.221c6.607-13.261,12.531-26.861,18.955-40.217c1.186-2.465,0.98-4.085-0.602-6.256
		c-5.299-7.267-10.123-14.887-15.545-22.055c-5.689-7.52-6.652-15.747-5.018-24.632c1.236-6.71,2.705-13.391,3.543-20.15
		c0.312-2.529-0.166-5.669-1.467-7.811c-21.43-35.282-39.352-72.233-52.961-111.212c-10.625-30.437-18.688-61.472-19.953-93.914
		C700.334,208.508,700.506,203.385,700.506,197.171z M342.818,260.479c-1.305,1.014-2.249,1.686-3.126,2.437
		c-17.528,14.995-33.208,31.73-47.604,49.752c-5.268,6.595-6.052,9.639,0.837,16.31c11.051,10.701,23.573,19.885,35.125,29.421
		c8.923-5.759,17.119-10.845,25.103-16.243c15.526-10.5,26.818-24.324,32.14-42.526c0.495-1.693,0.18-4.69-0.958-5.631
		C370.743,282.757,356.923,271.792,342.818,260.479z M409.616,314.04c-15.509,26.347-40.407,41.008-65.693,56.185
		c11.116,8.058,21.423,15.616,31.822,23.045c14.008,10.008,17.96,8.851,28.281-5.02c11.498-15.45,23.891-30.234,35.894-45.309
		c0.69-0.867,1.383-1.732,2.256-2.825C431.458,331.532,420.967,323.131,409.616,314.04z M936.58,564.867
		c-0.199,0.304-0.398,0.608-0.598,0.912c3.598,3.18,7.197,6.359,11.287,9.972c1.008-3.109,1.664-5.139,2.396-7.397
		C945.115,567.142,940.848,566.004,936.58,564.867z"/>
</g>
</svg>
