<?xml version="1.0" encoding="iso-8859-1"?>
<!-- Generator: Adobe Illustrator 16.0.0, SVG Export Plug-In . SVG Version: 6.00 Build 0)  -->
<!DOCTYPE svg PUBLIC "-//W3C//DTD SVG 1.1//EN" "http://www.w3.org/Graphics/SVG/1.1/DTD/svg11.dtd">
<svg version="1.1" id="Layer_1" xmlns="http://www.w3.org/2000/svg" xmlns:xlink="http://www.w3.org/1999/xlink" x="0px" y="0px"
	 width="1120px" height="1060px" viewBox="0 0 1120 1060" enable-background="new 0 0 1120 1060" xml:space="preserve">
<g>
	<path fill-rule="evenodd" clip-rule="evenodd" d="M565.54,172.651c-8.498,3.974-16.204,7.357-23.716,11.13
		c-26.627,13.374-51.076,30.067-73.874,49.193c-1.198,1.005-1.438,3.205-2.012,4.887c-0.928,2.72-1.014,6.142-2.764,8.097
		c-9.108,10.18-18.511,20.106-28.114,29.822c-1.756,1.776-5.022,3.208-7.401,2.962c-3.963-0.409-5.997,1.308-8.329,3.895
		c-10.364,11.498-20.898,22.841-31.353,34.257c-0.779,0.852-1.416,1.834-2.339,3.044c7.028,6.793,4.294,13.887,0.164,20.703
		c-2.14,3.531-4.891,6.751-7.691,9.814c-19.954,21.825-35.792,46.322-48.443,73.021c-3.028,6.39-6.886,12.65-11.523,17.955
		c-8.099,9.267-18.685,12.097-30.37,7.638c-13.213-5.041-26.316-10.408-39.258-16.109c-19.047-8.391-38.013-16.982-56.809-25.92
		c-10.999-5.23-19.755-13.054-23.491-25.223c-3.14-10.229-2.589-20.388,1.088-30.406c12.073-32.895,28.554-63.441,49.036-91.839
		c2.429-3.368,5.088-6.62,7.982-9.593c5.248-5.391,8.281-5.676,15.13-2.509c1.414,0.653,3.217,0.465,4.841,0.665
		c-0.712-1.467-1.34-2.981-2.151-4.391c-3.708-6.438-7.617-12.765-11.148-19.296c-1.943-3.595-0.871-6.995,1.713-10.136
		c8.258-10.034,16.354-20.202,24.603-30.243c5.324-6.48,8.14-7.104,16.062-4.003c1.381,0.541,2.75,1.112,5.118,2.072
		c-0.864-3.031-1.471-5.354-2.188-7.644c-1.52-4.852-0.743-8.954,2.868-12.855c8.713-9.415,17.119-19.114,25.685-28.666
		c5.02-5.598,8.08-6.616,15-3.702c5.808,2.444,11.368,5.553,16.818,8.742c2.807,1.643,4.503,1.314,6.9-0.818
		c30.113-26.792,62.455-50.453,98.354-68.989c30.373-15.684,62.031-27.645,96.18-31.968c22.982-2.909,45.82-2.202,68.572,2.59
		c11.864,2.5,24.011,3.666,35.862,6.21c6.768,1.453,13.569,3.751,19.706,6.925c12.409,6.419,25.272,10.224,39.17,12.171
		c16.601,2.326,31.79,9.542,46.306,17.885c33.787,19.418,61.945,45.54,87.593,74.471c41.104,46.364,74.279,97.848,98.086,155.158
		c11.863,28.559,20.877,57.921,23.185,89.02c1.029,13.879,0.335,27.594-2.655,41.196c-0.249,1.133-0.364,2.793,0.26,3.539
		c3.938,4.711,3.457,9.902,0.691,14.444c-3.073,5.048-7.383,9.329-10.989,14.068c-1.639,2.153-3.562,4.436-4.201,6.952
		c-9.007,35.421-19.638,70.237-37.065,102.608c-1.185,2.2-2.494,4.335-3.638,6.556c-3.923,7.621-9.888,12.561-18.53,13.562
		c-3.79,0.439-5.208,2.403-6.234,5.819c-27.312,90.876-71.986,172.646-131.749,245.973
		c-44.056,54.055-94.786,101.096-155.226,136.807c-38.941,23.009-80.25,39.535-125.423,45.487
		c-33.051,4.354-65.299,0.573-97.467-7.528c-43.235-10.888-86.657-21.07-130.134-30.957
		c-50.583-11.502-89.129-39.813-117.509-82.595c-22.715-34.241-36.798-72.059-43.242-112.438
		c-4.69-29.396,5.259-54.825,25.796-76.145c10.949-11.367,23.577-20.578,37.309-28.284c10.033-5.631,15.219-4.865,22.31,4.479
		c9.964,13.13,19.762,26.419,28.947,40.1c22,32.767,36.788,68.761,48.569,106.369c12.314,39.311,32.519,74.486,62.668,103.144
		c14.353,13.642,8.478,12.233,27.64,7.403c49.917-12.583,93.176-38.088,132.779-70.196c44.53-36.103,80.817-79.503,112.739-126.963
		c43.564-64.769,75.745-134.898,100.828-208.521c3.756-11.026,6.923-22.254,10.651-33.291c1.187-3.51,0.523-5.668-2.205-8.127
		c-5.564-5.015-10.54-10.684-16.122-15.678c-8.953-8.009-10.99-18.063-10.163-29.453c0.797-10.953,1.189-21.951,1.267-32.933
		c0.019-2.685-1.274-5.888-3.005-8.001c-35.559-43.444-64.062-90.891-81.996-144.31c-8.478-25.252-14.127-51.086-12.563-77.941
		c0.529-9.104,2.314-18.136,3.552-27.196C564.691,177.017,565.038,175.433,565.54,172.651z M241.636,374.799
		c7.877-6.773,15.195-12.793,22.203-19.152c14.046-12.747,22.751-28.424,25.55-47.332c0.461-3.119-0.547-4.41-3.158-5.683
		c-14.659-7.142-29.289-14.348-43.802-21.78c-3.08-1.577-4.614-0.795-6.64,1.558c-15.377,17.855-28.616,37.151-40.091,57.733
		c-2.548,4.57-1.729,7.849,1.41,11.121c1.469,1.532,3.259,2.902,5.15,3.859C215.465,361.812,228.736,368.372,241.636,374.799z
		 M316.302,317.533c-10.609,28.979-33.023,47.383-56.306,65.775c14.409,6.181,27.657,11.984,41.005,17.549
		c9.925,4.138,15.946,1.874,21.14-7.565c1.042-1.894,1.837-3.925,2.903-5.803c9.023-15.905,18.084-31.788,27.132-47.679
		c0.624-1.096,1.237-2.196,1.994-3.542C341.631,330.065,329.435,324.03,316.302,317.533z M862.35,543.617
		c-10.818,0-21.125,0-32.09,0c9.774,4.969,19.182,9.749,29.066,14.773C860.411,553.09,861.299,548.752,862.35,543.617z"/>
</g>
</svg>
