<?xml version="1.0" encoding="iso-8859-1"?>
<!-- Generator: Adobe Illustrator 16.0.0, SVG Export Plug-In . SVG Version: 6.00 Build 0)  -->
<!DOCTYPE svg PUBLIC "-//W3C//DTD SVG 1.1//EN" "http://www.w3.org/Graphics/SVG/1.1/DTD/svg11.dtd">
<svg version="1.1" id="Layer_1" xmlns="http://www.w3.org/2000/svg" xmlns:xlink="http://www.w3.org/1999/xlink" x="0px" y="0px"
	 width="1120px" height="1060px" viewBox="0 0 1120 1060" enable-background="new 0 0 1120 1060" xml:space="preserve">
<g>
	<path fill-rule="evenodd" clip-rule="evenodd" d="M533.319,169.629c-11.856,6.731-23.391,12.161-33.681,19.367
		c-18.118,12.688-35.53,26.391-53.057,39.902c-1.539,1.186-1.788,4.082-2.563,6.211c-0.988,2.713-1.231,6.013-2.961,8.087
		c-8.321,9.977-16.88,19.77-25.727,29.282c-2.056,2.211-5.535,4.188-8.415,4.268c-3.638,0.1-5.687,1.279-7.883,3.871
		c-10.647,12.565-21.478,24.974-32.126,37.303c5.933,8.964,5.965,15.014-0.575,24.09c-6.227,8.642-13.262,16.698-19.56,25.292
		c-12.455,16.994-22.517,35.369-30.924,54.687c-2.45,5.629-5.031,11.321-8.438,16.388c-9.039,13.44-20.637,17.811-35.958,12.639
		c-19.705-6.651-39.125-14.163-58.57-21.562c-12.133-4.616-24.176-9.498-36.101-14.63c-25.639-11.033-34.555-31.198-25.734-57.775
		c10.821-32.602,25.992-63.08,45.038-91.64c2.029-3.043,4.272-5.965,6.64-8.754c5.504-6.484,8.359-7.036,16.088-3.802
		c1.347,0.564,2.979,0.445,4.48,0.641c-0.666-1.474-1.187-3.034-2.021-4.405c-3.854-6.34-8.047-12.489-11.609-18.986
		c-2.06-3.757-1.188-7.641,1.54-11.188c7.621-9.902,15.062-19.942,22.606-29.903c5.507-7.271,8.223-8.088,17.105-5.308
		c0.946,0.296,1.89,0.597,2.976,0.94c0.118-0.571,0.435-1.135,0.272-1.453c-4.598-9.002-1.486-15.918,5.016-22.794
		c7.31-7.73,13.688-16.339,20.534-24.512c5.296-6.322,8.384-7.277,16.15-4.236c5.567,2.18,11.027,4.742,16.256,7.637
		c3.09,1.711,4.827,1.118,7.232-1.175c29.919-28.518,62.387-53.64,98.881-73.288c29.992-16.148,61.408-28.21,95.484-32.193
		c20.477-2.395,40.861-1.758,61.137,2.446c9.428,1.954,18.994,3.315,28.547,4.574c11.56,1.524,22.265,5.349,32.546,10.711
		c10.021,5.227,20.922,7.138,32.065,8.307c13.151,1.379,25.643,5.366,37.771,10.572c30.251,12.985,56.413,32.124,80.364,54.305
		c57.422,53.178,101.693,115.662,131.234,188.284c11.615,28.554,19.516,58.107,19.826,89.169c0.089,8.885-1.673,17.783-2.459,26.688
		c-0.133,1.509-0.161,3.53,0.687,4.537c4.067,4.833,3.762,10.193,0.959,14.907c-3.273,5.506-7.836,10.234-11.672,15.424
		c-1.507,2.037-3.178,4.267-3.728,6.65c-7.875,34.119-17.026,67.813-32.115,99.601c-1.57,3.31-3.374,6.513-4.853,9.86
		c-4.041,9.146-10.53,15.326-20.624,16.983c-3.206,0.526-4.32,2.344-5.085,5.185c-23.715,88.092-63.539,168.481-118.049,241.35
		c-45.681,61.065-99.365,113.984-165.8,152.745c-34.265,19.991-70.722,34.129-110.188,39.729
		c-26.133,3.708-52.079,2.332-77.993-2.655c-48.194-9.273-96.473-18.106-144.713-27.146c-46.366-8.688-83.167-32.801-111.786-69.823
		c-27.222-35.216-42.896-75.634-52.852-118.6c-10.29-44.413,5.645-78.967,40.001-106.481c6.863-5.497,14.333-10.307,21.848-14.902
		c8.536-5.22,13.973-4.299,20.516,3.53c7.473,8.942,14.68,18.129,21.606,27.503c25.88,35.027,44.741,73.435,57.225,115.271
		c10.726,35.944,28.009,68.79,53.043,97.042c7.922,8.94,17.181,16.689,25.724,25.09c2.684,2.639,5.33,2.945,8.955,1.952
		c33.658-9.218,64.219-24.857,92.725-44.668c52.472-36.466,93.989-83.269,129.223-136.227
		c53.448-80.336,89.365-168.222,114.374-260.968c0.897-3.328,0.205-5.104-2.236-7.227c-6.535-5.684-12.772-11.707-19.218-17.496
		c-5.814-5.223-8.624-11.833-8.721-19.465c-0.164-12.826-0.159-25.66,0.125-38.483c0.145-6.506-1.792-11.569-6.177-16.613
		c-35.165-40.447-63.504-85.112-81.967-135.658c-10.131-27.736-16.848-56.176-14.773-85.989
		C529.942,192.079,531.793,181.594,533.319,169.629z M269.836,308.919c-0.987-0.778-2.26-2.263-3.874-2.981
		c-15.048-6.696-30.181-13.205-45.222-19.918c-2.691-1.2-4.235-1.055-6.234,1.435c-14.442,17.987-26.801,37.29-37.249,57.838
		c-3.742,7.358-2.81,11.653,4.752,15.229c13.379,6.329,27.045,12.058,40.658,17.88c1.002,0.429,2.942,0.029,3.774-0.726
		c6.157-5.589,12.141-11.367,18.182-17.083C259.115,346.882,267.342,330.073,269.836,308.919z M296.801,319.377
		c-9.497,29.286-31.04,48.618-53.818,67.731c15.171,5.629,28.982,10.937,42.926,15.863c9.366,3.31,15.25,0.812,19.903-7.872
		c1.49-2.78,2.553-5.787,3.997-8.595c7.444-14.483,14.929-28.945,22.454-43.387c1.126-2.16,2.54-4.171,3.985-6.518
		C323.093,330.856,310.469,325.345,296.801,319.377z M842.648,536.615c-12.344,0-24.2,0-36.752,0
		c11.589,5.057,22.579,9.852,34.002,14.836C840.928,545.896,841.8,541.19,842.648,536.615z"/>
</g>
</svg>
