<?xml version="1.0" encoding="iso-8859-1"?>
<!-- Generator: Adobe Illustrator 16.0.0, SVG Export Plug-In . SVG Version: 6.00 Build 0)  -->
<!DOCTYPE svg PUBLIC "-//W3C//DTD SVG 1.1//EN" "http://www.w3.org/Graphics/SVG/1.1/DTD/svg11.dtd">
<svg version="1.1" id="Layer_1" xmlns="http://www.w3.org/2000/svg" xmlns:xlink="http://www.w3.org/1999/xlink" x="0px" y="0px"
	 width="1120px" height="1060px" viewBox="0 0 1120 1060" enable-background="new 0 0 1120 1060" xml:space="preserve">
<g>
	<path fill-rule="evenodd" clip-rule="evenodd" d="M406.819,174.692c-12,12.161-24.011,24.31-35.984,36.497
		c-1.749,1.779-3.237,3.815-4.979,5.604c-2.455,2.521-3.611,4.944-2.52,8.829c0.644,2.292-0.551,5.64-1.942,7.875
		c-6.954,11.172-14.057,22.266-21.565,33.068c-1.706,2.455-5.047,4.608-7.966,5.162c-3.182,0.604-4.903,1.823-6.516,4.388
		c-8.413,13.378-16.977,26.661-25.66,40.247c7.852,4.87,7.36,11.867,5.145,18.74c-1.562,4.848-4.08,9.495-6.787,13.848
		c-15.521,24.956-26.43,51.811-34.38,80.048c-2.077,7.376-5.566,14.673-9.847,21.037c-6.885,10.236-17.543,13.634-29.453,11.606
		c-22.142-3.77-44.221-7.92-66.277-12.167c-12.415-2.391-24.772-5.116-37.084-7.998c-26.664-6.238-39.548-24.704-34.881-51.532
		c6.282-36.116,17.724-70.666,33.989-103.568c0.59-1.193,1.25-2.355,1.937-3.495c4.769-7.907,7-8.855,15.877-6.852
		c1.524,0.344,3.073,0.582,4.611,0.868c0.253-0.41,0.506-0.819,0.759-1.229c-1.088-1.158-2.04-2.499-3.289-3.445
		c-6.73-5.094-11.444-11.72-13.974-19.645c-0.87-2.725-0.867-6.514,0.377-8.993c6.197-12.352,12.954-24.423,19.484-36.607
		c2.281-4.256,5.832-6.206,10.597-6.167c1.448,0.013,2.897-0.121,5.515-0.242c-6.418-9.06-1.167-15.823,3.149-22.841
		c5.498-8.94,11.016-17.874,16.217-26.986c3.281-5.748,8.138-7.828,14.244-6.8c5.72,0.964,11.513,2.132,16.912,4.169
		c5.024,1.896,7.584,0.344,10.679-3.563c24.115-30.444,51.093-58.008,82.934-80.497C332.243,45.614,360.208,31.264,392,25.366
		c21.251-3.943,42.361-3.822,63.408,1.326c2.557,0.626,5.265,1.133,7.866,0.998c12.935-0.667,25.021,2.211,36.881,7.291
		c5.354,2.293,11.378,3.593,17.205,4.096c16.042,1.386,32.237,1.326,48.19,3.306c18.72,2.323,36.639,8.29,53.956,15.803
		c44.936,19.493,83.618,48.073,118.416,82.151c37.209,36.44,68.294,77.397,90.563,124.703c11.055,23.48,19.192,47.918,22.377,73.753
		c1.454,11.799,1.966,23.714-0.509,35.56c-0.249,1.194,1.231,3.304,2.478,4.157c4.495,3.077,5.577,7.392,4.636,12.234
		c-1.842,9.474-7.227,16.994-13.579,24.038c-1.958,2.171-3.613,5.209-4.058,8.061c-5.714,36.688-11.479,73.351-23.762,108.598
		c-0.657,1.887-1.524,3.715-2.017,5.641c-2.925,11.445-10.098,18.89-21.206,22.59c-3.214,1.07-4.459,2.954-4.989,6.439
		c-14.692,96.595-47.522,186.647-99.359,269.437c-28.688,45.816-62.661,87.476-104.664,122.068
		c-28.819,23.734-60.177,42.857-96.197,53.712c-23.23,6.999-46.969,8.872-71.116,8.336c-43.318-0.961-86.646-1.512-129.971-2.093
		c-21.854-0.293-43.616-0.85-64.655-7.913c-35.916-12.058-63.611-35.064-86.134-64.779c-30.331-40.016-47.958-85.79-59.722-134.104
		c-7.401-30.397-2.23-58.896,13.981-85.397c10.547-17.242,24.235-31.731,40.483-43.774c1.202-0.891,2.475-1.694,3.757-2.468
		c9.207-5.556,14.108-5.196,21.881,2.222c19.599,18.7,36.968,39.273,52.012,61.845c16.332,24.504,26.665,51.592,36.154,79.264
		c14.364,41.891,35.238,80.228,66.888,111.822c8.446,8.432,18.39,15.345,27.362,23.275c4.028,3.562,7.193,2.819,11.408,0.356
		c29.963-17.509,55.598-40.05,78.29-66.159c34.361-39.537,59.117-84.85,80.3-132.383c26.035-58.42,42.875-119.622,55.32-182.142
		c3.475-17.452,5.952-35.103,8.998-52.643c0.501-2.884-0.288-4.529-2.839-6.073c-6.694-4.053-12.996-8.775-19.795-12.631
		c-10.647-6.038-13.953-15.818-15.294-27.044c-1.834-15.355-3.791-30.702-6.171-45.979c-0.493-3.162-2.482-6.58-4.775-8.898
		c-25.451-25.735-50.523-51.775-70.445-82.235c-21.25-32.489-37.981-66.898-44.156-105.668c-2.998-18.821-3.982-37.739-1.527-56.732
		c0.16-1.238,0.021-2.516,0.021-3.774C407.535,175.269,407.177,174.98,406.819,174.692z M199.859,326.292
		c1.042-3.233-0.936-5.009-5.489-6.034c-16.533-3.721-32.984-7.812-49.41-11.984c-3.136-0.797-4.718-0.188-6.355,2.63
		c-11.911,20.498-21.553,42-28.688,64.593c-0.597,1.892,0.152,4.961,1.443,6.511c1.703,2.042,4.376,3.82,6.952,4.498
		c14.941,3.93,29.965,7.547,45.001,11.104c1.07,0.253,2.899-0.451,3.62-1.33c4.736-5.779,9.118-11.852,13.89-17.6
		C193.117,363.871,198.571,346.589,199.859,326.292z M185.171,402.502c4.083,0.847,6.831,1.453,9.593,1.984
		c12.237,2.354,24.453,4.835,36.727,6.98c10.259,1.794,16.129-1.728,19.816-11.479c1.055-2.789,1.657-5.746,2.642-8.565
		c5.477-15.681,11.004-31.345,16.525-47.01c0.531-1.507,1.141-2.985,1.906-4.976c-14.923-3.642-29.354-7.163-44.473-10.853
		C222.454,358.189,205.565,380.863,185.171,402.502z M719.117,510.034c14.413,3.158,30.207,6.618,46.479,10.184
		c0.5-6.517,0.953-12.42,1.334-17.386C750.479,505.311,734.215,507.76,719.117,510.034z M613.23,483.299
		c-0.371,0.639-0.741,1.278-1.112,1.917c3.459,3.873,9.105,2.445,13.672,3.666C621.604,487.021,617.417,485.16,613.23,483.299z"/>
</g>
</svg>
