<?xml version="1.0" encoding="iso-8859-1"?>
<!-- Generator: Adobe Illustrator 16.0.0, SVG Export Plug-In . SVG Version: 6.00 Build 0)  -->
<!DOCTYPE svg PUBLIC "-//W3C//DTD SVG 1.1//EN" "http://www.w3.org/Graphics/SVG/1.1/DTD/svg11.dtd">
<svg version="1.1" id="Layer_1" xmlns="http://www.w3.org/2000/svg" xmlns:xlink="http://www.w3.org/1999/xlink" x="0px" y="0px"
	 width="1120px" height="1060px" viewBox="0 0 1120 1060" enable-background="new 0 0 1120 1060" xml:space="preserve">
<g>
	<path fill-rule="evenodd" clip-rule="evenodd" d="M694.83,195.722c-15.699,4.971-30.91,9.235-45.727,14.593
		c-29.242,10.574-56.703,24.858-82.959,41.492c-2.422,1.534-3.957,2.809-3.398,6.225c0.301,1.833-1.1,4.671-2.645,5.962
		c-10.871,9.072-21.864,18.009-33.123,26.588c-1.846,1.406-5.19,0.876-7.849,1.175c-1.629,0.184-3.79-0.396-4.832,0.451
		c-14.081,11.443-28.009,23.073-41.963,34.671c-0.631,0.524-1.148,1.185-1.688,1.749c4.643,9.221,3.475,15.075-5.144,23.141
		c-7.904,7.396-16.284,14.287-24.121,21.751c-15.505,14.77-28.657,31.494-40.793,49.126c-4.458,6.477-9.919,12.58-15.993,17.544
		c-7.379,6.031-16.224,6.389-24.917,2.002c-2.67-1.347-5.364-2.739-7.782-4.479c-25.962-18.679-51.943-37.332-77.748-56.227
		c-7.272-5.325-13.961-11.479-17.375-20.209c-5.089-13.015-4.39-25.861,2.186-38.136c17.527-32.714,39.968-61.755,66.391-87.754
		c2.01-1.978,4.237-3.783,6.561-5.381c5.847-4.018,8.725-3.805,14.439,0.237c1.212,0.857,3.002,0.899,4.526,1.317
		c-0.423-1.43-0.658-2.951-1.302-4.273c-2.975-6.104-6.276-12.06-9.032-18.259c-1.691-3.805-0.792-7.28,2.581-10.287
		c9.948-8.87,19.79-17.865,29.483-27.013c3.93-3.708,7.796-4.104,12.106-1.154c3.927,2.688,7.767,5.505,12.272,8.711
		c-1.352-5.157-2.508-9.628-3.698-14.091c-1.326-4.972-0.315-8.858,3.996-12.299c10.286-8.209,20.339-16.718,30.286-25.337
		c4.084-3.539,8.109-3.809,12.219-0.81c6.041,4.407,11.84,9.146,17.365,13.45c17.988-10.943,35.634-22.318,53.874-32.646
		c41.684-23.605,85.65-41.557,132.818-50.888c31.111-6.155,62.402-7.794,93.818-2.052c1.119,0.205,2.504,0.437,3.432-0.021
		c10.197-5.049,20.441-2.604,30.098,0.844c12.666,4.521,24.926,10.231,37.197,15.786c6.42,2.905,12.281,6.461,19.562,7.896
		c18.988,3.745,34.342,14.862,48.754,27.143c26.461,22.547,47.83,49.613,67.791,77.82c46.666,65.945,80.576,137.854,99.795,216.438
		c5.557,22.724,8.93,45.842,5.498,69.32c-0.926,6.335-3.297,12.446-4.697,18.729c-0.494,2.217,0.146,4.661-0.109,6.96
		c-0.426,3.816-0.158,8.205-2.004,11.245c-2.42,3.982-6.727,6.781-9.996,10.299c-1.943,2.09-4.115,4.34-5.061,6.929
		c-12.045,33.021-26.928,64.533-48.1,92.825c-5.371,7.176-11.416,12.467-21.262,11.502c-1.389-0.136-3.729,2.264-4.498,3.992
		c-16.029,36.001-34.975,70.402-56.834,103.166c-50.971,76.401-113.195,142.19-186.943,196.974
		c-42.551,31.609-87.701,58.79-137.043,78.565c-36.347,14.567-73.807,24.619-112.974,28.075
		c-52.274,4.612-101.558-4.503-148.352-28.838c-40.771-21.202-82.318-40.91-123.52-61.284
		c-46.02-22.756-76.772-59.252-95.369-106.505c-6.466-16.43-12.328-33.146-13.141-51.029c-0.92-20.236,6.345-37.179,21.733-50.404
		c11.796-10.138,24.395-19.09,39.07-24.74c11.141-4.289,16.793-2.804,23.202,7.416c9.287,14.812,18.428,29.733,27.074,44.925
		c17.264,30.336,31.077,62.213,42.041,95.374c8.062,24.385,20.123,46.75,35.809,67.149c2.24,2.913,4.609,4.052,8.337,4.182
		c54.407,1.901,105.11-12.593,153.977-34.868c62.566-28.52,117.318-68.389,166.051-116.561
		c61.227-60.521,111.914-129.068,152.613-204.872c13.459-25.066,25.188-51.06,37.82-76.572c1.617-3.263,1.291-5.649-0.902-8.559
		c-5.412-7.182-10.361-14.71-15.658-21.979c-4.824-6.619-6.119-13.873-4.668-21.798c1.32-7.201,2.873-14.382,3.674-21.643
		c0.33-3.003-0.207-6.696-1.748-9.224c-27.096-44.461-48.975-91.232-62.873-141.521c-7.078-25.61-11.926-51.588-10.377-78.376
		C695.102,198.726,694.986,198.07,694.83,195.722z M324.31,358.824c8.237-5.35,15.81-10.176,23.29-15.144
		c16.054-10.664,27.759-24.691,33.521-43.363c1.022-3.312,0.585-5.461-2.407-7.569c-5.168-3.641-10.007-7.749-14.984-11.661
		c-8.468-6.658-16.935-13.315-25.529-20.073c-1.752,1.467-3.173,2.605-4.538,3.806c-17.194,15.125-32.778,31.752-46.599,50.018
		c-3.866,5.109-3.942,7.566-0.243,12.88c1.13,1.623,2.452,3.211,3.984,4.442C301.963,341.127,313.198,350,324.31,358.824z
		 M340.1,370.625c12.765,8.977,24.612,17.515,36.682,25.725c8.376,5.698,14.045,4.546,20.156-3.46c1.11-1.454,2.05-3.04,3.178-4.48
		c11.897-15.193,23.816-30.368,35.727-45.551c0.773-0.986,1.522-1.991,2.426-3.175c-10.886-8.542-21.451-16.833-32.668-25.637
		C390.255,340.391,365.506,355.287,340.1,370.625z M931.59,564.249c-0.146,0.241-0.291,0.482-0.438,0.725
		c3.977,3.454,7.953,6.908,12.354,10.73c1.021-3.088,1.73-5.229,2.555-7.718C941.023,566.685,936.307,565.467,931.59,564.249z"/>
</g>
</svg>
