<?xml version="1.0" encoding="iso-8859-1"?>
<!-- Generator: Adobe Illustrator 16.0.0, SVG Export Plug-In . SVG Version: 6.00 Build 0)  -->
<!DOCTYPE svg PUBLIC "-//W3C//DTD SVG 1.1//EN" "http://www.w3.org/Graphics/SVG/1.1/DTD/svg11.dtd">
<svg version="1.1" id="Layer_1" xmlns="http://www.w3.org/2000/svg" xmlns:xlink="http://www.w3.org/1999/xlink" x="0px" y="0px"
	 width="1120px" height="1060px" viewBox="0 0 1120 1060" enable-background="new 0 0 1120 1060" xml:space="preserve">
<g>
	<path fill-rule="evenodd" clip-rule="evenodd" d="M357.122,186.547c-8.229,10.217-16.08,19.868-23.761,29.653
		c-0.72,0.917-0.353,2.678-0.514,4.045c-0.432,3.662,0.091,7.821-1.49,10.896c-5.708,11.101-12.186,21.804-18.248,32.726
		c-2.266,4.081-5.403,6.586-10.072,7.35c-1.274,0.209-2.906,1.07-3.505,2.126c-8.046,14.168-15.939,28.423-23.825,42.576
		c7.336,5.704,9.213,11.63,5.478,21.081c-3.416,8.642-7.982,16.825-12.007,25.228c-10.702,22.345-17.971,45.82-23.072,70.016
		c-0.617,2.926-1.398,5.842-2.395,8.66c-6.364,17.986-19.122,26.678-38.033,24.511c-28.928-3.314-57.772-7.369-86.639-11.202
		c-6.926-0.919-13.854-1.958-20.693-3.364c-22.696-4.664-36.403-22.106-34.054-45.133c3.893-38.162,13.708-74.927,28.88-110.185
		c4.373-10.161,6.449-10.991,17.298-9.328c1.303,0.199,2.638,0.19,3.958,0.278c0.487-0.735,0.975-1.471,1.462-2.207
		c-1.077-0.38-2.356-0.509-3.194-1.186c-3.226-2.606-6.728-5.037-9.366-8.173c-7.069-8.402-10.635-17.163-4.035-28.093
		c4.789-7.932,8.143-16.766,11.771-25.352c3.065-7.253,6.953-13.049,17.191-12.065c-6.33-9.898-0.55-17.083,3.33-24.629
		c3.959-7.702,7.915-15.407,11.894-23.1c5.269-10.185,10.1-12.559,21.414-10.546c1.636,0.291,3.393,0.355,4.866,1.026
		c9.653,4.395,14.809,0.395,20.624-7.902c25.026-35.71,54.375-67.414,90.868-91.89c23.985-16.087,49.891-27.322,78.879-30.471
		c15.193-1.649,30.258-0.912,45.146,2.772c1.894,0.469,3.95,0.71,5.881,0.527c11.524-1.09,22.723,0.271,33.161,5.27
		c7.949,3.807,16.072,4.386,24.71,4.35c22.399-0.095,44.907-1.436,67.088,3.165c24.426,5.066,47.855,13.158,69.961,24.669
		c81.535,42.462,144.805,103.493,187.139,185.507c9.736,18.862,17.125,38.767,20.812,59.668c2.107,11.943,1.887,24.303,2.611,36.48
		c0.201,3.393,0.031,6.808-0.795,10.248c0.125,0.3,0.166,0.738,0.391,0.88c9.09,5.708,11.197,10.309,6.785,20.183
		c-3.271,7.318-8.451,13.775-12.654,20.692c-1.395,2.295-3.139,4.735-3.457,7.269c-3.941,31.21-7.428,62.49-14.92,93.123
		c-2.094,8.563-4.865,16.961-7.031,25.51c-2.51,9.904-8.09,17.188-17.719,20.714c-5.844,2.141-7.6,6.058-8.158,11.86
		c-3.795,39.37-11.393,78.066-22.258,116.06c-24.482,85.609-61.379,165.035-118.711,233.971
		c-27.477,33.036-58.646,61.891-96.897,82.353c-28.744,15.376-59.418,22.863-91.962,23.789c-28.808,0.819-57.592,2.442-86.388,3.682
		c-23.801,1.024-47.597,2.292-71.409,2.946c-39.695,1.092-73.441-13.746-102.734-39.678c-28.74-25.441-48.761-57.144-64.579-91.677
		c-12.299-26.852-22.125-54.618-28.346-83.54c-6.571-30.549-0.27-58.912,15.821-85.234c10.685-17.48,23.703-33.061,40.758-44.763
		c9.45-6.484,14.172-6.095,22.727,1.485c39.96,35.411,71.189,76.694,88.001,128.176c12.175,37.282,29.574,72.076,53.971,103.069
		c13.9,17.658,29.891,33.098,48.497,45.823c3.485,2.384,5.8,2.157,9.126-0.223c36.575-26.167,64.66-59.953,87.431-98.268
		c31.805-53.516,53.371-111.259,68.767-171.397c13.192-51.528,21.994-103.831,27.088-156.773c0.322-3.341-0.456-5.153-3.474-6.673
		c-5.946-2.993-11.48-6.865-17.557-9.525c-13.658-5.979-18.121-17.295-20.188-30.942c-2.387-15.764-5.744-31.389-9.002-47.007
		c-0.528-2.53-2.322-5.132-4.226-6.989c-25.042-24.433-50.779-48.186-71.542-76.634c-26.2-35.896-45.721-74.694-51.642-119.276
		C358.61,214.393,358.227,201.069,357.122,186.547z M113.974,317.046c-11.425,21.949-19.97,44.582-26.435,68.067
		c-1.223,4.443,0.013,7.101,3.422,9.216c1.947,1.209,4.125,2.348,6.342,2.771c16.128,3.084,32.292,5.978,47.13,8.691
		c18.749-23.154,34.045-46.769,29.91-78.084C154.545,324.211,134.472,320.666,113.974,317.046z M165.705,408.715
		c4.697,0.694,8.104,1.289,11.532,1.689c13.212,1.543,26.41,3.287,39.658,4.417c6.572,0.56,11.545-2.84,14.172-9.001
		c1.229-2.881,2.013-5.963,2.86-8.993c4.431-15.847,8.788-31.713,13.246-47.552c0.746-2.649,1.858-5.195,2.963-8.234
		c-15.779-2.771-30.948-5.434-46.791-8.215C199.707,362.447,184.436,386.051,165.705,408.715z M736.896,486.6
		c-18.01,7.519-35.992,10.611-54.422,12.24c17.664,2.547,35.328,5.094,53.424,7.703C736.24,499.718,736.545,493.611,736.896,486.6z
		 M595.373,486.174c0.09-0.342,0.18-0.684,0.27-1.025c-6.709-2.412-13.42-4.824-20.363-7.32c-0.402,1.951-0.689,3.346-1.084,5.251
		C581.43,484.137,588.402,485.155,595.373,486.174z"/>
</g>
</svg>
