<?xml version="1.0" encoding="iso-8859-1"?>
<!-- Generator: Adobe Illustrator 16.0.0, SVG Export Plug-In . SVG Version: 6.00 Build 0)  -->
<!DOCTYPE svg PUBLIC "-//W3C//DTD SVG 1.1//EN" "http://www.w3.org/Graphics/SVG/1.1/DTD/svg11.dtd">
<svg version="1.1" id="Layer_1" xmlns="http://www.w3.org/2000/svg" xmlns:xlink="http://www.w3.org/1999/xlink" x="0px" y="0px"
	 width="1120px" height="1060px" viewBox="0 0 1120 1060" enable-background="new 0 0 1120 1060" xml:space="preserve">
<g>
	<path fill-rule="evenodd" clip-rule="evenodd" d="M606.614,177.643c-16.291,7.317-31.801,13.738-46.817,21.156
		c-21.86,10.8-42.136,24.245-61.562,38.977c-2.178,1.651-3.158,3.017-2.699,6.111c0.323,2.174-1.13,5.285-2.805,6.972
		c-9.625,9.694-19.438,19.21-29.479,28.471c-1.826,1.685-5.133,2.902-7.517,2.578c-3.674-0.5-5.764,0.727-8.145,3.142
		c-10.752,10.907-21.695,21.625-32.536,32.444c-1.397,1.395-2.6,2.985-4.009,4.621c5.413,4.941,4.98,10.676,1.872,16.027
		c-2.725,4.691-6.104,9.178-9.928,13.026c-20.951,21.09-38.327,44.733-52.159,71.044c-2.696,5.129-5.734,10.226-9.434,14.652
		c-10.049,12.023-21.425,14.663-35.718,8.177c-11.821-5.365-23.425-11.234-34.947-17.224c-17.584-9.141-35.07-18.477-52.49-27.927
		c-9.19-4.985-17.567-11.142-22.174-20.923c-5.541-11.765-5.612-23.913-0.708-35.885c14.32-34.958,33.819-66.812,58.065-95.764
		c1.491-1.781,3.156-3.453,4.925-4.958c5.299-4.507,8.308-4.651,14.452-1.344c1.39,0.748,3.176,0.762,4.78,1.113
		c-0.554-1.514-0.926-3.128-1.692-4.525c-3.422-6.235-7.173-12.3-10.372-18.645c-1.964-3.897-1.023-7.608,2.076-10.982
		c8.791-9.571,17.362-19.344,26.07-28.992c5.178-5.737,7.346-6.201,14.426-3.177c2.425,1.036,4.751,2.305,7.741,3.77
		c-0.988-3.688-1.805-6.834-2.676-9.965c-1.274-4.58-0.269-8.326,3.226-11.776c9.249-9.13,18.244-18.516,27.391-27.75
		c5.14-5.188,8.523-5.832,15.136-2.473c4.146,2.106,8.07,4.668,12.02,7.144c7.02,4.402,6.944,4.374,13.257-0.693
		c29.844-23.959,61.489-45.154,95.996-61.861c33.486-16.213,68.278-28.188,105.556-31.951c17.162-1.731,34.283-1.584,51.316,1.109
		c17.053,2.697,34.201,5.064,51.017,8.864c9.283,2.098,18.232,6.302,26.85,10.536c8.744,4.297,17.565,7.315,27.241,8.969
		c18.855,3.221,35.428,12.269,51.102,22.882c31.363,21.236,57.373,48.16,80.9,77.533c44.546,55.618,79.626,116.526,101.318,184.688
		c7.708,24.22,13.131,48.984,12.219,74.57c-0.357,10.013-2.807,19.948-4.226,29.93c-0.142,0.998-0.087,2.334,0.467,3.069
		c3.127,4.159,2.868,8.765,0.52,12.678c-2.784,4.64-6.248,9.093-10.244,12.715c-3.293,2.985-5.081,6.188-6.216,10.328
		c-9.459,34.496-21.826,67.804-40.16,98.722c-5.442,9.179-11.625,16.594-23.313,17.232c-1.346,0.073-3.135,2.546-3.73,4.251
		c-10.352,29.595-22.419,58.462-36.705,86.369c-37.813,73.875-85.771,140.285-145.739,197.871
		c-41.939,40.272-87.655,75.321-139.68,101.699c-34.542,17.515-70.748,30.085-109.225,35.399
		c-35.782,4.942-71.079,2.671-105.711-8.098c-46.728-14.531-93.394-29.268-140.251-43.369
		c-56.5-17.003-95.557-53.782-121.44-105.695c-12.251-24.572-21.073-50.402-25.202-77.606c-4.402-29,4.366-53.99,26.13-73.42
		c10.959-9.784,23.608-17.81,36.052-25.754c9.992-6.379,15.574-4.944,22.651,4.493c23.674,31.566,44.477,64.903,59.201,101.62
		c7.797,19.443,13.605,39.678,21.165,59.225c12.158,31.436,29.812,59.465,53.868,83.326c3.717,3.688,7.171,5.301,12.67,4.517
		c38.943-5.558,75.019-19.193,109.348-37.938c52.859-28.862,97.891-67.395,137.209-112.633
		c51.949-59.77,93.687-126.221,125.697-198.588c13.186-29.81,24.207-60.574,36.349-90.851c1.373-3.426,0.943-5.731-1.635-8.389
		c-5.567-5.735-10.607-11.981-16.181-17.711c-7.521-7.731-9.203-16.964-8.118-27.213c0.946-8.935,1.38-17.927,2.479-26.84
		c0.689-5.594-1.316-9.695-4.593-14.062c-30.599-40.775-55.069-84.902-71.516-133.268c-9.707-28.547-16.408-57.69-14.511-88.141
		C603.604,195.356,605.23,187.508,606.614,177.643z M265.95,369.13c8.123-6.373,15.358-11.967,22.501-17.673
		c13.136-10.492,22.136-23.819,26.901-39.944c3.036-10.272,2.966-10.295-6.048-15.457c-1.444-0.827-2.903-1.629-4.346-2.459
		c-12.087-6.951-24.171-13.907-36.138-20.793c-12.294,10.955-32.541,37.261-45.366,57.38c-4.711,7.391-3.117,11.479,3.489,15.807
		C239.713,354.356,253.189,361.644,265.95,369.13z M343.182,315.65c-12.237,28.173-35.202,45.611-59.667,62.988
		c14.271,7.188,27.368,13.979,40.644,20.398c8.585,4.15,14.482,2.225,19.603-5.716c0.99-1.536,1.757-3.215,2.732-4.762
		c10.373-16.455,20.767-32.897,31.151-49.346c0.511-0.809,0.975-1.647,1.621-2.742C367.385,329.616,355.746,322.899,343.182,315.65z
		 M860.359,551.086c9.024,5.457,16.714,10.106,24.922,15.07c1.112-4.522,2.039-8.29,2.98-12.118
		C879.14,553.073,870.486,552.157,860.359,551.086z"/>
</g>
</svg>
