<?xml version="1.0" encoding="iso-8859-1"?>
<!-- Generator: Adobe Illustrator 16.0.0, SVG Export Plug-In . SVG Version: 6.00 Build 0)  -->
<!DOCTYPE svg PUBLIC "-//W3C//DTD SVG 1.1//EN" "http://www.w3.org/Graphics/SVG/1.1/DTD/svg11.dtd">
<svg version="1.1" id="Layer_1" xmlns="http://www.w3.org/2000/svg" xmlns:xlink="http://www.w3.org/1999/xlink" x="0px" y="0px"
	 width="1120px" height="1060px" viewBox="0 0 1120 1060" enable-background="new 0 0 1120 1060" xml:space="preserve">
<g>
	<path fill-rule="evenodd" clip-rule="evenodd" d="M705.918,198.853c-27.215,5.9-52.871,14.192-77.195,25.987
		c-18.555,8.997-36.469,19.32-54.559,29.253c-1.486,0.815-3.025,3.188-2.98,4.795c0.098,3.604-1.23,5.983-3.926,8.084
		c-10.383,8.091-20.751,16.203-31.015,24.443c-3.223,2.588-6.385,3.168-10.178,1.491c-0.963-0.426-2.725-0.342-3.493,0.281
		c-14.865,12.055-29.638,24.225-44.423,36.378c-0.111,0.092-0.13,0.295-0.192,0.446c4.299,7.539,4.112,12.046-1.757,18.861
		c-3.345,3.885-7.283,7.325-11.261,10.591c-22.313,18.314-41.544,39.405-57.739,63.299c-2.703,3.988-5.566,7.939-8.844,11.453
		c-11.62,12.459-23.845,13.982-37.921,4.48c-10.213-6.895-20.174-14.181-30.037-21.573c-15.598-11.692-31.042-23.593-46.498-35.474
		c-3.033-2.331-5.932-4.862-8.711-7.493c-14.742-13.955-18.586-33.63-8.966-51.535c18.208-33.892,41.906-63.654,69.927-89.985
		c1.331-1.25,2.8-2.372,4.3-3.42c6.193-4.325,9.043-4.173,15.257,0.31c1.099,0.793,2.739,0.836,4.129,1.225
		c-0.357-1.409-0.497-2.922-1.108-4.211c-2.977-6.285-6.226-12.445-9.082-18.783c-1.604-3.559-0.562-6.688,2.462-9.363
		c10.11-8.942,20.178-17.936,30.111-27.073c3.995-3.675,7.944-3.835,12.153-0.822c4.044,2.894,7.963,5.966,12.352,9.272
		c-1.409-6.035-3.2-11.583-3.81-17.257c-0.286-2.656,0.882-6.507,2.811-8.19c10.662-9.313,21.793-18.087,32.693-27.131
		c3.477-2.885,7.103-3.039,10.539-0.526c4.96,3.628,9.871,7.399,14.333,11.608c2.898,2.734,4.855,2.564,7.994,0.45
		c40.787-27.482,83.89-50.499,130.536-66.436c39.221-13.399,79.355-21.497,121.09-19.297c4.816,0.254,9.631,0.698,14.422,1.25
		c6.984,0.805,13.49,1.897,20.889-0.543c8.889-2.933,18.658-0.38,27.285,3.316c13.904,5.958,27.457,12.736,41.16,19.165
		c1.49,0.699,2.934,1.808,4.49,2.004c20.402,2.566,36.615,13.482,51.805,26.187c25.256,21.126,45.525,46.745,64.652,73.285
		c46.842,65.001,81.059,136.111,101.213,213.678c4.869,18.741,7.42,38.208,9.518,57.506c1.586,14.566-0.34,29.204-6.096,43.072
		c-0.795,1.92,0.301,4.543,0.041,6.784c-0.422,3.648-0.258,7.899-2.123,10.718c-2.674,4.043-7.045,6.935-10.502,10.501
		c-1.77,1.826-3.719,3.83-4.58,6.13c-11.973,31.976-26.727,62.466-47.348,89.87c-1.898,2.524-3.943,4.959-6.109,7.258
		c-3.855,4.094-8.646,6.501-14.301,5.704c-4.164-0.587-5.779,1.186-7.365,4.657c-40.787,89.25-98.564,166.312-169.525,233.553
		c-51.646,48.938-108.566,90.849-172.26,123.088c-41.236,20.871-84.261,36.58-129.991,44.206
		c-51.371,8.567-102.084,7.021-150.696-13.379c-21.443-8.998-41.852-20.497-62.587-31.14c-29.486-15.136-58.745-30.718-88.273-45.77
		c-49.019-24.986-80.352-64.782-97.537-116.281c-3.716-11.138-6.537-22.756-8.128-34.378c-2.49-18.185,3.165-34.452,16.225-47.403
		c12.628-12.521,27.114-22.59,43.988-28.81c11.136-4.104,16.214-2.614,22.774,7.489c6.348,9.775,12.411,19.746,18.322,29.795
		c21.095,35.857,38.336,73.46,51.539,112.954c6.798,20.336,17.092,38.977,29.371,56.585c3.509,5.033,7.348,6.969,13.483,7.176
		c40.178,1.361,78.923-5.844,116.676-18.969c76.022-26.43,141.843-69.542,200.152-124.346
		c87.408-82.152,153.133-179.676,202.557-288.58c1.488-3.281,1.441-5.545-0.754-8.514c-5.344-7.229-10.098-14.894-15.357-22.188
		c-4.928-6.832-5.982-14.275-4.5-22.311c1.27-6.873,2.83-13.709,3.691-20.633c0.332-2.678-0.178-5.985-1.539-8.271
		c-27.393-46.045-49.404-94.387-62.873-146.391C708.643,247.566,704.656,223.815,705.918,198.853z M331.673,357.874
		c8.797-5.608,17.055-10.62,25.048-16.022c15.501-10.479,26.92-24.149,32.504-42.337c0.932-3.034,0.495-4.881-2.037-6.813
		c-5.559-4.245-10.899-8.777-16.325-13.196c-7.982-6.5-15.961-13.003-24.076-19.615c-19.248,15.952-36.271,33.464-51.37,52.856
		c-4.287,5.505-4.365,8.475-0.197,14.15c0.98,1.335,2.089,2.634,3.357,3.687C309.595,339.725,320.661,348.808,331.673,357.874z
		 M413.286,314.068c-15.632,26.279-40.678,40.771-66.051,55.908c13.057,9.495,25.145,18.574,37.552,27.194
		c6.917,4.806,12.488,3.648,17.937-2.858c1.917-2.29,3.445-4.902,5.291-7.256c9.645-12.295,19.288-24.591,29.039-36.8
		c2.656-3.326,5.687-6.354,8.725-9.717C434.945,331.714,424.519,323.22,413.286,314.068z M950.646,575.718
		c0.943-2.857,1.598-4.836,2.338-7.079c-4.713-1.301-8.92-2.462-13.129-3.624c-0.121,0.224-0.244,0.447-0.365,0.671
		C943.027,568.867,946.564,572.047,950.646,575.718z"/>
</g>
</svg>
