<?xml version="1.0" encoding="iso-8859-1"?>
<!-- Generator: Adobe Illustrator 16.0.0, SVG Export Plug-In . SVG Version: 6.00 Build 0)  -->
<!DOCTYPE svg PUBLIC "-//W3C//DTD SVG 1.1//EN" "http://www.w3.org/Graphics/SVG/1.1/DTD/svg11.dtd">
<svg version="1.1" id="Layer_1" xmlns="http://www.w3.org/2000/svg" xmlns:xlink="http://www.w3.org/1999/xlink" x="0px" y="0px"
	 width="1120px" height="1060px" viewBox="0 0 1120 1060" enable-background="new 0 0 1120 1060" xml:space="preserve">
<g>
	<path fill-rule="evenodd" clip-rule="evenodd" d="M549.333,170.517c-16.009,9.043-31.854,16.925-46.534,26.579
		c-15.551,10.226-29.993,22.136-44.92,33.31c-2.076,1.554-3.254,3.123-2.95,6.216c0.245,2.488-0.765,5.768-2.409,7.66
		c-8.847,10.188-17.876,20.236-27.301,29.885c-2.118,2.167-6.056,2.574-9.178,3.734c-1.581,0.587-3.756,0.554-4.733,1.639
		c-11.139,12.369-22.102,24.896-33.095,37.396c-0.648,0.736-1.15,1.601-1.842,2.577c6.458,5.497,5.077,12.019,1.82,18.17
		c-2.386,4.506-5.626,8.662-8.996,12.529c-19.306,22.152-34.847,46.652-46.751,73.513c-2.148,4.847-4.626,9.66-7.683,13.972
		c-9.711,13.7-21.332,17.425-37.113,11.732c-12.523-4.517-24.903-9.46-37.203-14.561c-18.456-7.653-36.885-15.385-55.141-23.499
		c-20.99-9.329-31.055-25.379-27.706-45.721c1.547-9.399,5.218-18.561,8.757-27.501c10.773-27.217,24.82-52.716,41.656-76.66
		c2.196-3.124,4.62-6.134,7.257-8.892c5.192-5.432,7.698-5.695,14.619-2.687c1.623,0.706,3.572,0.664,5.031,0.909
		c-4.706-8.036-9.092-15.2-13.135-22.555c-2.427-4.415-1.357-8.553,1.8-12.478c7.729-9.606,15.226-19.397,22.888-29.057
		c5.896-7.434,8.088-7.991,17.121-4.805c1.081,0.381,2.182,0.706,3.473,1.121c0.088-0.647,0.337-1.172,0.177-1.493
		c-4.435-8.912-1.864-15.897,4.908-22.745c7.598-7.683,14.259-16.292,21.349-24.479c4.95-5.717,8.349-6.86,15.392-4.049
		c5.545,2.214,10.918,4.979,16.084,7.983c3.338,1.941,5.392,1.457,8.176-1.095c34.457-31.577,71.885-58.896,114.417-78.732
		c36.401-16.977,74.305-27.429,114.901-25.341c7.458,0.384,14.908,1.423,22.296,2.579c14.46,2.264,28.899,4.682,43.291,7.343
		c4.711,0.871,9.602,2.014,13.799,4.204c15.199,7.928,31.1,12.765,48.173,15.103c20.24,2.771,38.286,12.11,55.5,22.755
		c36.691,22.689,67.216,52.335,94.698,85.243c38.735,46.385,70.172,97.178,91.213,154.038
		c10.879,29.398,18.231,59.561,16.659,91.246c-0.327,6.594-1.732,13.13-2.536,19.705c-0.146,1.196-0.238,2.841,0.422,3.622
		c4.085,4.833,3.567,10.165,0.809,14.907c-2.889,4.968-7.095,9.151-10.463,13.865c-2.033,2.847-4.409,5.848-5.196,9.124
		c-8.267,34.398-18.271,68.174-34.323,99.885c-1.504,2.971-3.253,5.819-4.695,8.818c-3.729,7.753-9.651,12.741-18.207,14.005
		c-4.151,0.613-5.667,2.867-6.735,6.613c-25.063,87.927-66.546,167.675-122.267,239.809
		c-44.83,58.036-97.135,108.417-160.564,146.263c-35.337,21.085-72.86,36.562-113.746,43.059c-29.1,4.625-58.021,3.842-86.866-2.37
		c-47.988-10.334-96.002-20.557-144.063-30.548c-50.402-10.478-89.261-37.927-118.092-79.994
		c-24.596-35.887-39.669-75.764-46.396-118.567c-4.776-30.396,5.747-56.384,26.812-78.321c10.81-11.258,23.23-20.465,36.798-28.128
		c9.098-5.139,14.21-4.455,20.931,3.586c17.454,20.884,32.785,43.25,46.258,66.916c14.599,25.643,23.984,53.314,33.185,81.196
		c13.397,40.598,34.296,76.855,65.802,106.413c11.865,11.132,11.816,11.123,27.315,6.618c51.116-14.857,94.798-42.669,134.42-77.414
		c42.857-37.582,77.128-82.254,107.302-130.346c42.447-67.651,72.795-140.604,95.884-216.79c1.496-4.935,2.71-9.961,4.353-14.845
		c0.976-2.903,0.514-4.817-1.847-6.926c-5.96-5.324-11.442-11.189-17.464-16.439c-7.672-6.688-10.46-15.115-10.246-24.95
		c0.278-12.821,0.646-25.646,0.508-38.466c-0.03-2.824-1.369-6.181-3.21-8.357c-32.84-38.848-59.728-81.309-78.33-128.772
		c-11.189-28.55-19.314-57.902-18.508-88.883C545.469,197.34,547.745,184.838,549.333,170.517z M279.937,307.212
		c-0.953-0.759-2.242-2.238-3.866-3.01c-14.875-7.066-29.856-13.91-44.684-21.072c-3.031-1.464-4.386-0.382-6.159,1.753
		c-15.049,18.118-27.861,37.696-39.109,58.382c-2.647,4.868-1.427,8.099,1.847,11.397c1.266,1.275,2.794,2.429,4.413,3.193
		c12.931,6.109,25.894,12.152,38.913,18.069c1.029,0.468,2.999,0.323,3.792-0.376c6.857-6.045,13.638-12.185,20.264-18.482
		C269.259,343.847,277.32,327.638,279.937,307.212z M306.709,318.433c-10.216,29.1-32.055,48.14-55.204,66.657
		c13.878,5.584,26.767,10.86,39.727,15.957c12.65,4.974,17.821,2.607,24.127-9.386c9.435-17.945,19.333-35.647,29.017-53.464
		c0.287-0.527,0.37-1.166,0.612-1.963C332.437,330.397,320.083,324.651,306.709,318.433z M818.579,540.345
		c10.861,5.131,20.812,9.831,31.218,14.746c1.066-5.479,1.962-10.075,2.871-14.746C841.381,540.345,830.638,540.345,818.579,540.345
		z"/>
</g>
</svg>
