<?xml version="1.0" encoding="iso-8859-1"?>
<!-- Generator: Adobe Illustrator 16.0.0, SVG Export Plug-In . SVG Version: 6.00 Build 0)  -->
<!DOCTYPE svg PUBLIC "-//W3C//DTD SVG 1.1//EN" "http://www.w3.org/Graphics/SVG/1.1/DTD/svg11.dtd">
<svg version="1.1" id="Layer_1" xmlns="http://www.w3.org/2000/svg" xmlns:xlink="http://www.w3.org/1999/xlink" x="0px" y="0px"
	 width="1120px" height="1060px" viewBox="0 0 1120 1060" enable-background="new 0 0 1120 1060" xml:space="preserve">
<g>
	<path fill-rule="evenodd" clip-rule="evenodd" d="M329.344,196.08c-4.992,6.897-9.262,12.626-13.284,18.525
		c-0.664,0.974-0.218,2.694-0.31,4.068c-0.233,3.509,0.506,7.483-0.895,10.443c-5.553,11.735-11.501,23.311-17.939,34.581
		c-1.686,2.95-5.628,4.643-8.61,6.808c-1.261,0.916-3.378,1.215-3.989,2.379c-7.488,14.283-14.768,28.674-22.255,43.339
		c7.309,3.103,8.42,9.023,7.38,15.179c-0.901,5.334-2.498,10.762-4.901,15.595c-13.529,27.207-22.489,55.824-27.616,85.721
		c-1.6,9.329-4.906,17.952-11.427,25.119c-7.536,8.282-17.351,10.568-27.782,9.633c-35.476-3.183-70.968-6.331-106.347-10.414
		c-26.999-3.115-41.105-21.968-38.341-49.25c3.387-33.431,10.572-66.033,21.674-97.752c1.48-4.229,3.298-8.358,5.213-12.413
		c2.31-4.89,5.871-7.479,11.668-5.9c2.257,0.614,4.714,0.493,7.08,0.707c0.174-0.431,0.348-0.86,0.522-1.291
		c-1.014-0.842-2.063-1.646-3.035-2.534c-3.665-3.347-7.699-6.39-10.87-10.156c-6.303-7.487-7.919-15.498-2.918-24.848
		c4.22-7.891,7.218-16.46,10.44-24.851c2.912-7.58,5.819-14.876,16.892-14.046c-5.174-8.277-2.222-14.885,1.127-21.627
		c4.371-8.798,8.334-17.797,12.546-26.675c4.815-10.148,10.022-12.898,21.154-11.169c4.271,0.664,8.557,1.347,12.747,2.381
		c3.454,0.853,5.339-0.219,7.251-3.223c15.697-24.662,33.266-47.899,53.886-68.693c23.67-23.869,49.719-44.352,81.746-56.068
		c24.497-8.961,49.479-11.521,75.141-5.853c2.669,0.59,5.569,0.479,8.328,0.259c11.229-0.893,21.952,1.107,32.083,5.823
		c6.465,3.009,12.988,3.417,19.95,2.777c7.616-0.7,15.304-0.729,22.963-0.823c10.931-0.134,21.957-0.955,32.775,0.149
		c13.173,1.345,26.419,3.459,39.207,6.849c57.594,15.266,106.823,45.792,151.116,84.813c35.039,30.868,64.674,66.22,86.99,107.438
		c11.148,20.595,19.932,42.167,24.764,65.092c2.539,12.055,4.453,24.36,2.785,36.863c-0.424,3.173-0.064,6.451-0.064,10.052
		c10.234,6.115,12.168,10.934,6.779,22.89c-3.1,6.878-8.004,12.929-11.912,19.461c-1.539,2.572-3.412,5.354-3.717,8.19
		c-3.896,36.417-7.25,72.903-16.385,108.527c-0.373,1.449-0.846,2.883-1.086,4.354c-2.32,14.239-9.617,24.598-23.373,29.823
		c-3.162,1.201-3.281,3.615-3.49,6.374c-6.959,91.203-30.201,178.144-70.57,260.14c-26.053,52.915-58.742,101.495-102.727,141.621
		c-28.985,26.443-61.261,47.324-100.178,55.525c-15.558,3.279-31.624,4.34-47.515,5.795c-23.875,2.187-47.797,3.877-71.706,5.695
		c-26.9,2.047-53.778,4.979-80.718,5.759c-36.691,1.063-68.16-13.255-95.63-36.867c-28.442-24.446-48.624-55.056-64.861-88.453
		c-13.947-28.688-24.805-58.537-32.231-89.579c-7.173-29.982-1.797-58.228,12.789-84.892c9.101-16.636,20.861-31.302,35.088-43.92
		c0.374-0.331,0.734-0.679,1.115-1.001c13.61-11.516,18.863-11.488,32.329,0.167c30.936,26.776,57.429,57.198,74.64,94.644
		c8.119,17.664,14.016,36.336,21.562,54.281c15.954,37.945,36.535,73.024,66.561,101.733c8.392,8.024,18.059,14.701,26.93,22.243
		c3.855,3.278,6.577,2.406,10.175-0.537c27.021-22.104,48.458-48.901,66.797-78.394c23.935-38.491,39.986-80.445,53.932-123.265
		c15.409-47.312,24.899-95.984,31.264-145.248c3.175-24.579,5.118-49.316,7.756-73.968c0.361-3.371-0.662-5.059-3.768-6.483
		c-6.806-3.122-13.237-7.083-20.098-10.062c-10.746-4.666-15.689-13.255-18.002-24.115c-3.739-17.557-7.497-35.114-11.661-52.572
		c-0.746-3.127-3.008-6.286-5.396-8.565c-24.936-23.809-50.929-46.552-72.111-74.042c-29.428-38.191-49.713-80.291-55.588-128.614
		C330.288,212.371,330.015,204.933,329.344,196.08z M161.567,342.242c0-1.664-0.166-3.348,0.032-4.987
		c0.55-4.563-1.24-6.217-5.947-6.769c-17.001-1.992-33.975-4.303-50.875-7.01c-4.558-0.73-6.263,0.467-8.047,4.483
		c-8.936,20.124-15.958,40.856-20.953,62.291c-1.487,6.381-0.539,8.678,5.352,11.312c2.249,1.005,4.725,1.688,7.167,2.046
		c14.634,2.141,29.284,4.185,43.948,6.111c1.159,0.151,3.029-0.466,3.615-1.354c3.928-5.956,7.38-12.229,11.395-18.122
		C157.141,375.73,161.331,359.582,161.567,342.242z M189.714,335.342c-2.56,29.975-17.153,53.98-34.695,77.255
		c17.179,1.464,32.902,3.053,48.663,4.058c10.606,0.676,16.393-3.68,18.839-13.88c4.839-20.175,9.343-40.429,14.058-60.967
		C221.896,339.782,206.301,337.63,189.714,335.342z M661.678,492.679c18.783,1.966,37.568,3.932,56.754,5.939
		c0-6.798,0-13.146,0-20.062C700.111,486.71,681.176,490.676,661.678,492.679z M552.072,481.175
		c9.578,1.014,18.521,1.961,27.465,2.907c0.033-0.279,0.066-0.56,0.102-0.839c-8.639-2.707-17.275-5.413-26.173-8.201
		C553.032,476.947,552.673,478.531,552.072,481.175z"/>
</g>
</svg>
