<?xml version="1.0" encoding="iso-8859-1"?>
<!-- Generator: Adobe Illustrator 16.0.0, SVG Export Plug-In . SVG Version: 6.00 Build 0)  -->
<!DOCTYPE svg PUBLIC "-//W3C//DTD SVG 1.1//EN" "http://www.w3.org/Graphics/SVG/1.1/DTD/svg11.dtd">
<svg version="1.1" id="Layer_1" xmlns="http://www.w3.org/2000/svg" xmlns:xlink="http://www.w3.org/1999/xlink" x="0px" y="0px"
	 width="1120px" height="1060px" viewBox="0 0 1120 1060" enable-background="new 0 0 1120 1060" xml:space="preserve">
<g>
	<path fill-rule="evenodd" clip-rule="evenodd" d="M640.187,184.853c-32.158,9.396-61.652,23.135-89.609,40.226
		c-9.23,5.643-18.161,11.791-27.049,17.968c-1.374,0.954-1.837,3.282-2.611,5.023c-1.157,2.603-1.539,5.96-3.429,7.757
		c-9.658,9.181-19.723,17.931-29.579,26.905c-2.834,2.581-5.861,3.451-9.642,2.551c-1.363-0.324-3.457-0.076-4.419,0.793
		c-13.703,12.376-27.27,24.902-41.2,37.697c7.013,6.94,4.187,13.515-0.03,19.646c-2.52,3.664-5.783,6.894-9.059,9.947
		c-21.871,20.382-40.011,43.646-55.024,69.493c-3.624,6.237-8.277,12.163-13.516,17.11c-7.968,7.525-17.847,9.206-27.796,4.212
		c-11.894-5.97-23.547-12.462-35.035-19.188c-17.389-10.184-34.567-20.728-51.779-31.209c-3.263-1.986-6.415-4.215-9.371-6.634
		c-16.345-13.367-21.114-32.173-12.525-51.564c12.28-27.725,28.466-53.12,47.458-76.709c5.63-6.993,11.549-13.82,17.922-20.131
		c6.507-6.442,9.368-6.301,17.124-1.77c1.176,0.688,2.889,0.454,4.2,0.627c-4.16-7.96-8.028-14.892-11.434-22.044
		c-2.215-4.652-1.172-8.832,2.687-12.654c8.996-8.911,17.655-18.159,26.535-27.188c5.203-5.291,7.439-5.639,14.124-2.354
		c2.813,1.382,5.469,3.084,8.905,5.045c-1.163-4.664-2.081-8.642-3.156-12.577c-1.032-3.778-0.053-6.815,2.784-9.476
		c10.211-9.574,20.427-19.145,30.508-28.853c3.735-3.597,7.804-3.782,11.881-1.442c5.184,2.975,10.396,6.082,14.968,9.888
		c3.771,3.139,6.158,2.51,9.738-0.222c32.828-25.051,67.77-46.639,105.644-63.265c30.796-13.518,62.627-23.586,96.183-27.363
		c20.105-2.263,40.198-1.914,60.289,0.922c8.494,1.199,17.329,0.301,25.713,1.906c19.354,3.708,38.076,9.614,55.23,19.701
		c5.471,3.218,11.293,5.009,17.649,6.081C792.46,76.913,808.702,86.456,824,97.603c28.539,20.793,52.179,46.552,73.576,74.381
		c45.368,59.005,80.857,123.308,102.516,194.789c8.1,26.733,13.715,53.975,11.153,82.157c-0.699,7.691-3.004,15.232-4.477,22.861
		c-0.233,1.207-0.427,2.815,0.16,3.721c3.364,5.188,1.914,10.103-1.156,14.452c-2.654,3.76-6.369,6.753-9.343,10.313
		c-2.037,2.438-4.363,5.034-5.27,7.959c-10.734,34.668-24.282,68.021-44.21,98.58c-5.336,8.183-11.7,13.863-22.021,14.16
		c-1.379,0.04-3.187,2.353-3.949,4.003c-12.356,26.737-23.119,54.323-37.08,80.187c-59.583,110.383-140.791,201.399-246.389,269.873
		c-42.497,27.556-87.929,48.661-137.572,60.025c-54.71,12.523-108.164,10.025-160.785-10.905
		c-41.758-16.61-84.033-31.941-126.261-47.341c-51.742-18.869-88.436-53.891-112.208-103.017
		c-11.224-23.195-19.734-47.355-22.977-73.046c-3.079-24.395,4.456-45.375,21.908-62.661c11.815-11.702,25.383-21.02,40.348-28.249
		c10.557-5.101,15.646-3.897,22.547,5.822c6.65,9.368,13.066,18.92,19.21,28.628c22.373,35.351,40.062,72.823,52.505,112.888
		c10.655,34.307,28.016,65.062,52.677,91.492c2.878,3.084,5.664,4.139,9.966,3.815c64.721-4.861,121.57-30.672,174.631-66.039
		c55.317-36.871,101.252-83.58,141.922-135.982c55.974-72.12,98.083-151.696,130.561-236.69c1.168-3.057,0.917-5.096-1.29-7.572
		c-4.875-5.468-9.078-11.552-14.104-16.865c-8.713-9.214-10.667-19.845-8.404-31.906c1.255-6.688,1.52-13.559,2.698-20.265
		c0.943-5.363-0.78-9.427-3.802-13.784c-32.229-46.464-57.465-96.321-72.355-151.095c-5.879-21.624-9.643-43.58-8.713-66.093
		C638.301,199.272,639.396,192.378,640.187,184.853z M294.526,267.835c-1.209,1.092-2.336,2.048-3.394,3.074
		c-16.539,16.047-30.962,33.83-44.072,52.77c-4.463,6.448-4.893,9.992,2.444,15.652c12.188,9.402,25.536,17.302,37.888,25.497
		c9.011-6.625,17.504-12.477,25.56-18.879c13.966-11.099,23.454-25.282,27.533-42.775c0.437-1.873,0.062-5.182-1.162-6.007
		C324.579,287.226,309.604,277.628,294.526,267.835z M400.82,337.01c-11.166-7.269-22.512-14.654-34.473-22.44
		c-13.485,27.814-37.484,44.111-61.977,60.654c13.464,7.758,25.782,15.05,38.29,21.999c9.494,5.274,15.246,3.729,21.107-5.358
		c4.419-6.852,8.277-14.075,12.874-20.8C384.423,359.68,392.59,348.559,400.82,337.01z M888.137,557.132
		c-0.144,0.197-0.288,0.396-0.432,0.593c6.403,4.45,12.807,8.899,19.584,13.609c1.062-4.181,1.901-7.488,2.745-10.811
		C902.452,559.349,895.295,558.24,888.137,557.132z"/>
</g>
</svg>
