<?xml version="1.0" encoding="iso-8859-1"?>
<!-- Generator: Adobe Illustrator 16.0.0, SVG Export Plug-In . SVG Version: 6.00 Build 0)  -->
<!DOCTYPE svg PUBLIC "-//W3C//DTD SVG 1.1//EN" "http://www.w3.org/Graphics/SVG/1.1/DTD/svg11.dtd">
<svg version="1.1" id="Layer_1" xmlns="http://www.w3.org/2000/svg" xmlns:xlink="http://www.w3.org/1999/xlink" x="0px" y="0px"
	 width="1120px" height="1060px" viewBox="0 0 1120 1060" enable-background="new 0 0 1120 1060" xml:space="preserve">
<g>
	<path fill-rule="evenodd" clip-rule="evenodd" d="M372.501,182.293c-9.801,11.508-19.648,22.979-29.321,34.593
		c-0.845,1.016-0.564,2.98-0.776,4.508c-0.486,3.494-0.018,7.501-1.595,10.396c-6.132,11.256-12.943,22.141-19.435,33.203
		c-2.183,3.72-5.212,5.866-9.562,6.38c-1.3,0.153-3.035,0.947-3.643,1.989c-8.133,13.939-16.104,27.974-24.101,41.992
		c-0.154,0.271-0.141,0.638-0.258,1.224c6.472,3.783,7.265,9.924,5.565,16.427c-1.248,4.773-3.015,9.575-5.456,13.848
		c-14.908,26.094-25.397,53.842-32.01,83.113c-2.038,9.021-5.168,17.533-11.529,24.592c-7.043,7.815-16.07,11.229-26.079,9.804
		c-36.56-5.212-73.158-10.323-109.5-16.823c-25.051-4.481-37.665-24.825-33.637-50.53c5.202-33.192,13.91-65.412,26.795-96.464
		c1.72-4.144,3.633-8.242,5.851-12.138c3.593-6.312,6.012-7.215,13.128-5.782c1.898,0.382,3.82,0.644,6.544-0.023
		c-0.997-1.144-1.812-2.551-3.02-3.389c-6.956-4.82-11.932-11.267-14.594-19.153c-1.011-2.995-1.064-7.105,0.188-9.936
		c5.389-12.174,11.545-24.006,17.178-36.077c2.946-6.312,8.145-7.829,15.491-7.362c-6.408-10.014-0.336-17.33,3.779-24.988
		c4.729-8.803,9.648-17.504,14.364-26.313c2.564-4.791,6.54-7.312,11.797-6.76c6.414,0.675,12.859,1.657,19.086,3.286
		c4.488,1.174,7.003,0.431,9.843-3.491c23.668-32.698,50.542-62.388,83.17-86.476c27.031-19.956,56.333-34.838,90.132-39.267
		c17-2.228,33.887-1.567,50.604,2.498c2.066,0.503,4.286,0.787,6.396,0.633c12.76-0.931,24.923,1.289,36.402,6.87
		c5.716,2.778,11.576,3.56,17.892,3.435c9.813-0.194,19.642,0.572,29.463,0.558c57.206-0.086,105.812,23.845,151.22,55.362
		c59.133,41.042,106.531,92.918,139.588,157.273c10.545,20.526,18.424,42.092,22.947,64.744c2.789,13.968,4.055,28.208,2.328,42.378
		c-0.553,4.54-0.004,6.461,3.92,8.753c4.16,2.43,4.303,7.329,3.477,11.71c-1.85,9.816-7,17.985-13.926,24.927
		c-2.709,2.718-3.699,5.612-4.139,9.174c-4.033,32.721-8.457,65.379-17.191,97.269c-1.449,5.296-3.443,10.457-4.652,15.801
		c-2.84,12.536-9.986,21.171-22.125,25.524c-2.801,1.004-3.951,2.578-4.328,5.745c-5.381,45.239-14.707,89.663-28.756,133.016
		c-21.172,65.337-49.633,127.139-89.93,183.106c-30.418,42.245-65.146,80.176-109.47,108.31
		c-32.236,20.462-67.14,32.848-105.713,33.752c-55.137,1.292-110.264,3.017-165.405,4.05
		c-38.636,0.724-71.807-13.722-100.674-38.723c-27.71-23.999-47.333-53.959-62.979-86.729
		c-12.957-27.139-22.823-55.425-29.678-84.681c-8.231-35.132-0.033-67.004,20.636-96.001c10.41-14.604,22.344-27.798,37.621-37.537
		c7.609-4.851,12.904-4.561,19.507,1.382c39.39,35.443,70.647,76.416,87.356,127.5c12.562,38.404,29.84,74.488,55.131,106.339
		c13.762,17.33,29.514,32.549,47.942,44.948c2.95,1.985,4.979,2.018,7.951,0.049c29.811-19.753,54.353-44.866,75.784-73.307
		c32.335-42.91,54.205-91.213,72.811-141.14c18.312-49.135,30.236-100.001,39.018-151.605c3.488-20.497,5.928-41.171,8.968-61.746
		c0.63-4.265-0.188-7.021-4.533-9.066c-5.854-2.754-11.076-6.844-16.914-9.643c-12.245-5.873-16.612-16.241-18.423-28.839
		c-2.295-15.954-5.215-31.825-8.218-47.665c-0.511-2.692-2.337-5.508-4.328-7.491c-23.135-23.037-46.94-45.42-66.442-71.842
		c-26.552-35.976-47.247-74.641-53.577-119.512c-2.104-14.909-1.79-30.159-2.563-45.254c-0.067-1.309-0.009-2.623-0.009-3.936
		C373.424,182.808,372.963,182.55,372.501,182.293z M182.589,335.473c0-1.336-0.051-3.665,0.013-5.991
		c0.077-2.799-1.122-3.972-3.996-4.513c-17.471-3.292-34.918-6.72-52.325-10.341c-3.28-0.683-4.687,0.351-6.126,3.095
		c-10.775,20.544-19.115,42.04-25.824,64.222c-1.167,3.855-0.203,6.53,2.835,8.593c1.9,1.29,4.004,2.623,6.196,3.086
		c15.278,3.223,30.592,6.277,45.933,9.184c1.158,0.22,3.065-0.781,3.853-1.807c3.642-4.74,6.77-9.886,10.523-14.528
		C175.495,371.851,181.565,355.135,182.589,335.473z M210.924,331.448c-4.129,29.9-20.159,53.021-39.234,75.397
		c4.434,0.685,7.665,1.204,10.902,1.681c12.002,1.769,23.991,3.642,36.015,5.248c10.413,1.391,16.481-2.529,19.821-12.432
		c0.583-1.73,0.91-3.545,1.443-5.293c5.23-17.154,10.478-34.303,15.723-51.451c0.409-1.337,0.838-2.667,1.298-4.129
		C241.586,337.466,226.771,334.559,210.924,331.448z M694.047,502.324c16.967,2.842,33.934,5.684,51.672,8.653
		c0-6.823,0-12.978,0-19.362C729.07,497.985,711.83,501.211,694.047,502.324z M587.852,479.726c-0.52,0.388-1.041,0.776-1.561,1.164
		c0.799,1.264,1.41,3.432,2.428,3.644c6.111,1.271,12.314,2.092,18.488,3.063c0.033-0.167,0.064-0.334,0.098-0.501
		C600.82,484.639,594.336,482.183,587.852,479.726z"/>
</g>
</svg>
