<?xml version="1.0" encoding="iso-8859-1"?>
<!-- Generator: Adobe Illustrator 16.0.0, SVG Export Plug-In . SVG Version: 6.00 Build 0)  -->
<!DOCTYPE svg PUBLIC "-//W3C//DTD SVG 1.1//EN" "http://www.w3.org/Graphics/SVG/1.1/DTD/svg11.dtd">
<svg version="1.1" id="Layer_1" xmlns="http://www.w3.org/2000/svg" xmlns:xlink="http://www.w3.org/1999/xlink" x="0px" y="0px"
	 width="1120px" height="1060px" viewBox="0 0 1120 1060" enable-background="new 0 0 1120 1060" xml:space="preserve">
<g>
	<path fill-rule="evenodd" clip-rule="evenodd" d="M714.223,200.975c-23.209,4.729-45.029,11.762-66.338,20.45
		c-23.342,9.518-45.648,21.076-67.135,34.243c-2.039,1.25-3.596,2.215-3.152,5.364c0.283,2.028-0.998,5.119-2.629,6.438
		c-11.004,8.908-22.101,17.734-33.632,25.936c-2.521,1.793-6.911,0.957-10.44,1.332c-0.085-0.505-0.17-1.009-0.255-1.514
		c-15.803,12.413-31.605,24.826-47.357,37.199c4.728,6.923,5.104,11.053,0.452,17.044c-3.533,4.551-7.837,8.646-12.336,12.277
		c-22.596,18.234-42.218,39.181-58.747,63.053c-2.744,3.963-5.614,7.908-8.911,11.404c-11.698,12.403-23.991,14.047-37.869,4.229
		c-15.5-10.964-30.579-22.539-45.615-34.142c-12.133-9.362-24.205-18.843-35.814-28.838c-18.797-16.183-22.031-36.727-9.61-58.283
		c17.511-30.39,39.385-57.358,64.603-81.658c2.511-2.421,5.187-4.722,8.028-6.738c6.875-4.882,9.356-4.697,16.031,0.274
		c0.965,0.719,2.457,0.73,3.705,1.069c-0.221-1.283-0.165-2.7-0.709-3.827c-2.954-6.12-6.24-12.085-9.041-18.271
		c-1.842-4.067-0.737-7.61,2.816-10.657c10.12-8.676,20.141-17.47,30.042-26.394c3.725-3.357,7.416-3.596,11.285-0.841
		c4.32,3.077,8.439,6.438,13.443,10.287c-1.292-5.052-2.24-9.424-3.542-13.687c-1.917-6.278-0.775-10.94,4.932-15.122
		c10.205-7.477,19.949-15.599,29.664-23.717c4.045-3.381,7.897-3.442,11.743-0.465c5.781,4.478,11.299,9.294,17.149,14.148
		c10.227-6.374,20.537-13.078,31.108-19.342c48.884-28.966,100.27-51.754,156.368-62.774c31.146-6.118,62.42-7.712,93.887-2.666
		c1.453,0.232,3.234,0.616,4.41,0.026c12.957-6.499,25.404-2.609,37.623,2.014c8.078,3.056,15.885,6.884,23.654,10.688
		c8.719,4.269,16.902,9.134,26.879,11.03c13.076,2.486,24.111,10.244,34.549,18.364c21.752,16.921,39.477,37.695,56.207,59.381
		c52.949,68.64,90.832,144.833,113.912,228.347c6.662,24.111,11.705,48.573,11.121,73.829c-0.279,12.073-2.176,23.809-7.004,34.98
		c-0.502,1.162-0.898,2.998-0.336,3.883c2.809,4.426,1.596,8.575-1.15,12.059c-2.85,3.613-6.693,6.426-9.848,9.824
		c-2.275,2.45-4.891,4.992-6.057,7.997c-11.508,29.633-25.504,57.912-44.439,83.575c-2.371,3.214-4.885,6.333-7.488,9.362
		c-4.393,5.111-9.836,7.927-16.764,6.895c-2.875-0.429-4.439,0.509-5.744,3.283c-47.119,100.214-114.385,184.892-198.189,256.816
		c-46.869,40.226-97.438,74.91-152.918,102.206c-42.84,21.077-87.589,36.425-135.001,43.18
		c-50.711,7.225-100.537,4.322-147.901-16.735c-20.65-9.182-40.309-20.623-60.275-31.306
		c-29.665-15.872-59.127-32.123-88.811-47.958c-48.052-25.635-78.42-65.615-94.599-116.859c-3.524-11.161-6.108-22.935-6.884-34.575
		c-1.131-16.963,5.52-31.733,18.342-43.079c12.648-11.193,26.251-21.035,42.63-26.352c10.344-3.357,15.723-1.933,21.555,7.438
		c8.623,13.855,17.039,27.854,25.068,42.061c17.911,31.688,32.525,64.854,44.222,99.347c6.831,20.144,16.777,38.782,29.082,56.171
		c2.158,3.049,4.549,4.132,8.229,4.368c58.762,3.763,113.535-11.45,166.44-35.125c66.478-29.75,124.599-71.756,176.382-122.592
		c64.57-63.388,117.723-135.449,160.559-215.09c10.328-19.202,19.51-39.02,29.383-58.47c1.496-2.949,1.195-4.967-0.67-7.604
		c-5.387-7.613-10.311-15.553-15.664-23.191c-4.621-6.593-5.629-13.749-4.172-21.421c1.209-6.373,2.447-12.747,3.904-19.067
		c0.842-3.647,0.137-6.646-1.771-9.892c-27.502-46.757-49.312-95.918-62.322-148.751
		C717.305,244.779,714.109,223.439,714.223,200.975z M337.658,357.263c9.092-5.729,17.643-10.843,25.908-16.382
		c15.223-10.202,26.467-23.594,32.174-41.292c0.984-3.052,0.707-5.127-2.029-7.288c-7.176-5.668-14.068-11.695-21.08-17.571
		c-6.215-5.208-12.44-10.404-18.757-15.687c-19.124,15.604-36.067,32.681-51.205,51.561c-5.206,6.493-5.521,11.038,0.666,16.765
		C314.541,337.738,326.339,347.467,337.658,357.263z M353.149,369.403c12.515,9.438,24.213,18.458,36.131,27.18
		c7.799,5.707,13.828,4.688,19.787-3.045c4.368-5.668,8.208-11.754,12.724-17.295c9.655-11.846,19.595-23.458,29.625-35.413
		c-10.217-8.562-20.74-17.381-31.764-26.62C403.671,340.156,378.743,354.516,353.149,369.403z M947.756,565.792
		c-0.242,0.283-0.482,0.566-0.725,0.85c3.021,2.768,6.043,5.535,9.521,8.72c0.826-2.684,1.377-4.476,1.994-6.482
		C954.611,567.753,951.184,566.772,947.756,565.792z"/>
</g>
</svg>
