<?xml version="1.0" encoding="iso-8859-1"?>
<!-- Generator: Adobe Illustrator 16.0.0, SVG Export Plug-In . SVG Version: 6.00 Build 0)  -->
<!DOCTYPE svg PUBLIC "-//W3C//DTD SVG 1.1//EN" "http://www.w3.org/Graphics/SVG/1.1/DTD/svg11.dtd">
<svg version="1.1" id="Layer_1" xmlns="http://www.w3.org/2000/svg" xmlns:xlink="http://www.w3.org/1999/xlink" x="0px" y="0px"
	 width="1120px" height="1060px" viewBox="0 0 1120 1060" enable-background="new 0 0 1120 1060" xml:space="preserve">
<g>
	<path fill-rule="evenodd" clip-rule="evenodd" d="M342.536,191.388c-6.423,8.428-12.242,15.917-17.837,23.568
		c-0.796,1.088-0.566,2.962-0.715,4.481c-0.342,3.496,0.349,7.48-1.103,10.415c-5.756,11.637-11.9,23.107-18.533,34.265
		c-1.735,2.919-5.719,4.528-8.736,6.645c-1.271,0.892-3.349,1.192-3.982,2.351c-7.739,14.149-15.276,28.409-22.99,42.872
		c9.366,5.557,8.489,13.72,5.693,21.673c-2.526,7.185-6.245,13.955-9.525,20.867c-11.276,23.768-18.635,48.767-23.692,74.515
		c-0.734,3.738-1.768,7.482-3.193,11.009c-6.5,16.086-17.719,23.605-35.007,22.386c-18.755-1.323-37.477-3.285-56.161-5.428
		c-18.012-2.065-36.043-4.208-53.91-7.234c-23.367-3.959-37.021-23.042-34.51-46.67c3.749-35.284,11.953-69.495,24.476-102.681
		c0.588-1.558,1.233-3.096,1.899-4.622c4.858-11.132,6.166-11.858,18.026-10.339c1.173,0.15,2.396-0.09,5.093-0.222
		c-2.056-1.772-2.964-2.553-3.869-3.337c-3.134-2.716-6.659-5.097-9.324-8.213c-7.09-8.293-10.17-17.013-4.017-27.772
		c4.684-8.189,8.034-17.19,11.482-26.024c2.785-7.134,6.68-12.315,16.157-11.942c-6.18-10.46,0.346-18.179,4.242-26.382
		c3.644-7.671,7.459-15.262,11.262-22.856c4.18-8.349,8.206-10.698,17.62-9.698c5.116,0.544,10.214,1.536,15.221,2.742
		c3.68,0.886,5.808,0.248,8.092-3.201c19.306-29.141,41.206-56.137,67.514-79.321c21.791-19.203,45.49-35.362,73.332-44.653
		c24.704-8.244,49.727-10.111,75.32-4.351c5.218,1.174,11.046-0.497,16.343,0.489c8.596,1.601,16.943,4.488,25.476,6.49
		c5.097,1.195,10.331,2.312,15.531,2.457c10.634,0.298,21.288-0.148,31.933-0.164c7.76-0.011,15.525,0.046,23.281,0.303
		c16.77,0.556,32.888,4.634,48.762,9.659c48.575,15.378,91.02,41.59,129.579,74.364c40.244,34.207,74.033,73.794,98.568,120.86
		c10.357,19.868,18.525,40.612,23.061,62.572c2.529,12.253,4.434,24.705,2.777,37.374c-0.416,3.184-0.061,6.468-0.061,10.3
		c10.092,7.245,11.5,11.345,5.771,23.887c-2.73,5.975-6.441,11.715-10.721,16.691c-2.939,3.42-4.189,6.755-4.764,10.996
		c-3.707,27.37-7.293,54.763-11.605,82.04c-1.734,10.965-5.449,21.603-7.818,32.486c-2.492,11.443-8.592,19.786-19.576,24.005
		c-5.029,1.932-6.18,5.31-6.621,10.257c-3.654,41.042-10.848,81.492-21.824,121.2c-19.789,71.602-48.299,139.305-90.938,200.574
		c-25.676,36.894-55.043,70.3-91.75,96.705c-26.745,19.238-55.978,33.001-88.81,37.628c-15.297,2.155-30.84,2.629-46.286,3.641
		c-29.914,1.96-59.837,3.771-89.757,5.623c-15.792,0.979-31.576,2.171-47.382,2.818c-37.979,1.555-70.833-11.6-99.643-35.68
		c-28.132-23.514-48.216-53.175-64.395-85.676c-14.672-29.474-25.87-60.273-33.443-92.306c-7.258-30.694-1.494-59.515,14.107-86.541
		c9.064-15.702,20.524-29.518,34.203-41.455c1.254-1.095,2.534-2.167,3.863-3.167c11.897-8.955,16.762-8.99,28.023,0.874
		c35.299,30.922,64.249,66.548,81.656,110.718c8.417,21.358,16.166,43.062,25.999,63.763c16.75,35.266,39.255,66.52,70.046,91.179
		c4.284,3.432,8.994,6.331,13.276,9.765c2.887,2.314,4.971,1.934,7.83-0.228c26.753-20.229,48.438-45.082,67.286-72.645
		c27.626-40.398,46.006-85.152,61.866-131.057c16.634-48.145,26.983-97.821,34.323-148.12c3.411-23.37,5.513-46.929,8.46-70.371
		c0.606-4.818-0.499-7.607-5.159-9.638c-6.088-2.651-11.646-6.519-17.727-9.192c-12.12-5.327-16.521-15.404-18.744-27.511
		c-3.062-16.67-6.606-33.257-10.321-49.795c-0.634-2.82-2.719-5.673-4.874-7.739c-25.131-24.094-50.993-47.456-72.011-75.494
		c-27.736-37.001-47.463-77.437-53.415-123.778C343.931,213.227,343.487,202.95,342.536,191.388z M139.254,408.201
		c4.81-7.109,8.651-13.135,12.837-18.91c11.704-16.146,16.288-34.303,16.038-54.015c-0.055-4.351-1.49-5.991-5.818-6.609
		c-17.267-2.467-34.504-5.176-51.694-8.13c-3.579-0.615-4.994,0.452-6.408,3.458c-9.374,19.925-16.834,40.522-22.305,61.848
		c-2.14,8.341-0.448,12.226,8.093,13.921C106.584,403.056,123.335,405.521,139.254,408.201z M159.868,410.958
		c17.666,1.725,33.991,3.58,50.364,4.81c8.527,0.64,13.792-3.455,16.532-11.554c0.955-2.821,1.388-5.814,2.159-8.702
		c4.463-16.699,8.957-33.391,13.44-50.085c0.326-1.215,0.658-2.429,1.078-3.974c-15.76-2.438-31.118-4.815-47.155-7.297
		C193.08,363.976,178.244,387.85,159.868,410.958z M675.08,496.033c15.826,1.954,33.553,4.143,51.9,6.408c0-6.913,0-13.135,0-18.168
		C709.424,488.252,691.439,492.326,675.08,496.033z M562.791,482.036c8.787,1.124,17.158,2.195,25.529,3.268
		c0.049-0.255,0.1-0.51,0.148-0.765c-8.014-2.686-16.027-5.371-24.451-8.193C563.594,478.316,563.262,479.855,562.791,482.036z"/>
</g>
</svg>
