<?xml version="1.0" encoding="iso-8859-1"?>
<!-- Generator: Adobe Illustrator 16.0.0, SVG Export Plug-In . SVG Version: 6.00 Build 0)  -->
<!DOCTYPE svg PUBLIC "-//W3C//DTD SVG 1.1//EN" "http://www.w3.org/Graphics/SVG/1.1/DTD/svg11.dtd">
<svg version="1.1" id="Layer_1" xmlns="http://www.w3.org/2000/svg" xmlns:xlink="http://www.w3.org/1999/xlink" x="0px" y="0px"
	 width="1120px" height="1060px" viewBox="0 0 1120 1060" enable-background="new 0 0 1120 1060" xml:space="preserve">
<g>
	<path fill-rule="evenodd" clip-rule="evenodd" d="M479.959,168.712c-10.315,7.263-21.062,13.992-30.838,21.921
		c-13.049,10.584-25.409,22.027-37.869,33.317c-1.375,1.246-1.565,3.876-2.142,5.91c-0.787,2.776-0.658,6.158-2.244,8.304
		c-8.016,10.852-16.279,21.537-24.894,31.917c-1.893,2.281-5.473,4.006-8.446,4.306c-2.847,0.286-4.432,1.077-6.053,3.223
		c-9.934,13.136-19.986,26.182-30.168,39.48c7.792,6.562,6.078,13.938,2.577,21.121c-2.097,4.303-4.953,8.288-7.82,12.154
		c-16.596,22.378-29.374,46.763-39.002,72.876c-2.236,6.064-4.679,12.185-8.002,17.69c-7.976,13.215-18.999,18.429-33.948,14.74
		c-20.339-5.018-40.415-11.14-60.513-17.093c-13.245-3.923-26.381-8.232-39.475-12.639c-15.865-5.339-27.706-14.987-30.434-32.384
		c-1.031-6.572-0.954-13.8,0.647-20.222c8.837-35.45,23.033-68.766,41.714-100.162c1.105-1.858,2.333-3.653,3.608-5.4
		c5.591-7.661,8.057-8.385,16.942-5.503c1.312,0.425,2.904-0.011,4.366-0.048c-0.7-1.171-1.343-2.381-2.11-3.506
		c-4.27-6.264-8.806-12.361-12.771-18.811c-2.356-3.833-1.62-7.89,0.974-11.737c6.983-10.359,14.057-20.675,20.559-31.335
		c3.893-6.383,8.88-8.573,15.918-6.873c0.923,0.223,1.874,0.327,3.924,0.675c-6.824-10.246-1.18-17.318,4.481-24.629
		c6.424-8.296,12.578-16.811,18.596-25.408c3.587-5.125,8.309-6.617,13.929-4.914c6.197,1.877,12.335,4.064,18.271,6.643
		c3.319,1.442,5.193,0.952,7.645-1.667c26.06-27.849,54.526-52.891,86.892-73.261c28.845-18.154,59.377-32.231,93.292-37.955
		c20.884-3.524,41.713-3.518,62.59,0.382c10.758,2.01,21.742,2.838,32.469,4.978c7.439,1.483,15.182,3.23,21.783,6.746
		c11.286,6.011,23.509,8.088,35.594,8.761c30.078,1.675,57.13,11.91,82.845,26.474c41.817,23.682,76.925,55.453,108.249,91.548
		c34.527,39.785,63.019,83.411,82.593,132.541c8.667,21.755,14.921,44.188,17.088,67.549c1.098,11.833,1.735,23.778-1.235,35.57
		c-0.422,1.673-0.074,4.419,1.043,5.449c5.089,4.694,5.022,10.457,2.365,15.567c-3.249,6.251-8.053,11.683-12.049,17.561
		c-1.52,2.234-3.373,4.583-3.872,7.117c-6.991,35.482-14.84,70.711-28.963,104.205c-1.165,2.762-2.508,5.454-3.554,8.259
		c-3.627,9.722-10.1,16.322-20.37,18.776c-3.291,0.785-4.732,2.613-5.49,6.055c-19.74,89.729-55.77,172.583-107.52,248.31
		c-39.395,57.646-86.217,108.492-144.887,147.401c-32.376,21.472-67.193,37.195-105.602,44.525
		c-27.394,5.229-54.655,3.347-82.043,0.041c-31.728-3.828-63.559-6.794-95.286-10.629c-21.946-2.653-44.217-4.398-65.59-9.626
		c-43.786-10.709-76.261-38.27-101.774-74.504c-23.723-33.691-38.167-71.454-48.271-111.154c-6.132-24.093-6.89-47.733,3.128-70.946
		c12.165-28.188,33.124-48.356,59.104-63.734c6.159-3.646,11.978-2.324,17.706,4.327c10.537,12.236,21.068,24.523,30.812,37.388
		c23.683,31.266,39.894,66.194,51.575,103.646c13.881,44.505,36.03,84.5,70.364,116.874c5.803,5.472,12.304,10.198,18.39,15.378
		c2.33,1.983,4.436,1.984,7.276,0.897c36.151-13.831,67.611-35.096,96.113-60.902c41.32-37.413,73.319-81.975,100.681-130.327
		c38.871-68.69,65.082-142.117,84.189-218.347c2.587-10.322,4.626-20.783,7.222-31.104c0.752-2.987-0.092-4.556-2.357-6.268
		c-6.246-4.72-12.156-9.896-18.518-14.447c-9.318-6.666-12.312-15.941-12.737-26.845c-0.565-14.459-1.522-28.909-2.688-43.332
		c-0.203-2.524-1.771-5.347-3.536-7.274c-20.956-22.892-40.921-46.534-57.593-72.825c-20.477-32.292-36.882-66.319-45.245-103.874
		c-5.695-25.576-5.41-51.221-1.014-76.926c0.165-0.962,0.307-1.928,0.46-2.892C480.659,169.445,480.309,169.078,479.959,168.712z
		 M183.349,293.779c-14.839,20.387-26.792,41.65-36.413,64.234c-2.286,5.364-1.641,7.896,3.04,11.381
		c1.449,1.079,3.108,1.993,4.807,2.599c13.622,4.85,27.263,9.648,40.948,14.314c1.114,0.38,3.101,0.142,3.841-0.624
		c6.58-6.809,13.128-13.663,19.384-20.769c11.953-13.575,18.12-29.667,19.628-47.56c0.136-1.615-1.127-4.452-2.399-4.917
		C218.721,306.062,201.142,300.002,183.349,293.779z M266.51,322.922c-7.875,29.588-27.594,50.442-49.405,70.598
		c15.571,4.546,29.892,8.881,44.305,12.884c9.903,2.749,15.869-0.243,20.215-9.542c0.703-1.505,1.184-3.112,1.862-4.631
		c7.725-17.306,15.47-34.604,23.198-51.908c0.386-0.863,0.664-1.773,1.095-2.94C294.18,332.617,280.863,327.951,266.51,322.922z
		 M769.409,525.829c12.954,4.387,25.847,8.753,39.145,13.256c0.817-6.173,1.523-11.5,2.122-16.015
		C796.705,524.005,783.189,524.908,769.409,525.829z"/>
</g>
</svg>
