<?xml version="1.0" encoding="iso-8859-1"?>
<!-- Generator: Adobe Illustrator 16.0.0, SVG Export Plug-In . SVG Version: 6.00 Build 0)  -->
<!DOCTYPE svg PUBLIC "-//W3C//DTD SVG 1.1//EN" "http://www.w3.org/Graphics/SVG/1.1/DTD/svg11.dtd">
<svg version="1.1" id="Layer_1" xmlns="http://www.w3.org/2000/svg" xmlns:xlink="http://www.w3.org/1999/xlink" x="0px" y="0px"
	 width="1120px" height="1060px" viewBox="0 0 1120 1060" enable-background="new 0 0 1120 1060" xml:space="preserve">
<g>
	<path fill-rule="evenodd" clip-rule="evenodd" d="M360.819,927.271c8.184-12.186,16.764-23.836,24.165-36.191
		c22.664-37.838,35.567-79.407,46.016-121.942c10.602-43.159,16.062-87.006,19.346-131.224c2.729-36.761,3.351-73.552,2.577-110.385
		c-0.035-1.657-0.004-3.316-0.004-5.003c-10.002-3.808-19.71-7.696-29.561-11.185c-6.422-2.274-11.133-6.417-13.452-12.541
		c-3.287-8.681-5.679-17.697-8.591-26.524c-3.545-10.743-7.267-21.429-10.849-32.16c-2.55-7.642-7.338-13.348-13.468-18.646
		c-22.17-19.161-44.749-37.97-65.584-58.521c-27.266-26.895-46.743-59.24-59.873-95.301c-0.557-1.528-1.2-3.025-1.538-3.871
		c-3.585,2.127-7.093,4.149-10.526,6.291c-0.777,0.484-1.582,1.274-1.891,2.104c-5.398,14.481-10.721,28.99-16.213,43.91
		c9.105,2.52,9.49,9.64,9.208,16.723c-0.156,3.933-0.976,7.994-2.319,11.699c-10.696,29.496-16.385,59.966-18.491,91.204
		c-0.298,4.423-1.323,8.919-2.77,13.12c-5.273,15.312-16.228,23.61-32.678,24.035c-35.806,0.926-71.623,1.426-107.435,2.125
		c-14.499,0.283-27.374-3.315-36.904-15.129c-6.316-7.83-9.359-16.896-9.439-26.826c-0.297-37.119,3.432-73.805,12.401-109.887
		c0.36-1.45,0.895-2.857,1.358-4.281c1.637-5.034,4.685-7.847,10.39-7.102c2.543,0.332,5.166,0.057,8.164-1.131
		c-1.097-0.729-2.127-1.594-3.302-2.162c-7.495-3.625-13.249-9.162-16.482-16.732c-1.468-3.436-2.337-7.867-1.529-11.4
		c2.818-12.315,6.607-24.406,9.785-36.645c1.545-5.954,5.306-9.399,11.767-11.229c-5.251-6.896-2.391-13.498-0.202-20.158
		c3.274-9.961,6.655-19.893,9.634-29.942c2.291-7.726,7.694-11.027,15.139-11.457c5.473-0.316,11.002-0.264,16.468,0.145
		c3.428,0.256,4.932-0.957,6.355-3.963c13.731-29.009,29.785-56.619,50.488-81.284c17.391-20.718,36.952-38.847,61.819-50.485
		c20.844-9.755,42.6-12.371,65.315-9.424c6.867,0.891,13.997-0.263,20.87,0.604c9.025,1.138,17.868,4.395,26.875,4.798
		c8.816,0.395,17.741-1.651,26.618-2.621c6.452-0.705,12.905-1.407,19.358-2.104c7.889-0.853,15.765-2.197,23.671-2.416
		c9.267-0.256,18.601,0.026,27.836,0.848c39.942,3.551,77.639,15.216,113.542,32.725c59.121,28.832,109.179,68.756,148.037,122.188
		c12.879,17.711,23.725,36.639,31.559,57.062c4.299,11.214,7.688,22.926,10,34.706c1.705,8.691,0.943,17.859,1.408,26.809
		c0.145,2.787,0.703,5.552,1.049,8.159c3.02,1.447,6.543,2.269,8.801,4.419c3.459,3.296,3.777,7.994,2.791,12.624
		c-2.574,12.098-6.973,23.235-16.279,31.958c-1.1,1.029-1.471,3.197-1.572,4.875c-1.705,28.098-2.953,56.229-5.1,84.293
		c-1.037,13.57-3.791,27.006-5.641,40.521c-1.207,8.813-5.033,16.093-13.164,19.962c-9.463,4.503-11.242,11.511-11.199,21.497
		c0.4,89.866-14.92,177.101-47.818,260.753c-19.975,50.793-46.115,98.335-84.525,138.091c-25.651,26.55-55.182,46.608-92.032,54.005
		c-17.778,3.568-35.661,6.616-53.495,9.906c-39.922,7.364-79.812,14.905-119.774,22.045c-33.431,5.972-63.315-3.304-90.593-22.434
		c-25.384-17.803-44.803-41.196-61.465-66.98c-25.512-39.477-43.675-82.364-56.59-127.377
		c-10.358-36.101-3.683-70.423,15.442-102.185c7.257-12.052,16.488-22.932,25.055-34.165c1.979-2.594,4.788-4.635,7.452-6.61
		c8.278-6.136,13.808-6.346,22.309-0.431c44.539,30.993,79.018,69.924,98.145,121.658c14.459,39.11,34.125,75.558,60.575,108.066
		c13.103,16.104,27.82,30.522,44.885,42.445C356.614,924.616,358.156,925.548,360.819,927.271z M103.63,423.234
		c3.501-7.292,6.34-13.662,9.563-19.831c9.302-17.803,11.082-36.688,8.556-56.27c-0.369-2.858-1.281-4.313-4.633-4.348
		c-19.297-0.192-38.592-0.589-57.885-1.058c-2.644-0.064-3.723,0.754-4.517,3.291c-6.618,21.16-11.158,42.749-13.719,64.759
		c-0.782,6.72,0.226,8.318,6.509,10.653c1.544,0.574,3.199,1.118,4.82,1.175C69.6,422.212,86.877,422.718,103.63,423.234z
		 M125.526,421.749c16.556,0,32.466,0.246,48.364-0.079c12.268-0.251,18.049-6.333,19.174-18.435
		c1.107-11.919,2.405-23.825,3.93-35.697c0.962-7.489,2.494-14.905,3.909-23.157c-17.367,0-34.083,0-51.489,0
		C149.783,372.724,139.505,398.113,125.526,421.749z M659.768,454.149c-20.109,11.628-41.219,18.004-61.643,21.788
		c19.998,0,41.332,0,63.207,0C660.781,468.271,660.307,461.679,659.768,454.149z M481.27,478.822c15.277,0,30.335,0,45.393,0
		c-0.013-0.189-0.026-0.379-0.04-0.568c-15.006-2.628-30.012-5.257-45.354-7.943C481.27,473.202,481.27,475.99,481.27,478.822z"/>
</g>
</svg>
