<?xml version="1.0" encoding="iso-8859-1"?>
<!-- Generator: Adobe Illustrator 16.0.0, SVG Export Plug-In . SVG Version: 6.00 Build 0)  -->
<!DOCTYPE svg PUBLIC "-//W3C//DTD SVG 1.1//EN" "http://www.w3.org/Graphics/SVG/1.1/DTD/svg11.dtd">
<svg version="1.1" id="Layer_1" xmlns="http://www.w3.org/2000/svg" xmlns:xlink="http://www.w3.org/1999/xlink" x="0px" y="0px"
	 width="1120px" height="1060px" viewBox="0 0 1120 1060" enable-background="new 0 0 1120 1060" xml:space="preserve">
<g>
	<path fill-rule="evenodd" clip-rule="evenodd" d="M50.668,311.274c-1.346-0.766-2.817-1.376-4.016-2.328
		c-4.007-3.182-8.334-6.102-11.772-9.829c-5.965-6.467-7.478-13.974-4.584-22.685c3.089-9.3,5.363-18.883,7.727-28.408
		c1.684-6.791,3.989-12.858,12.566-14.382c-4.76-6.896-2.696-13.26-0.605-19.675c2.888-8.86,5.662-17.758,8.465-26.646
		c4.107-13.022,9.216-16.582,23.086-16.016c4.645,0.19,9.287,0.427,12.357,0.569c12.389-21.351,23.629-42.168,36.261-62.104
		c13.984-22.069,31.248-41.532,52.037-57.598c19.816-15.312,41.826-25.298,67.169-26.779c3.812-0.223,7.653-0.116,11.475,0.016
		c9.628,0.333,19.293,0.355,28.866,1.292c7.383,0.722,14.694,2.439,21.956,4.074c13.1,2.946,25.765-0.177,38.56-2.174
		c6.405-0.999,12.9-1.464,19.367-2.025c10.195-0.886,20.396-2.219,30.603-2.307c10.269-0.089,20.678,0.286,30.803,1.876
		c98.451,15.464,177.701,64.201,240.953,140.181c14.652,17.6,26.799,36.982,36.18,57.872c5.008,11.149,9.328,22.771,12.371,34.589
		c2.801,10.875,3.709,22.271,4.975,33.49c0.482,4.287-0.363,8.723-0.588,12.817c3.504,1.461,6.877,2.082,9.164,4
		c3.732,3.131,4.197,7.868,3.359,12.464c-2.256,12.358-6.756,23.636-16.057,32.591c-1.15,1.109-1.992,3.07-2.074,4.683
		c-1.201,23.96-1.639,47.977-3.527,71.879c-1.492,18.882-4.762,37.62-7.162,56.433c-1.131,8.871-6.828,14.484-14.037,18.293
		c-7.979,4.213-9.758,10.013-9.668,18.791c0.934,90.725-14.072,178.818-46.953,263.429c-17.869,45.983-41.121,89.255-73.863,126.771
		c-21.525,24.665-45.898,45.833-77.147,56.984c-14.625,5.22-30.122,8.268-45.428,11.261c-48.826,9.547-97.806,18.313-146.614,27.947
		c-37.864,7.475-70.812-3.009-100.62-25.874c-25.222-19.348-44.478-43.964-60.85-70.92c-23.31-38.38-40.643-79.411-52.558-122.648
		c-8.385-30.427-3.663-59.796,9.657-87.95c7.884-16.663,18.188-31.796,30.752-45.325c2.143-2.308,4.541-4.422,7.032-6.354
		c8.778-6.808,14.512-7.107,23.583-0.867c46.409,31.928,80.831,72.998,100.418,126.618c14.48,39.638,35.481,76.029,63.103,108.279
		c11.536,13.469,24.348,25.575,38.784,35.916c1.873,1.342,3.823,2.574,6.676,4.485c7.106-10.466,14.484-20.315,20.793-30.807
		c21.13-35.141,34.406-73.361,44.354-113c10.283-40.979,16.748-82.456,20.313-124.523c3.636-42.902,4.494-85.827,3.678-128.833
		c-0.084-4.45-1.156-6.762-5.81-8.086c-7.666-2.18-14.969-5.604-22.577-8.023c-8.344-2.652-13.598-8.327-16.52-16.149
		c-2.438-6.527-3.94-13.397-6.18-20.006c-4.591-13.544-9.098-27.133-14.295-40.447c-1.6-4.099-4.809-7.955-8.167-10.918
		c-20.109-17.743-41.062-34.568-60.623-52.885c-31.124-29.145-53.921-64.115-68.698-104.207c-0.336-0.911-0.761-1.79-1.102-2.586
		c-2.767,1.489-5.378,2.8-7.885,4.288c-1.061,0.63-2.386,1.454-2.768,2.492c-5.332,14.507-10.521,29.066-15.732,43.578
		c8.234,3.755,11.386,11.094,8.63,21.907c-3.121,12.242-7.96,24.107-10.335,36.466c-3.76,19.574-6.055,39.428-9.052,59.15
		c-0.772,5.082-1.304,10.298-2.892,15.143c-4.778,14.584-14.953,23.636-30.376,24.186c-38.952,1.389-77.931,2.488-116.903,2.627
		c-21.437,0.076-38.413-16.326-38.841-37.886c-0.435-21.914,0.949-43.933,2.792-65.799c1.211-14.366,4.639-28.548,7.109-42.806
		c0.284-1.637,0.749-3.247,1.205-4.848c2.963-10.401,3.984-11.154,14.831-11.169c1.448-0.002,2.895-0.132,4.343-0.203
		C50.315,312.183,50.492,311.729,50.668,311.274z M76.908,422.861c0,0.191,0,0.383,0,0.573c7.654,0,15.312,0.123,22.959-0.112
		c1.386-0.043,3.351-1.229,3.98-2.442c2.517-4.855,4.334-10.077,6.913-14.895c9.811-18.327,11.921-37.79,9.237-58.088
		c-0.436-3.298-1.77-4.354-5.113-4.377c-18.802-0.128-37.605-0.412-56.402-0.861c-3.367-0.08-4.871,0.703-5.922,4.159
		c-6.403,21.061-10.488,42.552-13.296,64.36c-0.678,5.263,1.056,8.07,5.503,9.497c3.439,1.104,7.09,1.931,10.683,2.092
		C62.59,423.086,69.754,422.861,76.908,422.861z M123.592,423.116c3.799,0,6.439,0.07,9.075-0.012
		c14.145-0.439,28.299-0.71,42.428-1.459c8.538-0.452,14.125-5.495,15.853-13.422c0.565-2.593,0.78-5.267,1.089-7.91
		c1.717-14.698,3.364-29.404,5.151-44.094c0.447-3.677,1.32-7.303,2.121-11.614c-17.628,0-34.346,0-51.726,0
		C148.081,373.321,137.958,398.793,123.592,423.116z M656.76,453.366c-19.943,11.85-41.309,18.127-63.141,23.25
		c21.541-0.569,43.082-1.138,65.002-1.717C657.982,467.506,657.404,460.811,656.76,453.366z M524.704,479.185
		c0.013-0.247,0.025-0.494,0.037-0.742c-15.465-2.582-30.931-5.164-46.765-7.808c-0.183,2.973-0.36,5.847-0.526,8.55
		C493.561,479.185,509.132,479.185,524.704,479.185z"/>
</g>
</svg>
