<?xml version="1.0" encoding="iso-8859-1"?>
<!-- Generator: Adobe Illustrator 16.0.0, SVG Export Plug-In . SVG Version: 6.00 Build 0)  -->
<!DOCTYPE svg PUBLIC "-//W3C//DTD SVG 1.1//EN" "http://www.w3.org/Graphics/SVG/1.1/DTD/svg11.dtd">
<svg version="1.1" id="Layer_1" xmlns="http://www.w3.org/2000/svg" xmlns:xlink="http://www.w3.org/1999/xlink" x="0px" y="0px"
	 width="1120px" height="1060px" viewBox="0 0 1120 1060" enable-background="new 0 0 1120 1060" xml:space="preserve">
<g>
	<path fill-rule="evenodd" clip-rule="evenodd" d="M418.195,322.532c5.383,4.516,5.767,9.541,3.165,14.204
		c-2.877,5.157-6.255,10.31-10.444,14.414c-21.84,21.406-39.986,45.494-54.497,72.399c-2.59,4.803-5.64,9.512-9.247,13.583
		c-10.041,11.331-21.463,13.656-35.107,7.117c-10.958-5.252-21.735-10.91-32.404-16.734c-18.273-9.977-36.467-20.103-54.562-30.397
		c-13.468-7.662-24.12-17.912-24.752-34.483c-0.278-7.293,0.467-15.267,3.201-21.925c14.347-34.945,34.52-66.423,59.09-95.09
		c1.513-1.765,3.223-3.383,4.977-4.914c5.428-4.741,8.52-4.916,14.837-1.412c1.359,0.754,3.146,0.735,4.737,1.073
		c-0.558-1.518-0.942-3.13-1.704-4.537c-3.306-6.108-6.892-12.072-10.04-18.259c-2.116-4.158-1.036-7.891,2.243-11.354
		c9.048-9.562,17.857-19.348,26.824-28.986c4.483-4.819,7.232-5.352,13.295-2.645c2.711,1.21,5.293,2.709,8.676,4.461
		c-0.988-3.774-1.685-6.939-2.652-10.02c-1.507-4.799-0.461-8.614,3.244-12.173c9.615-9.232,19.107-18.6,28.413-28.143
		c3.886-3.985,8.093-4.618,12.641-2.191c5.273,2.813,10.514,5.827,15.283,9.402c3.725,2.793,6.149,2.591,9.779-0.313
		c33.573-26.86,69.559-49.907,108.99-67.256c40.358-17.756,82.134-29.401,126.76-27.383c8.955,0.405,17.84,2.237,26.795,2.817
		c14.473,0.938,28.917,2.132,42.651,7.022c11.091,3.949,22.147,8.198,32.72,13.341c8.073,3.928,16.441,5.729,25.058,7.587
		c17.839,3.848,33.58,12.584,48.406,22.956c30.193,21.124,55.238,47.59,77.975,76.303c42.321,53.449,75.788,111.89,97.99,176.514
		c7.972,23.203,13.919,46.922,15.482,71.533c0.973,15.322,0.741,30.559-4.515,45.291c-0.271,0.76-0.004,2.016,0.489,2.694
		c3.454,4.749,2.711,9.721-0.2,13.987c-3.056,4.479-7.23,8.178-10.731,12.372c-1.635,1.958-3.452,4.1-4.137,6.462
		c-10.462,36.134-23.592,71.097-43.843,103.076c-4.717,7.448-10.397,13.045-19.76,13.239c-3.836,0.08-4.752,2.597-5.827,5.584
		c-32.831,91.203-82.945,172.077-147.912,243.627c-45.485,50.095-96.763,93.55-155.905,127.082
		c-40.286,22.842-82.746,39.783-128.82,46.822c-39.164,5.982-77.695,3.893-115.443-8.587
		c-46.148-15.256-92.12-31.061-138.417-45.845c-54.052-17.261-92.378-52.238-117.894-102.12
		c-12.202-23.854-20.779-49.013-25.485-75.426c-5.207-29.227,3.438-53.94,24.771-74.293c11.161-10.648,23.848-19.223,37.565-26.255
		c9.667-4.956,15.079-4.077,21.539,4.896c9.143,12.7,17.995,25.643,26.341,38.879c20.45,32.435,35.833,67.146,47.172,103.835
		c11.212,36.28,29.599,68.666,55.883,96.448c5.077,5.366,9.956,6.671,17.046,5.708c67.266-9.137,124.77-39.831,177.729-80.357
		c48.189-36.875,87.875-81.832,123.394-130.795c40.84-56.295,73.051-117.25,99.646-181.309c6.444-15.52,12.002-31.406,18.11-47.068
		c1.171-3.002,0.922-5.086-1.379-7.549c-5.685-6.083-10.865-12.636-16.517-18.752c-7.019-7.595-8.765-16.414-7.496-26.383
		c1.219-9.573,2.146-19.204,2.622-28.838c0.141-2.836-1.016-6.257-2.709-8.586c-32.57-44.798-58.588-92.938-74.734-146.101
		c-7.686-25.304-12.813-51.059-10.974-77.71c0.5-7.244,1.848-14.43,2.924-22.522c-8.301,3.121-16.376,5.953-24.295,9.171
		c-31.204,12.682-59.918,29.743-86.988,49.688c-2.211,1.63-3.127,3.146-2.907,6.155c0.167,2.283-1.139,5.328-2.822,6.981
		c-9.866,9.688-19.898,19.22-30.228,28.407c-1.875,1.667-5.375,1.555-8.15,2.144c-1.507,0.319-3.621-0.199-4.523,0.653
		C445.218,296.435,431.956,309.281,418.195,322.532z M273.497,367.492c7.517-5.729,14.259-10.864,20.996-16.005
		c16.082-12.271,26.922-27.925,30.719-48.021c0.271-1.436-0.207-3.936-1.198-4.548c-15.27-9.438-30.682-18.645-45.978-27.855
		c-0.687,0.412-1.179,0.589-1.513,0.924c-17.835,17.869-33.401,37.541-46.469,59.138c-0.976,1.613-0.991,4.653-0.122,6.346
		c1.387,2.697,3.476,5.477,5.996,7.073C248.421,352.462,261.152,360.003,273.497,367.492z M290.79,377.368
		c13.871,7.329,26.702,14.291,39.704,20.916c9.263,4.72,14.981,2.953,20.529-6.03c3.493-5.655,6.396-11.681,10-17.258
		c8.279-12.81,16.825-25.446,25.533-38.56c-11.283-6.793-22.885-13.778-35.169-21.174
		C338.666,343.165,315.334,360.344,290.79,377.368z M893.074,568.168c1.082-4.415,1.992-8.13,2.868-11.704
		c-8.779-1.089-16.979-2.106-26.383-3.272C877.806,558.443,885.147,563.12,893.074,568.168z"/>
</g>
</svg>
