<?xml version="1.0" encoding="iso-8859-1"?>
<!-- Generator: Adobe Illustrator 16.0.0, SVG Export Plug-In . SVG Version: 6.00 Build 0)  -->
<!DOCTYPE svg PUBLIC "-//W3C//DTD SVG 1.1//EN" "http://www.w3.org/Graphics/SVG/1.1/DTD/svg11.dtd">
<svg version="1.1" id="Layer_1" xmlns="http://www.w3.org/2000/svg" xmlns:xlink="http://www.w3.org/1999/xlink" x="0px" y="0px"
	 width="1120px" height="1060px" viewBox="0 0 1120 1060" enable-background="new 0 0 1120 1060" xml:space="preserve">
<g>
	<path fill-rule="evenodd" clip-rule="evenodd" d="M359.741,925.771c13.234-15.942,22.979-32.166,31.726-49.067
		c20.254-39.135,31.172-81.303,40.515-123.989c7.958-36.358,11.567-73.268,14.308-110.321c2.782-37.606,2.826-75.234,2.385-112.896
		c-0.059-5.041-1.811-7.224-6.546-8.638c-7.961-2.378-15.646-5.666-23.518-8.366c-6.403-2.196-11.057-6.396-13.575-12.458
		c-2.731-6.576-4.625-13.497-6.985-20.232c-5.389-15.375-10.731-30.769-16.375-46.051c-0.92-2.491-2.973-4.807-5.029-6.599
		c-20.971-18.275-42.632-35.803-62.967-54.755c-30.946-28.843-53.531-63.569-68.333-103.272c-0.34-0.912-0.779-1.787-1.139-2.605
		c-7.499,1.868-10.733,6.913-12.883,13.893c-3.709,12.044-8.434,23.775-12.731,35.635c8.275,3.038,11.637,10.934,8.823,21.869
		c-3.067,11.914-7.151,23.565-10.275,35.467c-5.431,20.691-7.626,41.891-9.18,63.173c-0.63,8.632-3.306,16.571-8.539,23.626
		c-6.256,8.435-15.004,12.077-24.998,12.691c-18.452,1.134-36.924,2.055-55.402,2.589c-18.487,0.535-36.991,0.494-55.488,0.698
		c-17.531,0.192-31.735-5.985-39.952-22.178c-2.496-4.918-4.353-10.696-4.562-16.155c-1.456-37.963,2.074-75.509,10.841-112.516
		c0.459-1.938,1.16-3.819,1.787-5.714c1.569-4.738,4.725-6.999,9.837-6.546c2.539,0.226,5.113,0.04,9.204,0.04
		c-2.031-1.661-2.771-2.387-3.624-2.94c-2.924-1.9-6.279-3.327-8.763-5.68c-7.996-7.574-13.201-15.949-8.924-27.896
		c3.186-8.898,5.149-18.25,7.384-27.466c1.671-6.893,3.602-13.368,12.644-14.884c-5.03-6.957-2.705-13.27-0.663-19.647
		c3.147-9.827,6.102-19.715,9.239-29.545c2.936-9.199,7.404-12.702,17.068-13.147c4.651-0.215,9.359-0.236,13.98,0.244
		c3.728,0.389,5.551-0.669,7.173-4.188c11.88-25.786,25.783-50.414,42.997-73.074c11.127-14.648,23.52-28.101,37.789-39.767
		c27.32-22.337,58.049-33.341,93.677-28.502c4.739,0.644,9.621,0.174,14.432,0.359c3.982,0.154,8.237-0.312,11.887,0.927
		c17.545,5.955,34.894,3.762,52.643,0.79c14.816-2.48,29.975-3.395,45.02-3.944c45.746-1.672,88.606,10.501,129.76,29.139
		c61.38,27.798,113.156,67.946,153.669,122.118c13.725,18.35,25.152,38.089,33.443,59.421c4.295,11.047,7.625,22.62,9.91,34.246
		c1.707,8.684,0.984,17.836,1.477,26.771c0.154,2.792,0.746,5.56,1.09,8.012c3.252,1.645,7.559,2.437,9.062,4.924
		c2.051,3.39,3.176,8.264,2.562,12.166c-1.912,12.2-6.672,23.27-15.762,32.18c-1.393,1.364-1.947,4.051-2.072,6.175
		c-1.768,30.097-3.104,60.222-5.199,90.295c-0.818,11.751-3.311,23.381-4.949,35.079c-1.168,8.351-5.283,14.979-12.73,18.606
		c-9.807,4.778-11.457,12.127-11.348,22.419c0.949,90.209-14.043,177.811-46.709,261.939
		c-18.164,46.779-41.857,90.75-75.598,128.589c-21.93,24.595-46.816,45.427-78.597,55.647c-17.177,5.524-35.217,8.513-52.996,11.993
		c-46.37,9.078-92.803,17.841-139.227,26.643c-32.188,6.103-61.048-2.597-87.594-20.466c-25.733-17.321-45.41-40.522-62.309-66.17
		c-26.8-40.673-45.762-85.007-59.141-131.653c-10.104-35.229-3.505-68.755,14.563-100.02c6.548-11.331,14.794-21.702,22.55-32.304
		c2.327-3.18,5.444-5.861,8.498-8.415c9.547-7.982,15.45-8.392,25.576-1.358c36.256,25.184,66.846,55.671,86.566,95.689
		c7.714,15.654,13.487,32.252,20.643,48.197c17.518,39.03,39.265,75.372,70.094,105.519
		C339.116,909.142,349.479,917.015,359.741,925.771z M102.243,422.942c2.637-5.68,5.104-11.694,8.14-17.405
		c9.714-18.274,11.324-37.673,8.671-57.78c-0.414-3.134-1.8-4.063-4.886-4.086c-19.161-0.144-38.322-0.407-57.479-0.82
		c-2.948-0.064-4.012,1.028-4.801,3.651c-6.391,21.26-10.857,42.899-13.118,64.984c-0.652,6.37,0.454,8.048,6.551,10.199
		c1.714,0.605,3.555,1.193,5.341,1.203C67.804,422.978,84.946,422.942,102.243,422.942z M146.741,344.772
		c0.566,28.81-9.626,54.238-23.918,78.932c16.746-0.563,32.365-0.866,47.958-1.68c14.379-0.75,19.581-6.554,20.593-20.931
		c0.758-10.772,1.99-21.52,3.287-32.244c0.951-7.869,2.349-15.685,3.632-24.077C181.145,344.772,164.404,344.772,146.741,344.772z
		 M657.238,474.627c-0.633-7.422-1.213-14.233-1.84-21.612c-19.184,11.356-39.355,17.763-60.277,22.142
		c0.062,0.414,0.123,0.829,0.186,1.244C615.639,475.818,635.973,475.236,657.238,474.627z M476.175,479.148
		c16.231,0,31.974,0,47.715,0c-0.02-0.181-0.041-0.362-0.061-0.543c-15.778-2.591-31.556-5.183-47.654-7.826
		C476.175,473.84,476.175,476.597,476.175,479.148z"/>
</g>
</svg>
