<?xml version="1.0" encoding="iso-8859-1"?>
<!-- Generator: Adobe Illustrator 16.0.0, SVG Export Plug-In . SVG Version: 6.00 Build 0)  -->
<!DOCTYPE svg PUBLIC "-//W3C//DTD SVG 1.1//EN" "http://www.w3.org/Graphics/SVG/1.1/DTD/svg11.dtd">
<svg version="1.1" id="Layer_1" xmlns="http://www.w3.org/2000/svg" xmlns:xlink="http://www.w3.org/1999/xlink" x="0px" y="0px"
	 width="1120px" height="1060px" viewBox="0 0 1120 1060" enable-background="new 0 0 1120 1060" xml:space="preserve">
<g>
	<path fill-rule="evenodd" clip-rule="evenodd" d="M763.561,324.298c10.719,5.108,12.635,9.193,9.295,20.901
		c-2.596,9.103-7.221,17.096-13.516,24.236c-1.781,2.02-3.066,5.032-3.357,7.721c-3.482,32.268-6.605,64.574-10.148,96.835
		c-0.814,7.414-3.098,14.655-4.293,22.042c-1.809,11.187-7.342,19.637-17.746,24.244c-6.266,2.775-7.713,7.128-7.939,13.634
		c-2.164,62.045-12.4,122.746-30.344,182.223c-15.967,52.925-37.553,103.226-67.381,149.867
		c-21.326,33.344-46.074,63.699-77.351,88.326c-28.558,22.486-60.677,35.878-97.025,39.943
		c-39.85,4.456-79.551,10.246-119.331,15.345c-17.33,2.222-34.647,5.196-52.056,6.021c-33.917,1.608-63.151-11.223-89.077-32.245
		c-27.245-22.094-47.185-50.059-63.804-80.598c-17.516-32.188-30.705-66.142-40.275-101.452
		c-9.889-36.484-2.242-70.229,17.528-101.702c8.722-13.886,18.609-26.897,31.514-37.207c10.449-8.35,15.721-8.226,26.245-0.091
		c44.445,34.354,76.962,76.982,95.644,130.684c15.109,43.434,38.176,82.858,70.45,116.279c10.795,11.179,22.642,21.107,36.92,30.018
		c8.588-9.831,17.75-19.279,25.729-29.642c27.854-36.177,46.547-76.984,60.877-120.167c16.06-48.396,26.549-97.891,33.037-148.381
		c4.973-38.708,7.579-77.561,8.875-116.534c0.117-3.51-0.843-5.321-4.242-6.639c-7.135-2.767-13.924-6.443-21.102-9.071
		c-10.663-3.904-16.112-11.881-18.75-22.283c-3.395-13.381-6.784-26.768-9.865-40.224c-3.04-13.276-9.803-23.559-20.417-32.491
		c-22.677-19.084-44.946-38.719-64.08-61.579c-28.834-34.449-49.254-73.039-58.474-117.245c-0.258-1.238-0.716-2.434-1.37-4.615
		c-4.822,10.744-9.346,20.537-13.607,30.441c-2.049,4.762-5.035,8.082-10.222,9.375c-1.213,0.302-2.641,1.482-3.147,2.623
		c-6.136,13.837-12.121,27.742-18.131,41.635c-0.249,0.574-0.36,1.209-0.603,2.047c6.048,1.57,8.171,6.271,7.814,11.443
		c-0.417,6.037-1.268,12.39-3.609,17.891c-12.099,28.424-19.458,58.005-23.323,88.572c-0.6,4.741-1.756,9.555-3.539,13.979
		c-5.843,14.499-16.874,22.351-32.489,22.005c-30.141-0.669-60.27-1.976-90.398-3.142c-7.985-0.309-15.997-0.71-23.92-1.69
		c-21.837-2.701-36.858-19.658-36.355-41.717c0.859-37.661,7.243-74.478,18.349-110.471c0.587-1.902,1.341-3.771,2.194-5.57
		c2.917-6.153,5.01-7.231,11.831-6.409c2.098,0.253,4.213,0.354,6.321,0.525c0.694-0.843,1.389-1.685,2.083-2.527
		c-1.295-0.28-2.82-0.219-3.844-0.905c-3.305-2.214-6.828-4.318-9.538-7.16c-7.576-7.945-11.616-16.577-6.344-27.956
		c3.97-8.567,6.632-17.776,9.434-26.837c2.163-6.996,5.272-12.648,14.216-13.598c-5.398-8.215-1.497-15.307,1.401-22.521
		c3.662-9.116,7.45-18.187,10.853-27.399c2.589-7.008,7.441-10.553,14.726-10.478c5.812,0.059,11.673,0.33,17.41,1.192
		c3.801,0.572,5.605-0.567,7.405-3.809c16.891-30.425,36.46-58.947,61.027-83.767c19.509-19.711,41.104-36.505,67.399-46.396
		c21.355-8.032,43.226-10.549,65.783-6.208c3.182,0.612,6.564,0.529,9.825,0.32c9.443-0.605,18.793-0.048,27.402,4.008
		c8.276,3.899,16.486,3.713,25.293,2.589c12.516-1.597,25.173-2.17,37.787-2.893c66.929-3.837,125.176,20.92,179.839,55.984
		c48.844,31.333,89.734,71.087,120.871,120.404c12.139,19.228,22.189,39.522,28.59,61.344c3.293,11.221,5.322,22.904,6.848,34.52
		C764.396,307.765,763.561,315.879,763.561,324.298z M140.77,337.2c-20.647-1.75-40.69-3.385-60.714-5.215
		c-3.058-0.279-3.503,1.485-4.315,3.568c-8.176,20.992-13.83,42.653-18.126,64.755c-1.144,5.885,1.109,8.445,5.591,10.39
		c2.106,0.914,4.426,1.604,6.702,1.814c15.569,1.434,31.15,2.756,46.739,3.951c1.087,0.083,2.782-0.853,3.334-1.81
		c3.815-6.619,7.351-13.398,11.072-20.073C141.006,376.729,143.432,357.643,140.77,337.2z M139.342,417.917
		c16.544,0.534,31.841,1.146,47.145,1.487c13.824,0.307,19.783-5.136,21.516-18.726c1.051-8.244,2.255-16.484,3.823-24.643
		c2.058-10.71,4.543-21.337,6.976-32.607c-16.419-1.341-32.558-2.658-49.491-4.041C168.247,368.913,155.819,393.729,139.342,417.917
		z M629.764,483.902c20.197,0.832,40.395,1.663,61.189,2.519c-0.346-7.201-0.654-13.613-0.994-20.694
		C670.734,475.414,650.621,480.65,629.764,483.902z M518.154,471.348c-0.259,2.737-0.47,4.958-0.781,8.229
		c12.176,0,23.86,0,33.881,0C541.639,477.186,530.29,474.364,518.154,471.348z"/>
</g>
</svg>
