<?xml version="1.0" encoding="iso-8859-1"?>
<!-- Generator: Adobe Illustrator 16.0.0, SVG Export Plug-In . SVG Version: 6.00 Build 0)  -->
<!DOCTYPE svg PUBLIC "-//W3C//DTD SVG 1.1//EN" "http://www.w3.org/Graphics/SVG/1.1/DTD/svg11.dtd">
<svg version="1.1" id="Layer_1" xmlns="http://www.w3.org/2000/svg" xmlns:xlink="http://www.w3.org/1999/xlink" x="0px" y="0px"
	 width="1120px" height="1060px" viewBox="0 0 1120 1060" enable-background="new 0 0 1120 1060" xml:space="preserve">
<g>
	<path fill-rule="evenodd" clip-rule="evenodd" d="M63.812,305.324c-1.361-0.812-2.844-1.473-4.06-2.463
		c-3.716-3.027-7.76-5.802-10.891-9.365c-5.953-6.772-8.198-14.292-4.564-23.454c3.609-9.101,6.199-18.633,8.814-28.093
		c1.938-7.013,4.793-12.829,13.688-14.178c-5.179-7.229-2.46-13.758,0.023-20.387c3.387-9.04,6.792-18.084,9.773-27.262
		c3.051-9.394,5.85-13.341,19.712-13.712c3.648-0.098,7.447-0.094,10.938,0.796c5.315,1.354,7.525-0.889,9.853-5.365
		c18.706-35.978,40.834-69.532,70.854-97.274c21.413-19.787,45.471-34.738,74.659-40.143c12.93-2.395,25.828-1.928,38.787-0.234
		c4.407,0.576,8.936,0.166,13.373,0.584c6.912,0.651,14.35,0.25,20.564,2.765c10.958,4.436,21.485,4.133,32.717,2.16
		c10.29-1.809,20.818-2.394,31.268-3.128c10.376-0.729,20.802-1.539,31.178-1.263c9.784,0.262,19.692,1.101,29.27,3.043
		c103.212,20.94,183.976,76.265,245.196,161.122c12.418,17.213,22.33,35.956,29.67,55.856c4.611,12.508,8.889,25.252,9.596,38.843
		c0.279,5.351,1.598,10.642,1.982,15.993c0.35,4.86,0.074,9.765,0.074,14.971c0.619,0.263,1.5,0.674,2.408,1.016
		c6.998,2.643,9.666,6.584,8.559,14.157c-1.756,12.012-6.922,22.465-15.205,31.437c-1.504,1.629-2.711,4.14-2.857,6.323
		c-2.615,38.867-4.086,77.81-11.219,116.279c-2.457,13.26-6.967,24.284-19.82,30.137c-5.34,2.432-6.334,6.187-6.412,11.779
		c-1.34,94.323-19.473,185.288-56.895,271.969c-17.947,41.57-40.471,80.711-70.314,115.19
		c-22.248,25.705-47.335,47.773-78.822,61.73c-15.524,6.882-31.853,10.46-48.531,13.039
		c-50.319,7.782-100.758,14.916-150.866,23.891c-47.933,8.586-87.167-6.97-121.265-39.321
		c-29.862-28.333-50.987-62.802-67.369-100.116c-9.483-21.602-17.431-43.932-25.059-66.279
		c-12.981-38.031-7.268-74.231,12.981-108.401c9.204-15.531,19.577-30.253,34.109-41.414c8.204-6.3,13.938-6.406,22.257-0.318
		c38.405,28.104,70.11,61.92,89.47,106.083c9.62,21.944,18.15,44.416,28.731,65.881c16.172,32.806,37.057,62.463,64.714,86.831
		c7.342,6.468,15.331,12.202,23.158,18.38c14.031-14.559,25.341-30.153,35.288-46.785c19.72-32.974,33.193-68.479,43.77-105.309
		c11.381-39.629,19.246-79.852,24.122-120.775c5.308-44.56,7.787-89.239,8.115-134.085c0.035-4.715-1.505-6.664-5.771-8.165
		c-8-2.815-15.712-6.438-23.627-9.513c-8.439-3.278-12.7-10.109-15.142-18.117c-2.908-9.534-4.949-19.33-7.68-28.924
		c-9.312-32.717-9.297-32.781-35.274-54.887c-21.72-18.483-43.215-37.18-61.313-59.385c-23.873-29.292-41.612-61.814-51.627-98.386
		c-0.168-0.612-0.438-1.196-1.13-3.05c-2.315,5.594-4.297,10.168-6.105,14.81c-1.742,4.472-4.643,7.555-9.313,9.039
		c-1.277,0.405-2.872,1.394-3.341,2.521c-6.003,14.426-11.828,28.925-17.858,43.799c8.319,2.462,9.361,8.89,8.867,15.553
		c-0.352,4.741-1.4,9.623-3.154,14.037c-11.405,28.708-17.614,58.562-20.813,89.188c-0.611,5.852-2.294,11.822-4.679,17.209
		c-5.027,11.357-14.017,17.929-26.594,19.157c-2.486,0.242-4.979,0.664-7.464,0.637c-35.99-0.407-71.99-0.499-107.967-1.46
		c-25.086-0.67-41.65-18.205-41.329-43.207c0.466-36.273,5.221-72.021,14.824-107.062c0.352-1.284,0.738-2.561,1.164-3.822
		c3.056-9.068,4.56-10.079,14.053-9.623c1.748,0.084,3.503,0.013,5.254,0.013C63.482,306.318,63.647,305.821,63.812,305.324z
		 M110.117,420.17c15.693-25.355,26.694-50.512,20.034-80.058c-21.437-1.091-42.671-2.172-63.987-3.257
		c-8.43,23.3-14.311,46.812-17.278,71.001c-0.242,1.973,1.68,4.773,3.399,6.266c1.761,1.529,4.463,2.541,6.832,2.716
		C76.527,418.125,93.958,419.146,110.117,420.17z M131.78,420.753c17.904,0,34.34,0.235,50.765-0.089
		c9.753-0.193,15.738-5.817,17.247-15.47c1.155-7.387,1.634-14.88,2.815-22.262c2.041-12.751,4.393-25.452,6.731-38.838
		c-16.607-0.815-33.215-1.63-50.333-2.47C158.771,371.221,147.106,396.195,131.78,420.753z M613.578,480.096
		c20.688,0,41.375,0,62.43,0c-0.404-6.824-0.793-13.368-1.227-20.665C655.305,470.023,634.83,475.753,613.578,480.096z
		 M539.037,478.647c-13.362-2.83-26.229-5.556-39.613-8.392c-0.189,2.875-0.358,5.436-0.553,8.392
		C512.348,478.647,525.396,478.647,539.037,478.647z"/>
</g>
</svg>
