<?xml version="1.0" encoding="iso-8859-1"?>
<!-- Generator: Adobe Illustrator 16.0.0, SVG Export Plug-In . SVG Version: 6.00 Build 0)  -->
<!DOCTYPE svg PUBLIC "-//W3C//DTD SVG 1.1//EN" "http://www.w3.org/Graphics/SVG/1.1/DTD/svg11.dtd">
<svg version="1.1" id="Layer_1" xmlns="http://www.w3.org/2000/svg" xmlns:xlink="http://www.w3.org/1999/xlink" x="0px" y="0px"
	 width="1120px" height="1060px" viewBox="0 0 1120 1060" enable-background="new 0 0 1120 1060" xml:space="preserve">
<g>
	<path fill-rule="evenodd" clip-rule="evenodd" d="M67.217,303.892c-1.138-0.729-2.33-1.385-3.403-2.198
		c-3.305-2.502-6.976-4.682-9.762-7.677c-6.998-7.525-10.295-15.782-5.835-26.362c3.8-9.014,6.342-18.582,9.08-28.01
		c1.944-6.694,4.917-12.069,13.388-13.136c-5.546-8.886-1.033-16.413,1.784-24.121c3.028-8.288,6.039-16.583,9.194-24.823
		c3.596-9.39,7.915-12.472,18.044-12.47c4.979,0.001,10.028,0.324,14.912,1.224c3.392,0.624,4.674-0.621,6.085-3.305
		c13.604-25.873,29.092-50.528,48.058-72.858c19.361-22.793,40.993-42.896,68.399-55.804c23.725-11.175,48.496-15.01,74.446-9.901
		c2.406,0.474,5.036,0.606,7.434,0.177c8.66-1.552,17.159-0.471,24.992,2.879c9.298,3.977,18.267,4.37,28.172,2.679
		c12.255-2.092,24.797-2.791,37.249-3.372c12.066-0.564,24.208-0.826,36.256-0.144c25.973,1.471,50.964,8.022,75.096,17.367
		c81.455,31.542,147.301,82.797,195.27,156.248c12.07,18.483,21.582,38.303,27.957,59.421c3.746,12.407,6.98,25.08,6.631,38.303
		c-0.172,6.521-0.029,13.049-0.029,19.577c1.234,0.536,1.957,0.899,2.713,1.172c7.383,2.655,10.039,6.537,8.854,14.386
		c-1.787,11.839-6.99,22.101-15.162,30.916c-1.422,1.533-2.674,3.797-2.85,5.824c-2.57,29.693-4.631,59.436-7.525,89.096
		c-1.143,11.715-4.115,23.246-6.121,34.884c-1.51,8.761-5.594,15.899-13.803,19.564c-9.289,4.149-10.816,10.913-11.041,20.506
		c-1.574,66.957-12.717,132.367-32.553,196.401c-17.686,57.097-42.527,110.609-77.344,159.264
		c-20.002,27.951-43.273,52.829-72.062,72.089c-23.562,15.763-49.549,24.52-77.601,28.412c-46.14,6.402-92.153,13.716-138.24,20.505
		c-11.685,1.721-23.415,3.736-35.18,4.193c-36.585,1.421-66.951-13.645-93.655-37.261c-27.125-23.986-46.743-53.623-63.154-85.547
		c-15.122-29.414-26.973-60.153-35.825-91.993c-10.161-36.55-3.196-70.677,16.499-102.366c6.559-10.553,14.691-20.156,22.448-29.921
		c2.759-3.474,6.344-6.389,9.89-9.121c9.494-7.314,14.634-7.404,24.223-0.229c35.713,26.724,65.834,58.385,84.871,99.25
		c8.285,17.786,14.606,36.479,22.703,54.36c17.177,37.935,38.948,72.887,69.81,101.405c8.39,7.753,17.695,14.515,27.535,22.506
		c8.572-10.572,17.001-19.991,24.338-30.196c23.547-32.751,40.179-68.953,52.236-107.342c11.484-36.566,21.73-73.458,26.644-111.559
		c3.681-28.545,7.254-57.138,9.569-85.814c2.036-25.214,2.21-50.575,3.338-75.866c0.156-3.495-0.815-5.338-4.309-6.587
		c-6.889-2.463-13.417-5.969-20.356-8.249c-11.955-3.929-17.872-12.615-20.733-24.155c-2.521-10.171-4.859-20.395-7.705-30.475
		c-7.688-27.229-7.773-27.21-29.192-45.662c-22.602-19.472-45.253-38.879-64.189-62.146c-24.725-30.38-42.929-64.101-52.713-102.179
		c-0.285-1.109-0.718-2.182-1.418-4.277c-3.144,7.373-5.513,14.088-8.853,20.279c-1.677,3.108-4.736,6.004-7.877,7.628
		c-2.748,1.422-4.405,2.83-5.535,5.666c-5.109,12.82-10.448,25.55-15.679,38.321c-0.374,0.914-0.553,1.908-0.816,2.842
		c7.386,4.08,10.167,10.698,7.608,20.444c-1.894,7.214-4.747,14.184-7.311,21.212c-9.244,25.341-14.241,51.596-17.158,78.325
		c-0.394,3.606-1.261,7.225-2.397,10.678c-5.111,15.532-15.885,24.237-32.228,24.409c-26.319,0.277-52.652-0.052-78.969-0.618
		c-13.954-0.301-28.043-0.627-41.789-2.76c-18.588-2.886-32.223-19.645-32.152-38.572c0.142-37.994,5.705-75.285,16.078-111.845
		c0.543-1.913,1.376-3.743,2.05-5.621c1.81-5.044,5.101-7.53,10.702-6.719c2.494,0.361,5.084,0.061,7.63,0.061
		C66.988,304.699,67.103,304.295,67.217,303.892z M113.094,418.917c3.498-6.569,6.265-12.249,9.458-17.677
		c10.428-17.726,13.917-36.762,11.638-57.097c-0.42-3.744-1.546-5.084-5.359-5.279c-18.768-0.962-37.529-2.1-56.273-3.442
		c-3.365-0.24-3.809,1.633-4.63,3.868c-7.886,21.457-12.961,43.62-16.795,66.108c-0.592,3.473,0.455,5.982,3.542,7.357
		c2.845,1.266,5.823,2.556,8.863,2.989c5.752,0.82,11.584,1.136,17.394,1.479C91.859,417.867,102.793,418.382,113.094,418.917z
		 M133.66,420.282c17.836,0,33.98,0.276,50.109-0.094c11.606-0.266,16.619-5.059,18.344-16.396
		c1.777-11.677,3.146-23.419,5.079-35.068c1.354-8.157,3.356-16.208,5.167-24.768c-16.844-1.021-33.198-2.014-50.286-3.051
		C161.501,370.248,149.888,395.272,133.66,420.282z M680.359,481.375c-0.359-6.651-0.711-13.138-1.092-20.195
		c-19.26,10.373-39.266,15.655-59.73,20.195C639.561,481.375,659.586,481.375,680.359,481.375z M504.099,479.019
		c13.996,0,27.43,0,39.506,0c-11.764-2.581-24.94-5.473-38.458-8.438C504.789,473.467,504.491,475.86,504.099,479.019z"/>
</g>
</svg>
