<?xml version="1.0" encoding="iso-8859-1"?>
<!-- Generator: Adobe Illustrator 16.0.0, SVG Export Plug-In . SVG Version: 6.00 Build 0)  -->
<!DOCTYPE svg PUBLIC "-//W3C//DTD SVG 1.1//EN" "http://www.w3.org/Graphics/SVG/1.1/DTD/svg11.dtd">
<svg version="1.1" id="Layer_1" xmlns="http://www.w3.org/2000/svg" xmlns:xlink="http://www.w3.org/1999/xlink" x="0px" y="0px"
	 width="1120px" height="1060px" viewBox="0 0 1120 1060" enable-background="new 0 0 1120 1060" xml:space="preserve">
<g>
	<path fill-rule="evenodd" clip-rule="evenodd" d="M360.971,925.595c7.017-10.426,14.344-20.316,20.627-30.831
		c20.685-34.611,33.698-72.218,43.55-111.187c11.181-44.22,17.758-89.039,21.097-134.467c2.971-40.426,3.978-80.856,2.743-121.364
		c-0.107-3.498-1.045-5.231-4.539-6.339c-7.769-2.464-15.256-5.834-23.055-8.179c-9.381-2.82-15.007-9.197-17.953-17.972
		c-3.492-10.401-6.121-21.09-9.475-31.541c-10.171-31.697-10.469-31.406-35.695-53.166c-19.282-16.633-38.841-33.125-56.55-51.356
		c-24.736-25.468-42.742-55.647-55.136-89.035c-0.515-1.388-1.141-2.735-1.643-3.929c-8.109,2.074-11.43,7.684-13.573,15.221
		c-2.813,9.893-6.917,19.416-10.423,29.114c-0.67,1.854-1.139,3.782-1.697,5.663c7.021,2.47,10.192,7.931,9.092,16.859
		c-0.646,5.24-1.919,10.494-3.628,15.497c-9.156,26.808-14.335,54.338-15.943,82.603c-0.552,9.703-2.359,19.136-8.008,27.467
		c-6.449,9.51-15.777,13.741-26.753,14.232c-26.124,1.171-52.262,2.086-78.402,2.805c-12.652,0.349-25.349,0.541-37.978-0.113
		c-21.979-1.137-38.15-17.913-38.702-40.03c-0.908-36.443,2.557-72.503,10.652-108.082c0.296-1.3,0.625-2.593,0.993-3.873
		c2.773-9.659,4.235-10.727,14.331-10.631c1.572,0.015,3.146-0.127,5.115-1.338c-1.278-0.766-2.507-1.636-3.844-2.279
		c-7.879-3.797-13.376-9.952-16.704-17.847c-1.146-2.718-1.591-6.287-0.912-9.121c3.098-12.943,6.83-25.733,10.08-38.643
		c1.401-5.568,5.523-7.98,10.91-10.194c-4.998-7.015-2.064-13.775,0.104-20.588c2.978-9.357,5.874-18.74,8.859-28.095
		c2.955-9.259,7.343-12.681,17.069-13.036c4.823-0.177,9.698-0.291,14.48,0.216c3.702,0.392,5.198-1.048,6.655-4.188
		c14.503-31.257,31.334-61.202,54.593-86.822C162.216,69.012,174.29,57.7,187.286,48.02c24.922-18.564,53.332-25.829,84.447-21.484
		c4.569,0.638,9.289,0.142,13.933,0.322c4.148,0.161,8.589-0.344,12.38,0.96c17.381,5.978,34.557,3.742,52.141,0.83
		c14.981-2.48,30.301-3.578,45.503-3.952C452.419,23.3,504.11,41.198,553.087,67.93c49.481,27.007,91.771,62.656,125.505,108.094
		c13.656,18.395,25.203,38.053,33.418,59.424c4.254,11.063,7.576,22.626,9.885,34.249c1.723,8.677,1.438,17.809,1.488,26.741
		c0.031,5.626,1.395,8.579,6.625,10.532c4.426,1.652,7.303,6.019,6.682,11.582c-1.465,13.071-6.299,24.716-15.369,34.508
		c-1.504,1.623-2.734,4.124-2.871,6.297c-2.016,31.746-3.57,63.524-5.822,95.253c-0.764,10.75-3.203,21.379-4.812,32.072
		c-1.182,7.848-5.402,13.86-12.289,17.212c-9.773,4.757-11.566,12.003-11.467,22.375c0.871,89.691-13.992,176.834-46.326,260.53
		c-18.752,48.543-43.34,94.103-78.852,132.935c-21.081,23.052-44.907,42.65-74.921,52.445c-17.623,5.751-36.146,8.917-54.412,12.487
		c-46.369,9.064-92.813,17.744-139.243,26.496c-31.413,5.921-59.755-2.265-85.925-19.412
		c-26.552-17.397-46.686-41.064-63.971-67.269c-26.824-40.663-45.644-85.049-59.124-131.663
		c-9.007-31.146-4.348-61.386,9.483-90.355c7.288-15.265,16.561-29.302,27.842-41.907c3.745-4.184,8.038-8.01,12.582-11.311
		c6.117-4.443,12.568-4.417,19.044,0.013c45.245,30.95,80.334,69.954,99.787,122.174c14.673,39.391,34.539,76.107,61.291,108.804
		c12.824,15.673,27.172,29.771,43.78,41.463C356.708,922.837,358.388,923.887,360.971,925.595z M102.092,423.64
		c3.252-6.93,6.155-13.456,9.343-19.84c8.877-17.776,10.818-36.454,7.923-55.916c-0.515-3.459-1.846-4.283-5.087-4.308
		c-18.327-0.135-36.652-0.478-54.979-0.741c-1.966-0.028-3.934-0.004-5.909-0.004c-7.442,23.179-12.031,46.471-14.643,70.19
		c-0.388,3.521,0.734,6.072,3.972,7.091c4.074,1.282,8.286,2.592,12.502,2.856c9.138,0.572,18.316,0.537,27.479,0.654
		C89.335,423.708,95.977,423.64,102.092,423.64z M123.036,423.679c17.48-0.619,33.782-0.977,50.057-1.847
		c11.715-0.626,17.278-6.634,18.242-18.379c0.681-8.292,1.304-16.598,2.329-24.851c1.385-11.15,3.131-22.257,4.796-33.903
		c-17.02,0-33.897,0-51.391,0C147.591,373.487,137.388,398.919,123.036,423.679z M655.869,453.156
		c-19.879,11.861-41.266,18.173-63.105,23.401c21.564-0.62,43.131-1.24,65.004-1.868
		C657.115,467.298,656.521,460.563,655.869,453.156z M476.168,479.066c16.291,0,32.001,0,47.712,0
		c-0.018-0.191-0.037-0.383-0.055-0.574c-15.484-2.562-30.969-5.125-46.746-7.736C476.771,473.569,476.469,476.332,476.168,479.066z
		"/>
</g>
</svg>
