<?xml version="1.0" encoding="iso-8859-1"?>
<!-- Generator: Adobe Illustrator 16.0.0, SVG Export Plug-In . SVG Version: 6.00 Build 0)  -->
<!DOCTYPE svg PUBLIC "-//W3C//DTD SVG 1.1//EN" "http://www.w3.org/Graphics/SVG/1.1/DTD/svg11.dtd">
<svg version="1.1" id="Layer_1" xmlns="http://www.w3.org/2000/svg" xmlns:xlink="http://www.w3.org/1999/xlink" x="0px" y="0px"
	 width="1120px" height="1060px" viewBox="0 0 1120 1060" enable-background="new 0 0 1120 1060" xml:space="preserve">
<g>
	<path fill-rule="evenodd" clip-rule="evenodd" d="M594.089,175.818c-13.714,6.193-26.579,11.532-39.02,17.724
		c-23.638,11.764-45.619,26.226-66.269,42.664c-1.467,1.168-1.867,3.727-2.654,5.683c-1.01,2.511-1.248,5.697-2.967,7.498
		c-9.201,9.638-18.794,18.902-28.175,28.372c-2.817,2.845-5.945,3.983-9.936,3.25c-1.261-0.231-3.163,0.04-3.988,0.864
		c-12.823,12.822-25.517,25.773-38.486,38.943c7.328,7.39,4.604,14.623-0.042,21.027c-4.571,6.302-10.243,11.809-15.477,17.625
		c-16.927,18.811-30.986,39.562-42.493,62.097c-2.714,5.315-5.703,10.614-9.357,15.303c-9.432,12.103-20.882,15.434-35.018,9.545
		c-13.512-5.63-26.69-12.098-39.828-18.577c-17.024-8.397-33.938-17.024-50.755-25.83c-12.909-6.76-22.878-16.145-25.273-31.449
		c-1.396-8.918-0.392-17.585,2.999-25.969c13.647-33.743,31.892-64.799,54.562-93.259c1.657-2.08,3.477-4.053,5.389-5.902
		c5.819-5.627,8.774-5.918,15.996-2.183c1.229,0.637,2.879,0.459,4.334,0.657c-0.514-1.391-0.856-2.877-1.57-4.156
		c-3.619-6.489-7.549-12.814-10.934-19.422c-1.915-3.737-0.795-7.338,2.06-10.563c8.502-9.606,16.825-19.372,25.285-29.017
		c5.473-6.239,8.021-6.762,15.664-3.502c1.82,0.776,3.592,1.668,6.381,2.973c-0.949-3.505-1.61-6.273-2.454-8.985
		c-1.476-4.749-0.487-8.609,3.101-12.248c9.242-9.371,18.38-18.854,27.25-28.576c4.167-4.566,8.667-5.386,13.833-2.74
		c5.474,2.803,10.895,5.775,16.031,9.144c3.16,2.073,5.128,1.984,8.125-0.523c35.043-29.319,72.694-54.62,114.667-73.06
		c39.039-17.151,79.501-28.297,122.561-25.027c25.67,1.95,51.358,4.919,76.082,12.899c4.104,1.325,8.179,2.952,11.966,4.999
		c10.73,5.799,21.631,10.578,34.028,12.005c13.731,1.58,26.123,7.618,38.115,14.195c28.531,15.646,52.553,36.982,74.494,60.657
		c51.658,55.741,91.467,118.963,118.071,190.256c10.941,29.319,18.834,59.45,18.296,91.047c-0.17,10.019-2.594,19.996-3.914,30.002
		c-0.128,0.974-0.086,2.274,0.454,2.981c3.584,4.688,2.854,9.698,0.142,14.031c-2.874,4.591-6.982,8.391-10.316,12.718
		c-1.938,2.515-4.173,5.18-4.979,8.131c-9.458,34.639-21.028,68.425-39.035,99.706c-1.163,2.021-2.479,3.956-3.583,6.008
		c-4.093,7.609-10.373,12.131-18.98,12.844c-3.328,0.276-4.494,1.891-5.416,4.689c-28.768,87.323-73.687,165.77-132.447,236.1
		c-49.829,59.642-107.298,110.747-176.105,148.041c-37.648,20.406-77.39,34.781-120.077,40.146
		c-32.11,4.036-63.784,1.807-94.953-7.133c-47.513-13.626-94.996-27.358-142.587-40.704c-49.626-13.916-86.915-43.7-113.659-87.258
		c-18.88-30.75-31.134-64.126-36.885-99.625c-4.764-29.408,4.703-54.921,26.567-74.891c10.725-9.795,23.137-17.895,35.398-25.812
		c10.606-6.849,16.437-5.687,23.663,4.906c14.438,21.168,28.811,42.441,41.904,64.448c13.748,23.107,22.972,48.32,30.921,74.03
		c12.901,41.725,33.503,78.974,65.425,109.448c3.676,3.509,7.131,4.378,11.988,3.58c49.155-8.072,92.974-28.834,133.781-56.483
		c53.438-36.207,97.162-82.163,135.261-134.064c56.175-76.524,96.374-160.896,126.212-250.594c1.068-3.211,0.388-5.172-1.861-7.456
		c-5.725-5.815-11.052-12.022-16.795-17.818c-7.433-7.5-9.363-16.487-8.321-26.622c0.953-9.271,1.385-18.596,2.326-27.867
		c0.573-5.646-1.207-9.989-4.701-14.513c-32.736-42.369-58.699-88.472-75.48-139.48c-7.258-22.059-13.003-44.563-12.806-67.931
		c0.108-12.729,2.328-25.44,3.606-38.158C593.515,178.881,593.694,178.116,594.089,175.818z M258.25,370.82
		c8.322-6.75,16.245-12.829,23.774-19.361c13.649-11.841,22.338-26.666,25.962-44.463c0.748-3.671-0.031-5.715-3.505-7.513
		c-9.907-5.129-19.599-10.673-29.381-16.043c-5.35-2.936-10.711-5.85-16.089-8.785c-17.428,18.312-32.125,38.035-44.749,59.323
		c-3.163,5.334-2.935,7.838,1.429,12.283c1.607,1.638,3.567,3.03,5.579,4.153C233.626,357.312,246.042,364.099,258.25,370.82z
		 M334.65,316.219c-11.858,28.509-34.793,46.289-58.739,63.882c14.716,7,28.308,13.668,42.081,19.937
		c7.584,3.451,12.937,1.662,17.712-5.161c1.427-2.039,2.52-4.31,3.817-6.441c9.861-16.194,19.735-32.382,29.603-48.572
		c0.665-1.091,1.314-2.191,2.121-3.538C359.159,329.685,347.365,323.204,334.65,316.219z M852.837,549.018
		c-0.14,0.226-0.279,0.452-0.42,0.678c8.013,4.628,16.024,9.255,24.709,14.271c1.092-4.829,2.017-8.922,2.926-12.943
		C870.623,550.329,861.729,549.673,852.837,549.018z"/>
</g>
</svg>
