<?xml version="1.0" encoding="iso-8859-1"?>
<!-- Generator: Adobe Illustrator 16.0.0, SVG Export Plug-In . SVG Version: 6.00 Build 0)  -->
<!DOCTYPE svg PUBLIC "-//W3C//DTD SVG 1.1//EN" "http://www.w3.org/Graphics/SVG/1.1/DTD/svg11.dtd">
<svg version="1.1" id="Layer_1" xmlns="http://www.w3.org/2000/svg" xmlns:xlink="http://www.w3.org/1999/xlink" x="0px" y="0px"
	 width="1120px" height="1060px" viewBox="0 0 1120 1060" enable-background="new 0 0 1120 1060" xml:space="preserve">
<g>
	<path fill-rule="evenodd" clip-rule="evenodd" d="M721.168,201.686c-16.023,4.631-31.342,8.527-46.305,13.493
		c-31.266,10.376-60.664,24.862-88.85,41.862c-2.201,1.328-3.088,2.698-3.15,5.472c-0.051,2.302-1.318,5.31-3.076,6.719
		c-10.658,8.541-21.475,16.901-32.583,24.842c-2.123,1.517-5.777,0.92-8.731,1.234c-1.481,0.157-3.423-0.41-4.401,0.338
		c-15.324,11.723-30.524,23.607-45.648,35.373c4.681,8.977,4.35,13.986-2.775,20.82c-8.16,7.827-17.148,14.782-25.586,22.33
		c-16.214,14.502-30.385,30.837-42.953,48.584c-2.404,3.395-4.877,6.766-7.592,9.912c-12.133,14.066-25.531,15.899-40.454,4.916
		c-14.621-10.76-28.951-21.93-43.154-33.238c-13.03-10.374-25.88-20.989-38.514-31.843c-10.186-8.75-15.706-20.122-14.287-33.616
		c0.748-7.104,2.582-14.668,6.063-20.814c18.535-32.724,42.271-61.396,70.069-86.708c1.473-1.341,3.092-2.545,4.75-3.653
		c6.152-4.112,9.379-3.869,15.252,0.622c1.044,0.798,2.722,0.767,4.106,1.119c-0.328-1.292-0.451-2.682-1.017-3.858
		c-2.873-5.973-6.021-11.817-8.751-17.854c-1.837-4.061-0.914-7.564,2.722-10.628c10.063-8.482,19.885-17.25,29.875-25.82
		c4.894-4.198,7-4.39,12.417-0.61c4.202,2.933,8.046,6.377,12.903,10.28c-1.383-5.673-2.329-10.593-3.806-15.349
		c-1.773-5.71-0.321-9.731,4.524-13.373c10.119-7.604,19.876-15.689,29.813-23.538c5.399-4.265,7.737-4.508,13.315-0.22
		c5.394,4.147,10.363,8.848,15.905,13.64c4.862-3.076,9.867-6.283,14.911-9.428c45.871-28.603,94.07-52.072,146.49-66.155
		c28.428-7.638,57.277-12.54,86.816-11.669c11.459,0.338,22.881,1.844,34.32,2.789c1.309,0.108,2.916,0.529,3.902-0.035
		c12.988-7.428,25.57-2.865,38,1.417c6.268,2.159,12.186,5.351,18.223,8.159c10.562,4.913,20.279,11.088,32.209,13.647
		c15.852,3.401,28.732,13.632,40.809,24.284c26.447,23.332,47.801,51.074,67.578,79.982
		c46.541,68.025,80.195,141.901,98.754,222.378c4.914,21.311,8.453,42.932,5.416,64.863c-1.168,8.431-4.357,16.578-6.564,24.871
		c-0.293,1.103-0.723,2.618-0.23,3.405c2.979,4.758,1.652,9.113-1.439,12.89c-2.605,3.186-5.688,6.155-9.066,8.485
		c-3.332,2.299-5.34,5.003-6.807,8.766c-11.67,29.918-26.141,58.345-45.721,83.965c-2.223,2.908-4.584,5.726-7.064,8.415
		c-4.201,4.556-9.369,6.908-15.666,5.922c-3.059-0.479-4.764,0.414-6.166,3.393c-40.273,85.507-96.498,159.548-164.756,224.283
		c-63.633,60.348-134.428,110.737-215.625,145.325c-38.5,16.399-78.387,27.976-120.041,32.643
		c-59.903,6.713-116.573-2.449-169.322-33.472c-39.61-23.296-80.131-45.05-120.35-67.303
		c-46.631-25.801-76.016-65.245-91.953-115.43c-3.738-11.77-6.9-23.646-6.215-36.21c0.81-14.858,6.388-27.588,17.446-37.488
		c12.849-11.504,26.738-21.532,43.517-26.743c10.342-3.212,15.716-1.572,21.452,7.8c9.125,14.913,18.084,29.944,26.594,45.215
		c17.472,31.351,31.542,64.218,43.263,98.143c6.063,17.549,14.931,33.763,25.243,49.226c2.55,3.824,5.551,5.055,9.81,5.366
		c36.325,2.66,71.784-2.348,106.619-12.247c61.785-17.559,117.648-47.152,169.178-85.029
		c80.638-59.273,145.197-133.454,199.419-217.062c24.055-37.091,45.416-75.672,64.17-115.711c1.539-3.288,1.578-5.59-0.533-8.563
		c-4.723-6.651-8.781-13.786-13.643-20.328c-6.383-8.591-8.266-18.061-4.885-27.859c4.521-13.11,1.922-23.879-4.945-35.963
		c-25.951-45.655-46.125-93.853-56.812-145.493c-3.289-15.894-4.154-32.29-6.109-48.458
		C721.318,205.819,721.322,204.516,721.168,201.686z M342.667,356.754c9.862-6.214,19.386-11.709,28.362-17.987
		c14.277-9.984,24.873-22.961,30.16-39.89c0.859-2.751,0.515-4.454-1.828-6.401c-9.732-8.09-19.25-16.437-28.853-24.683
		c-3.62-3.108-7.254-6.199-10.98-9.383c-19.11,15.422-35.849,32.479-51.424,50.812c-6.178,7.271-5.311,11.445,0.923,17.603
		C319.777,337.441,331.578,346.994,342.667,356.754z M357.774,369.156c13.438,10.179,25.874,19.879,38.639,29.125
		c4.851,3.513,10.258,2.584,14.515-1.668c2.454-2.45,4.394-5.409,6.622-8.092c11.783-14.194,23.578-28.379,35.387-42.55
		c1.128-1.354,2.39-2.597,3.83-4.15c-10.72-9.201-21.024-18.046-31.988-27.456C408.688,340.037,383.527,354.244,357.774,369.156z
		 M953.283,565.9c-0.277,0.241-0.555,0.482-0.832,0.724c2.734,2.606,5.469,5.213,8.764,8.354c0.814-2.669,1.311-4.295,1.855-6.078
		C959.498,567.805,956.391,566.853,953.283,565.9z"/>
</g>
</svg>
