<?xml version="1.0" encoding="iso-8859-1"?>
<!-- Generator: Adobe Illustrator 16.0.0, SVG Export Plug-In . SVG Version: 6.00 Build 0)  -->
<!DOCTYPE svg PUBLIC "-//W3C//DTD SVG 1.1//EN" "http://www.w3.org/Graphics/SVG/1.1/DTD/svg11.dtd">
<svg version="1.1" id="Layer_1" xmlns="http://www.w3.org/2000/svg" xmlns:xlink="http://www.w3.org/1999/xlink" x="0px" y="0px"
	 width="1120px" height="1060px" viewBox="0 0 1120 1060" enable-background="new 0 0 1120 1060" xml:space="preserve">
<g>
	<path fill-rule="evenodd" clip-rule="evenodd" d="M717.785,201.596c-8.977,2.252-17.701,4.182-26.275,6.639
		c-38.352,10.989-74.223,27.575-108.219,48.348c-1.908,1.166-3.215,2.016-2.846,4.964c0.273,2.163-1.098,5.405-2.834,6.806
		c-10.889,8.788-21.96,17.366-33.299,25.561c-1.973,1.426-5.5,0.724-8.314,0.953c-1.49,0.121-3.45-0.466-4.416,0.279
		c-15.275,11.792-30.424,23.748-45.525,35.606c4.7,8.158,4.355,13.138-1.69,19.779c-3.233,3.553-6.928,6.738-10.686,9.75
		c-22.513,18.048-42.116,38.788-58.657,62.451c-3.23,4.621-6.694,9.213-10.733,13.11c-11.208,10.815-22.355,11.931-35.202,3.138
		c-10.713-7.333-21.021-15.285-31.242-23.304c-16.516-12.956-33.038-25.922-49.146-39.377
		c-20.664-17.262-24.051-37.673-10.426-60.842c18.115-30.805,40.573-58.154,66.69-82.509c2.299-2.144,4.857-4.091,7.541-5.729
		c5.682-3.468,8.224-3.062,13.521,1.044c1.168,0.906,2.95,1.021,4.449,1.499c-0.385-1.43-0.571-2.952-1.189-4.271
		c-2.881-6.152-6.041-12.179-8.776-18.393c-1.56-3.543-0.579-6.723,2.489-9.37c10.34-8.929,20.626-17.922,30.841-26.993
		c3.547-3.15,7.134-3.425,10.859-0.713c4.281,3.116,8.415,6.436,13.608,10.433c-1.208-4.957-1.881-9.068-3.226-12.947
		c-2.488-7.174-0.615-12.132,5.677-16.64c9.739-6.975,18.819-14.867,28.239-22.294c5.626-4.436,7.47-4.636,13.257-0.252
		c5.428,4.111,10.436,8.778,16.091,13.595c1.23-0.776,2.739-1.7,4.222-2.665c48.141-31.315,98.872-57.125,154.489-72.49
		c40.887-11.296,82.275-16.192,124.539-9.352c0.943,0.152,2.148,0.369,2.869-0.057c11.678-6.876,23.373-3.245,34.717,0.474
		c8.182,2.681,15.945,6.706,23.754,10.428c9.781,4.661,19,9.941,29.955,12.56c18.898,4.515,33.791,16.875,47.627,30.067
		c29.254,27.894,53.131,60.153,74.742,94.096c38.303,60.156,66.713,124.676,83.885,193.99c5.424,21.885,9.162,44.023,7.875,66.726
		c-0.596,10.528-2.389,20.78-6.848,30.457c-0.529,1.149-0.881,2.951-0.348,3.921c2.529,4.617,1.441,8.812-1.371,12.596
		c-1.963,2.64-4.252,5.386-7.025,7.003c-5.928,3.457-8.385,8.861-10.746,14.869c-11.75,29.908-26.611,58.123-46.457,83.56
		c-5.598,7.173-11.812,12.639-21.914,11.104c-1.246-0.188-3.521,2.007-4.27,3.593c-12.945,27.468-27.496,54.057-44.111,79.457
		c-76.615,117.132-175.979,209.501-300.324,274.31c-44.57,23.23-91.642,39.569-141.554,47.02
		c-51.19,7.642-101.468,4.96-149.451-15.878c-19.034-8.267-37.039-18.952-55.319-28.892c-32.044-17.422-63.84-35.301-95.919-52.656
		c-46.565-25.192-76.243-64.055-92.526-113.723c-3.145-9.592-5.54-19.571-6.949-29.56c-2.607-18.478,2.969-34.78,16.645-47.555
		c12.847-12.001,27.087-22.12,44.193-27.47c10.229-3.2,15.435-1.823,21.089,7.496c10.708,17.652,21.288,35.406,31.19,53.518
		c15.369,28.109,27.717,57.576,38.087,87.903c6.499,19.007,15.853,36.636,27.191,53.244c2.531,3.707,5.437,5.073,9.823,5.368
		c47.794,3.213,93.463-6.407,137.885-22.989c71.525-26.698,134.301-67.653,190.27-119.114
		c88.525-81.394,155.84-178.221,206.934-286.715c2.111-4.482,2.096-7.644-0.955-11.658c-4.824-6.354-8.699-13.423-13.398-19.882
		c-5.506-7.568-6.732-15.693-4.803-24.644c1.574-7.306,4.82-14.99,3.709-21.927c-1.115-6.948-6.762-13.15-10.34-19.725
		c-24.879-45.7-45.076-93.278-55.514-144.447c-3.242-15.895-3.902-32.316-5.738-48.497
		C718.027,204.647,717.953,203.508,717.785,201.596z M356.897,258.688c-19.833,16.054-37.256,33.833-53.074,53.267
		c-2.658,3.266-2.863,6.089-1.218,9.482c0.794,1.638,1.459,3.547,2.749,4.703c11.713,10.505,23.552,20.871,34.895,30.874
		c9.613-6.046,18.357-11.22,26.759-16.901c14.896-10.074,26.024-23.247,31.406-40.681c0.557-1.804,0.319-4.982-0.866-6.021
		C384.287,281.784,370.766,270.452,356.897,258.688z M355.692,369.224c12.268,9.387,23.392,18.089,34.725,26.511
		c9.474,7.04,15.019,5.944,22.286-3.586c8.368-10.974,16.7-21.983,25.386-32.703c4.999-6.17,10.669-11.797,16.328-17.986
		c-10.674-9.04-21.137-17.902-32.083-27.172C406.344,340.14,381.299,354.31,355.692,369.224z M958.811,575.632
		c0.998-2.953,1.594-4.719,2.273-6.731c-3.896-1.104-7.25-2.054-10.811-3.062C953.068,569.044,955.549,571.89,958.811,575.632z"/>
</g>
</svg>
