<?xml version="1.0" encoding="iso-8859-1"?>
<!-- Generator: Adobe Illustrator 16.0.0, SVG Export Plug-In . SVG Version: 6.00 Build 0)  -->
<!DOCTYPE svg PUBLIC "-//W3C//DTD SVG 1.1//EN" "http://www.w3.org/Graphics/SVG/1.1/DTD/svg11.dtd">
<svg version="1.1" id="Layer_1" xmlns="http://www.w3.org/2000/svg" xmlns:xlink="http://www.w3.org/1999/xlink" x="0px" y="0px"
	 width="1120px" height="1060px" viewBox="0 0 1120 1060" enable-background="new 0 0 1120 1060" xml:space="preserve">
<g>
	<path fill-rule="evenodd" clip-rule="evenodd" d="M462.59,168.979c-7.943,5.78-15.838,10.767-22.845,16.785
		c-13.637,11.712-26.771,24.009-40.127,36.048c-2.101,1.894-2.956,3.821-2.469,6.949c0.389,2.494-0.358,5.779-1.823,7.846
		c-7.802,11.007-15.851,21.848-24.156,32.479c-1.682,2.152-4.8,4.351-7.314,4.42c-4.159,0.115-6.128,2.007-8.274,5.027
		c-8,11.259-16.259,22.333-24.378,33.508c-1.166,1.604-2.098,3.378-3.222,5.209c7.119,5.332,6.064,12.271,3.348,18.986
		c-1.849,4.571-4.625,8.866-7.519,12.901c-17.137,23.889-29.779,49.983-39.354,77.724c-2.354,6.82-5.725,13.561-9.912,19.42
		c-7.125,9.97-17.562,13.983-29.508,11.077c-24.407-5.938-48.686-12.418-72.952-18.919c-10.766-2.884-21.478-6.051-32.026-9.645
		c-15.269-5.201-26.003-15.192-28.521-31.649c-1.031-6.738-0.784-14.097,0.767-20.732c8.233-35.236,21.646-68.514,39.536-99.973
		c1.069-1.88,2.245-3.709,3.5-5.471c5.04-7.077,7.581-7.836,16.025-5.403c1.478,0.426,3.219-0.062,4.839-0.128
		c-0.862-1.258-1.5-2.783-2.625-3.73c-6.171-5.193-10.689-11.613-12.793-19.282c-0.867-3.159-0.629-7.541,0.962-10.295
		c6.827-11.819,14.373-23.222,21.595-34.815c2.371-3.807,5.765-5.373,10.116-5.114c1.971,0.116,3.936,0.331,5.828,0.495
		c0.237-0.422,0.579-0.776,0.504-0.933c-3.794-7.956-1.328-14.456,3.803-21.076c6.932-8.942,13.153-18.443,19.51-27.819
		c3.321-4.898,7.773-6.842,13.332-5.358c6.251,1.669,12.516,3.512,18.467,6.009c3.978,1.67,6.121,0.758,8.833-2.26
		c26.852-29.884,56.469-56.61,90.656-77.959c29.535-18.443,60.872-32.313,95.855-36.42c20.694-2.429,41.223-1.632,61.455,3.858
		c2.374,0.644,4.929,0.828,7.404,0.852c14.226,0.132,27.62,3.304,40.467,9.582c4.946,2.417,10.669,3.594,16.175,4.447
		c16.643,2.58,33.593,3.642,49.982,7.28c27.642,6.136,52.526,19.189,75.709,35.115c73.694,50.626,129.149,116.716,166.065,198.184
		c10.917,24.093,18.285,49.346,20.904,75.729c1.139,11.479,1.817,23.128-1.223,34.595c-0.414,1.559,0.268,4.271,1.439,5.234
		c4.613,3.792,4.866,8.468,3.485,13.536c-2.167,7.953-7.185,14.108-12.697,20.035c-2.002,2.153-3.748,5.131-4.275,7.979
		c-7.007,37.862-15.077,75.394-30.021,111.138c-4.208,10.064-9.648,18.253-20.806,21.041c-3.902,0.976-5.434,3.339-6.194,7.18
		c-10.043,50.664-25.842,99.515-46.934,146.635c-33.673,75.226-77.919,143.323-137.102,201.137
		c-31.413,30.687-65.997,57.1-106.169,75.544c-38.152,17.518-77.928,25.2-120.018,21.051c-40.258-3.97-80.639-6.684-120.917-10.463
		c-19.022-1.784-38.256-3.334-56.826-7.515c-37.127-8.358-66.423-29.949-90.684-58.68c-26.459-31.335-43.506-67.672-55.284-106.587
		c-4.279-14.14-8.185-28.571-10.284-43.154c-4.463-31.011,5.6-58.126,25.213-81.993c10.446-12.712,22.618-23.546,36.56-32.295
		c9.364-5.876,14.484-5.343,22.047,2.673c36.234,38.397,65,81.29,80.456,132.415c11.375,37.624,28.272,72.577,53.132,103.333
		c11.681,14.452,24.973,27.238,39.99,38.241c2.875,2.107,5.165,2.506,8.548,1.043c37.097-16.039,68.874-39.668,97.293-68.046
		c37.38-37.326,66.077-80.806,90.771-127.274c33.521-63.079,56.37-130.002,73.384-199.103c3.578-14.534,6.306-29.276,9.733-43.85
		c0.927-3.939-0.21-6.007-3.399-8.161c-5.79-3.912-11.041-8.632-16.881-12.459c-10.44-6.843-13.72-16.799-14.305-28.622
		c-0.714-14.446-2.044-28.869-3.472-43.266c-0.253-2.549-1.792-5.382-3.577-7.304c-20.659-22.235-40.757-44.892-57.585-70.286
		c-21.133-31.891-38.171-65.628-47.149-103.026c-6.462-26.921-6.92-54.055-1.895-81.282
		C462.848,170.91,462.702,170.406,462.59,168.979z M189.035,390.01c5.827-6.357,10.863-12.109,16.173-17.596
		c14.276-14.75,21.727-32.411,23.244-52.787c0.243-3.266-0.65-4.699-3.789-5.686c-16.353-5.135-32.67-10.388-48.91-15.867
		c-3.196-1.079-4.373,0.187-5.917,2.468c-13.027,19.249-23.734,39.721-32.516,61.217c-2.296,5.621-1.25,8.807,4.023,12.012
		c1.55,0.942,3.253,1.706,4.978,2.274C160.688,380.783,175.076,385.456,189.035,390.01z M208.761,395.789
		c4.326,1.161,7.486,2.021,10.653,2.858c11.419,3.018,22.79,6.235,34.275,8.978c10.273,2.453,16.206-0.847,20.206-10.552
		c0.824-1.999,1.403-4.099,2.222-6.1c5.858-14.316,11.704-28.639,17.664-42.912c1.382-3.311,3.191-6.442,5.042-10.132
		c-14.23-4.579-27.928-8.986-42.429-13.652C249.345,354.001,229.979,375.225,208.761,395.789z M797.666,534.508
		c0.773-6.338,1.442-11.824,2.006-16.443c-14.618,1.309-28.861,2.584-42.89,3.84C769.875,525.941,783.396,530.108,797.666,534.508z"
		/>
</g>
</svg>
