<?xml version="1.0" encoding="iso-8859-1"?>
<!-- Generator: Adobe Illustrator 16.0.0, SVG Export Plug-In . SVG Version: 6.00 Build 0)  -->
<!DOCTYPE svg PUBLIC "-//W3C//DTD SVG 1.1//EN" "http://www.w3.org/Graphics/SVG/1.1/DTD/svg11.dtd">
<svg version="1.1" id="Layer_1" xmlns="http://www.w3.org/2000/svg" xmlns:xlink="http://www.w3.org/1999/xlink" x="0px" y="0px"
	 width="1120px" height="1060px" viewBox="0 0 1120 1060" enable-background="new 0 0 1120 1060" xml:space="preserve">
<g>
	<path fill-rule="evenodd" clip-rule="evenodd" d="M394.668,320.546c5.141,6.662,5.389,12.874-0.294,20.618
		c-4.811,6.557-10.492,12.479-15.853,18.627c-16.637,19.079-30.198,40.164-41.357,62.856c-2.342,4.764-4.908,9.511-8.04,13.774
		c-9.733,13.25-21.593,16.768-36.859,10.689c-10.821-4.31-21.44-9.16-31.984-14.118c-19.739-9.282-39.45-18.634-58.998-28.31
		c-14.557-7.206-25.1-18.008-25.809-35.194c-0.282-6.821,0.478-14.183,2.83-20.532c12.936-34.92,31.19-66.964,54.157-96.294
		c1.738-2.22,3.682-4.326,5.779-6.207c4.822-4.324,7.703-4.486,13.583-1.604c1.569,0.769,3.488,0.823,5.246,1.206
		c-0.802-1.732-1.494-3.527-2.426-5.188c-3.397-6.057-7.143-11.935-10.223-18.145c-1.892-3.815-1.049-7.606,1.949-11.071
		c8.284-9.575,16.3-19.382,24.484-29.044c5.683-6.709,8.322-7.28,16.466-3.862c1.517,0.637,3.018,1.312,5.559,2.418
		c-0.968-3.314-1.682-5.877-2.466-8.418c-1.443-4.674-0.734-8.598,2.847-12.336c9.219-9.624,18.235-19.448,27.137-29.367
		c3.612-4.024,7.736-5.278,12.509-3.138c5.299,2.375,10.667,4.828,15.438,8.079c4.616,3.146,7.558,2.89,11.909-0.896
		c24.566-21.376,50.909-40.35,79.296-56.376c32.391-18.287,66.333-32.566,103.169-39.162c25.485-4.562,50.943-4.831,76.449,0.127
		c12.236,2.379,24.771,3.399,36.852,6.341c9.934,2.419,19.438,6.662,29.059,10.293c6.828,2.577,13.385,5.973,20.341,8.087
		c5.623,1.708,11.744,1.696,17.5,3.061c18.722,4.437,35.428,13.369,51.231,24.028c34.192,23.062,62.58,52.288,88.192,84.303
		c37.619,47.021,68.108,98.226,88.959,154.881c11.403,30.983,19.379,62.712,17.556,96.114c-0.387,7.098-2.033,14.125-3.027,21.194
		c-0.165,1.173-0.437,2.763,0.155,3.539c3.693,4.838,3.032,9.978,0.263,14.501c-2.827,4.617-6.896,8.457-10.2,12.806
		c-1.928,2.537-4.212,5.197-4.991,8.156c-9.189,34.87-20.289,68.996-37.917,100.678c-1.134,2.037-2.396,4.005-3.47,6.071
		c-4.141,7.972-10.516,12.822-19.535,13.72c-2.987,0.298-4.234,1.758-5.08,4.449c-28.613,91.011-74.588,172.631-135.666,245.516
		c-48.17,57.48-103.587,106.952-170.116,142.833c-35.602,19.202-73.1,32.859-113.413,38.257
		c-31.276,4.188-62.079,2.264-92.576-5.788c-47.3-12.488-94.584-25.046-141.979-37.168c-53.777-13.754-92.996-46.088-120.566-93.437
		c-18.126-31.128-30.308-64.585-35.115-100.239c-3.881-28.788,6.453-53.319,27.072-73.606
		c10.893-10.717,23.372-19.221,36.544-26.852c8.812-5.104,14.382-4.653,21.243,4.085c32.451,41.326,58.661,86.008,73.768,136.794
		c12.083,40.621,31.268,77.431,61.135,108.1c13.126,13.479,13.143,13.665,31.279,9.498c40.489-9.305,77.075-27.383,111.27-50.51
		c52.515-35.517,95.43-80.644,132.623-131.751c56.974-78.289,96.984-164.774,126.324-256.6c1.07-3.349,0.478-5.45-2.008-7.838
		c-5.643-5.423-10.788-11.367-16.477-16.738c-7.69-7.264-10.006-16.161-9.268-26.326c0.724-9.967,1.049-19.965,1.896-29.919
		c0.513-6.029-1.451-10.594-5.233-15.356c-34.048-42.881-60.956-89.767-77.975-142.001c-8.407-25.805-13.919-52.158-11.957-79.516
		c0.581-8.107,2.273-16.136,3.461-24.199c0.187-1.264,0.393-2.524,0.67-4.306c-18.69,7.024-36.202,15.216-52.44,25.671
		c-16.641,10.713-32.617,22.466-48.721,33.991c-1.472,1.053-1.8,3.744-2.585,5.704c-1.067,2.665-1.394,5.978-3.203,7.936
		c-8.815,9.543-18.04,18.708-27.075,28.049c-2.836,2.933-5.941,4.601-10.243,3.789c-1.352-0.255-3.425,0.304-4.354,1.271
		c-11.873,12.369-23.602,24.877-35.349,37.366C395.474,319.193,395.092,319.932,394.668,320.546z M250.02,372.724
		c7.184-5.958,13.675-11.39,20.218-16.759c14.529-11.925,24.04-26.968,28.057-45.359c1.594-7.297,1.438-7.325-5.403-10.858
		c-1.921-0.992-3.814-2.039-5.73-3.041c-12.638-6.604-25.279-13.202-38.363-20.035c-0.861,1.105-1.519,2.067-2.293,2.925
		c-15.794,17.479-29.41,36.524-41.077,56.978c-3.255,5.707-2.899,8.498,1.964,12.988c1.327,1.226,2.897,2.256,4.499,3.104
		C224.673,359.438,237.49,366.143,250.02,372.724z M363.015,336.337c-12.441-6.493-24.594-12.836-37.391-19.515
		c-11.16,28.739-33.886,46.75-57.498,64.78c13.614,6.214,26.095,12.022,38.67,17.618c12.389,5.512,17.81,3.431,24.271-8.551
		c6.629-12.291,13.302-24.564,20.273-36.662C354.809,347.99,358.989,342.383,363.015,336.337z M868.458,561.326
		c1.088-5.04,2.027-9.396,2.844-13.179c-10.387-0.663-19.958-1.275-30.932-1.976C850.358,551.561,859.151,556.305,868.458,561.326z"
		/>
</g>
</svg>
