<?xml version="1.0" encoding="iso-8859-1"?>
<!-- Generator: Adobe Illustrator 16.0.0, SVG Export Plug-In . SVG Version: 6.00 Build 0)  -->
<!DOCTYPE svg PUBLIC "-//W3C//DTD SVG 1.1//EN" "http://www.w3.org/Graphics/SVG/1.1/DTD/svg11.dtd">
<svg version="1.1" id="Layer_1" xmlns="http://www.w3.org/2000/svg" xmlns:xlink="http://www.w3.org/1999/xlink" x="0px" y="0px"
	 width="1120px" height="1060px" viewBox="0 0 1120 1060" enable-background="new 0 0 1120 1060" xml:space="preserve">
<g>
	<path fill-rule="evenodd" clip-rule="evenodd" d="M49.469,311.673c-1.396-0.778-2.761-1.62-4.194-2.325
		c-7.851-3.863-13.364-10.07-16.444-18.043c-1.208-3.129-1.104-7.214-0.333-10.574c2.491-10.864,5.776-21.545,8.346-32.394
		c1.593-6.725,3.94-12.451,12.438-14.096c-5.642-7.516-2.282-14.427-0.144-21.36c2.845-9.225,5.737-18.435,8.683-27.627
		c3.054-9.527,7.301-12.885,17.407-13.351c4.815-0.222,9.687-0.146,14.476,0.348c3.249,0.335,4.712-0.744,6.024-3.599
		c11.93-25.951,25.803-50.787,43.153-73.557c15.869-20.826,33.836-39.48,56.509-53.041c23.124-13.829,48.055-19.039,74.845-15.427
		c4.738,0.639,9.616,0.179,14.423,0.379c4.146,0.172,8.566-0.279,12.377,0.999c17.393,5.838,34.575,3.666,52.154,0.729
		c14.824-2.477,29.981-3.527,45.028-3.994C446.85,23.11,495.36,38.666,541.573,62.188c53.96,27.465,99.88,64.854,136.203,113.6
		c13.688,18.37,25.225,38.045,33.453,59.407c4.322,11.218,7.822,22.933,10.012,34.734c1.949,10.496,1.49,21.43,2.35,32.149
		c0.104,1.311,1.545,3.159,2.793,3.627c7.967,2.984,10.883,7.251,9.297,15.51c-2.361,12.298-6.82,23.621-16.189,32.544
		c-1.197,1.142-1.656,3.471-1.756,5.289c-1.498,27.111-2.494,54.258-4.439,81.336c-1.047,14.581-3.789,29.034-5.547,43.571
		c-1.184,9.782-6.316,16.858-14.803,21.157c-7.938,4.02-9.596,9.867-9.484,18.42c1.172,90.207-13.492,177.854-45.691,262.154
		c-17.238,45.132-39.738,87.688-71.203,124.906c-22.125,26.169-47.211,48.839-80.075,60.331
		c-16.381,5.729-33.721,8.946-50.817,12.351c-47.16,9.389-94.44,18.171-141.633,27.396c-37.88,7.405-70.769-3.675-100.384-26.767
		c-26.426-20.605-46.232-46.88-63.118-75.483c-20.765-35.176-36.162-72.697-48.088-111.694c-9.944-32.514-6.15-63.874,8.238-94.228
		c7.754-16.357,17.84-31.227,30.047-44.608c2.344-2.569,4.989-4.921,7.744-7.05c8.493-6.562,14.315-6.898,23.183-0.79
		c44.702,30.791,79.267,69.621,98.536,121.338c15.33,41.142,36.283,79.345,64.913,112.974
		c13.125,15.416,27.809,29.122,45.698,40.831c5.863-8.423,11.993-16.457,17.306-24.998c18.514-29.767,31.837-61.833,41.021-95.605
		c9.352-34.393,17.433-69.056,21.625-104.538c6.796-57.514,9.522-115.184,7.419-173.075c-0.109-3-1.104-4.288-3.922-5.191
		c-7.13-2.285-14.016-5.403-21.222-7.371c-12.797-3.494-19.052-12.548-22.398-24.478c-2.201-7.851-4.379-15.709-6.662-23.536
		c-1.071-3.673-2.523-7.237-3.53-10.926c-4.629-16.957-14.29-29.867-28.205-40.925c-19.659-15.621-38.643-32.282-56.508-49.924
		c-27.259-26.915-47.008-59.043-60.447-94.974c-0.4-1.071-0.875-2.114-1.252-3.021c-7.63,1.733-10.811,6.879-12.881,13.871
		c-3.017,10.188-7.08,20.066-10.666,30.088c-0.663,1.852-1.177,3.756-1.752,5.608c7.846,2.742,11.201,10.301,8.776,20.849
		c-1.673,7.277-4.218,14.355-6.422,21.508c-7.745,25.134-11.326,50.964-13.172,77.113c-0.313,4.437-1.164,8.965-2.598,13.167
		c-5.03,14.739-15.415,23.091-31.067,24.073c-16.788,1.054-33.596,1.94-50.408,2.406c-20.322,0.564-40.657,0.698-60.987,0.855
		c-19.146,0.147-33.51-7.686-41.116-25.833c-1.58-3.771-2.653-8.011-2.813-12.08c-1.487-37.644,2.081-74.844,10.463-111.575
		c0.407-1.783,0.918-3.551,1.506-5.283c2.458-7.238,4.055-8.333,11.611-8.189c2.224,0.042,4.449,0.007,6.673,0.007
		C49.277,312.701,49.373,312.187,49.469,311.673z M102.051,423.322c2.522-5.47,4.741-11.037,7.569-16.276
		c9.887-18.32,12.098-37.79,9.508-58.144c-0.495-3.886-1.891-5.242-5.924-5.25c-18.662-0.036-37.324-0.335-55.982-0.727
		c-3.182-0.066-4.587,0.748-5.556,3.984c-6.274,20.952-10.642,42.269-12.903,64.015c-0.737,7.087,0.278,9.098,6.86,10.815
		c4.443,1.159,9.201,1.456,13.826,1.515C73.745,423.438,88.045,423.322,102.051,423.322z M123.057,423.117
		c6.383,0,11.685,0.14,16.977-0.028c11.64-0.37,23.29-0.67,34.906-1.437c7.889-0.521,13.053-5.049,15.034-12.435
		c0.726-2.709,0.954-5.562,1.291-8.362c1.968-16.329,3.894-32.663,5.854-48.992c0.265-2.202,0.648-4.39,1.057-7.124
		c-17.428,0-34.159,0-51.495,0C147.212,373.39,137.16,398.868,123.057,423.117z M655.113,453.11
		c-19.338,11.308-39.615,17.769-60.463,23.306c20.68-0.604,41.357-1.21,62.51-1.829C656.469,467.329,655.83,460.625,655.113,453.11z
		 M523.811,479.296c-0.022-0.227-0.044-0.453-0.066-0.68c-15.715-2.572-31.431-5.145-47.658-7.8
		c-0.171,2.914-0.34,5.803-0.497,8.479C491.963,479.296,507.887,479.296,523.811,479.296z"/>
</g>
</svg>
