<?xml version="1.0" encoding="iso-8859-1"?>
<!-- Generator: Adobe Illustrator 16.0.0, SVG Export Plug-In . SVG Version: 6.00 Build 0)  -->
<!DOCTYPE svg PUBLIC "-//W3C//DTD SVG 1.1//EN" "http://www.w3.org/Graphics/SVG/1.1/DTD/svg11.dtd">
<svg version="1.1" id="Layer_1" xmlns="http://www.w3.org/2000/svg" xmlns:xlink="http://www.w3.org/1999/xlink" x="0px" y="0px"
	 width="1120px" height="1060px" viewBox="0 0 1120 1060" enable-background="new 0 0 1120 1060" xml:space="preserve">
<g>
	<path fill="#FFFFFF" d="M737.889,310.993c-0.746-11.95-0.475-23.693-2.459-35.042c-2.07-11.832-5.543-23.575-9.779-34.839
		c-8.061-21.429-19.26-41.331-32.883-59.743C642.385,113.271,576.746,66.04,496.617,38.917
		c-22.781-7.712-46.204-13.021-70.315-13.72c-14.199-0.411-28.472,0.456-42.663,1.446c-11.1,0.774-22.198,2.206-33.161,4.124
		c-8.83,1.544-17.13,0.775-25.445-2.25c-7.917-2.88-16.044-4.197-24.538-2.988c-2.908,0.414-6,0.164-8.928-0.295
		c-21-3.293-41.436-1.651-61.357,6.123c-24.317,9.489-44.027,25.362-61.703,44.061c-24.961,26.406-43.854,56.934-59.861,89.337
		c-1.8,3.643-3.794,4.686-7.614,4.405c-5.79-0.426-11.654-0.674-17.43-0.24c-6.92,0.52-11.544,4.294-13.698,11.227
		c-2.863,9.215-6.178,18.289-9.284,27.428c-2.499,7.352-6.194,14.616-0.99,22.526c-5.878,1.681-9.933,4.335-11.528,10.019
		c-3.507,12.496-7.623,24.834-10.716,37.427c-0.89,3.622,0.094,8.211,1.569,11.802c3.066,7.468,8.754,12.855,16.033,16.489
		c1.161,0.58,2.186,1.433,3.274,2.159c-0.149,0.411-0.298,0.823-0.447,1.234c-2.066,0-4.137,0.092-6.198-0.017
		c-7.979-0.418-9.771,0.751-12.469,8.386c-0.499,1.411-0.935,2.85-1.311,4.298c-9.256,35.65-13.89,71.93-13.405,108.725
		c0.336,25.505,17.087,41.9,42.881,42.194c34.653,0.395,69.315,0.097,103.973-0.131c5.449-0.036,11.014-0.763,16.311-2.051
		c14.078-3.423,23.955-17.185,25.356-34.727c2.467-30.863,8.403-60.946,19.312-90.026c1.94-5.172,2.581-10.989,2.913-16.563
		c0.358-6.004-1.723-11.195-8.943-13.076c5.746-14.89,11.309-29.484,17.1-43.988c0.486-1.217,2.638-1.679,3.784-2.74
		c2.824-2.616,5.772-5.17,8.162-8.155c1.476-1.844,2.02-4.434,3.265-7.35c0.608,1.615,0.995,2.509,1.285,3.433
		c11.217,35.638,29.594,67.231,53.879,95.499c17.781,20.697,38.643,38.094,59.341,55.691c25.479,21.661,25.458,21.733,34.965,54.036
		c2.676,9.092,4.753,18.36,7.45,27.446c2.934,9.884,8.361,17.536,18.883,20.911c7.91,2.537,15.511,6.025,23.324,8.89
		c2.328,0.854,3.417,1.834,3.452,4.538c0.685,54.551-2.342,108.88-9.368,162.987c-4.533,34.908-12.427,69.07-21.853,102.959
		c-11.374,40.892-27.347,79.65-51.296,114.844c-5.847,8.592-12.574,16.584-18.952,24.925c-2.304-1.477-3.723-2.328-5.082-3.267
		c-18.819-12.997-34.749-29.01-48.803-46.95c-25.2-32.171-43.684-68.059-57.812-106.213
		c-18.882-50.992-53.236-89.357-96.896-120.271c-7.572-5.361-13.031-5.227-20.657,0.145c-3.381,2.383-6.87,4.957-9.378,8.172
		c-8.488,10.875-17.513,21.5-24.605,33.262c-19.229,31.892-25.922,66.131-15.434,102.592
		c10.342,35.956,24.178,70.545,42.303,103.324c17.138,30.992,37.521,59.503,65.378,81.904c30.54,24.56,64.684,36.059,104.282,28.972
		c47.32-8.47,94.801-16.047,142.149-24.367c15.863-2.787,31.941-5.4,47.208-10.312c35.322-11.361,62.639-34.612,86.68-62.076
		c32.875-37.557,56.715-80.699,75.203-126.608c33.775-83.859,50.037-171.388,50.498-261.763c0.041-8.288,1.967-13.573,9.469-17.385
		c7.66-3.891,13.307-9.853,14.576-19.042c2.598-18.781,6.139-37.466,7.883-56.321c2.178-23.539,2.906-47.211,4.375-70.818
		c0.092-1.47,0.807-3.255,1.848-4.254c8.096-7.778,12.744-17.429,15.33-28.125C750.986,319.128,748.826,315.233,737.889,310.993z"/>
	<path fill-rule="evenodd" clip-rule="evenodd" d="M737.889,310.993c10.938,4.24,13.098,8.135,10.285,19.772
		c-2.586,10.696-7.234,20.347-15.33,28.125c-1.041,0.999-1.756,2.784-1.848,4.254c-1.469,23.607-2.197,47.279-4.375,70.818
		c-1.744,18.855-5.285,37.54-7.883,56.321c-1.27,9.189-6.916,15.151-14.576,19.042c-7.502,3.812-9.428,9.097-9.469,17.385
		c-0.461,90.375-16.723,177.903-50.498,261.763c-18.488,45.909-42.328,89.052-75.203,126.608
		c-24.041,27.464-51.357,50.715-86.68,62.076c-15.267,4.911-31.345,7.524-47.208,10.312c-47.348,8.32-94.829,15.897-142.149,24.367
		c-39.598,7.087-73.742-4.412-104.282-28.972c-27.857-22.401-48.241-50.912-65.378-81.904
		c-18.125-32.779-31.961-67.368-42.303-103.324c-10.488-36.461-3.795-70.7,15.434-102.592c7.092-11.762,16.117-22.387,24.605-33.262
		c2.509-3.215,5.997-5.789,9.378-8.172c7.625-5.371,13.085-5.506,20.657-0.145c43.66,30.914,78.013,69.279,96.896,120.271
		c14.128,38.154,32.611,74.042,57.812,106.213c14.054,17.94,29.984,33.953,48.803,46.95c1.359,0.938,2.778,1.79,5.082,3.267
		c6.378-8.341,13.105-16.333,18.952-24.925c23.949-35.193,39.922-73.952,51.296-114.844c9.425-33.889,17.319-68.051,21.853-102.959
		c7.026-54.107,10.052-108.437,9.368-162.987c-0.034-2.704-1.124-3.685-3.452-4.538c-7.813-2.864-15.414-6.353-23.324-8.89
		c-10.522-3.375-15.949-11.027-18.883-20.911c-2.697-9.086-4.774-18.354-7.45-27.446c-9.508-32.303-9.486-32.375-34.965-54.036
		c-20.698-17.598-41.56-34.994-59.341-55.691c-24.285-28.268-42.662-59.861-53.879-95.499c-0.291-0.924-0.677-1.817-1.285-3.433
		c-1.245,2.916-1.789,5.506-3.265,7.35c-2.39,2.985-5.338,5.539-8.162,8.155c-1.146,1.062-3.298,1.523-3.784,2.74
		c-5.791,14.504-11.354,29.099-17.1,43.988c7.22,1.881,9.301,7.072,8.943,13.076c-0.333,5.574-0.973,11.392-2.913,16.563
		c-10.909,29.08-16.845,59.163-19.312,90.026c-1.402,17.542-11.278,31.304-25.356,34.727c-5.297,1.288-10.862,2.015-16.311,2.051
		c-34.657,0.228-69.32,0.525-103.973,0.131c-25.794-0.294-42.544-16.689-42.881-42.194c-0.485-36.795,4.148-73.074,13.405-108.725
		c0.376-1.448,0.812-2.887,1.311-4.298c2.698-7.635,4.49-8.804,12.469-8.386c2.061,0.108,4.131,0.017,6.198,0.017
		c0.149-0.411,0.298-0.823,0.447-1.234c-1.088-0.727-2.113-1.579-3.274-2.159c-7.278-3.634-12.966-9.021-16.033-16.489
		c-1.475-3.591-2.459-8.18-1.569-11.802c3.093-12.593,7.208-24.931,10.716-37.427c1.595-5.684,5.649-8.338,11.528-10.019
		c-5.205-7.91-1.509-15.175,0.99-22.526c3.106-9.139,6.421-18.213,9.284-27.428c2.154-6.933,6.778-10.707,13.698-11.227
		c5.776-0.434,11.64-0.186,17.43,0.24c3.82,0.28,5.814-0.763,7.614-4.405c16.007-32.403,34.9-62.931,59.861-89.337
		c17.675-18.698,37.386-34.571,61.703-44.061c19.922-7.774,40.358-9.416,61.357-6.123c2.928,0.459,6.021,0.709,8.928,0.295
		c8.494-1.209,16.621,0.108,24.538,2.988c8.315,3.025,16.615,3.794,25.445,2.25c10.963-1.918,22.061-3.35,33.161-4.124
		c14.191-0.99,28.463-1.857,42.663-1.446c24.111,0.698,47.534,6.008,70.315,13.72c80.129,27.123,145.768,74.354,196.151,142.452
		c13.623,18.412,24.822,38.314,32.883,59.743c4.236,11.264,7.709,23.007,9.779,34.839
		C737.414,287.3,737.143,299.043,737.889,310.993z M125.758,341.521c-21.121-0.75-41.737-1.546-62.359-2.048
		c-1.203-0.029-3.09,2.119-3.603,3.616c-7.083,20.67-11.806,41.907-14.717,63.549c-1.029,7.647,0.641,10.084,8.019,12.09
		c1.918,0.521,3.914,0.951,5.891,1.032c15.303,0.629,30.608,1.215,45.918,1.625c1.26,0.033,3.177-1.016,3.739-2.104
		c3.734-7.229,7.252-14.574,10.709-21.942C127.628,379.709,128.973,361.275,125.758,341.521z M128.69,421.121
		c17.384,0,33.996,0.372,50.582-0.136c10.434-0.318,15.624-5.749,17.016-16.118c1.771-13.186,3.183-26.419,5.04-39.592
		c0.964-6.838,2.551-13.587,3.95-20.859c-17.181-0.603-33.744-1.184-51.084-1.792C154.318,371.939,143.281,397.213,128.69,421.121z
		 M667.438,456.648c-19.777,10.953-40.354,17.156-61.715,21.047c20.877,0,41.754,0,63.059,0
		C668.332,470.671,667.912,464.093,667.438,456.648z M534.983,478.67c-15.202-2.916-29.722-5.702-44.63-8.562
		c0,2.948,0,5.654,0,8.562C505.166,478.67,519.73,478.67,534.983,478.67z"/>
	<path fill-rule="evenodd" clip-rule="evenodd" fill="#FFFFFF" d="M125.758,341.521c3.214,19.755,1.87,38.188-6.403,55.818
		c-3.458,7.368-6.975,14.713-10.709,21.942c-0.562,1.088-2.479,2.137-3.739,2.104c-15.31-0.41-30.615-0.996-45.918-1.625
		c-1.977-0.081-3.972-0.512-5.891-1.032c-7.377-2.006-9.047-4.442-8.019-12.09c2.912-21.642,7.634-42.879,14.717-63.549
		c0.513-1.497,2.4-3.646,3.603-3.616C84.021,339.975,104.637,340.771,125.758,341.521z"/>
	<path fill-rule="evenodd" clip-rule="evenodd" fill="#FFFFFF" d="M128.69,421.121c14.591-23.908,25.627-49.182,25.502-78.497
		c17.34,0.608,33.904,1.189,51.084,1.792c-1.398,7.272-2.986,14.021-3.95,20.859c-1.856,13.173-3.269,26.406-5.04,39.592
		c-1.393,10.369-6.583,15.8-17.016,16.118C162.687,421.493,146.075,421.121,128.69,421.121z"/>
	<path fill-rule="evenodd" clip-rule="evenodd" fill="#FFFFFF" d="M667.438,456.648c0.475,7.444,0.895,14.022,1.344,21.047
		c-21.305,0-42.182,0-63.059,0C627.084,473.805,647.66,467.602,667.438,456.648z"/>
	<path fill-rule="evenodd" clip-rule="evenodd" fill="#FFFFFF" d="M534.983,478.67c-15.253,0-29.817,0-44.63,0
		c0-2.907,0-5.613,0-8.562C505.261,472.968,519.781,475.754,534.983,478.67z"/>
</g>
</svg>
