<?xml version="1.0" encoding="iso-8859-1"?>
<!-- Generator: Adobe Illustrator 16.0.0, SVG Export Plug-In . SVG Version: 6.00 Build 0)  -->
<!DOCTYPE svg PUBLIC "-//W3C//DTD SVG 1.1//EN" "http://www.w3.org/Graphics/SVG/1.1/DTD/svg11.dtd">
<svg version="1.1" id="Layer_1" xmlns="http://www.w3.org/2000/svg" xmlns:xlink="http://www.w3.org/1999/xlink" x="0px" y="0px"
	 width="1120px" height="1060px" viewBox="0 0 1120 1060" enable-background="new 0 0 1120 1060" xml:space="preserve">
<g>
	<path fill-rule="evenodd" clip-rule="evenodd" d="M465.95,327.959c4.678,6.792,4.816,11.757-0.175,18.133
		c-3.155,4.029-6.939,7.664-10.859,10.98c-22.166,18.756-41.189,40.232-57.188,64.473c-3.821,5.789-8.15,11.472-13.207,16.168
		c-9.414,8.741-19.697,9.943-30.757,3.407c-10.881-6.431-21.306-13.675-31.649-20.962c-17.567-12.378-34.951-25.019-52.34-37.647
		c-14.503-10.532-23.052-24.152-20.122-42.725c0.94-5.964,2.987-12.041,5.834-17.369c16.92-31.664,38.424-59.981,63.785-85.374
		c2.113-2.115,4.392-4.102,6.784-5.896c6.036-4.526,9.122-4.429,15.25-0.188c1.145,0.792,2.781,0.874,4.191,1.283
		c-0.327-1.419-0.413-2.952-1.022-4.237c-3.114-6.574-6.812-12.919-9.312-19.711c-0.833-2.264,0.382-6.522,2.197-8.315
		c9.951-9.835,20.412-19.15,30.623-28.725c3.33-3.123,6.872-3.236,10.489-0.997c4.076,2.523,7.955,5.363,12.702,8.6
		c-1.246-4.973-2.164-9.255-3.407-13.44c-1.495-5.036-0.464-8.87,3.788-12.323c10.215-8.299,20.266-16.81,30.147-25.503
		c4.231-3.722,8.334-3.978,12.637-0.884c4.859,3.493,9.649,7.128,14.122,11.093c2.619,2.32,4.352,2.343,7.235,0.338
		c31.263-21.733,64.089-40.753,99.081-55.86c37.979-16.396,77.2-28.332,118.715-31.224c19.146-1.333,38.295-1.05,57.252,2.638
		c1.434,0.278,3.189,0.55,4.412-0.012c9.596-4.401,19.23-2.362,28.227,0.927c14.195,5.19,28.006,11.468,41.82,17.641
		c5.252,2.347,10,5.173,16.014,6.218c15.74,2.735,29.119,11.06,41.654,20.586c26.395,20.06,47.58,45.084,67.334,71.421
		c50.244,66.997,86.822,140.695,108.125,221.778c6.027,22.941,10.148,46.279,7.711,70.136c-0.85,8.33-3.578,16.458-5.225,24.723
		c-0.418,2.096,0.215,4.378,0.029,6.547c-0.314,3.681-0.01,7.791-1.594,10.887c-1.818,3.552-5.029,6.728-8.328,9.099
		c-4.158,2.987-6.455,6.638-8.137,11.384c-11.682,32.97-26.58,64.31-47.703,92.433c-5.004,6.662-10.984,11.236-19.824,10.099
		c-3.566-0.46-4.061,2.166-5.018,4.372c-17.02,39.244-37.617,76.548-61.709,111.853c-67.15,98.407-151.166,178.894-254.904,238.135
		c-45.588,26.033-93.825,45.259-145.789,54.198c-58.513,10.064-114.94,4.855-168.827-22.033
		c-41.422-20.668-83.324-40.387-125.196-60.137c-50.733-23.931-83.921-63.327-102.978-115.381
		c-5.903-16.122-11.513-32.458-11.463-49.866c0.054-18.939,7.27-35.022,21.681-47.561c12.251-10.659,25.388-19.928,40.675-25.915
		c9.009-3.528,13.969-3.771,21.192,6.773c8.369,12.217,16.021,24.95,23.522,37.73c19.797,33.731,35.441,69.31,47.688,106.482
		c8.034,24.384,20.489,46.577,36.348,66.86c2.797,3.577,5.767,4.78,10.104,4.838c40.524,0.531,79.4-7.743,117.148-21.872
		c67.444-25.242,126.334-64.234,178.844-112.995c62.643-58.168,113.971-125.348,156.387-199.453
		c18.387-32.124,34.947-65.151,49.668-99.114c1.506-3.475,1.482-5.916-0.912-9.007c-5.406-6.974-10.199-14.419-15.537-21.448
		c-5.119-6.738-6.205-14.21-4.938-22.242c1.219-7.726,2.859-15.396,3.748-23.155c0.305-2.649-0.428-5.916-1.834-8.189
		c-26.688-43.13-48.246-88.568-62.58-137.322c-8.752-29.761-11.135-47.021-11.771-87.946c-5.699,1.484-11.26,2.805-16.748,4.383
		c-39.533,11.366-76.117,29.116-110.697,51.213c-2.279,1.456-3.471,2.814-3.417,5.882c0.04,2.279-1.306,5.292-3.054,6.778
		c-10.405,8.85-21.017,17.467-31.796,25.856c-1.833,1.426-5.155,2.433-7.189,1.776c-3.588-1.159-5.712-0.228-8.334,2.015
		c-12.776,10.925-25.718,21.654-38.605,32.449C467.946,326.366,466.902,327.188,465.95,327.959z M320.111,359.374
		c8.253-5.416,15.804-10.266,23.246-15.275c15.981-10.758,27.589-24.861,33.209-43.565c1-3.326,0.377-5.397-2.537-7.582
		c-12.523-9.385-24.83-19.061-37.228-28.612c-1.143-0.881-2.378-1.64-3.706-2.549c-19.005,16.283-35.604,34.381-50.739,53.934
		c-3.586,4.633-3.168,8.374-0.314,12.565c1.202,1.765,2.652,3.475,4.32,4.79C297.601,341.937,308.927,350.681,320.111,359.374z
		 M433.145,338.578c-9.973-7.651-20.715-15.894-32.009-24.559c-15.173,26.727-39.991,41.614-65.071,57.076
		c12.958,8.906,24.939,17.327,37.122,25.446c8.129,5.417,13.916,4.291,19.775-3.582
		C406.256,375.096,419.436,357.146,433.145,338.578z M942.223,567.399c-5.447-1.296-10.35-2.463-15.252-3.63
		c-0.148,0.261-0.295,0.521-0.443,0.781c4.16,3.551,8.318,7.102,12.865,10.982C940.438,572.53,941.234,570.24,942.223,567.399z"/>
</g>
</svg>
