<?xml version="1.0" encoding="iso-8859-1"?>
<!-- Generator: Adobe Illustrator 16.0.0, SVG Export Plug-In . SVG Version: 6.00 Build 0)  -->
<!DOCTYPE svg PUBLIC "-//W3C//DTD SVG 1.1//EN" "http://www.w3.org/Graphics/SVG/1.1/DTD/svg11.dtd">
<svg version="1.1" id="Layer_1" xmlns="http://www.w3.org/2000/svg" xmlns:xlink="http://www.w3.org/1999/xlink" x="0px" y="0px"
	 width="1120px" height="1060px" viewBox="0 0 1120 1060" enable-background="new 0 0 1120 1060" xml:space="preserve">
<g>
	<path fill-rule="evenodd" clip-rule="evenodd" d="M709.945,200.003c-49.004,10.561-93.658,30.629-135.967,57.125
		c2.295,5.51-0.566,8.779-4.607,11.845c-9.953,7.555-19.797,15.254-29.583,23.023c-3.182,2.526-6.293,3.441-10.136,1.628
		c-0.974-0.46-2.775-0.468-3.549,0.14c-15.174,11.923-30.252,23.968-45.217,35.882c4.65,9.911,3.942,14.935-4.107,22.485
		c-9.471,8.885-19.663,17.002-29.092,25.929c-15.182,14.372-28.139,30.664-39.891,47.939c-2.144,3.152-4.565,6.191-7.256,8.885
		c-11.891,11.899-23.484,13.333-37.189,3.686c-16.07-11.313-31.765-23.171-47.402-35.08c-11.927-9.084-23.811-18.268-35.177-28.031
		c-17.679-15.184-21.328-35.475-9.999-55.761c18.257-32.691,41.445-61.582,68.835-87.095c1.937-1.805,4.116-3.402,6.362-4.81
		c4.571-2.862,9.005-3.05,13.198,0.986c1.489,1.434,3.266,4.017,5,1.158c-3.486-7.105-6.9-13.728-9.998-20.495
		c-2.171-4.744-1.303-8.737,2.996-12.371c9.668-8.174,18.967-16.783,28.47-25.154c5.367-4.728,7.725-4.958,13.685-0.889
		c3.82,2.608,7.319,5.688,11.886,9.286c-1.462-5.691-2.607-10.406-3.892-15.083c-1.425-5.188-0.369-9.143,4.192-12.646
		c10.304-7.914,20.355-16.169,30.292-24.543c4.306-3.63,8.388-3.822,12.61-0.519c5.626,4.402,11.062,9.048,16.861,13.821
		c9.684-6.093,19.403-12.447,29.348-18.426c47.103-28.314,96.636-50.814,150.63-62.562c33.668-7.325,67.525-9.639,101.703-3.983
		c1.27,0.21,2.867,0.527,3.863-0.021c11.688-6.447,23.355-2.959,34.248,1.266c13.611,5.28,26.514,12.379,39.766,18.602
		c2.338,1.098,4.826,2.152,7.35,2.54c16.729,2.568,30.469,11.256,43.359,21.389c23.922,18.802,43.104,42.081,61.209,66.279
		c52.744,70.496,90.35,148.289,111.373,233.837c3.873,15.76,5.895,32.089,7.414,48.282c1.436,15.307-0.193,30.573-6.318,45.055
		c-0.701,1.657,0.135,3.905-0.062,5.848c-0.367,3.65-0.002,7.839-1.711,10.773c-2.178,3.738-5.771,6.937-9.383,9.47
		c-3.506,2.459-5.457,5.436-6.9,9.301c-11.715,31.367-26.668,61.011-46.975,87.804c-5.789,7.639-12.059,13.823-22.836,12.375
		c-1.211-0.163-3.369,2.189-4.123,3.821c-14.432,31.209-31.076,61.19-50.004,89.877c-54.082,81.962-120.932,151.735-200.533,209.242
		c-45.148,32.617-92.979,60.436-145.283,80.08c-34.918,13.114-70.812,22.149-108.08,25.242
		c-55.247,4.584-107.156-5.535-155.871-32.957c-38.45-21.643-77.68-41.929-116.898-62.17
		c-49.915-25.764-81.667-66.312-98.415-119.157c-3.539-11.166-6.073-22.915-7.054-34.565c-1.444-17.159,4.955-32.178,17.661-43.902
		c12.676-11.696,26.626-21.614,43.198-27.291c10.583-3.626,15.807-2.084,21.952,7.516c6.463,10.098,12.708,20.346,18.746,30.704
		c20.518,35.208,37.572,71.983,50.538,110.678c7.079,21.125,17.562,40.624,30.709,58.668c1.932,2.651,4.01,3.772,7.382,3.985
		c48.539,3.059,94.72-7.323,139.569-24.704c72.831-28.226,136.096-71.401,192.21-125.222
		c79.553-76.301,141.264-165.46,188.834-264.643c2.736-5.705,5.254-11.518,8.088-17.173c1.35-2.691,1.232-4.731-0.58-7.272
		c-5.412-7.595-10.334-15.54-15.783-23.108c-5.076-7.051-5.701-14.749-4.246-22.868c1.381-7.697,5.033-15.684,3.887-22.942
		c-1.145-7.238-7.029-13.719-10.797-20.555c-26.25-47.649-47.451-97.296-57.613-151.008c-2.832-14.969-3.203-30.402-4.691-45.623
		C710.037,202.689,710.023,201.544,709.945,200.003z M334.865,357.502c7.848-4.951,15.17-9.549,22.471-14.18
		c16.696-10.588,29.215-24.531,35.287-43.722c0.96-3.033,0.663-5.023-2.098-7.206c-9.529-7.536-18.764-15.443-28.129-23.188
		c-3.925-3.246-7.895-6.438-11.918-9.715c-19.548,15.995-36.519,33.747-52.104,52.936c-3.36,4.137-3.283,7.631-0.994,11.646
		c1.137,1.996,2.541,3.996,4.269,5.473C312.771,339.044,324.018,348.399,334.865,357.502z M447.94,340.005
		c-9.749-8.053-20.301-16.769-31.343-25.889c-15.827,26.277-41,40.529-66.164,55.612c12.331,9.166,23.606,17.697,35.045,26.005
		c9.341,6.784,14.855,5.703,21.959-3.52C420.721,374.969,434.116,357.811,447.94,340.005z M956.037,568.828
		c-4.561-1.28-8.48-2.382-12.4-3.483c-0.115,0.247-0.232,0.493-0.348,0.739c3.334,3.007,6.668,6.014,10.4,9.379
		C954.586,572.93,955.227,571.117,956.037,568.828z"/>
</g>
</svg>
