<?xml version="1.0" encoding="iso-8859-1"?>
<!-- Generator: Adobe Illustrator 16.0.0, SVG Export Plug-In . SVG Version: 6.00 Build 0)  -->
<!DOCTYPE svg PUBLIC "-//W3C//DTD SVG 1.1//EN" "http://www.w3.org/Graphics/SVG/1.1/DTD/svg11.dtd">
<svg version="1.1" id="Layer_1" xmlns="http://www.w3.org/2000/svg" xmlns:xlink="http://www.w3.org/1999/xlink" x="0px" y="0px"
	 width="1120px" height="1060px" viewBox="0 0 1120 1060" enable-background="new 0 0 1120 1060" xml:space="preserve">
<g>
	<path fill-rule="evenodd" clip-rule="evenodd" d="M56.044,308.817c-1.156-0.698-2.379-1.307-3.457-2.111
		c-3.578-2.673-7.513-5.024-10.564-8.213c-6.926-7.238-9.536-15.438-5.772-25.575c3.466-9.333,5.852-19.088,8.353-28.751
		c1.672-6.459,4.579-11.438,12.444-12.872c-5.631-8.555-1.327-16.194,1.199-23.954c2.731-8.388,5.547-16.749,8.422-25.089
		c3.249-9.425,7.551-12.693,17.659-13.029c4.31-0.144,8.687,0.071,12.951,0.691c4.279,0.622,6.493-0.746,8.407-4.722
		c13.708-28.467,29.899-55.421,50.408-79.574c17.277-20.348,36.613-38.275,61.016-49.972c21.63-10.369,44.23-14.116,68.03-10.261
		c3.565,0.577,7.284,0.138,10.907,0.448c7.25,0.622,14.757,0.465,21.661,2.401c10.464,2.936,20.513,4.136,31.376,2.028
		c11.388-2.209,23.094-2.848,34.685-3.921c10.016-0.928,20.077-2.219,30.095-2.039c10.769,0.193,21.608,1.319,32.248,3.064
		c66.448,10.902,124.312,40.428,176.251,82.369c28.562,23.065,53.332,49.714,73.756,80.324
		c10.387,15.566,19.338,31.933,25.904,49.403c4.176,11.101,7.449,22.68,9.699,34.32c1.684,8.718,1.043,17.879,1.543,26.837
		c0.158,2.798,0.664,5.576,1.053,8.712c0.514,0.218,1.223,0.675,1.99,0.819c8.891,1.673,10.523,8.5,9.402,14.964
		c-2.121,12.213-6.93,23.213-15.873,32.179c-1.227,1.229-2.008,3.381-2.125,5.163c-1.76,27.091-2.943,54.229-5.197,81.276
		c-1.227,14.719-4.303,29.278-6.373,43.935c-1.201,8.501-4.988,15.468-12.779,19.079c-9.947,4.609-11.598,11.979-11.617,22.263
		c-0.176,90.908-16.748,178.862-50.951,263.109c-17.285,42.57-39.381,82.715-69.229,118.104
		c-22.384,26.539-47.883,49.074-80.388,62.715c-16.143,6.775-33.208,9.487-50.263,12.469c-49.824,8.71-99.641,17.462-149.434,26.346
		c-36.279,6.473-68.238-3.587-97.138-25.172c-26.185-19.556-45.9-44.819-62.715-72.511c-22.272-36.677-38.528-76.02-50.427-117.114
		c-10.574-36.52-3.882-70.993,15.444-103.087c6.582-10.929,14.679-20.987,22.563-31.069c3.125-3.996,7.29-7.34,11.447-10.333
		c7.231-5.207,12.934-5.149,20.233-0.048c45.513,31.809,80.006,72.075,99.423,125.001c16.06,43.777,38.756,84.06,70.648,118.612
		c11.448,12.404,24.109,23.421,38.554,32.657c11.783-13.249,21.567-27.684,30.301-42.881c20.261-35.254,32.928-73.381,43.008-112.54
		c9.398-36.512,15.486-73.54,19.34-111.033c4.64-45.149,6.257-90.379,5.815-135.728c-0.037-3.79-1.099-5.502-4.729-6.711
		c-7.731-2.575-15.156-6.085-22.913-8.564c-8.766-2.802-14.07-8.854-16.966-17.028c-2.603-7.349-4.079-15.089-6.509-22.507
		c-4.246-12.96-8.656-25.876-13.427-38.649c-1.152-3.084-3.586-5.992-6.107-8.214c-18.997-16.738-38.675-32.737-57.167-50.011
		c-34.06-31.813-59.152-69.705-73.945-114.136c-0.247-0.739-0.594-1.444-1.501-3.621c-2.113,7.465-5.918,11.877-12.453,13.399
		c-0.488,0.113-0.956,0.913-1.176,1.491c-5.563,14.6-11.092,29.211-16.601,43.753c7.783,4.331,10.897,9.923,8.821,18.748
		c-2.469,10.495-6.121,20.711-9.234,31.055c-6.602,21.934-10.13,44.407-12.123,67.188c-0.503,5.752-1.524,11.644-3.479,17.047
		c-5.861,16.2-18.589,22.859-35.022,23.079c-35.82,0.479-71.648,1.147-107.466,0.842c-26.88-0.229-42.991-17.602-43.091-44.569
		c-0.126-34.291,3.873-68.107,11.607-101.497c0.413-1.784,0.885-3.557,1.398-5.314c3.355-11.481,4.042-11.987,15.726-12.049
		c1.38-0.008,2.758-0.25,4.137-0.383C55.854,309.51,55.949,309.164,56.044,308.817z M123.858,342.193
		c-21.111-0.7-41.734-1.449-62.364-1.906c-1.208-0.026-3.099,2.099-3.61,3.587c-7.434,21.656-11.834,44.003-14.903,66.648
		c-0.415,3.061,0.421,5.322,3.16,6.588c2.537,1.172,5.198,2.719,7.868,2.855c16.793,0.861,33.603,1.409,50.411,1.912
		c0.958,0.029,2.402-1.026,2.863-1.953c3.035-6.101,5.682-12.396,8.79-18.457C125.659,382.772,127.367,363.105,123.858,342.193z
		 M152.349,343.992c0.136,28.12-10.451,53.535-25.445,78.213c3.341,0,5.445,0.025,7.547-0.005c13.649-0.192,27.3-0.289,40.945-0.631
		c12.144-0.305,18.08-5.616,19.688-17.481c0.736-5.437,0.884-10.953,1.641-16.386c1.986-14.265,4.161-28.504,6.4-43.71
		C186.452,343.992,169.751,343.992,152.349,343.992z M600.295,477.13c22.127,0,43.566,0,65.504,0
		c-0.514-7.408-0.975-14.089-1.484-21.458C644.051,467.062,622.818,473.392,600.295,477.13z M487.126,470.184
		c-0.324,2.629-0.664,5.387-1.037,8.413c15.344,0,30.409,0,46.387,0C516.843,475.696,502.16,472.973,487.126,470.184z"/>
</g>
</svg>
