<?xml version="1.0" encoding="iso-8859-1"?>
<!-- Generator: Adobe Illustrator 16.0.0, SVG Export Plug-In . SVG Version: 6.00 Build 0)  -->
<!DOCTYPE svg PUBLIC "-//W3C//DTD SVG 1.1//EN" "http://www.w3.org/Graphics/SVG/1.1/DTD/svg11.dtd">
<svg version="1.1" id="Layer_1" xmlns="http://www.w3.org/2000/svg" xmlns:xlink="http://www.w3.org/1999/xlink" x="0px" y="0px"
	 width="1120px" height="1060px" viewBox="0 0 1120 1060" enable-background="new 0 0 1120 1060" xml:space="preserve">
<g>
	<path fill-rule="evenodd" clip-rule="evenodd" d="M354.48,944.288c16.173-13.723,29.476-28.357,41.228-44.396
		c25.627-34.976,43.761-73.684,58.193-114.457c17.411-49.191,28.78-99.703,36.242-151.226c5.327-36.78,8.719-73.725,10.303-110.85
		c0.124-2.894-0.751-4.126-3.209-5.241c-7.732-3.507-15.251-7.503-23.059-10.823c-8.198-3.487-13.248-9.591-15.37-17.886
		c-2.883-11.268-5.526-22.627-7.56-34.073c-3.385-19.05-11.849-34.227-27.374-46.73c-20.864-16.804-39.968-35.749-57.055-56.585
		c-31.276-38.137-52.499-80.83-59.624-130.008c-0.666-4.598-1.04-9.237-1.62-14.495c-2.927,3.681-6.412,6.271-3.908,11.693
		c0.95,2.058,0.466,5.409-0.542,7.637c-5.629,12.437-11.405,24.82-17.656,36.95c-1.354,2.629-4.583,4.869-7.454,5.978
		c-2.914,1.123-4.586,2.521-5.852,5.303c-5.719,12.565-11.661,25.031-17.495,37.545c-0.551,1.181-0.917,2.446-1.358,3.645
		c6.889,4.081,9.168,9.704,7.025,18.93c-1.083,4.665-2.781,9.266-4.791,13.623c-12.016,26.053-19.625,53.365-23.798,81.688
		c-1.322,8.976-3.476,17.62-8.884,25.168c-5.921,8.264-13.89,13.271-24.025,13.122c-18.475-0.271-36.958-0.967-55.401-2.077
		c-19.439-1.172-38.851-2.891-58.25-4.633c-25.222-2.266-40.755-19.698-39.529-44.881c1.799-36.964,9.135-72.923,20.859-108.001
		c0.474-1.42,1.06-2.807,1.665-4.178c3.351-7.588,5.699-8.925,13.9-7.954c1.861,0.221,3.719,0.466,5.579,0.699
		c0.19-0.453,0.381-0.906,0.572-1.358c-1.158-0.91-2.345-1.785-3.467-2.737c-3.413-2.895-7.258-5.434-10.105-8.811
		c-6.356-7.537-9.379-15.57-4.314-25.606c4.101-8.128,6.798-16.99,9.805-25.636c2.568-7.384,5.444-14.195,15.653-14.569
		c-5.442-8.151-1.719-14.925,1.259-21.791c4.174-9.621,8.438-19.207,12.438-28.901c2.537-6.147,7.108-9.317,13.488-9.216
		c6.124,0.099,12.268,0.835,18.337,1.733c3.76,0.557,5.85-0.262,7.938-3.775c19.843-33.397,42.825-64.351,72.071-90.243
		c24.721-21.886,52.161-38.625,85.341-44.233c14.622-2.473,29.184-1.92,43.752,0.641c3.547,0.623,7.262,0.806,10.854,0.554
		c9.841-0.689,19.533,0.269,28.235,4.796c10.569,5.498,21.174,2.173,31.839,1.791c16.593-0.592,33.245-2.037,49.778-1.222
		c28.486,1.406,55.882,8.76,82.094,19.823c81.759,34.509,146.812,88.921,193.81,164.431c11.838,19.016,21.191,39.315,27.191,60.917
		c3.041,10.952,5.041,22.28,6.439,33.571c0.992,8.015,0.191,16.252,0.191,24.522c2.318,1.723,6.428,3.272,7.693,6.097
		c1.625,3.626,1.906,8.465,1.105,12.446c-1.904,9.461-6.508,17.899-13.32,24.756c-2.861,2.881-3.928,5.915-4.258,9.632
		c-1.367,15.427-2.174,30.935-4.316,46.255c-3.176,22.72-7.447,45.284-10.98,67.957c-2.127,13.642-9.117,23.32-21.828,28.733
		c-3.371,1.436-4.422,3.787-4.602,7.358c-3.666,72.698-18.406,143.101-43.326,211.493c-20.814,57.127-48.955,110.147-87.117,157.564
		c-24.318,30.217-52.221,56.49-87.059,74.582c-22.199,11.528-45.819,17.542-70.661,19.888c-32.974,3.113-65.877,6.984-98.816,10.471
		c-22.51,2.382-44.983,5.521-67.559,6.793c-35.868,2.02-66.851-11.192-94.153-33.673c-24.655-20.301-43.314-45.514-58.812-73.221
		c-19.383-34.651-33.625-71.351-43.243-109.821c-7.656-30.619-1.796-59.456,12.885-86.795c7.444-13.863,16.874-26.368,27.854-37.659
		c2.783-2.861,5.671-5.662,8.771-8.169c12.064-9.754,17.318-9.67,29.348,0.206c32.036,26.3,59.521,56.495,77.356,94.276
		c8.44,17.877,14.546,36.841,22.38,55.023c16.617,38.571,37.865,74.227,68.741,103.278
		C334.222,928.656,344.611,936.207,354.48,944.288z M149.896,334.683c-1.806-0.267-2.948-0.474-4.099-0.6
		c-18.524-2.029-37.055-3.995-55.567-6.13c-2.798-0.322-3.704,0.897-4.663,3.169c-8.834,20.925-15.315,42.558-19.858,64.794
		c-1.215,5.948-0.3,8.021,5.226,10.562c1.646,0.756,3.442,1.406,5.226,1.608c15.869,1.804,31.747,3.526,47.635,5.147
		c1.033,0.105,2.689-0.515,3.18-1.326c4.727-7.824,9.539-15.619,13.802-23.699C149.588,371.512,152.289,353.694,149.896,334.683z
		 M146.185,415.646c17.056,0.887,32.508,1.932,47.979,2.418c12.982,0.408,18.35-4.419,20.589-17.336
		c1.279-7.375,2.354-14.795,3.932-22.105c2.551-11.817,5.442-23.561,8.321-35.899c-16.038-1.699-31.967-3.387-48.511-5.139
		C176.53,367.259,163.431,391.747,146.185,415.646z M703.225,472.176c-9.744,3.284-19.16,7.018-28.885,9.578
		c-9.697,2.554-19.705,3.932-30.377,5.979c20.24,1.411,39.68,2.767,59.262,4.131C703.225,484.694,703.225,478.294,703.225,472.176z
		 M534.299,472.856c-0.377,2.325-0.708,4.37-1.148,7.087c10.93,0.732,21.287,1.427,31.643,2.121c0.01-0.244,0.021-0.487,0.031-0.731
		C554.782,478.545,544.741,475.757,534.299,472.856z"/>
</g>
</svg>
