<?xml version="1.0" encoding="iso-8859-1"?>
<!-- Generator: Adobe Illustrator 16.0.0, SVG Export Plug-In . SVG Version: 6.00 Build 0)  -->
<!DOCTYPE svg PUBLIC "-//W3C//DTD SVG 1.1//EN" "http://www.w3.org/Graphics/SVG/1.1/DTD/svg11.dtd">
<svg version="1.1" id="Layer_1" xmlns="http://www.w3.org/2000/svg" xmlns:xlink="http://www.w3.org/1999/xlink" x="0px" y="0px"
	 width="1120px" height="1060px" viewBox="0 0 1120 1060" enable-background="new 0 0 1120 1060" xml:space="preserve">
<g>
	<path fill-rule="evenodd" clip-rule="evenodd" d="M389.076,178.099c-11.982,13.346-23.996,26.663-35.876,40.098
		c-0.781,0.884-0.563,2.664-0.78,4.032c-0.575,3.631-0.17,7.813-1.87,10.801c-6.338,11.14-13.175,22.015-20.273,32.691
		c-1.666,2.504-4.858,4.707-7.766,5.483c-3.378,0.902-5.364,2.308-7.112,5.28c-6.917,11.759-14.145,23.335-21.219,35.003
		c-0.937,1.545-1.649,3.227-2.554,5.019c7.765,4.878,7.151,12.062,4.92,19.115c-1.536,4.856-4.076,9.48-6.689,13.899
		c-14.615,24.706-25.009,51.096-31.903,78.908c-2.389,9.638-5.761,18.69-12.858,26.086c-8.173,8.516-18.48,10.024-29.088,8.243
		c-35.269-5.92-70.59-11.708-105.594-18.979c-23.913-4.967-35.997-24.577-32.223-48.649c5.497-35.064,15.757-68.735,30.14-101.163
		c0.81-1.825,1.732-3.604,2.666-5.371c5.331-10.08,6.699-10.725,18.04-8.829c1.176,0.196,2.414,0.026,4.729,0.026
		c-1.356-1.642-1.925-2.514-2.668-3.196c-2.692-2.474-5.739-4.625-8.121-7.361c-9.63-11.058-10.252-16.745-3.675-29.621
		c4.243-8.305,8.812-16.459,12.683-24.934c3.38-7.4,7.912-12.323,16.602-10.912c0.267-0.644,0.57-1.021,0.479-1.207
		c-3.353-6.912-1.632-12.964,2.285-19.225c6.003-9.595,11.301-19.628,16.999-29.417c3.994-6.859,8.823-9.126,16.704-7.597
		c5.714,1.108,11.4,2.479,16.975,4.144c3.08,0.921,4.745,0.214,6.667-2.323c23.758-31.349,50.28-60.019,82.09-83.439
		c26.16-19.261,54.314-34.27,86.697-40.175c19.743-3.601,39.373-3.624,58.986,0.951c3.512,0.818,7.24,1.186,10.843,1.059
		c11.73-0.414,22.911,1.72,33.426,6.847c6.302,3.072,12.797,3.951,19.759,4.273c20.85,0.968,41.841,0.092,62.461,4.557
		c22.606,4.895,44.222,12.638,64.519,23.562c84.738,45.606,148.924,111.229,190.92,198.044
		c10.341,21.377,17.444,43.976,20.312,67.607c1.268,10.447,1.601,21.208,0.565,31.649c-0.488,4.935,0.04,6.835,3.91,9.67
		c4.304,3.152,4.272,9.023,2.213,13.381c-3.511,7.428-7.683,14.693-12.632,21.229c-2.651,3.501-4.262,6.74-4.827,10.961
		c-4.292,32.014-9.059,63.948-18.087,95.058c-1.992,6.865-4.616,13.549-6.574,20.423c-2.66,9.335-8.257,15.936-17.377,19.166
		c-5.492,1.945-7.532,5.221-8.346,11.155c-9.076,66.208-27.474,129.751-54.393,190.961
		c-25.897,58.889-59.278,112.916-102.295,160.779c-28.822,32.07-61.263,59.797-100.276,79.036
		c-28.971,14.288-59.52,21.838-91.948,21.891c-50.827,0.083-101.663-0.006-152.479,0.896
		c-49.115,0.871-89.371-17.746-122.734-52.829c-29.009-30.504-48.406-66.812-62.212-106.122
		c-6.762-19.253-12.87-38.975-16.661-58.979c-6.075-32.048,3.609-60.963,22.64-86.905c10.612-14.466,22.807-27.417,38.195-36.963
		c7.173-4.45,12.486-4.135,18.622,1.524c38.673,35.669,69.542,76.644,86.024,127.329c11.817,36.341,27.582,70.724,50.601,101.48
		c13.974,18.673,30.211,35.019,49.241,48.615c4.465,3.19,7.68,3.704,12.667,0.535c34.552-21.956,62.51-50.614,86.723-83.316
		c28.497-38.486,48.799-81.299,66.704-125.375c20.314-50.008,33.695-102.038,43.882-154.907
		c4.247-22.044,7.228-44.331,10.858-66.496c0.55-3.354-0.242-5.49-3.448-7.249c-6.271-3.441-12.071-7.762-18.412-11.051
		c-11.727-6.083-15.587-16.348-17.144-28.579c-1.993-15.656-4.59-31.244-7.327-46.792c-0.501-2.849-2.426-5.839-4.513-7.957
		c-21.396-21.715-43.325-42.903-61.638-67.465c-22.29-29.896-40.399-61.922-50.544-98.002c-7.003-24.905-9.473-50.333-7.07-76.164
		c0.09-0.971,0.011-1.958,0.011-2.937C390.112,178.752,389.594,178.426,389.076,178.099z M157.855,400.877
		c5.766-7.493,11.191-14.419,16.484-21.444c11.449-15.193,16.479-32.453,16.529-51.355c0.008-3.281-1.143-4.615-4.351-5.292
		c-17.09-3.606-34.163-7.307-51.166-11.3c-3.344-0.785-4.729,0.103-6.241,2.844c-11.054,20.052-19.951,41.008-26.764,62.857
		c-1.89,6.062-0.913,8.78,4.816,11.538c2.962,1.427,6.223,2.366,9.445,3.096C130.402,394.94,144.231,397.9,157.855,400.877z
		 M178.068,404.878c15.604,2.618,29.834,5.155,44.115,7.358c14.322,2.209,19.667-1.6,23.722-15.47
		c4.246-14.523,8.811-28.956,13.4-43.376c1.395-4.382,3.333-8.592,5.226-13.397c-15.233-3.346-29.912-6.57-45.381-9.968
		C214.419,359.854,197.823,382.804,178.068,404.878z M707.614,506.292c15.123,2.922,31.134,6.015,47.781,9.231
		c0.391-6.789,0.736-12.785,1.02-17.71C739.806,500.699,723.392,503.551,707.614,506.292z M600.514,481.521
		c-0.544,0.402-1.088,0.805-1.632,1.207c0.755,1.021,1.347,2.722,2.293,2.949c5.026,1.207,10.141,2.045,15.225,3.011
		c0.048-0.181,0.097-0.36,0.145-0.541C611.201,485.938,605.857,483.729,600.514,481.521z"/>
</g>
</svg>
