<?xml version="1.0" encoding="iso-8859-1"?>
<!-- Generator: Adobe Illustrator 16.0.0, SVG Export Plug-In . SVG Version: 6.00 Build 0)  -->
<!DOCTYPE svg PUBLIC "-//W3C//DTD SVG 1.1//EN" "http://www.w3.org/Graphics/SVG/1.1/DTD/svg11.dtd">
<svg version="1.1" id="Layer_1" xmlns="http://www.w3.org/2000/svg" xmlns:xlink="http://www.w3.org/1999/xlink" x="0px" y="0px"
	 width="1120px" height="1060px" viewBox="0 0 1120 1060" enable-background="new 0 0 1120 1060" xml:space="preserve">
<g>
	<path fill-rule="evenodd" clip-rule="evenodd" d="M682.629,193.139c-11.869,3.645-23.049,6.723-33.988,10.503
		c-32.754,11.322-63.334,27.089-92.373,45.932c-2.218,1.438-3.557,2.722-3.361,5.888c0.138,2.236-1.285,5.299-3.034,6.803
		c-10.481,9.016-21.163,17.81-32.035,26.349c-1.798,1.413-5.335,2.312-7.254,1.507c-3.659-1.535-5.448,0.142-7.81,2.139
		c-13.714,11.603-27.516,23.101-41.164,34.529c4.804,9.284,4.452,14.234-2.572,21.538c-6.337,6.59-13.438,12.438-20.102,18.72
		c-17.547,16.542-32.621,35.111-45.754,55.337c-3.594,5.536-7.687,11.003-12.54,15.414c-9.838,8.943-19.649,9.963-31.221,3.396
		c-8.966-5.088-17.552-10.89-26.041-16.76c-19.593-13.55-39.081-27.255-58.503-41.048c-13.972-9.922-22.396-22.954-20.167-40.74
		c0.77-6.143,2.594-12.496,5.429-17.981c16.954-32.806,38.898-62.022,64.944-88.176c0.47-0.472,0.952-0.934,1.446-1.381
		c9.127-8.267,12.146-8.469,21.995-1.383c3.11-1.162,1.931-2.641,0.703-4.789c-3.367-5.891-6.507-11.926-9.441-18.045
		c-2.104-4.388-1.133-8.153,2.656-11.599c9.615-8.741,18.941-17.8,28.438-26.674c4.847-4.529,7.53-4.831,13.329-1.293
		c3.513,2.144,6.791,4.673,10.879,7.52c-1.339-5.265-2.444-9.739-3.62-14.196c-1.182-4.48-0.092-7.956,3.61-11.041
		c10.368-8.637,20.597-17.447,30.715-26.376c3.877-3.421,7.822-3.72,11.819-0.981c5.072,3.474,10.073,7.124,14.677,11.184
		c2.816,2.483,4.646,2.356,7.604,0.278c34.045-23.915,69.931-44.585,108.481-60.395c34.528-14.16,70.108-24.432,107.504-27.172
		c19.148-1.402,38.295-0.975,57.279,2.457c1.615,0.292,3.537,0.816,4.906,0.246c8.949-3.726,17.818-1.914,26.443,0.593
		c17.16,4.987,33.398,12.203,49.092,20.838c4.996,2.748,11.26,3.12,16.859,4.851c17.844,5.514,32.969,15.738,46.996,27.712
		c28.238,24.101,51.076,52.937,72.229,83.181c41.99,60.037,73.279,125.188,92.762,195.882c5.631,20.438,9.502,41.231,9.551,62.529
		c0.029,12.837-0.967,25.583-6.047,37.656c-0.523,1.244-0.779,3.123-0.213,4.214c2.807,5.391,1.24,10.058-2.098,14.362
		c-1.926,2.481-4.002,5.135-6.609,6.735c-5.258,3.228-7.283,8.138-9.195,13.577c-11.268,32.039-25.615,62.537-45.672,90.148
		c-5.367,7.39-11.488,12.878-21.529,12.003c-1.285-0.112-3.322,2.193-4.139,3.818c-11.594,23.047-21.979,46.772-34.713,69.164
		C869.846,773.857,816.9,838.808,753.27,895.042c-50.994,45.068-106.262,83.609-168.566,111.486
		c-37.763,16.896-77.063,28.669-118.292,33.173c-48.504,5.299-95.289-0.826-139.811-21.752
		c-43.705-20.541-87.496-40.903-131.363-61.096c-51.331-23.629-84.712-63.345-104.144-115.58
		c-5.921-15.916-11.366-32.073-11.975-49.279c-0.719-20.318,6.426-37.523,21.65-51.101c12.249-10.922,25.636-20.059,40.927-26.446
		c10.138-4.234,15.36-1.66,20.911,6.339c7.115,10.254,13.637,20.933,20.118,31.609c22.576,37.188,39.701,76.8,53.414,118.067
		c7.986,24.034,20.924,45.649,36.863,65.416c2.404,2.981,4.914,4.262,8.808,4.309c40.741,0.493,79.667-8.341,117.423-22.893
		c68.655-26.46,128.124-67.217,180.812-118.044c74.832-72.188,132.656-156.611,177.701-250.021
		c7.086-14.691,13.549-29.688,20.025-44.661c0.719-1.659,0.291-4.556-0.752-6.106c-4.553-6.769-9.268-13.466-14.418-19.784
		c-6.971-8.549-8.865-17.924-6.523-28.553c1.359-6.167,1.771-12.55,3.258-18.679c1.055-4.355-0.168-7.583-2.414-11.142
		c-29.957-47.479-53.541-97.802-67.279-152.432C683.604,243.861,680.174,219.542,682.629,193.139z M315.49,360.112
		c8.043-5.356,15.395-10.203,22.695-15.125c15.976-10.771,27.56-24.89,33.266-43.542c1.102-3.6,0.645-5.992-2.693-8.419
		c-12.519-9.106-24.882-18.438-37.066-27.986c-3.123-2.447-4.857-1.874-7.479,0.497c-16.849,15.242-32.153,31.871-45.723,50.095
		c-5.132,6.891-5.356,11.126,1.229,16.621C291.445,342.036,303.796,351.07,315.49,360.112z M396.369,313.988
		c-14.932,26.874-39.602,41.954-64.759,57.598c13.667,9.125,26.262,17.798,39.145,26.021c6.203,3.96,11.546,2.771,16.455-2.79
		c1.862-2.11,3.347-4.555,4.989-6.855c7.059-9.89,13.915-19.932,21.236-29.622c4.978-6.589,10.604-12.686,16.198-19.307
		C418.642,330.758,407.913,322.68,396.369,313.988z M921.447,563.011c-0.146,0.226-0.295,0.45-0.441,0.676
		c4.498,3.713,8.998,7.425,14.094,11.63c1.014-3.301,1.811-5.893,2.662-8.665C932.01,565.367,926.729,564.189,921.447,563.011z"/>
</g>
</svg>
