<?xml version="1.0" encoding="iso-8859-1"?>
<!-- Generator: Adobe Illustrator 16.0.0, SVG Export Plug-In . SVG Version: 6.00 Build 0)  -->
<!DOCTYPE svg PUBLIC "-//W3C//DTD SVG 1.1//EN" "http://www.w3.org/Graphics/SVG/1.1/DTD/svg11.dtd">
<svg version="1.1" id="Layer_1" xmlns="http://www.w3.org/2000/svg" xmlns:xlink="http://www.w3.org/1999/xlink" x="0px" y="0px"
	 width="1120px" height="1060px" viewBox="0 0 1120 1060" enable-background="new 0 0 1120 1060" xml:space="preserve">
<g>
	<path fill-rule="evenodd" clip-rule="evenodd" d="M363.345,178.243c-1.205-4.644-2.182-8.312-3.105-11.992
		c-1.183-4.717-0.414-8.574,3.61-12.042c9.969-8.591,19.736-17.429,29.314-26.453c4.244-3.999,8.498-4.331,13.109-1.498
		c4.105,2.522,8.022,5.373,11.88,8.267c6.751,5.064,6.683,5.093,13.621,0.073c38.096-27.562,78.53-50.922,122.712-67.342
		c37.611-13.979,76.236-22.798,116.708-20.844c7.465,0.36,14.883,1.606,22.344,2.17c4.717,0.355,9.5-0.084,14.205,0.347
		c7.58,0.693,15.334,1.007,22.641,2.912c17.285,4.505,33.752,11.194,49.359,20.099c4.416,2.52,10.031,2.975,15.123,4.271
		c19.988,5.086,36.875,15.901,52.555,28.768c31.455,25.812,56.82,57.079,79.879,90.322c36.211,52.207,64.746,108.276,83.965,168.926
		c7.207,22.741,12.596,45.908,13.828,69.853c0.783,15.214,0.1,30.271-5.373,44.763c-0.408,1.085-0.424,2.74,0.131,3.695
		c2.705,4.668,1.826,9.146-0.932,13.151c-2.334,3.388-5,6.881-8.316,9.176c-4.49,3.108-6.307,7.256-7.891,12.109
		c-10.896,33.394-24.824,65.353-44.891,94.417c-5.24,7.592-11.404,12.819-21.244,12.715c-1.463-0.016-3.621,2.447-4.338,4.217
		c-16.494,40.726-36.566,79.608-60.418,116.482c-59.549,92.062-134.271,169.137-227.006,228.172
		c-44.848,28.55-92.567,50.613-144.78,62.093c-57.517,12.646-113.568,9.733-168.234-13.994c-42-18.229-84.492-35.341-126.909-52.597
		c-50.674-20.614-85.694-56.935-107.78-106.363c-8.721-19.519-15.636-39.693-18.508-60.965c-3.501-25.929,5.025-47.552,24.73-64.711
		c11.105-9.671,23.119-18.022,36.603-24.094c11.022-4.963,16.442-3.677,23.252,6.565c8.849,13.312,17.496,26.774,25.708,40.485
		c19.162,31.992,33.853,65.966,45.221,101.507c9.795,30.626,25.296,58.252,46.577,82.555c2.988,3.412,5.984,4.391,10.352,4.212
		c46.748-1.915,90.408-15.276,132.154-35.584c74.42-36.201,135.541-88.843,188.497-151.849
		c62.791-74.706,110.426-158.216,146.82-248.462c1.695-4.204,1.236-6.88-1.664-10.184c-4.717-5.375-8.588-11.497-13.348-16.83
		c-7.807-8.745-9.389-18.653-7.326-29.795c1.48-8.011,2.48-16.129,3.24-24.241c0.189-2.008-1-4.439-2.207-6.24
		c-25.541-38.09-46.381-78.56-61.609-121.845c-8.529-24.249-15.27-49.012-17.275-74.721c-0.863-11.059,0.117-22.262,0.305-33.398
		c0.029-1.771,0.303-3.539,0.596-6.792c-15.396,5.542-29.93,10.274-44.076,15.972c-27.139,10.931-52.465,25.315-76.676,41.709
		c-2.403,1.627-3.692,3.126-3.553,6.34c0.093,2.154-1.063,5.038-2.666,6.48c-10.4,9.361-20.976,18.538-31.761,27.451
		c-1.762,1.457-5.189,2.346-7.246,1.67c-3.353-1.102-5.148-0.037-7.406,1.998c-12.119,10.923-24.346,21.726-36.559,32.544
		c-1.245,1.104-2.646,2.032-4.227,3.234c6.247,6.024,4.954,12.017,1.263,17.381c-3.171,4.609-7.107,8.835-11.285,12.584
		c-21.874,19.637-40.244,42.1-55.474,67.215c-2.92,4.815-6.156,9.578-9.982,13.678c-10.379,11.122-21.435,13.116-34.711,5.835
		c-11.673-6.4-22.997-13.47-34.243-20.61c-17.155-10.891-34.222-21.932-51.11-33.231c-10.332-6.913-18.801-15.479-20.978-28.549
		c-1.6-9.605-0.93-18.952,3.321-27.807c16.432-34.224,37.99-64.911,64.082-92.441c1.711-1.806,3.613-3.477,5.616-4.953
		c5.363-3.955,8.476-3.857,14.083-0.254c1.304,0.838,3.082,0.938,4.642,1.377c-0.46-1.535-0.702-3.183-1.418-4.588
		c-3.082-6.049-6.481-11.94-9.413-18.059c-2.019-4.214-0.861-7.893,2.609-11.227c9.613-9.235,19.11-18.597,28.454-28.104
		c3.633-3.695,7.359-4.204,11.664-1.774C355.639,173.551,359.01,175.654,363.345,178.243z M309.322,265.318
		c-1.486,1.308-2.75,2.36-3.948,3.484c-17.075,16.021-32.13,33.764-45.706,52.838c-2.731,3.836-2.478,6.938-0.309,10.357
		c1.23,1.938,2.705,3.929,4.538,5.243c12.033,8.632,24.194,17.085,35.876,25.288c7.891-5.501,15.277-10.615,22.627-15.78
		c13.732-9.65,23.934-22.143,29.751-37.943c4.056-11.017,3.867-11.085-5.834-17.765c-0.549-0.377-1.081-0.778-1.628-1.158
		C332.952,281.729,321.213,273.576,309.322,265.318z M379.586,314.182c-14.051,27.391-38.33,43.115-63.303,59.34
		c14.112,8.614,27.18,16.859,40.53,24.62c5.982,3.478,11.001,2.231,15.623-3.009c2.185-2.478,3.843-5.418,5.747-8.144
		c8.864-12.683,17.662-25.411,26.638-38.014c2.662-3.737,5.825-7.118,9.02-10.979C402.461,330.086,391.434,322.419,379.586,314.182z
		 M919.545,573.464c1.066-3.726,1.928-6.736,2.811-9.82c-6.982-1.312-13.268-2.493-19.551-3.675
		c-0.078,0.234-0.158,0.468-0.236,0.701C908.047,564.799,913.525,568.927,919.545,573.464z"/>
</g>
</svg>
