<?xml version="1.0" encoding="iso-8859-1"?>
<!-- Generator: Adobe Illustrator 16.0.0, SVG Export Plug-In . SVG Version: 6.00 Build 0)  -->
<!DOCTYPE svg PUBLIC "-//W3C//DTD SVG 1.1//EN" "http://www.w3.org/Graphics/SVG/1.1/DTD/svg11.dtd">
<svg version="1.1" id="Layer_1" xmlns="http://www.w3.org/2000/svg" xmlns:xlink="http://www.w3.org/1999/xlink" x="0px" y="0px"
	 width="1120px" height="1060px" viewBox="0 0 1120 1060" enable-background="new 0 0 1120 1060" xml:space="preserve">
<g>
	<path fill-rule="evenodd" clip-rule="evenodd" d="M256.656,316.317c8.658,4.137,8.043,11.641,6.726,18.991
		c-0.722,4.028-2.397,7.982-4.193,11.705c-13.055,27.059-21.408,55.539-26.198,85.135c-0.53,3.273-1.262,6.536-2.183,9.723
		c-5.236,18.124-18.371,27.891-37.229,26.535c-35.372-2.543-70.737-5.289-106.041-8.629c-26.71-2.525-41.721-21.056-39.522-47.866
		c2.857-34.825,9.911-68.817,21.176-101.915c0.322-0.946,0.664-1.887,1.018-2.821c4.703-12.414,5.669-13.031,18.774-12.188
		c0.912,0.059,1.84-0.146,4.32-0.365c-2.199-1.753-3.402-2.607-4.485-3.595c-3.668-3.342-7.698-6.394-10.85-10.173
		c-5.996-7.192-7.589-14.941-3.1-24.022c4.339-8.776,7.599-18.112,10.962-27.337c2.579-7.073,5.981-12.803,15.685-12.479
		c-5.5-7.953-2.331-14.563,0.848-21.315c4.326-9.188,8.306-18.54,12.529-27.778c4.122-9.018,9.057-11.866,18.995-10.842
		c4.965,0.513,9.949,1.146,14.816,2.215c3.142,0.689,4.688-0.146,6.351-2.855c15.38-25.055,32.626-48.733,53.007-69.995
		c21.144-22.057,44.467-41.267,72.761-53.587c26.189-11.403,53.301-15.327,81.513-9.1c1.752,0.387,3.639,0.585,5.411,0.395
		c11.858-1.274,23.336,0.165,34.138,5.236c6.154,2.889,12.331,3.283,18.956,2.687c8.948-0.806,17.954-1.217,26.939-1.296
		c12.876-0.112,25.793-0.344,38.626,0.501c23.288,1.532,45.631,7.803,67.094,16.595c88.218,36.136,156.931,95.005,204.964,177.57
		c9.83,16.896,17.701,34.826,22.525,53.739c3.166,12.406,4.4,25.349,5.865,38.124c0.758,6.612,0.133,13.383,0.133,20.298
		c10.301,5.985,12.461,10.856,7.541,22.461c-3.006,7.092-7.326,13.806-12.055,19.915c-2.512,3.246-3.9,6.289-4.299,10.133
		c-2.146,20.7-3.682,41.492-6.686,62.068c-2.689,18.409-7.061,36.571-10.594,54.861c-2.072,10.729-7.648,18.763-17.846,23.004
		c-5.828,2.423-7.68,6.483-8.047,12.581c-3.07,50.876-11.98,100.783-26.16,149.709c-21.32,73.568-52.262,142.526-99.359,203.504
		c-24.518,31.742-52.505,59.843-87.388,80.381c-25.86,15.227-53.759,23.483-83.708,25.712c-27.893,2.076-55.712,5.131-83.569,7.694
		c-26.352,2.426-52.681,5.208-79.075,7.049c-36.816,2.566-68.634-10.391-96.779-33.294c-26.003-21.16-45.278-47.772-61.169-76.992
		c-17.913-32.939-31.153-67.734-40.283-104.061c-7.872-31.317-2.168-60.807,13.394-88.609c8.845-15.803,19.989-29.891,33.438-42.088
		c1.355-1.229,2.777-2.394,4.24-3.494c11.316-8.51,16.143-8.558,26.93,0.37c32.32,26.75,59.819,57.572,77.829,95.821
		c7.216,15.325,12.41,31.591,18.826,47.306c15.415,37.757,34.884,73.146,63.567,102.575c10.056,10.317,21.886,18.898,32.806,28.387
		c3.93,3.414,6.79,3.084,10.862-0.463c28.02-24.405,49.855-53.657,67.576-86.036c28.036-51.225,46.094-106.159,58.967-162.887
		c9.553-42.095,15.797-84.742,19.816-127.706c1.318-14.09,2.126-28.232,2.866-42.366c0.083-1.584-1.41-4.011-2.85-4.787
		c-7.177-3.87-14.448-7.631-21.938-10.837c-9.645-4.128-14.82-11.587-17.008-21.359c-2.398-10.708-4.19-21.553-6.627-32.251
		c-6.007-26.375-6.018-26.439-25.924-44.518c-24.579-22.322-48.521-45.21-67.959-72.36c-26.483-36.99-43.788-77.567-48.415-123.135
		c-0.368-3.626-0.523-7.273-0.889-12.517c-3.552,5.136-6.372,9.086-9.011,13.152c-0.441,0.68-0.438,2.03-0.068,2.794
		c2.31,4.763,0.867,9.039-1.306,13.354c-5.317,10.561-10.292,21.304-15.968,31.665c-1.689,3.084-4.858,6.102-8.059,7.403
		c-3.243,1.318-5.119,2.879-6.562,5.913c-5.788,12.168-11.797,24.23-17.692,36.347C257.704,313.337,257.26,314.767,256.656,316.317z
		 M155.253,332.999c-19.858-2.421-39.005-4.63-58.104-7.193c-3.568-0.479-4.921,0.566-6.253,3.65
		c-9.067,20.996-15.736,42.731-20.874,64.993c-0.925,4.007,0.23,6.499,3.412,8.316c2.142,1.224,4.465,2.558,6.839,2.881
		c15.816,2.16,31.662,4.104,47.518,5.953c1.117,0.131,2.906-0.719,3.503-1.666c4.781-7.594,9.549-15.208,13.945-23.028
		C154.608,370.236,157.243,352.269,155.253,332.999z M183.821,336.512c-2.261,29.983-16.15,54.216-33.459,77.655
		c16.621,1.143,32.007,2.44,47.421,3.187c13.168,0.637,18.557-4.194,21.099-17.309c2.434-12.56,4.979-25.103,7.78-37.584
		c1.48-6.597,3.611-13.048,5.602-20.106C216.068,340.4,200.333,338.503,183.821,336.512z M655.213,490.298
		c18.445,1.593,36.889,3.187,55.566,4.8c0-7.16,0-13.447,0-20.407C692.891,483.014,674.266,487.344,655.213,490.298z
		 M543.367,473.803c-0.339,2.451-0.6,4.334-0.929,6.712c10.356,0.883,20.148,1.717,29.941,2.552
		c0.029-0.231,0.057-0.463,0.086-0.693C562.982,479.58,553.501,476.788,543.367,473.803z"/>
</g>
</svg>
