<?xml version="1.0" encoding="iso-8859-1"?>
<!-- Generator: Adobe Illustrator 16.0.0, SVG Export Plug-In . SVG Version: 6.00 Build 0)  -->
<!DOCTYPE svg PUBLIC "-//W3C//DTD SVG 1.1//EN" "http://www.w3.org/Graphics/SVG/1.1/DTD/svg11.dtd">
<svg version="1.1" id="Layer_1" xmlns="http://www.w3.org/2000/svg" xmlns:xlink="http://www.w3.org/1999/xlink" x="0px" y="0px"
	 width="1120px" height="1060px" viewBox="0 0 1120 1060" enable-background="new 0 0 1120 1060" xml:space="preserve">
<g>
	<path fill-rule="evenodd" clip-rule="evenodd" d="M358.256,932.006c12.571-13.465,22.536-27.161,31.348-41.716
		c20.874-34.473,34.589-71.815,45.467-110.48c13.267-47.153,21.591-95.13,24.995-143.871c2.551-36.529,3.226-73.188,4.87-109.783
		c0.178-3.949-1.009-5.899-4.895-7.207c-7.404-2.491-14.469-5.997-21.88-8.461c-10.041-3.339-15.5-10.589-18.365-20.156
		c-4.724-15.771-9.2-31.617-13.772-47.435c-2.892-10.004-8.385-17.864-16.535-24.741c-22.648-19.111-45.804-37.715-65.715-59.873
		c-27.343-30.429-47.758-64.776-59.566-104.073c-0.281-0.934-0.585-1.86-1.32-4.186c-1.784,4.328-3.218,7.498-4.404,10.759
		c-1.654,4.546-4.615,7.552-9.27,9.051c-1.262,0.406-2.828,1.414-3.284,2.539c-5.869,14.479-11.563,29.03-17.283,43.517
		c7.429,3.771,10.657,9.451,8.777,17.844c-1.954,8.726-4.968,17.233-7.821,25.734c-7.985,23.801-12.578,48.258-14.882,73.216
		c-0.471,5.096-1.4,10.273-3.014,15.115c-5.145,15.443-16.242,24.047-32.485,24.175c-36.651,0.289-73.313,0.435-109.958-0.18
		c-23.878-0.401-39.3-13.574-42.645-35.46c-1.146-7.494-0.765-15.309-0.36-22.938c1.562-29.475,5.288-58.664,12.557-87.33
		c0.369-1.453,0.716-2.912,1.122-4.355c3.702-13.17,4.494-13.756,18.091-13.584c0.778,0.01,1.56-0.173,3.33-0.384
		c-1.338-1.236-1.999-1.989-2.792-2.554c-3.377-2.407-7.25-4.31-10.107-7.218c-7.376-7.507-11.675-15.821-7.211-26.985
		c3.446-8.618,5.648-17.748,8.178-26.714c2.009-7.12,4.11-13.981,13.781-14.97c-4.836-7.104-2.841-13.341-0.475-19.73
		c3.701-9.989,7.324-20.022,10.508-30.185c2.461-7.854,7.816-11.357,15.533-11.653c4.978-0.19,10.022-0.069,14.959,0.542
		c4.394,0.544,6.705-0.577,8.826-4.81c15.209-30.349,33.188-58.904,56.147-84.103c12.738-13.98,26.69-26.564,42.797-36.587
		c26.936-16.762,55.931-23.474,87.446-17.618c1.459,0.271,3.027,0.674,4.432,0.411c10.696-1.994,20.833-0.049,30.802,3.834
		c6.844,2.665,13.83,2.433,21.097,1.388c13.154-1.891,26.416-3.079,39.654-4.329c7.899-0.746,15.838-1.44,23.762-1.485
		c24.821-0.14,49.081,4.017,72.66,11.468c90.097,28.471,162.14,81.367,214.771,160.11c11.977,17.917,21.303,37.299,27.67,57.881
		c3.877,12.529,7.104,25.337,6.959,38.717c-0.068,6.504,0.611,13.015,0.971,19.865c0.557,0.204,1.461,0.562,2.381,0.87
		c7.035,2.357,9.734,6.118,8.805,13.473c-1.57,12.424-6.795,23.2-15.32,32.428c-1.32,1.43-2.514,3.544-2.643,5.419
		c-1.471,21.269-2.104,42.613-4.207,63.814c-2.035,20.508-5.527,40.871-8.367,61.299c-1.266,9.103-5.994,16.018-14.184,19.866
		c-8.404,3.949-10.264,9.994-10.342,18.937c-0.762,86.793-16.699,170.878-48.318,251.66
		c-20.143,51.465-46.643,99.532-84.359,140.639c-23.295,25.387-49.668,46.783-83.034,57.1c-16.905,5.227-34.681,7.838-52.199,10.839
		c-44.929,7.697-90.024,14.454-134.883,22.525c-42.597,7.665-78.937-4.653-111.094-32.073
		c-28.364-24.187-48.816-54.448-65.922-87.151c-15.562-29.75-27.661-60.926-37.033-93.142c-10.482-36.03-4.473-70.021,14.342-101.79
		c6.916-11.678,15.797-22.208,24.002-33.096c2.076-2.755,4.855-5.047,7.555-7.251c10.727-8.76,16.347-8.863,27.548-0.584
		c34.773,25.702,64.268,56.16,83.269,95.47c8.029,16.609,13.966,34.217,21.503,51.081c17.605,39.389,39.675,75.9,71.407,105.729
		C339.21,917.14,348.754,924.17,358.256,932.006z M127.55,341.125c-1.53-0.131-3.16-0.329-4.794-0.401
		c-18.304-0.807-36.616-1.465-54.907-2.498c-3.548-0.2-4.897,0.771-5.982,4.038c-6.993,21.064-11.817,42.593-15.193,64.525
		c-0.873,5.668,1.277,8.079,5.635,9.879c1.823,0.753,3.812,1.391,5.76,1.51c17.104,1.045,34.215,1.961,50.158,2.85
		C123.441,396.005,134.304,370.744,127.55,341.125z M130.063,420.915c17.219,0,33.322,0.162,49.419-0.056
		c11.351-0.153,17.069-5.606,18.567-16.753c1.948-14.493,3.871-28.991,6-43.459c0.786-5.338,2.126-10.595,3.309-16.353
		c-17.198-0.73-33.597-1.428-50.771-2.157C156.237,371.234,145.338,396.669,130.063,420.915z M608.656,478.668
		c21.016,0,42.033,0,63.496,0c-0.461-6.956-0.895-13.499-1.375-20.751C651.066,468.826,630.299,474.818,608.656,478.668z
		 M536.787,478.579c-13.775-2.738-27.801-5.525-42.206-8.389c-0.155,2.94-0.292,5.519-0.443,8.389
		C508.742,478.579,522.906,478.579,536.787,478.579z"/>
</g>
</svg>
