<?xml version="1.0" encoding="iso-8859-1"?>
<!-- Generator: Adobe Illustrator 16.0.0, SVG Export Plug-In . SVG Version: 6.00 Build 0)  -->
<!DOCTYPE svg PUBLIC "-//W3C//DTD SVG 1.1//EN" "http://www.w3.org/Graphics/SVG/1.1/DTD/svg11.dtd">
<svg version="1.1" id="Layer_1" xmlns="http://www.w3.org/2000/svg" xmlns:xlink="http://www.w3.org/1999/xlink" x="0px" y="0px"
	 width="1120px" height="1060px" viewBox="0 0 1120 1060" enable-background="new 0 0 1120 1060" xml:space="preserve">
<g>
	<path fill-rule="evenodd" clip-rule="evenodd" d="M675.104,191.505c-13.184,4.299-25.627,7.959-37.783,12.397
		c-30.496,11.135-58.973,26.3-86.096,44.076c-2.487,1.629-4.211,3.064-3.819,6.665c0.221,2.026-1.288,4.923-2.943,6.361
		c-10.435,9.07-20.982,18.029-31.867,26.547c-2.044,1.6-5.77,1.076-8.728,1.472c-1.324,0.178-3.107-0.318-3.937,0.379
		c-14.515,12.203-28.915,24.544-43.218,36.753c4.766,8.924,4.483,14.05-2.12,21.171c-5.648,6.09-12.01,11.521-18.1,17.197
		c-18.769,17.49-34.651,37.317-48.286,59.022c-2.817,4.484-6.018,8.868-9.725,12.625c-10.437,10.575-21.533,12.187-34.412,4.786
		c-9.378-5.388-18.444-11.352-27.425-17.393c-17.971-12.089-35.801-24.385-53.651-36.651c-2.74-1.883-5.375-3.949-7.888-6.128
		c-16.646-14.442-20.741-33.804-10.927-53.638c11.277-22.791,25.337-43.847,41.487-63.45c7.617-9.246,15.908-17.938,23.971-26.812
		c1.444-1.59,3.187-2.94,4.921-4.226c6.327-4.69,8.688-4.62,15.211-0.185c1.126,0.767,2.762,0.784,4.163,1.147
		c-0.347-1.385-0.457-2.889-1.082-4.134c-3.12-6.215-6.6-12.258-9.5-18.57c-1.829-3.979-0.787-7.623,2.621-10.793
		c9.636-8.967,19.049-18.172,28.612-27.217c4.912-4.646,6.813-4.834,12.843-1.554c1.751,0.952,3.4,2.099,5.056,3.216
		c1.627,1.099,3.203,2.272,5.896,4.194c-1.256-4.943-2.083-8.734-3.193-12.44c-1.606-5.36-0.521-9.458,4.023-13.206
		c9.893-8.162,19.388-16.807,29.088-25.203c5.145-4.453,8.106-4.893,13.843-1.063c5.936,3.962,11.482,8.507,17.227,12.817
		c12.382-8.11,24.592-16.479,37.157-24.272c45.171-28.019,92.942-49.958,145.253-60.989c31.256-6.591,62.682-8.179,94.303-2.725
		c1.459,0.251,3.135,0.692,4.426,0.236c9.539-3.365,18.857-1.364,27.959,1.382c16.777,5.062,32.812,11.902,48.174,20.475
		c4.686,2.615,10.662,2.843,15.965,4.439c19.367,5.833,35.729,16.867,50.844,29.915c30.791,26.582,55.436,58.437,78.117,91.901
		c36.896,54.441,64.957,113.128,83.623,176.221c5.963,20.152,10.307,40.676,11.432,61.74c0.828,15.532,0.213,30.921-5.598,45.676
		c-0.5,1.271-0.758,3.119-0.205,4.245c2.828,5.753,1.242,10.706-2.479,15.217c-2.105,2.554-4.359,5.193-7.08,6.983
		c-4.041,2.659-5.936,6.259-7.434,10.678c-10.791,31.836-24.49,62.287-43.777,90c-1.713,2.46-3.486,4.886-5.361,7.223
		c-4.176,5.203-9.363,8.631-16.32,7.955c-3.699-0.359-5.182,1.306-6.516,4.485c-36.74,87.661-90.031,164.375-156.348,231.92
		c-53.289,54.274-112.99,100.483-181.279,134.847c-40.424,20.342-82.684,35.207-127.637,41.594
		c-51.982,7.385-102.105,1.701-150.192-20.621c-43.801-20.332-88.186-39.405-132.1-59.498
		c-51.051-23.357-83.873-63.446-103.052-115.293c-4.827-13.049-8.665-26.636-11.267-40.298
		c-4.832-25.365,2.756-47.113,22.355-64.223c12.486-10.9,26.064-20.102,41.676-26.179c6.247-2.432,11.187-1.084,15.321,3.442
		c3.234,3.54,5.974,7.581,8.608,11.612c27.268,41.728,50.032,85.614,65.176,133.328c9.055,28.527,23.254,54.451,42.495,77.536
		c2.502,3.002,5.125,4.155,8.944,4.119c39.649-0.371,77.604-8.989,114.335-23.443c68.984-27.146,128.403-68.798,180.868-120.624
		c73.123-72.23,129.453-156.268,173.205-248.974c6.678-14.149,12.645-28.633,19.086-42.897c1.273-2.819,0.873-4.841-1-7.216
		c-4.848-6.146-9.139-12.751-14.201-18.705c-7.719-9.077-9.205-19.24-6.637-30.421c0.186-0.811,0.377-1.622,0.615-2.418
		c4.156-13.88,1.061-25.476-6.895-38.082c-29.871-47.326-52.285-98.087-64.285-153.04c-4.422-20.257-6.771-40.733-4.545-61.517
		C675.178,194.607,675.104,193.793,675.104,191.505z M310.697,360.83c8.853-6.025,17.244-11.445,25.321-17.297
		c14.45-10.468,24.661-24.077,29.979-41.289c1.266-4.098,0.638-6.576-3.005-9.148c-12.245-8.646-24.382-17.465-36.219-26.657
		c-3.787-2.941-5.859-2.396-9.07,0.599c-16.991,15.847-32.37,33.076-46.15,51.788c-2.609,3.543-2.804,6.564-0.637,9.974
		c1.236,1.944,2.506,4.074,4.287,5.432C287.101,343.31,299.14,352.202,310.697,360.83z M424.729,338.658
		c-11.311-8.306-22.111-16.236-33.541-24.628c-14.572,26.993-39.279,42.241-64.122,58.052c10.299,6.854,19.558,13.035,28.842,19.181
		c2.912,1.928,5.847,3.828,8.846,5.615c8.088,4.818,13.764,3.688,19.432-3.842c1.298-1.725,2.409-3.589,3.652-5.357
		c7.17-10.199,14.175-20.522,21.599-30.534C414.064,350.903,419.332,345.137,424.729,338.658z M914.004,561.811
		c6.027,4.811,10.924,8.719,16.346,13.047c1.051-3.621,1.836-6.329,2.633-9.074C926.715,564.472,921.115,563.299,914.004,561.811z"
		/>
</g>
</svg>
