<?xml version="1.0" encoding="utf-8"?>
<!-- Generator: Adobe Illustrator 24.0.1, SVG Export Plug-In . SVG Version: 6.00 Build 0)  -->
<svg version="1.1" id="Layer_1" xmlns="http://www.w3.org/2000/svg" xmlns:xlink="http://www.w3.org/1999/xlink" x="0px" y="0px"
	 viewBox="0 0 1000 210" style="enable-background:new 0 0 1000 210;" xml:space="preserve">
<g>
	<path d="M4.52,5.53H73.1c10.42,0,20.02,1.88,28.8,5.62c8.78,3.75,16.36,8.83,22.77,15.22c6.4,6.4,11.43,13.95,15.09,22.63
		c3.66,8.69,5.49,17.97,5.49,27.84s-1.83,19.2-5.49,27.98c-3.66,8.78-8.69,16.37-15.09,22.77c-6.4,6.4-14.04,11.48-22.9,15.22
		c-8.87,3.75-18.52,5.62-28.94,5.62h-31v57.33H4.52V5.53z M41.83,40.09v73.79h28.53c5.49,0,10.51-0.96,15.09-2.88
		c4.57-1.92,8.5-4.57,11.8-7.96c3.29-3.38,5.85-7.31,7.68-11.79c1.83-4.48,2.74-9.28,2.74-14.4c0-5.12-0.92-9.92-2.74-14.4
		c-1.83-4.48-4.39-8.37-7.68-11.66c-3.29-3.29-7.23-5.9-11.8-7.82c-4.57-1.92-9.6-2.88-15.09-2.88H41.83z"/>
	<path d="M235.76,208.51c-10.42,0-20.02-1.51-28.8-4.53s-16.42-7.54-22.9-13.58c-6.49-6.03-11.52-13.53-15.09-22.49
		c-3.57-8.96-5.35-19.38-5.35-31.27V5.53h37.31v133.31c0,4.94,0.87,9.56,2.61,13.85c1.74,4.3,4.16,8,7.27,11.11
		c3.11,3.11,6.76,5.58,10.97,7.41c4.2,1.83,8.78,2.74,13.72,2.74s9.51-0.91,13.72-2.74c4.2-1.83,7.91-4.29,11.11-7.41
		c3.2-3.11,5.71-6.81,7.54-11.11c1.83-4.29,2.74-8.92,2.74-13.85V5.53h37.31v131.12c0,11.89-1.83,22.31-5.49,31.27
		c-3.66,8.96-8.69,16.46-15.09,22.49c-6.4,6.04-13.99,10.56-22.77,13.58S246.18,208.51,235.76,208.51z"/>
	<path d="M330.67,5.53h63.09c22.12,0,39.27,4.76,51.43,14.26c12.16,9.51,18.24,23.41,18.24,41.69c0,17.38-7.32,30.36-21.94,38.95
		c9.33,4.21,16.5,10.15,21.53,17.83c5.03,7.68,7.54,17.1,7.54,28.25c0,19.75-6.45,34.56-19.34,44.44
		c-12.89,9.88-30.4,14.81-52.53,14.81h-68.03V5.53z M367.97,39.81v45.54h25.78c11.89,0,20.2-2.19,24.96-6.58
		c4.75-4.39,7.13-10.15,7.13-17.28c0-7.5-2.47-12.98-7.41-16.46c-4.94-3.47-13.17-5.21-24.69-5.21H367.97z M367.97,120.19v51.29
		h30.72c11.34,0,19.89-2.24,25.65-6.72c5.76-4.48,8.64-10.83,8.64-19.06c0-4.02-0.6-7.63-1.78-10.83c-1.19-3.2-3.15-5.9-5.9-8.09
		s-6.4-3.84-10.97-4.94c-4.57-1.1-10.33-1.65-17.28-1.65H367.97z"/>
	<path d="M586.32,208.51c-15.73,0-29.95-2.74-42.66-8.23c-12.71-5.49-23.64-12.93-32.78-22.36c-9.15-9.42-16.18-20.34-21.12-32.78
		c-4.94-12.43-7.41-25.6-7.41-39.5c0-14.26,2.56-27.66,7.68-40.19c5.12-12.52,12.21-23.41,21.26-32.64
		c9.05-9.23,19.84-16.55,32.37-21.94c12.53-5.39,26.2-8.09,41.01-8.09c10.42,0,20.2,1.28,29.35,3.84
		c9.14,2.56,17.6,6.08,25.38,10.56c7.77,4.48,14.72,9.88,20.85,16.18c6.12,6.31,11.29,13.21,15.5,20.71l-32.92,19.75
		c-6.22-11.52-14.13-20.2-23.73-26.06c-9.6-5.85-20.98-8.78-34.15-8.78c-9.33,0-17.97,1.78-25.92,5.35s-14.91,8.37-20.85,14.4
		c-5.95,6.03-10.56,13.08-13.85,21.12c-3.29,8.05-4.94,16.64-4.94,25.78c0,9.33,1.65,18.02,4.94,26.06
		c3.29,8.05,7.91,15.09,13.85,21.12c5.94,6.04,13.03,10.79,21.26,14.26c8.23,3.48,17.19,5.21,26.88,5.21
		c14.99,0,27.47-3.93,37.44-11.8c9.96-7.86,16.78-18.38,20.44-31.54h-63.91V93.3h103.96v14.81c0,13.54-2.29,26.38-6.86,38.54
		c-4.57,12.16-11.11,22.81-19.61,31.96c-8.5,9.15-18.79,16.42-30.86,21.81C614.85,205.81,601.31,208.51,586.32,208.51z"/>
	<path d="M739.66,110.86L676.02,5.53h41.15l41.42,69.4l41.69-69.4h41.15l-64.46,106.16v94.09h-37.31V110.86z"/>
	<path d="M925.64,208.51c-10.42,0-20.02-1.51-28.8-4.53c-8.78-3.02-16.42-7.54-22.9-13.58c-6.49-6.03-11.52-13.53-15.09-22.49
		c-3.57-8.96-5.35-19.38-5.35-31.27V5.53h37.31v133.31c0,4.94,0.87,9.56,2.61,13.85c1.74,4.3,4.16,8,7.27,11.11
		c3.11,3.11,6.76,5.58,10.97,7.41c4.2,1.83,8.78,2.74,13.71,2.74s9.51-0.91,13.72-2.74c4.2-1.83,7.91-4.29,11.11-7.41
		c3.2-3.11,5.71-6.81,7.54-11.11c1.83-4.29,2.74-8.92,2.74-13.85V5.53h37.31v131.12c0,11.89-1.83,22.31-5.49,31.27
		c-3.66,8.96-8.69,16.46-15.09,22.49c-6.4,6.04-13.99,10.56-22.77,13.58C945.66,207,936.06,208.51,925.64,208.51z"/>
</g>
</svg>
